<svg width="62" height="52" viewBox="0 0 62 52" fill="none" xmlns="http://www.w3.org/2000/svg">
<rect x="4" y="1" width="54" height="50" rx="3" stroke="#384FAE" stroke-width="2"/>
<path d="M1 21C1 20.4477 1.44772 20 2 20H60C60.5523 20 61 20.4477 61 21V25C61 25.5523 60.5523 26 60 26H2C1.44772 26 1 25.5523 1 25V21Z" fill="white" stroke="#384FAE" stroke-width="2"/>
<path d="M11 8C11 6.34315 12.3431 5 14 5H25C26.6569 5 28 6.34315 28 8V13C28 14.6569 26.6569 16 25 16H14C12.3431 16 11 14.6569 11 13V8Z" stroke="#384FAE" stroke-width="2"/>
<rect x="34" y="5" width="17" height="11" rx="3" stroke="#384FAE" stroke-width="2"/>
</svg>
