<svg width="58" height="56" viewBox="0 0 58 56" fill="none" xmlns="http://www.w3.org/2000/svg">
<rect x="4" y="1" width="50" height="54" rx="3" stroke="#384FAE" stroke-width="2"/>
<line x1="29" y1="1" x2="29" y2="55" stroke="#384FAE" stroke-width="2"/>
<path d="M2 20H56C56.5523 20 57 20.4477 57 21V25C57 25.5523 56.5523 26 56 26H2C1.44772 26 1 25.5523 1 25V21C1 20.4477 1.44772 20 2 20Z" fill="white" stroke="#384FAE" stroke-width="2"/>
<path d="M11 5H22C23.6569 5 25 6.34315 25 8V13C25 14.6569 23.6569 16 22 16H11C9.34315 16 8 14.6569 8 13V8C8 6.34315 9.34315 5 11 5Z" stroke="#384FAE" stroke-width="2"/>
<rect x="33" y="5" width="17" height="11" rx="3" stroke="#384FAE" stroke-width="2"/>
</svg>
