<svg width="58" height="56" viewBox="0 0 58 56" fill="none" xmlns="http://www.w3.org/2000/svg">
<rect x="4" y="1" width="50" height="54" rx="3" stroke="#384FAE" stroke-width="2"/>
<path d="M1 21C1 20.4477 1.44772 20 2 20H56C56.5523 20 57 20.4477 57 21V25C57 25.5523 56.5523 26 56 26H2C1.44772 26 1 25.5523 1 25V21Z" fill="white" stroke="#384FAE" stroke-width="2"/>
<path d="M10 8C10 6.34315 11.3431 5 13 5H24C25.6569 5 27 6.34315 27 8V13C27 14.6569 25.6569 16 24 16H13C11.3431 16 10 14.6569 10 13V8Z" stroke="#384FAE" stroke-width="2"/>
<rect x="31" y="5" width="17" height="11" rx="3" stroke="#384FAE" stroke-width="2"/>
</svg>
