<svg width="62" height="52" viewBox="0 0 62 52" fill="none" xmlns="http://www.w3.org/2000/svg">
<rect x="4" y="1" width="54" height="50" rx="3" stroke="#384FAE" stroke-width="2"/>
<line x1="31" y1="1" x2="31" y2="51" stroke="#384FAE" stroke-width="2"/>
<path d="M1 21C1 20.4477 1.44772 20 2 20H60C60.5523 20 61 20.4477 61 21V25C61 25.5523 60.5523 26 60 26H2C1.44772 26 1 25.5523 1 25V21Z" fill="white" stroke="#384FAE" stroke-width="2"/>
<path d="M9 8C9 6.34315 10.3431 5 12 5H23C24.6569 5 26 6.34315 26 8V13C26 14.6569 24.6569 16 23 16H12C10.3431 16 9 14.6569 9 13V8Z" stroke="#384FAE" stroke-width="2"/>
<rect x="36" y="5" width="17" height="11" rx="3" stroke="#384FAE" stroke-width="2"/>
</svg>
