<svg width="32" height="52" viewBox="0 0 32 52" fill="none" xmlns="http://www.w3.org/2000/svg">
<path fill-rule="evenodd" clip-rule="evenodd" d="M25 2H7C5.89543 2 5 2.89543 5 4V48C5 49.1046 5.89543 50 7 50H25C26.1046 50 27 49.1046 27 48V4C27 2.89543 26.1046 2 25 2ZM7 0C4.79086 0 3 1.79086 3 4V48C3 50.2091 4.79086 52 7 52H25C27.2091 52 29 50.2091 29 48V4C29 1.79086 27.2091 0 25 0H7Z" fill="#384FAE"/>
<path d="M0 21C0 19.8954 0.895431 19 2 19H30C31.1046 19 32 19.8954 32 21V25C32 26.1046 31.1046 27 30 27H2C0.895431 27 0 26.1046 0 25V21Z" fill="white"/>
<path fill-rule="evenodd" clip-rule="evenodd" d="M30 21H2V25H30V21ZM2 19C0.895431 19 0 19.8954 0 21V25C0 26.1046 0.895431 27 2 27H30C31.1046 27 32 26.1046 32 25V21C32 19.8954 31.1046 19 30 19H2Z" fill="#384FAE"/>
<path fill-rule="evenodd" clip-rule="evenodd" d="M22 6H10C8.89543 6 8 6.89543 8 8V13C8 14.1046 8.89543 15 10 15H22C23.1046 15 24 14.1046 24 13V8C24 6.89543 23.1046 6 22 6ZM10 4C7.79086 4 6 5.79086 6 8V13C6 15.2091 7.79086 17 10 17H22C24.2091 17 26 15.2091 26 13V8C26 5.79086 24.2091 4 22 4H10Z" fill="#384FAE"/>
</svg>
