<svg width="101" height="100" viewBox="0 0 101 100" fill="none" xmlns="http://www.w3.org/2000/svg">
<rect x="0.5" width="100" height="100" rx="20" fill="#384FAE"/>
<path fill-rule="evenodd" clip-rule="evenodd" d="M49.9691 19.0086C50.7178 19 50.8813 19.0258 51.1051 19.1719C51.2428 19.2664 51.4235 19.4555 51.4924 19.6015C51.5612 19.7476 51.6215 19.9539 51.6215 20.0742C51.6215 20.1945 51.5526 20.4265 51.4665 20.5984C51.3633 20.8304 51.1739 20.9937 50.7608 21.2171C50.451 21.389 49.9691 21.6811 49.6851 21.8702C49.4011 22.0593 48.8761 22.5061 48.5146 22.8584C48.1618 23.2194 47.7057 23.7436 47.5163 24.0271C47.327 24.3107 47.0344 24.8177 46.8709 25.1443C46.6987 25.4708 46.4664 26.0552 46.3459 26.4333C46.2254 26.8114 46.0877 27.4215 46.0361 27.791C45.9844 28.152 45.9414 28.7363 45.9414 29.0801C45.9414 29.4152 45.993 30.0253 46.0705 30.4292C46.1393 30.8331 46.2856 31.4346 46.3975 31.7612C46.5094 32.0877 46.759 32.6721 46.9569 33.0502C47.1549 33.4283 47.5593 34.047 47.8606 34.4251C48.1704 34.8033 48.6179 35.2931 48.8761 35.5079C49.1343 35.7228 49.5732 36.0579 49.8572 36.247C50.1412 36.436 50.5629 36.6938 50.8039 36.8141C51.0362 36.9258 51.501 37.1235 51.8366 37.2352C52.1723 37.3555 52.7058 37.5016 53.0415 37.5703C53.4029 37.6391 54.1172 37.682 54.8057 37.682C55.761 37.6735 56.1225 37.6305 56.8282 37.4414C57.3015 37.3211 58.0761 37.0289 58.5494 36.7883C59.04 36.5477 59.7285 36.1095 60.1416 35.7743C60.546 35.4564 61.1227 34.8806 61.4325 34.4939C61.7423 34.1158 62.1554 33.4885 62.3533 33.1018C62.6029 32.6291 62.8095 32.3541 62.9988 32.2338C63.1537 32.1393 63.4205 32.062 63.584 32.062C63.7475 32.062 64.0143 32.1393 64.1606 32.2338C64.3155 32.3284 64.5049 32.5518 64.5909 32.7323C64.7114 33.0158 64.72 33.1877 64.634 34.2103C64.5823 34.8462 64.4618 35.7399 64.3586 36.1868C64.2553 36.6337 64.0832 37.2953 63.9627 37.6477C63.8508 38 63.4807 38.8336 63.1537 39.4953C62.8009 40.2085 62.3103 41.0335 61.9488 41.5147C61.6132 41.9616 60.9936 42.6748 60.5891 43.0959C60.176 43.5084 59.4358 44.1615 58.9367 44.531C58.4375 44.9005 57.5855 45.4333 57.0433 45.7169C56.5011 45.9919 55.7868 46.3184 55.4512 46.4387C55.1156 46.5676 54.5562 46.7395 54.2033 46.8426C53.8505 46.9371 53.205 47.0746 52.7833 47.1434C52.353 47.2121 51.6215 47.2895 51.1481 47.3238C50.6662 47.3496 49.8572 47.3324 49.2978 47.2809C48.7556 47.2207 47.938 47.1004 47.4905 47.0059C47.043 46.9114 46.3201 46.7223 45.8984 46.5762C45.4681 46.4301 44.7365 46.1294 44.2632 45.8973C43.7898 45.6653 43.0755 45.2614 42.671 44.9864C42.2666 44.72 41.6125 44.2302 41.2166 43.8865C40.8207 43.5513 40.2097 42.9498 39.8568 42.5459C39.5126 42.142 39.0134 41.5061 38.7552 41.128C38.5057 40.7499 38.1184 40.114 37.9118 39.7101C37.6967 39.3062 37.3783 38.593 37.2061 38.1203C37.0254 37.6477 36.793 36.8571 36.6812 36.3587C36.5693 35.8602 36.4316 34.9579 36.3713 34.3392C36.2939 33.4713 36.2939 32.9643 36.3713 32.062C36.4316 31.4261 36.5349 30.6097 36.6123 30.2574C36.6898 29.905 36.8619 29.2433 37.0082 28.7965C37.1459 28.3496 37.4729 27.559 37.7225 27.0348C37.9721 26.5192 38.411 25.7458 38.695 25.3161C38.9876 24.8951 39.3233 24.4482 39.4437 24.3279C39.5728 24.2076 39.7708 24.1131 39.9171 24.1131C40.0462 24.1131 40.2441 24.1904 40.3388 24.2849C40.4507 24.3881 40.5281 24.5599 40.5195 24.7146C40.5195 24.8865 40.356 25.2044 39.9945 25.7029C39.7105 26.1067 39.2716 26.8372 39.0134 27.3356C38.7639 27.834 38.4368 28.5902 38.2905 29.0113C38.1528 29.441 37.9549 30.1714 37.8602 30.6441C37.7655 31.1167 37.6623 31.9503 37.6278 32.4916C37.5934 33.076 37.6106 33.8666 37.6709 34.4251C37.7311 34.9493 37.8516 35.7228 37.9549 36.1438C38.0495 36.5649 38.2389 37.2094 38.368 37.5617C38.4971 37.9141 38.7725 38.5328 38.9704 38.9367C39.1683 39.3406 39.5298 39.9593 39.7708 40.3116C40.0031 40.664 40.3646 41.1538 40.5625 41.3858C40.7605 41.6264 41.2166 42.0905 41.5609 42.4342C41.9137 42.7779 42.4129 43.2162 42.671 43.4138C42.9292 43.6029 43.3509 43.8951 43.5919 44.0584C43.8415 44.2216 44.3665 44.5138 44.7537 44.7029C45.1496 44.9005 45.9156 45.2099 46.4578 45.3817C46.9999 45.5622 47.8347 45.777 48.3081 45.863C48.8675 45.9575 49.6248 46.0176 50.4596 46.0176C51.1653 46.0176 52.0604 45.9661 52.439 45.9059C52.8177 45.8458 53.4201 45.7169 53.773 45.6223C54.1258 45.5278 54.8057 45.3044 55.2791 45.1239C55.7524 44.9349 56.5098 44.5654 56.9573 44.299C57.4048 44.0326 58.0847 43.5771 58.4634 43.2764C58.842 42.9842 59.4445 42.4342 59.7973 42.0647C60.1502 41.6866 60.6321 41.1366 60.8645 40.8272C61.0882 40.5179 61.4325 39.9937 61.6304 39.6671C61.8198 39.3406 62.0951 38.8164 62.2328 38.507C62.3705 38.1977 62.6029 37.6219 62.7406 37.218C62.8697 36.8141 63.059 36.0923 63.1537 35.611C63.2484 35.1212 63.3258 34.5798 63.3344 34.0814L62.8869 34.7259C62.6373 35.0782 62.1038 35.697 61.6993 36.1009C61.2948 36.5048 60.6665 37.029 60.3137 37.261C59.9608 37.493 59.3756 37.8281 59.0228 38C58.6699 38.1719 58.0503 38.4211 57.6458 38.55C57.2413 38.6703 56.527 38.8336 56.0536 38.9109C55.477 38.9968 54.8832 39.0226 54.2463 38.9968C53.7214 38.9711 52.9296 38.8593 52.4821 38.7562C52.0346 38.6531 51.3547 38.4383 50.976 38.2922C50.5973 38.1375 50.0379 37.8711 49.7281 37.6906C49.4183 37.5188 48.9535 37.218 48.6954 37.0289C48.4372 36.8313 47.9122 36.3587 47.5335 35.9806C47.1549 35.5939 46.6213 34.9579 46.3545 34.5541C46.0877 34.1502 45.7434 33.5658 45.6057 33.2479C45.4594 32.9213 45.2443 32.3627 45.1152 32.0018C44.9947 31.6323 44.8398 30.962 44.7796 30.5152C44.7107 30.0683 44.6505 29.3894 44.6505 29.0113C44.6505 28.6332 44.6935 28.0488 44.7365 27.7223C44.7882 27.3958 44.9 26.8286 44.9947 26.4763C45.0808 26.1239 45.3045 25.488 45.4853 25.0583C45.6574 24.6373 46.0275 23.9498 46.3029 23.5373C46.5782 23.1162 47.086 22.4803 47.4389 22.1194C47.7831 21.7499 48.3855 21.2171 48.7728 20.9335C49.4183 20.4609 49.4527 20.4179 49.2289 20.3921C49.0998 20.3749 48.6265 20.4265 48.179 20.5038C47.7315 20.5812 46.9569 20.7788 46.4578 20.9421C45.9586 21.1054 45.2013 21.4233 44.7796 21.6296C44.3492 21.8444 43.6866 22.2397 43.2907 22.5061C42.8948 22.7725 42.4559 23.0647 42.301 23.142C42.103 23.2451 41.9653 23.2623 41.8104 23.2108C41.6899 23.1678 41.5436 23.0045 41.4748 22.8498C41.3629 22.6006 41.3629 22.5405 41.4748 22.3514C41.5436 22.2311 41.8621 21.9475 42.1805 21.7069C42.4989 21.4749 43.0928 21.0882 43.5058 20.8476C43.9275 20.6156 44.6074 20.2804 45.0377 20.1C45.4594 19.9281 46.1565 19.6875 46.5869 19.5672C47.0086 19.4383 47.7487 19.2664 48.222 19.1805C48.6954 19.0945 49.4785 19.0172 49.9605 19.0086H49.9691ZM60.4858 19C62.405 19 62.5255 19.0086 62.7062 19.1719C62.8353 19.2836 62.9041 19.4469 62.9041 19.6273C62.9041 19.8422 62.5685 20.4265 59.8145 24.6287L61.2259 24.6716C62.5513 24.7146 62.6546 24.7232 62.8353 24.9123C62.973 25.0412 63.0246 25.1958 63.016 25.3849C63.0074 25.5568 62.9299 25.72 62.8009 25.8146C62.6201 25.9521 62.3878 25.9692 60.4944 25.9692C58.6011 25.9692 58.3687 25.9521 58.1793 25.8146C58.0503 25.7114 57.9728 25.5654 57.9728 25.4021C57.9642 25.2044 58.317 24.6029 59.3756 22.9616C60.1588 21.7585 60.8645 20.6671 61.0968 20.289H59.8231C58.6871 20.2976 58.5322 20.2804 58.317 20.1171C58.1621 19.9968 58.0761 19.8593 58.0675 19.6703C58.0589 19.4812 58.1105 19.3351 58.2568 19.1976C58.4547 19 58.4806 19 60.4858 19ZM30.0716 48.905L71.1402 48.948L71.5533 49.2058C71.8201 49.3691 72.0783 49.6269 72.5 50.3058V61.5975L72.2418 62.0186C72.0611 62.3021 71.8287 62.5256 71.037 62.9982H36.0959L35.898 62.8006C35.7775 62.6802 35.7087 62.5084 35.7087 62.3279C35.7087 62.1303 35.7689 62.0014 35.941 61.8811C36.182 61.7006 36.2164 61.7006 70.7529 61.7092L71.0025 61.4514C71.2177 61.228 71.2521 61.1334 71.2521 60.1624H29.7704V60.678C29.7704 61.1334 29.7962 61.2194 30.2868 61.7092H31.8961C33.3764 61.7006 33.5313 61.7178 33.7292 61.8725C33.8928 61.9928 33.9444 62.1217 33.9444 62.3537C33.9444 62.5857 33.8928 62.7146 33.7292 62.8349C33.5313 62.9896 33.3678 63.0068 29.9856 62.9982L29.5122 62.7232C29.1938 62.5256 28.9614 62.3021 28.5225 61.5975L28.5053 56.1321C28.4881 52.8752 28.5139 50.5464 28.5656 50.3659C28.6086 50.2026 28.7549 49.9019 28.884 49.7128C29.0504 49.4779 29.2885 49.2831 29.5983 49.1285L30.0716 48.905ZM29.8737 50.6065C29.8221 50.7096 29.7704 51.0104 29.7704 51.2768V51.7494H71.2521C71.2521 51.0104 71.2091 50.7096 71.1574 50.6065C71.0972 50.5034 70.9939 50.3659 70.9165 50.3058C70.8132 50.2284 66.3122 50.2026 50.5113 50.2026C34.7104 50.2026 30.2179 50.2284 30.1061 50.3058C30.0372 50.3659 29.9253 50.5034 29.8737 50.6065ZM29.7704 58.882H34.1596V53.0385H29.7704V58.882ZM35.4505 58.882H36.9996V53.0385H35.4505V58.882ZM38.2905 58.882H41.3027V53.0385H38.2905V58.882ZM42.5936 58.882H44.1427V53.0385H42.5936V58.882ZM45.4336 58.882H48.4458V53.0385H45.4336V58.882ZM49.7367 58.882H51.2858V53.0385H49.7367V58.882ZM52.5767 58.882H55.5889V53.0385H52.5767V58.882ZM56.8798 58.882H58.4289V53.0385H56.8798V58.882ZM59.7199 58.882H62.732V53.0385H59.7199V58.882ZM64.0229 58.882H65.572V53.0385H64.0229V58.882ZM66.863 58.882H71.2521V53.0385H66.863V58.882ZM54.7283 27.5161C55.4684 27.5161 56.1827 27.5504 56.3204 27.5934C56.4667 27.645 56.6302 27.7653 56.6991 27.877C56.7593 27.9801 56.7938 28.1692 56.7679 28.2895C56.7421 28.4012 56.243 29.2347 54.5906 31.7698L55.5631 31.8128C56.3376 31.8471 56.5614 31.8815 56.6819 32.0018C56.7765 32.0963 56.8368 32.2854 56.8368 32.4659C56.8368 32.6893 56.7852 32.8182 56.6216 32.9385C56.4237 33.0932 56.2688 33.1018 54.7713 33.1018C53.205 33.0932 53.1275 33.0846 52.9468 32.9041C52.8177 32.7838 52.7489 32.6119 52.7489 32.4573C52.7575 32.2768 53.0673 31.7182 53.7988 30.6097C54.3754 29.7332 54.8574 28.9683 54.8746 28.9082C54.8918 28.8308 54.6939 28.8051 54.0398 28.8051C53.2997 28.8051 53.162 28.7793 53.007 28.6332C52.9124 28.5301 52.8349 28.341 52.8349 28.1777C52.8349 28.0145 52.8952 27.8426 52.9812 27.7567C53.0673 27.6793 53.1964 27.602 53.2652 27.5762C53.3427 27.5504 53.9968 27.5247 54.7283 27.5161Z" fill="white"/>
<path d="M26.53 81C26.222 81 25.984 80.9207 25.816 80.762C25.6573 80.594 25.578 80.356 25.578 80.048V72.082C25.578 71.774 25.6573 71.5407 25.816 71.382C25.984 71.214 26.222 71.13 26.53 71.13H29.89C30.5807 71.13 31.1687 71.2327 31.654 71.438C32.1393 71.6433 32.508 71.9373 32.76 72.32C33.0213 72.7027 33.152 73.16 33.152 73.692C33.152 74.2893 32.9793 74.7933 32.634 75.204C32.2887 75.6147 31.8173 75.89 31.22 76.03V75.82C31.9107 75.9227 32.4473 76.184 32.83 76.604C33.2127 77.024 33.404 77.57 33.404 78.242C33.404 79.1193 33.1053 79.8007 32.508 80.286C31.92 80.762 31.0987 81 30.044 81H26.53ZM27.3 79.642H29.82C30.4547 79.642 30.9213 79.5207 31.22 79.278C31.5187 79.026 31.668 78.6527 31.668 78.158C31.668 77.654 31.5187 77.2807 31.22 77.038C30.9213 76.7953 30.4547 76.674 29.82 76.674H27.3V79.642ZM27.3 75.316H29.582C30.198 75.316 30.6553 75.1993 30.954 74.966C31.262 74.7233 31.416 74.3687 31.416 73.902C31.416 73.4353 31.262 73.0853 30.954 72.852C30.6553 72.6093 30.198 72.488 29.582 72.488H27.3V75.316ZM38.4227 81.14C37.648 81.14 36.9807 80.9953 36.4207 80.706C35.8607 80.4167 35.4267 80.006 35.1187 79.474C34.82 78.942 34.6707 78.312 34.6707 77.584C34.6707 76.8747 34.8153 76.254 35.1047 75.722C35.4033 75.19 35.8093 74.7747 36.3227 74.476C36.8453 74.168 37.438 74.014 38.1007 74.014C38.586 74.014 39.02 74.0933 39.4027 74.252C39.7947 74.4107 40.126 74.6393 40.3967 74.938C40.6767 75.2367 40.8867 75.6007 41.0267 76.03C41.176 76.45 41.2507 76.926 41.2507 77.458C41.2507 77.626 41.19 77.7567 41.0687 77.85C40.9567 77.934 40.7933 77.976 40.5787 77.976H36.0847V76.968H40.0187L39.7947 77.178C39.7947 76.7487 39.7293 76.3893 39.5987 76.1C39.4773 75.8107 39.2953 75.5913 39.0527 75.442C38.8193 75.2833 38.5253 75.204 38.1707 75.204C37.7787 75.204 37.4427 75.2973 37.1627 75.484C36.892 75.6613 36.682 75.918 36.5327 76.254C36.3927 76.5807 36.3227 76.9727 36.3227 77.43V77.528C36.3227 78.2933 36.5 78.8673 36.8547 79.25C37.2187 79.6233 37.7507 79.81 38.4507 79.81C38.6933 79.81 38.964 79.782 39.2627 79.726C39.5707 79.6607 39.86 79.5533 40.1307 79.404C40.3267 79.292 40.4993 79.2453 40.6487 79.264C40.798 79.2733 40.9147 79.3247 40.9987 79.418C41.092 79.5113 41.148 79.628 41.1667 79.768C41.1853 79.8987 41.1573 80.034 41.0827 80.174C41.0173 80.314 40.9007 80.4353 40.7327 80.538C40.406 80.7433 40.028 80.8973 39.5987 81C39.1787 81.0933 38.7867 81.14 38.4227 81.14ZM45.1426 81.14C44.7412 81.14 44.3166 81.098 43.8686 81.014C43.4206 80.93 43.0192 80.7853 42.6646 80.58C42.5152 80.4867 42.4079 80.3793 42.3426 80.258C42.2866 80.1273 42.2632 80.0013 42.2726 79.88C42.2912 79.7493 42.3379 79.6373 42.4126 79.544C42.4966 79.4507 42.5992 79.39 42.7206 79.362C42.8512 79.334 42.9912 79.3573 43.1406 79.432C43.5139 79.6093 43.8639 79.7353 44.1906 79.81C44.5172 79.8753 44.8392 79.908 45.1566 79.908C45.6046 79.908 45.9359 79.8333 46.1506 79.684C46.3746 79.5253 46.4866 79.32 46.4866 79.068C46.4866 78.8533 46.4119 78.69 46.2626 78.578C46.1226 78.4567 45.9079 78.368 45.6186 78.312L44.2186 78.046C43.6399 77.934 43.1966 77.724 42.8886 77.416C42.5899 77.0987 42.4406 76.6927 42.4406 76.198C42.4406 75.75 42.5619 75.3627 42.8046 75.036C43.0566 74.7093 43.4019 74.4573 43.8406 74.28C44.2792 74.1027 44.7832 74.014 45.3526 74.014C45.7632 74.014 46.1459 74.0607 46.5006 74.154C46.8646 74.238 47.2146 74.3733 47.5506 74.56C47.6906 74.6347 47.7839 74.7327 47.8306 74.854C47.8866 74.9753 47.9006 75.1013 47.8726 75.232C47.8446 75.3533 47.7886 75.4653 47.7046 75.568C47.6206 75.6613 47.5132 75.722 47.3826 75.75C47.2612 75.7687 47.1212 75.7407 46.9626 75.666C46.6732 75.5167 46.3932 75.4093 46.1226 75.344C45.8612 75.2787 45.6092 75.246 45.3666 75.246C44.9092 75.246 44.5686 75.3253 44.3446 75.484C44.1299 75.6427 44.0226 75.8527 44.0226 76.114C44.0226 76.31 44.0879 76.4733 44.2186 76.604C44.3492 76.7347 44.5499 76.8233 44.8206 76.87L46.2206 77.136C46.8272 77.248 47.2846 77.4533 47.5926 77.752C47.9099 78.0507 48.0686 78.452 48.0686 78.956C48.0686 79.6373 47.8026 80.174 47.2706 80.566C46.7386 80.9487 46.0292 81.14 45.1426 81.14ZM52.5401 81.14C51.9335 81.14 51.4248 81.0373 51.0141 80.832C50.6128 80.6267 50.3141 80.328 50.1181 79.936C49.9221 79.5347 49.8241 79.04 49.8241 78.452V75.47H49.0961C48.8721 75.47 48.6995 75.414 48.5781 75.302C48.4568 75.1807 48.3961 75.0173 48.3961 74.812C48.3961 74.5973 48.4568 74.434 48.5781 74.322C48.6995 74.21 48.8721 74.154 49.0961 74.154H49.8241V72.88C49.8241 72.5907 49.8988 72.3713 50.0481 72.222C50.2068 72.0727 50.4261 71.998 50.7061 71.998C50.9861 71.998 51.2008 72.0727 51.3501 72.222C51.4995 72.3713 51.5741 72.5907 51.5741 72.88V74.154H53.0581C53.2821 74.154 53.4548 74.21 53.5761 74.322C53.6975 74.434 53.7581 74.5973 53.7581 74.812C53.7581 75.0173 53.6975 75.1807 53.5761 75.302C53.4548 75.414 53.2821 75.47 53.0581 75.47H51.5741V78.354C51.5741 78.802 51.6721 79.138 51.8681 79.362C52.0641 79.586 52.3815 79.698 52.8201 79.698C52.9788 79.698 53.1188 79.684 53.2401 79.656C53.3615 79.628 53.4688 79.6093 53.5621 79.6C53.6741 79.5907 53.7675 79.628 53.8421 79.712C53.9168 79.7867 53.9541 79.9453 53.9541 80.188C53.9541 80.3747 53.9215 80.5427 53.8561 80.692C53.8001 80.832 53.6928 80.93 53.5341 80.986C53.4128 81.0233 53.2541 81.056 53.0581 81.084C52.8621 81.1213 52.6895 81.14 52.5401 81.14ZM59.922 81.112C59.642 81.112 59.4226 81.0373 59.264 80.888C59.1146 80.7293 59.04 80.5053 59.04 80.216V75.47H58.396C58.172 75.47 57.9993 75.414 57.878 75.302C57.7566 75.1807 57.696 75.0173 57.696 74.812C57.696 74.5973 57.7566 74.434 57.878 74.322C57.9993 74.21 58.172 74.154 58.396 74.154H59.544L59.04 74.616V74.14C59.04 73.1787 59.2826 72.46 59.768 71.984C60.2533 71.4987 60.9533 71.214 61.868 71.13L62.344 71.088C62.5306 71.0693 62.68 71.102 62.792 71.186C62.904 71.2607 62.9786 71.3633 63.016 71.494C63.0533 71.6153 63.058 71.7413 63.03 71.872C63.002 72.0027 62.9413 72.1193 62.848 72.222C62.764 72.3153 62.652 72.3667 62.512 72.376L62.316 72.39C61.784 72.4273 61.3966 72.5627 61.154 72.796C60.9113 73.0293 60.79 73.384 60.79 73.86V74.378L60.566 74.154H61.98C62.204 74.154 62.3766 74.21 62.498 74.322C62.6193 74.434 62.68 74.5973 62.68 74.812C62.68 75.0173 62.6193 75.1807 62.498 75.302C62.3766 75.414 62.204 75.47 61.98 75.47H60.79V80.216C60.79 80.8133 60.5006 81.112 59.922 81.112ZM66.6218 81.14C65.9125 81.14 65.2965 80.9953 64.7738 80.706C64.2512 80.4167 63.8452 80.006 63.5558 79.474C63.2665 78.9327 63.1218 78.298 63.1218 77.57C63.1218 77.0193 63.2012 76.5293 63.3598 76.1C63.5278 75.6613 63.7658 75.288 64.0738 74.98C64.3818 74.6627 64.7505 74.4247 65.1798 74.266C65.6092 74.098 66.0898 74.014 66.6218 74.014C67.3312 74.014 67.9472 74.1587 68.4698 74.448C68.9925 74.7373 69.3985 75.148 69.6878 75.68C69.9772 76.212 70.1218 76.842 70.1218 77.57C70.1218 78.1207 70.0378 78.6153 69.8698 79.054C69.7112 79.4927 69.4778 79.8707 69.1698 80.188C68.8618 80.496 68.4932 80.734 68.0638 80.902C67.6345 81.0607 67.1538 81.14 66.6218 81.14ZM66.6218 79.81C66.9672 79.81 67.2705 79.726 67.5318 79.558C67.7932 79.39 67.9938 79.1427 68.1338 78.816C68.2832 78.48 68.3578 78.0647 68.3578 77.57C68.3578 76.8233 68.1992 76.268 67.8818 75.904C67.5645 75.5307 67.1445 75.344 66.6218 75.344C66.2765 75.344 65.9732 75.428 65.7118 75.596C65.4505 75.7547 65.2452 76.002 65.0958 76.338C64.9558 76.6647 64.8858 77.0753 64.8858 77.57C64.8858 78.3073 65.0445 78.8673 65.3618 79.25C65.6792 79.6233 66.0992 79.81 66.6218 79.81ZM72.4623 81.112C72.1729 81.112 71.9489 81.0373 71.7903 80.888C71.6409 80.7293 71.5663 80.5053 71.5663 80.216V74.924C71.5663 74.6347 71.6409 74.4153 71.7903 74.266C71.9396 74.1167 72.1496 74.042 72.4203 74.042C72.6909 74.042 72.9009 74.1167 73.0503 74.266C73.1996 74.4153 73.2743 74.6347 73.2743 74.924V75.806H73.1343C73.2649 75.246 73.5216 74.8213 73.9043 74.532C74.2869 74.2427 74.7956 74.07 75.4303 74.014C75.6263 73.9953 75.7803 74.0467 75.8923 74.168C76.0136 74.28 76.0836 74.4573 76.1023 74.7C76.1209 74.9333 76.0649 75.1247 75.9343 75.274C75.8129 75.414 75.6263 75.498 75.3743 75.526L75.0663 75.554C74.4969 75.61 74.0676 75.7873 73.7783 76.086C73.4889 76.3753 73.3443 76.786 73.3443 77.318V80.216C73.3443 80.5053 73.2696 80.7293 73.1203 80.888C72.9709 81.0373 72.7516 81.112 72.4623 81.112Z" fill="white"/>
</svg>
