<svg width="200" height="164" viewBox="0 0 200 164" fill="none" xmlns="http://www.w3.org/2000/svg">
<path d="M0 45.5663C0 43.1552 0.957789 40.8429 2.66267 39.138C4.36754 37.4331 6.67985 36.4753 9.09091 36.4753H78.0545L57.2091 15.6299C56.3408 14.7913 55.6483 13.7882 55.1718 12.679C54.6954 11.5699 54.4446 10.377 54.4341 9.1699C54.4236 7.96282 54.6536 6.76573 55.1107 5.64849C55.5678 4.53125 56.2428 3.51624 57.0964 2.66267C57.95 1.8091 58.965 1.13407 60.0822 0.676969C61.1995 0.21987 62.3966 -0.010146 63.6036 0.000343243C64.8107 0.0108325 66.0036 0.261617 67.1128 0.738062C68.2219 1.21451 69.225 1.90707 70.0636 2.77535L106.427 39.139C108.132 40.8438 109.089 43.1557 109.089 45.5663C109.089 47.9768 108.132 50.2887 106.427 51.9935L70.0636 88.3572C69.225 89.2254 68.2219 89.918 67.1128 90.3945C66.0036 90.8709 64.8107 91.1217 63.6036 91.1322C62.3966 91.1427 61.1995 90.9126 60.0822 90.4555C58.965 89.9984 57.95 89.3234 57.0964 88.4698C56.2428 87.6163 55.5678 86.6013 55.1107 85.484C54.6536 84.3668 54.4236 83.1697 54.4341 81.9626C54.4446 80.7555 54.6954 79.5626 55.1718 78.4535C55.6483 77.3444 56.3408 76.3412 57.2091 75.5026L78.0545 54.6572H9.09091C6.67985 54.6572 4.36754 53.6994 2.66267 51.9945C0.957789 50.2896 0 47.9773 0 45.5663ZM190.909 109.203H121.945L142.791 88.3572C144.447 86.6426 145.363 84.3462 145.342 81.9626C145.322 79.579 144.366 77.2989 142.68 75.6134C140.995 73.9278 138.715 72.9718 136.331 72.951C133.947 72.9303 131.651 73.8466 129.936 75.5026L93.5727 111.866C91.8684 113.571 90.911 115.883 90.911 118.294C90.911 120.704 91.8684 123.016 93.5727 124.721L129.936 161.084C131.651 162.74 133.947 163.657 136.331 163.636C138.715 163.615 140.995 162.659 142.68 160.974C144.366 159.288 145.322 157.008 145.342 154.624C145.363 152.241 144.447 149.944 142.791 148.23L121.945 127.384H190.909C193.32 127.384 195.632 126.427 197.337 124.722C199.042 123.017 200 120.705 200 118.294C200 115.882 199.042 113.57 197.337 111.865C195.632 110.16 193.32 109.203 190.909 109.203Z" fill="#384FAE"/>
</svg>
