<svg width="101" height="100" viewBox="0 0 101 100" fill="none" xmlns="http://www.w3.org/2000/svg">
<rect x="0.5" width="100" height="100" rx="20" fill="#384FAE"/>
<mask id="path-2-inside-1_2246_25183" fill="white">
<path fill-rule="evenodd" clip-rule="evenodd" d="M37.8645 34.4351C38.1417 34.4256 38.4857 34.4829 38.6386 34.5594C38.782 34.6263 38.9253 34.7601 38.9731 34.8461C39.0113 34.9321 39.04 35.1423 39.04 35.3143C39.04 35.515 38.9731 35.687 38.8298 35.8208C38.6577 35.9833 38.4475 36.0406 37.8932 36.0789C37.3007 36.1267 37.1382 36.1744 36.9758 36.356C36.8611 36.4802 34.8924 39.5575 32.5988 43.1986C30.3052 46.8301 28.4321 49.8309 28.4321 49.8596C28.4321 49.8882 38.3615 49.9073 50.508 49.9073C62.6545 49.9073 72.5839 49.8882 72.5839 49.8596C72.5839 49.8309 70.7108 46.8301 68.4172 43.1986C66.1236 39.5575 64.1549 36.4802 64.0402 36.356C63.8778 36.1744 63.7153 36.1267 63.1228 36.0789C62.5685 36.0406 62.3582 35.9833 62.1862 35.8208C62.0333 35.6775 61.976 35.515 61.976 35.2666C61.976 35.0372 62.0429 34.8365 62.1671 34.7123C62.2722 34.6071 62.4729 34.4925 62.6258 34.4638C62.7692 34.4256 63.161 34.4256 63.505 34.4638C63.8491 34.4925 64.2982 34.6071 64.5085 34.7027C64.7187 34.7983 65.0246 35.0276 65.1966 35.1997C65.359 35.3812 67.4997 38.6878 69.9367 42.5487C72.3736 46.4096 74.457 49.7449 74.5621 49.9551C74.6672 50.1654 74.801 50.5285 74.8679 50.7674C74.9539 51.0828 74.973 52.5259 74.9539 56.2147C74.9252 61.146 74.9252 61.2415 74.715 61.6142C74.6003 61.8245 74.371 62.1303 74.1894 62.2928C74.0174 62.4648 73.6924 62.6846 73.0617 63H27.9543L27.5051 62.7706C27.2471 62.6464 26.9126 62.3979 26.7406 62.2163C26.5781 62.0443 26.3488 61.7098 26.2437 61.4709C26.0525 61.06 26.043 60.8593 26.043 56.1192C26.043 52.3156 26.0716 51.0924 26.1768 50.7197C26.2437 50.4521 26.3775 50.0889 26.473 49.9073C26.5686 49.7258 28.6424 46.4096 31.0793 42.5487C33.5258 38.6878 35.657 35.3812 35.8194 35.2092C35.9914 35.0276 36.2399 34.8269 36.3833 34.7505C36.5362 34.674 36.8133 34.5785 37.0044 34.5307C37.2051 34.4829 37.597 34.4447 37.8645 34.4351ZM27.6676 53.2522H32.0637C32.4555 53.644 32.5415 53.8351 32.5415 54.0358C32.5415 54.2556 32.465 54.4276 32.293 54.5901L32.0445 54.829L27.6676 54.8768V60.8019L28.241 61.3753H72.7941L73.3484 60.8019V54.8768L35.4849 54.829C35.1218 54.4181 35.0262 54.1792 35.0262 54.0167C35.0262 53.8447 35.1122 53.6344 35.2651 53.4911L35.4945 53.2522H73.3484V51.6275H27.6676V53.2522ZM39.8714 37.7704C40.0435 37.7704 40.2728 37.8086 40.3779 37.866C40.4831 37.9233 40.6073 38.0858 40.6646 38.2482C40.7284 38.4394 40.7284 38.6305 40.6646 38.8216C40.6073 38.9745 40.4831 39.1466 40.3779 39.2039C40.2728 39.2612 40.0435 39.2995 39.8714 39.2995C39.6899 39.2995 39.4796 39.2134 39.3458 39.0797C39.212 38.9554 39.126 38.7452 39.1165 38.5445C39.1069 38.3056 39.1643 38.1527 39.3267 37.9902C39.4701 37.8468 39.6612 37.7704 39.8714 37.7704ZM61.1159 37.7704C61.3357 37.7704 61.5268 37.8468 61.6702 37.9902C61.8135 38.1336 61.8804 38.3056 61.8804 38.5349C61.8804 38.7452 61.7944 38.9459 61.6606 39.0892C61.5268 39.223 61.3357 39.2995 61.135 39.2995C60.9725 39.2995 60.7432 39.2612 60.638 39.2039C60.5329 39.1466 60.3991 38.9745 60.3513 38.8216C60.2845 38.6305 60.2845 38.4489 60.3513 38.2673C60.4087 38.124 60.5234 37.952 60.6189 37.8851C60.7049 37.8277 60.9247 37.7704 61.1159 37.7704ZM38.2468 41.7937C38.3137 41.7842 38.4762 41.8224 38.61 41.8798C38.7438 41.9275 38.9062 42.1187 38.9827 42.2811C39.0496 42.4532 39.0782 42.7016 39.0496 42.8259C39.0209 42.9501 38.8871 43.1412 38.7533 43.2368C38.6195 43.3324 38.4093 43.4184 38.2755 43.4184C38.1417 43.4184 37.9314 43.3324 37.7977 43.2368C37.6639 43.1412 37.5301 42.9501 37.5014 42.8259C37.4632 42.7016 37.511 42.4627 37.5874 42.2811C37.6639 42.1091 37.8263 41.9371 37.9314 41.8798C38.0461 41.832 38.1895 41.7937 38.2468 41.7937ZM46.4655 41.7842C46.5898 41.7842 46.8096 41.918 46.972 42.0709C47.1249 42.2238 47.2587 42.4436 47.2587 42.5487C47.2587 42.6538 47.211 42.8354 47.1441 42.9501C47.0867 43.0743 46.972 43.2177 46.886 43.2846C46.8 43.3515 46.5898 43.4088 46.4177 43.4088C46.2139 43.4088 46.0323 43.3292 45.873 43.1699C45.7137 43.0106 45.6341 42.8259 45.6341 42.6156C45.6341 42.4532 45.6914 42.2429 45.7583 42.1569C45.8252 42.0804 45.959 41.9562 46.0642 41.8989C46.1693 41.8415 46.3509 41.7842 46.4655 41.7842ZM54.5122 41.7842C54.6269 41.7842 54.8085 41.832 54.9232 41.8989C55.0474 41.9562 55.1908 42.0709 55.2577 42.1569C55.3246 42.2429 55.3819 42.4532 55.3819 42.6156C55.3819 42.8259 55.3054 43.017 55.143 43.1699C54.9901 43.3324 54.8085 43.4088 54.5982 43.4088C54.4262 43.4088 54.216 43.3515 54.13 43.2846C54.044 43.2177 53.9293 43.0743 53.8719 42.9501C53.805 42.8354 53.7573 42.6538 53.7668 42.5392C53.7668 42.434 53.8911 42.2142 54.044 42.0613C54.1969 41.9084 54.4071 41.7842 54.5122 41.7842ZM62.7118 41.7937C62.7787 41.7842 62.9412 41.8224 63.075 41.8798C63.2088 41.9275 63.3713 42.1187 63.4477 42.2811C63.5146 42.4532 63.5433 42.7016 63.5146 42.8259C63.4859 42.9501 63.3521 43.1412 63.2183 43.2368C63.0845 43.3324 62.8743 43.4184 62.7405 43.4184C62.6067 43.4184 62.3965 43.3324 62.2627 43.2368C62.1289 43.1412 61.9951 42.9501 61.9664 42.8259C61.9282 42.7016 61.976 42.4627 62.0524 42.2811C62.1289 42.1091 62.2913 41.9371 62.3965 41.8798C62.5112 41.832 62.6545 41.7937 62.7118 41.7937ZM36.6509 45.8936C36.7846 45.884 37.0044 45.97 37.1478 46.0847C37.3676 46.2376 37.4154 46.3523 37.4154 46.6581C37.4154 46.9129 37.3517 47.1041 37.2243 47.2315C37.1191 47.3366 36.9376 47.4513 36.8133 47.48C36.6986 47.5086 36.4884 47.48 36.3355 47.4322C36.1826 47.3653 36.0201 47.1933 35.9341 46.9926C35.829 46.7441 35.8194 46.5912 35.8863 46.4192C35.9341 46.2854 36.0775 46.1134 36.1921 46.0369C36.3164 45.9604 36.5171 45.8936 36.6509 45.8936ZM45.5959 45.8936C45.8157 45.8936 45.9973 45.97 46.1597 46.1325C46.3126 46.2854 46.3986 46.4765 46.3986 46.6581C46.3986 46.811 46.37 47.0117 46.3222 47.0977C46.284 47.1837 46.1406 47.3175 45.9877 47.3844C45.8444 47.4608 45.6437 47.5182 45.5385 47.5182C45.4334 47.5182 45.2423 47.4226 45.1085 47.2984C44.9747 47.1837 44.8409 46.9543 44.8122 46.8014C44.7644 46.5816 44.8122 46.4478 45.0129 46.1994C45.2136 45.9604 45.3378 45.8936 45.5959 45.8936ZM55.4297 45.8936C55.6973 45.8936 55.8119 45.9604 56.0126 46.1994C56.2038 46.4478 56.2515 46.5816 56.2038 46.8014C56.1751 46.9543 56.0413 47.1837 55.9075 47.2984C55.7737 47.4226 55.5826 47.5182 55.4775 47.5182C55.3723 47.5182 55.1716 47.4608 55.0187 47.3844C54.8754 47.3175 54.732 47.1837 54.6843 47.0977C54.646 47.0117 54.6174 46.811 54.6174 46.6581C54.6269 46.4765 54.7225 46.2663 54.8563 46.1325C55.0187 45.97 55.1908 45.8936 55.4297 45.8936ZM64.3556 45.8936C64.4894 45.8936 64.6996 45.9604 64.8143 46.0369C64.9385 46.1134 65.0723 46.2854 65.1297 46.4192C65.1966 46.5912 65.187 46.7441 65.0819 46.9926C64.9959 47.1933 64.8334 47.3653 64.671 47.4226C64.5276 47.48 64.2982 47.4991 64.1453 47.4704C64.002 47.4417 63.8204 47.327 63.744 47.2028C63.6675 47.0881 63.5911 46.8301 63.5911 46.639C63.5815 46.3618 63.6388 46.2471 63.8491 46.0942C63.9924 45.9796 64.2218 45.8936 64.3556 45.8936Z"/>
<path d="M50.543 29.83L53.298 32.585C53.4721 32.7592 53.6938 32.8462 53.963 32.8462C54.2321 32.8462 54.4538 32.7592 54.628 32.585C54.8021 32.4108 54.8892 32.1892 54.8892 31.92C54.8892 31.6508 54.8021 31.4292 54.628 31.255L51.873 28.5L54.628 25.745C54.8021 25.5708 54.8892 25.3492 54.8892 25.08C54.8892 24.8108 54.8021 24.5892 54.628 24.415C54.4538 24.2408 54.2321 24.1537 53.963 24.1537C53.6938 24.1537 53.4721 24.2408 53.298 24.415L50.543 27.17L47.788 24.415C47.6138 24.2408 47.3921 24.1537 47.123 24.1537C46.8538 24.1537 46.6321 24.2408 46.458 24.415C46.2838 24.5892 46.1967 24.8108 46.1967 25.08C46.1967 25.3492 46.2838 25.5708 46.458 25.745L49.213 28.5L46.458 31.255C46.2838 31.4292 46.1967 31.6508 46.1967 31.92C46.1967 32.1892 46.2838 32.4108 46.458 32.585C46.6321 32.7592 46.8538 32.8462 47.123 32.8462C47.3921 32.8462 47.6138 32.7592 47.788 32.585L50.543 29.83ZM50.543 38C49.2288 38 47.9938 37.7505 46.838 37.2514C45.6821 36.7523 44.6767 36.0756 43.8217 35.2212C42.9667 34.3662 42.29 33.3608 41.7916 32.205C41.2931 31.0492 41.0436 29.8142 41.043 28.5C41.043 27.1858 41.2925 25.9508 41.7916 24.795C42.2906 23.6392 42.9674 22.6337 43.8217 21.7787C44.6767 20.9238 45.6821 20.247 46.838 19.7486C47.9938 19.2502 49.2288 19.0006 50.543 19C51.8571 19 53.0921 19.2495 54.248 19.7486C55.4038 20.2477 56.4092 20.9244 57.2642 21.7787C58.1192 22.6337 58.7963 23.6392 59.2953 24.795C59.7944 25.9508 60.0436 27.1858 60.043 28.5C60.043 29.8142 59.7934 31.0492 59.2944 32.205C58.7953 33.3608 58.1186 34.3662 57.2642 35.2212C56.4092 36.0762 55.4038 36.7533 54.248 37.2523C53.0921 37.7514 51.8571 38.0006 50.543 38ZM50.543 36.1C52.6646 36.1 54.4617 35.3637 55.9342 33.8912C57.4067 32.4187 58.143 30.6217 58.143 28.5C58.143 26.3783 57.4067 24.5812 55.9342 23.1087C54.4617 21.6362 52.6646 20.9 50.543 20.9C48.4213 20.9 46.6242 21.6362 45.1517 23.1087C43.6792 24.5812 42.943 26.3783 42.943 28.5C42.943 30.6217 43.6792 32.4187 45.1517 33.8912C46.6242 35.3637 48.4213 36.1 50.543 36.1Z"/>
</mask>
<path d="M37.8645 34.4351L37.8301 33.4357L37.8289 33.4358L37.8645 34.4351ZM38.6386 34.5594L38.1914 35.4538C38.1995 35.4578 38.2076 35.4617 38.2158 35.4655L38.6386 34.5594ZM38.9731 34.8461L39.8869 34.4399C39.8749 34.4128 39.8617 34.3863 39.8473 34.3604L38.9731 34.8461ZM38.8298 35.8208L38.1474 35.0898L38.1431 35.0938L38.8298 35.8208ZM37.8932 36.0789L37.8244 35.0812L37.8128 35.0821L37.8932 36.0789ZM36.9758 36.356L37.7106 37.0343C37.7141 37.0305 37.7176 37.0267 37.721 37.0228L36.9758 36.356ZM32.5988 43.1986L33.4443 43.7326L33.445 43.7316L32.5988 43.1986ZM68.4172 43.1986L67.571 43.7316L67.5717 43.7326L68.4172 43.1986ZM64.0402 36.356L63.295 37.0228C63.2984 37.0267 63.3019 37.0305 63.3054 37.0343L64.0402 36.356ZM63.1228 36.0789L63.2032 35.082L63.1916 35.0812L63.1228 36.0789ZM62.1862 35.8208L62.8729 35.0938L62.8702 35.0913L62.1862 35.8208ZM62.1671 34.7123L62.8742 35.4194L62.1671 34.7123ZM62.6258 34.4638L62.8101 35.4467C62.8348 35.442 62.8593 35.4365 62.8835 35.43L62.6258 34.4638ZM63.505 34.4638L63.3946 35.4577C63.4037 35.4587 63.4129 35.4596 63.422 35.4603L63.505 34.4638ZM65.1966 35.1997L65.9418 34.5329C65.9295 34.5191 65.9168 34.5056 65.9037 34.4926L65.1966 35.1997ZM74.8679 50.7674L75.8327 50.5043L75.8309 50.4978L74.8679 50.7674ZM74.9539 56.2147L75.9539 56.2206V56.2199L74.9539 56.2147ZM74.715 61.6142L73.844 61.1229C73.8417 61.1271 73.8394 61.1312 73.8371 61.1354L74.715 61.6142ZM74.1894 62.2928L73.5226 61.5475C73.5088 61.5599 73.4954 61.5726 73.4823 61.5857L74.1894 62.2928ZM73.0617 63V64C73.2169 64 73.3701 63.9638 73.5089 63.8944L73.0617 63ZM27.9543 63L27.4995 63.8906C27.6403 63.9625 27.7962 64 27.9543 64V63ZM27.5051 62.7706L27.9599 61.88C27.953 61.8764 27.946 61.873 27.939 61.8696L27.5051 62.7706ZM26.7406 62.2163L26.0136 62.9029L26.0147 62.9041L26.7406 62.2163ZM26.2437 61.4709L27.159 61.0682C27.1562 61.0618 27.1533 61.0555 27.1504 61.0492L26.2437 61.4709ZM26.1768 50.7197L27.1392 50.9911C27.1419 50.9815 27.1445 50.9719 27.1469 50.9622L26.1768 50.7197ZM31.0793 42.5487L30.2346 42.0135L30.2337 42.015L31.0793 42.5487ZM35.8194 35.2092L35.0935 34.5215L35.0924 34.5226L35.8194 35.2092ZM36.3833 34.7505L35.9361 33.8561C35.9282 33.86 35.9204 33.864 35.9127 33.8681L36.3833 34.7505ZM37.0044 34.5307L36.7728 33.5578L36.7619 33.5605L37.0044 34.5307ZM27.6676 53.2522H26.6676C26.6676 53.8045 27.1153 54.2522 27.6676 54.2522V53.2522ZM32.0637 53.2522L32.7708 52.5451C32.5832 52.3575 32.3289 52.2522 32.0637 52.2522V53.2522ZM32.293 54.5901L31.6064 53.8631L31.5999 53.8693L32.293 54.5901ZM32.0445 54.829L32.0555 55.829C32.3101 55.8262 32.5541 55.7264 32.7377 55.5499L32.0445 54.829ZM27.6676 54.8768L27.6567 53.8769C27.1087 53.8829 26.6676 54.3288 26.6676 54.8768H27.6676ZM27.6676 60.8019H26.6676C26.6676 61.0672 26.773 61.3215 26.9605 61.509L27.6676 60.8019ZM28.241 61.3753L27.5339 62.0824C27.7214 62.27 27.9758 62.3753 28.241 62.3753V61.3753ZM72.7941 61.3753V62.3753C73.0652 62.3753 73.3247 62.2653 73.5131 62.0704L72.7941 61.3753ZM73.3484 60.8019L74.0674 61.497C74.2476 61.3105 74.3484 61.0613 74.3484 60.8019H73.3484ZM73.3484 54.8768H74.3484C74.3484 54.325 73.9015 53.8775 73.3497 53.8768L73.3484 54.8768ZM35.4849 54.829L34.7356 55.4912C34.9251 55.7057 35.1975 55.8287 35.4837 55.829L35.4849 54.829ZM35.2651 53.4911L35.9491 54.2206C35.9619 54.2086 35.9744 54.1963 35.9865 54.1836L35.2651 53.4911ZM35.4945 53.2522V52.2522C35.2222 52.2522 34.9617 52.3632 34.7731 52.5596L35.4945 53.2522ZM73.3484 53.2522V54.2522C73.9007 54.2522 74.3484 53.8045 74.3484 53.2522H73.3484ZM73.3484 51.6275H74.3484C74.3484 51.0753 73.9007 50.6275 73.3484 50.6275V51.6275ZM27.6676 51.6275V50.6275C27.1153 50.6275 26.6676 51.0753 26.6676 51.6275H27.6676ZM40.6646 38.2482L41.6133 37.932C41.6115 37.9265 41.6096 37.9209 41.6076 37.9154L40.6646 38.2482ZM40.6646 38.8216L41.601 39.1728C41.6053 39.1612 41.6094 39.1496 41.6133 39.1379L40.6646 38.8216ZM39.3458 39.0797L40.0529 38.3725C40.0442 38.3638 40.0353 38.3553 40.0263 38.3469L39.3458 39.0797ZM39.1165 38.5445L38.1172 38.5845L38.1176 38.5921L39.1165 38.5445ZM39.3267 37.9902L40.0338 38.6973L39.3267 37.9902ZM61.6606 39.0892L62.3677 39.7963C62.3758 39.7882 62.3838 39.7799 62.3917 39.7715L61.6606 39.0892ZM60.3513 38.8216L61.3058 38.5234C61.3025 38.5126 61.2989 38.5019 61.2952 38.4913L60.3513 38.8216ZM60.3513 38.2673L59.4229 37.896C59.4195 37.9045 59.4162 37.913 59.413 37.9216L60.3513 38.2673ZM60.6189 37.8851L60.0642 37.053C60.0579 37.0572 60.0517 37.0615 60.0455 37.0658L60.6189 37.8851ZM38.2468 41.7937V42.7937H38.3179L38.3882 42.7837L38.2468 41.7937ZM38.61 41.8798L38.216 42.7989C38.235 42.807 38.2542 42.8146 38.2736 42.8215L38.61 41.8798ZM38.9827 42.2811L39.9147 41.9187C39.9063 41.8973 39.8973 41.8761 39.8875 41.8553L38.9827 42.2811ZM37.5014 42.8259L38.4758 42.601C38.4704 42.5777 38.4642 42.5546 38.4572 42.5318L37.5014 42.8259ZM37.5874 42.2811L36.6736 41.875C36.6709 41.881 36.6683 41.887 36.6658 41.8931L37.5874 42.2811ZM37.9314 41.8798L37.5468 40.9567C37.5147 40.9701 37.4832 40.9852 37.4526 41.0019L37.9314 41.8798ZM46.972 42.0709L47.6791 41.3638C47.672 41.3566 47.6648 41.3496 47.6574 41.3427L46.972 42.0709ZM47.1441 42.9501L46.2803 42.4462C46.2642 42.4738 46.2495 42.5021 46.2361 42.531L47.1441 42.9501ZM45.7583 42.1569L45.0058 41.4984C44.9931 41.5129 44.9808 41.5278 44.969 41.543L45.7583 42.1569ZM54.9232 41.8989L54.4193 42.7626C54.4469 42.7787 54.4752 42.7935 54.5041 42.8068L54.9232 41.8989ZM55.143 43.1699L54.4576 42.4417C54.4429 42.4555 54.4286 42.4698 54.4148 42.4845L55.143 43.1699ZM53.8719 42.9501L54.7799 42.531C54.7665 42.5021 54.7518 42.4738 54.7357 42.4462L53.8719 42.9501ZM53.7668 42.5392L54.7634 42.6222C54.7657 42.5946 54.7668 42.5669 54.7668 42.5392H53.7668ZM62.7118 41.7937V42.7937H62.7829L62.8533 42.7837L62.7118 41.7937ZM63.075 41.8798L62.6811 42.7989C62.7 42.807 62.7192 42.8146 62.7387 42.8215L63.075 41.8798ZM63.4477 42.2811L64.3797 41.9187C64.3714 41.8973 64.3623 41.8761 64.3525 41.8553L63.4477 42.2811ZM61.9664 42.8259L62.9408 42.601C62.9354 42.5777 62.9292 42.5546 62.9222 42.5318L61.9664 42.8259ZM62.0524 42.2811L61.1386 41.875C61.136 41.881 61.1333 41.887 61.1308 41.8931L62.0524 42.2811ZM62.3965 41.8798L62.0119 40.9567C61.9797 40.9701 61.9482 40.9852 61.9176 41.0019L62.3965 41.8798ZM36.6509 45.8936V46.8936C36.6746 46.8936 36.6984 46.8927 36.7221 46.891L36.6509 45.8936ZM37.1478 46.0847L36.5231 46.8656C36.5405 46.8795 36.5584 46.8928 36.5767 46.9056L37.1478 46.0847ZM37.2243 47.2315L37.9314 47.9386L37.2243 47.2315ZM36.8133 47.48L36.5885 46.5056C36.5826 46.5069 36.5767 46.5083 36.5708 46.5098L36.8133 47.48ZM36.3355 47.4322L35.9347 48.3483C35.9681 48.363 36.0024 48.3758 36.0372 48.3867L36.3355 47.4322ZM35.9341 46.9926L35.0131 47.3822L35.015 47.3865L35.9341 46.9926ZM35.8863 46.4192L36.8183 46.7816C36.8217 46.773 36.8249 46.7643 36.8281 46.7555L35.8863 46.4192ZM36.1921 46.0369L35.668 45.1852C35.6577 45.1916 35.6475 45.1981 35.6374 45.2049L36.1921 46.0369ZM46.1597 46.1325L46.8668 45.4254L46.1597 46.1325ZM46.3222 47.0977L45.448 46.612C45.4336 46.6379 45.4204 46.6645 45.4084 46.6916L46.3222 47.0977ZM45.9877 47.3844L45.5869 46.4682C45.5632 46.4786 45.5399 46.4899 45.5171 46.502L45.9877 47.3844ZM45.1085 47.2984L45.7889 46.5656C45.7792 46.5566 45.7693 46.5477 45.7593 46.5391L45.1085 47.2984ZM44.8122 46.8014L45.7951 46.6171C45.7933 46.6077 45.7914 46.5984 45.7894 46.589L44.8122 46.8014ZM45.0129 46.1994L44.2472 45.5562C44.2431 45.5611 44.239 45.566 44.235 45.571L45.0129 46.1994ZM56.0126 46.1994L56.8053 45.5897C56.7965 45.5783 56.7875 45.5671 56.7783 45.5562L56.0126 46.1994ZM56.2038 46.8014L55.2266 46.589C55.2246 46.5984 55.2227 46.6077 55.2209 46.6171L56.2038 46.8014ZM55.9075 47.2984L55.2567 46.5391C55.2467 46.5477 55.2368 46.5566 55.2271 46.5656L55.9075 47.2984ZM55.0187 47.3844L55.466 46.49C55.4579 46.4859 55.4498 46.482 55.4416 46.4782L55.0187 47.3844ZM54.6843 47.0977L53.7704 47.5038C53.7825 47.5309 53.7957 47.5574 53.8101 47.5833L54.6843 47.0977ZM54.6174 46.6581L53.6187 46.6055C53.6178 46.623 53.6174 46.6406 53.6174 46.6581H54.6174ZM54.8563 46.1325L54.1492 45.4254L54.8563 46.1325ZM64.8143 46.0369L64.2596 46.869C64.2697 46.8757 64.2799 46.8822 64.2902 46.8886L64.8143 46.0369ZM65.1297 46.4192L66.0617 46.0567C66.0576 46.0462 66.0533 46.0357 66.0488 46.0252L65.1297 46.4192ZM65.0819 46.9926L66.001 47.3865L66.0029 47.3822L65.0819 46.9926ZM64.671 47.4226L64.3381 46.4796C64.3252 46.4842 64.3123 46.489 64.2996 46.4941L64.671 47.4226ZM64.1453 47.4704L63.9492 48.4511L63.9611 48.4533L64.1453 47.4704ZM63.744 47.2028L64.5956 46.6787C64.5893 46.6684 64.5827 46.6582 64.576 46.6481L63.744 47.2028ZM63.5911 46.639H64.5911C64.5911 46.6275 64.5909 46.616 64.5905 46.6045L63.5911 46.639ZM63.8491 46.0942L64.4373 46.903C64.4496 46.894 64.4618 46.8847 64.4738 46.8751L63.8491 46.0942ZM50.543 29.83L51.2501 29.1229L50.543 28.4158L49.8359 29.1229L50.543 29.83ZM54.628 31.255L55.3351 30.5479L54.628 31.255ZM51.873 28.5L51.1659 27.7929L50.4588 28.5L51.1659 29.2071L51.873 28.5ZM54.628 25.745L55.3351 26.4521L55.3351 26.4521L54.628 25.745ZM53.298 24.415L52.5909 23.7079L53.298 24.415ZM50.543 27.17L49.8359 27.8771L50.543 28.5842L51.2501 27.8771L50.543 27.17ZM47.788 24.415L47.0809 25.1221V25.1221L47.788 24.415ZM46.458 25.745L45.7509 26.4521L45.7509 26.4521L46.458 25.745ZM49.213 28.5L49.9201 29.2071L50.6272 28.5L49.9201 27.7929L49.213 28.5ZM46.458 31.255L45.7509 30.5479L46.458 31.255ZM47.788 32.585L47.0809 31.8779H47.0809L47.788 32.585ZM50.543 38L50.5435 37H50.543V38ZM43.8217 35.2212L43.1146 35.9284L43.1149 35.9286L43.8217 35.2212ZM41.043 28.5H40.043V28.5005L41.043 28.5ZM43.8217 21.7787L43.1146 21.0716L43.1143 21.0719L43.8217 21.7787ZM50.543 19V18L50.5425 18L50.543 19ZM57.2642 21.7787L57.9713 21.0716L57.9711 21.0714L57.2642 21.7787ZM60.043 28.5L59.043 28.4995V28.5H60.043ZM57.2642 35.2212L57.9713 35.9284L57.9716 35.9281L57.2642 35.2212ZM37.899 35.4345C37.9626 35.4323 38.052 35.4381 38.1379 35.4521C38.179 35.4587 38.2092 35.4657 38.2269 35.4705C38.2505 35.477 38.2329 35.4745 38.1914 35.4538L39.0858 33.6649C38.8737 33.5588 38.6312 33.506 38.4585 33.4779C38.2648 33.4465 38.0436 33.4284 37.8301 33.4357L37.899 35.4345ZM38.2158 35.4655C38.1954 35.4561 38.185 35.449 38.1833 35.4479C38.1826 35.4474 38.1821 35.447 38.1818 35.4468C38.1815 35.4466 38.1813 35.4465 38.1813 35.4464C38.1813 35.4464 38.1813 35.4464 38.1811 35.4463C38.1809 35.4461 38.1799 35.4452 38.178 35.4433C38.1761 35.4415 38.1724 35.4377 38.1672 35.4316C38.1621 35.4258 38.1537 35.4158 38.1431 35.4013C38.1331 35.3875 38.117 35.3641 38.099 35.3317L39.8473 34.3604C39.7451 34.1765 39.6037 34.034 39.5023 33.9448C39.3892 33.8453 39.2388 33.7359 39.0615 33.6532L38.2158 35.4655ZM38.0593 35.2522C38.0439 35.2176 38.0355 35.1917 38.0319 35.1802C38.0279 35.1674 38.0262 35.1598 38.026 35.159C38.0257 35.1579 38.0278 35.1673 38.0307 35.1874C38.0334 35.2065 38.0358 35.2292 38.0376 35.2531C38.0393 35.2771 38.04 35.2982 38.04 35.3143H40.04C40.04 35.1784 40.0291 35.0361 40.0111 34.9085C39.9971 34.8092 39.966 34.6179 39.8869 34.4399L38.0593 35.2522ZM38.04 35.3143C38.04 35.3027 38.0422 35.2651 38.0629 35.2146C38.0844 35.1618 38.1164 35.1188 38.1475 35.0898L39.5121 36.5519C39.881 36.2076 40.04 35.7592 40.04 35.3143H38.04ZM38.1431 35.0938C38.1555 35.0822 38.1783 35.0638 38.208 35.0475C38.2357 35.0323 38.2508 35.0292 38.2397 35.0322C38.2257 35.0361 38.1899 35.0444 38.1179 35.0539C38.0463 35.0634 37.9521 35.0724 37.8244 35.0812L37.962 37.0765C38.5028 37.0392 39.0577 36.9811 39.5164 36.5479L38.1431 35.0938ZM37.8128 35.0821C37.5255 35.1053 37.2357 35.1343 36.9851 35.2097C36.6613 35.3071 36.4254 35.4714 36.2305 35.6892L37.721 37.0228C37.7195 37.0245 37.6944 37.052 37.6492 37.0813C37.6036 37.111 37.5679 37.1229 37.5614 37.1249C37.561 37.125 37.5864 37.1176 37.6603 37.1073C37.7332 37.0972 37.8322 37.087 37.9736 37.0756L37.8128 35.0821ZM36.241 35.6777C36.1795 35.7443 36.1249 35.824 36.115 35.838C36.0877 35.8768 36.055 35.9248 36.0188 35.9787C35.9456 36.0876 35.8474 36.2367 35.7283 36.4195C35.4895 36.7858 35.1592 37.2987 34.762 37.9196C33.9673 39.162 32.9004 40.8436 31.7527 42.6656L33.445 43.7316C34.5909 41.9124 35.6551 40.2349 36.4468 38.9973C36.8428 38.3783 37.1695 37.871 37.4038 37.5116C37.5212 37.3315 37.6135 37.1914 37.679 37.094C37.712 37.0448 37.7356 37.0104 37.7509 36.9886C37.7835 36.9422 37.7577 36.9833 37.7106 37.0343L36.241 35.6777ZM31.7533 42.6646C30.6059 44.4814 29.5633 46.1408 28.8074 47.3501C28.4296 47.9545 28.1227 48.4474 27.91 48.7916C27.8039 48.9633 27.7199 49.1 27.6619 49.1957C27.6333 49.2429 27.6087 49.2839 27.5903 49.3155C27.5817 49.3301 27.5704 49.3498 27.5596 49.3696C27.555 49.378 27.5442 49.3979 27.5323 49.4226C27.527 49.4336 27.5142 49.4605 27.5006 49.4956C27.4939 49.5128 27.4816 49.5456 27.4697 49.5879C27.4626 49.6132 27.4321 49.7196 27.4321 49.8596H29.4321C29.4321 49.9993 29.4018 50.1054 29.3947 50.1303C29.3829 50.1722 29.3708 50.2045 29.3644 50.2211C29.3512 50.255 29.3391 50.2804 29.3347 50.2895C29.3246 50.3104 29.3165 50.3251 29.3156 50.3269C29.312 50.3335 29.3115 50.3342 29.3172 50.3244C29.3273 50.3071 29.3452 50.2771 29.3723 50.2324C29.4257 50.1443 29.506 50.0135 29.6113 49.8431C29.8214 49.5031 30.1262 49.0135 30.5033 48.4102C31.2574 47.204 32.2982 45.5472 33.4443 43.7326L31.7533 42.6646ZM27.4321 49.8596C27.4761 50.1528 27.7106 50.5521 27.838 50.664C27.9123 50.7139 28.0379 50.7787 28.0863 50.798C28.1686 50.8284 28.2366 50.8407 28.2526 50.8437C28.2998 50.8524 28.3383 50.8558 28.3478 50.8567C28.3763 50.8593 28.4022 50.8606 28.4153 50.8612C28.4464 50.8626 28.4844 50.8637 28.524 50.8646C28.6056 50.8664 28.723 50.8681 28.8714 50.8698C29.1697 50.8731 29.6074 50.8762 30.1682 50.8791C31.2904 50.8849 32.9124 50.89 34.913 50.8942C38.9146 50.9026 44.4343 50.9073 50.508 50.9073V48.9073C44.4352 48.9073 38.9169 48.9026 34.9172 48.8942C32.9172 48.89 31.2977 48.885 30.1786 48.8791C29.6187 48.8762 29.1858 48.8731 28.8936 48.8699C28.7468 48.8683 28.6389 48.8667 28.5693 48.8651C28.5331 48.8643 28.5139 48.8636 28.5067 48.8633C28.5006 48.863 28.5121 48.8634 28.531 48.8651C28.5357 48.8655 28.5705 48.8685 28.6153 48.8768C28.6301 48.8795 28.6972 48.8916 28.7789 48.9218C28.827 48.941 28.9523 49.0056 29.0264 49.0554C29.1537 49.1673 29.3882 49.5665 29.4321 49.8596H27.4321ZM50.508 50.9073C56.5817 50.9073 62.1014 50.9026 66.103 50.8942C68.1036 50.89 69.7256 50.8849 70.8478 50.8791C71.4086 50.8762 71.8463 50.8731 72.1446 50.8698C72.293 50.8681 72.4103 50.8664 72.492 50.8646C72.5316 50.8637 72.5696 50.8626 72.6007 50.8612C72.6138 50.8606 72.6397 50.8593 72.6682 50.8567C72.6777 50.8558 72.7162 50.8524 72.7634 50.8437C72.7794 50.8407 72.8474 50.8284 72.9297 50.798C72.9781 50.7787 73.1037 50.7139 73.178 50.664C73.3054 50.5521 73.5399 50.1528 73.5839 49.8596H71.5839C71.6278 49.5665 71.8623 49.1673 71.9895 49.0554C72.0636 49.0056 72.189 48.941 72.2371 48.9218C72.3188 48.8916 72.3859 48.8795 72.4007 48.8768C72.4455 48.8685 72.4803 48.8655 72.485 48.8651C72.5039 48.8634 72.5154 48.863 72.5093 48.8633C72.5021 48.8636 72.4829 48.8643 72.4467 48.8651C72.377 48.8667 72.2692 48.8683 72.1224 48.8699C71.8302 48.8731 71.3973 48.8762 70.8374 48.8791C69.7183 48.885 68.0988 48.89 66.0988 48.8942C62.0991 48.9026 56.5808 48.9073 50.508 48.9073V50.9073ZM73.5839 49.8596C73.5839 49.7196 73.5534 49.6132 73.5463 49.5879C73.5344 49.5456 73.5221 49.5128 73.5154 49.4956C73.5018 49.4605 73.489 49.4336 73.4837 49.4227C73.4718 49.3979 73.461 49.378 73.4564 49.3696C73.4456 49.3498 73.4343 49.3301 73.4257 49.3155C73.4073 49.2839 73.3827 49.2429 73.3541 49.1957C73.2961 49.1 73.2121 48.9634 73.106 48.7916C72.8932 48.4474 72.5864 47.9545 72.2086 47.3501C71.4526 46.1408 70.4101 44.4814 69.2627 42.6646L67.5717 43.7326C68.7178 45.5472 69.7586 47.204 70.5127 48.4102C70.8898 49.0135 71.1946 49.5031 71.4047 49.8431C71.51 50.0135 71.5903 50.1443 71.6437 50.2324C71.6708 50.2771 71.6887 50.3071 71.6988 50.3244C71.7045 50.3342 71.704 50.3335 71.7004 50.3269C71.6995 50.3251 71.6914 50.3104 71.6813 50.2895C71.6769 50.2804 71.6648 50.255 71.6516 50.2211C71.6452 50.2045 71.6331 50.1722 71.6213 50.1303C71.6142 50.1054 71.5839 49.9993 71.5839 49.8596H73.5839ZM69.2633 42.6656C68.1156 40.8436 67.0487 39.162 66.254 37.9196C65.8568 37.2987 65.5265 36.7858 65.2877 36.4195C65.1686 36.2367 65.0704 36.0876 64.9972 35.9787C64.961 35.9248 64.9283 35.8768 64.901 35.838C64.8911 35.824 64.8365 35.7443 64.775 35.6777L63.3054 37.0343C63.2583 36.9833 63.2325 36.9422 63.2651 36.9886C63.2804 37.0104 63.304 37.0448 63.337 37.094C63.4025 37.1914 63.4948 37.3315 63.6122 37.5116C63.8465 37.871 64.1732 38.3783 64.5692 38.9973C65.3609 40.2349 66.4251 41.9124 67.571 43.7316L69.2633 42.6656ZM64.7855 35.6892C64.5906 35.4714 64.3547 35.3071 64.0309 35.2097C63.7803 35.1343 63.4905 35.1053 63.2032 35.0821L63.0424 37.0756C63.1838 37.087 63.2828 37.0972 63.3557 37.1073C63.4296 37.1176 63.455 37.125 63.4546 37.1249C63.4481 37.1229 63.4124 37.111 63.3668 37.0813C63.3216 37.052 63.2965 37.0245 63.295 37.0228L64.7855 35.6892ZM63.1916 35.0812C63.0639 35.0724 62.9697 35.0634 62.8981 35.0539C62.8261 35.0444 62.7902 35.0361 62.7763 35.0322C62.7652 35.0292 62.7803 35.0323 62.808 35.0475C62.8377 35.0638 62.8605 35.0822 62.8728 35.0938L61.4996 36.5479C61.9583 36.9811 62.5131 37.0392 63.054 37.0765L63.1916 35.0812ZM62.8702 35.0913C62.8784 35.099 62.8953 35.1164 62.9141 35.1439C62.9334 35.1721 62.9492 35.2029 62.9606 35.2334C62.9826 35.2922 62.976 35.3179 62.976 35.2666H60.976C60.976 35.4637 60.9981 35.6948 61.0869 35.9329C61.1802 36.1827 61.3264 36.3855 61.5023 36.5504L62.8702 35.0913ZM62.976 35.2666C62.976 35.2466 62.9792 35.2501 62.9712 35.2734C62.9634 35.2961 62.9388 35.3548 62.8742 35.4194L61.46 34.0052C61.0885 34.3766 60.976 34.8704 60.976 35.2666H62.976ZM62.8742 35.4194C62.8637 35.4299 62.856 35.4366 62.8522 35.4397C62.8483 35.443 62.8465 35.4442 62.847 35.4439C62.8485 35.4428 62.8537 35.4393 62.861 35.4353C62.8684 35.4312 62.8717 35.43 62.869 35.4311C62.8672 35.4318 62.862 35.4338 62.8533 35.4364C62.8448 35.4389 62.8303 35.4429 62.8101 35.4467L62.4415 33.4809C62.2259 33.5213 62.0346 33.6072 61.8961 33.6834C61.7552 33.761 61.5961 33.8691 61.46 34.0052L62.8742 35.4194ZM62.8835 35.43C62.8304 35.4442 62.8098 35.4426 62.8518 35.4394C62.8823 35.437 62.929 35.4351 62.9902 35.4351C63.1131 35.4351 63.2602 35.4427 63.3946 35.4577L63.6155 33.4699C63.4059 33.4466 63.185 33.4351 62.9902 33.4351C62.8313 33.4351 62.5794 33.4412 62.3682 33.4976L62.8835 35.43ZM63.422 35.4603C63.5288 35.4692 63.6741 35.4942 63.8204 35.5298C63.8912 35.547 63.9549 35.565 64.0068 35.5816C64.0326 35.5898 64.0535 35.5971 64.0696 35.6031C64.0776 35.6061 64.0837 35.6085 64.0882 35.6103C64.0927 35.6122 64.0948 35.6131 64.0947 35.6131L64.9223 33.7923C64.5886 33.6407 64.0238 33.5036 63.5881 33.4672L63.422 35.4603ZM64.0947 35.6131C64.0946 35.6131 64.1002 35.6156 64.1117 35.6219C64.1229 35.628 64.1374 35.6364 64.155 35.6473C64.1906 35.6693 64.2324 35.6974 64.2769 35.7299C64.3702 35.7981 64.4481 35.8654 64.4895 35.9068L65.9037 34.4926C65.6725 34.2614 65.2705 33.9506 64.9223 33.7923L64.0947 35.6131ZM64.4513 35.8665C64.4171 35.8282 64.4245 35.8318 64.5214 35.9736C64.5959 36.0826 64.6991 36.2367 64.8288 36.433C65.0876 36.8246 65.4444 37.3723 65.8736 38.0369C66.7316 39.3656 67.8741 41.1545 69.091 43.0825L70.7823 42.015C69.5623 40.082 68.416 38.2872 67.5538 36.952C67.1228 36.2847 66.7617 35.7303 66.4973 35.3303C66.3654 35.1306 66.2556 34.9665 66.1725 34.8449C66.1117 34.756 66.0166 34.6165 65.9418 34.5329L64.4513 35.8665ZM69.091 43.0825C70.3089 45.012 71.4381 46.8096 72.2756 48.1506C72.6945 48.8214 73.0398 49.3767 73.2865 49.7769C73.41 49.9772 73.5077 50.1368 73.5771 50.2519C73.6595 50.3882 73.6769 50.4209 73.6677 50.4023L75.4565 49.5079C75.4043 49.4035 75.2182 49.0991 74.989 48.7274C74.7393 48.3224 74.3917 47.7632 73.972 47.0912C73.1323 45.7468 72.0014 43.9464 70.7823 42.015L69.091 43.0825ZM73.6677 50.4023C73.7384 50.5439 73.8512 50.8452 73.9049 51.0371L75.8309 50.4978C75.7508 50.2119 75.596 49.7869 75.4565 49.5079L73.6677 50.4023ZM73.9031 51.0306C73.8931 50.9937 73.9077 51.042 73.9219 51.2901C73.9343 51.5065 73.9439 51.8155 73.9504 52.2413C73.9634 53.0912 73.9635 54.3649 73.9539 56.2096L75.9539 56.2199C75.9635 54.3757 75.9635 53.0835 75.9502 52.2108C75.9436 51.7753 75.9335 51.4338 75.9187 51.1757C75.9057 50.9492 75.8857 50.6989 75.8327 50.5043L73.9031 51.0306ZM73.9539 56.2089C73.9395 58.6883 73.9323 59.918 73.9035 60.5805C73.8889 60.9168 73.8704 61.0453 73.8597 61.0949C73.8566 61.109 73.8571 61.1031 73.8628 61.0894C73.8663 61.0811 73.8674 61.0815 73.844 61.1229L75.586 62.1056C75.6619 61.971 75.7542 61.7958 75.8143 61.5187C75.8636 61.2914 75.8864 61.0179 75.9016 60.6674C75.9325 59.9561 75.9396 58.6724 75.9539 56.2206L73.9539 56.2089ZM73.8371 61.1354C73.7663 61.2651 73.6039 61.4748 73.5226 61.5475L74.8562 63.038C75.138 62.7858 75.4343 62.3839 75.5929 62.0931L73.8371 61.1354ZM73.4823 61.5857C73.4308 61.6371 73.2292 61.7982 72.6145 62.1055L73.5089 63.8944C74.1556 63.571 74.6039 63.2925 74.8965 62.9999L73.4823 61.5857ZM73.0617 62H27.9543V64H73.0617V62ZM28.4091 62.1094L27.9599 61.88L27.0504 63.6612L27.4995 63.8906L28.4091 62.1094ZM27.939 61.8696C27.7908 61.7983 27.5552 61.6222 27.4666 61.5286L26.0147 62.9041C26.27 63.1736 26.7034 63.4945 27.0713 63.6716L27.939 61.8696ZM27.4676 61.5297C27.3776 61.4344 27.2146 61.1946 27.159 61.0682L25.3283 61.8736C25.483 62.225 25.7786 62.6542 26.0136 62.9029L27.4676 61.5297ZM27.1504 61.0492C27.1249 60.9943 27.1227 60.988 27.1151 60.9466C27.101 60.87 27.0837 60.7176 27.0709 60.3806C27.0456 59.7107 27.043 58.5006 27.043 56.1192H25.043C25.043 58.4778 25.0452 59.7381 25.0724 60.4563C25.0859 60.8134 25.1068 61.0845 25.1482 61.3092C25.1962 61.5692 25.2669 61.742 25.3369 61.8926L27.1504 61.0492ZM27.043 56.1192C27.043 54.2163 27.0502 52.9712 27.0701 52.1574C27.0801 51.7498 27.0931 51.4633 27.1085 51.2626C27.1252 51.0466 27.1414 50.9834 27.1392 50.9911L25.2143 50.4482C25.1596 50.6423 25.1327 50.8718 25.1145 51.1088C25.095 51.3611 25.0811 51.688 25.0707 52.1083C25.0501 52.9501 25.043 54.2185 25.043 56.1192H27.043ZM27.1469 50.9622C27.1992 50.7529 27.3078 50.4683 27.3579 50.3731L25.5881 49.4416C25.4471 49.7096 25.2881 50.1513 25.2066 50.4771L27.1469 50.9622ZM27.3579 50.3731C27.351 50.3863 27.3716 50.35 27.4518 50.2187C27.5207 50.1058 27.6178 49.9485 27.7403 49.7508C27.9852 49.3558 28.3287 48.8049 28.7459 48.1383C29.5801 46.8052 30.707 45.012 31.925 43.0825L30.2337 42.015C29.0147 43.9463 27.8863 45.7417 27.0505 47.0773C26.236 48.3788 25.6589 49.307 25.5881 49.4416L27.3579 50.3731ZM31.924 43.084C33.1463 41.1551 34.2891 39.3657 35.1461 38.0379C35.5748 37.3737 35.9306 36.8272 36.1884 36.4372C36.3177 36.2417 36.42 36.0891 36.4937 35.9818C36.5948 35.8347 36.5931 35.8464 36.5464 35.8958L35.0924 34.5226C35.0051 34.615 34.9013 34.7677 34.8452 34.8494C34.7617 34.971 34.6518 35.135 34.5202 35.3341C34.2563 35.7331 33.8959 36.2868 33.4657 36.9534C32.6048 38.2872 31.4588 40.0815 30.2346 42.0135L31.924 43.084ZM36.5454 35.897C36.5965 35.843 36.6685 35.7767 36.7423 35.7168C36.7782 35.6877 36.8094 35.6642 36.8336 35.6472C36.8606 35.6282 36.8667 35.626 36.8539 35.6328L35.9127 33.8681C35.6412 34.013 35.3084 34.2946 35.0935 34.5215L36.5454 35.897ZM36.8305 35.6449C36.8996 35.6103 37.1033 35.5368 37.247 35.5008L36.7619 33.5605C36.5234 33.6202 36.1727 33.7377 35.9361 33.8561L36.8305 35.6449ZM37.2361 35.5035C37.3409 35.4785 37.6555 35.4432 37.9002 35.4345L37.8289 33.4358C37.5385 33.4461 37.0694 33.4873 36.7728 33.5579L37.2361 35.5035ZM27.6676 54.2522H32.0637V52.2522H27.6676V54.2522ZM31.3566 53.9593C31.4398 54.0426 31.4962 54.1046 31.5339 54.1501C31.5719 54.1959 31.5839 54.2164 31.5839 54.2164C31.5824 54.2137 31.5685 54.1889 31.5568 54.1458C31.5446 54.1008 31.5415 54.061 31.5415 54.0358H33.5415C33.5415 53.4106 33.1948 52.9691 32.7708 52.5451L31.3566 53.9593ZM31.5415 54.0358C31.5415 54.0248 31.5445 53.9807 31.5689 53.9261C31.5923 53.8739 31.6169 53.8532 31.6064 53.8631L32.9796 55.3171C33.337 54.9796 33.5415 54.5503 33.5415 54.0358H31.5415ZM31.5999 53.8693L31.3514 54.1082L32.7377 55.5499L32.9861 55.3109L31.5999 53.8693ZM32.0336 53.8291L27.6567 53.8769L27.6785 55.8767L32.0555 55.829L32.0336 53.8291ZM26.6676 54.8768V60.8019H28.6676V54.8768H26.6676ZM26.9605 61.509L27.5339 62.0824L28.9481 60.6682L28.3747 60.0948L26.9605 61.509ZM28.241 62.3753H72.7941V60.3753H28.241V62.3753ZM73.5131 62.0704L74.0674 61.497L72.6294 60.1069L72.0751 60.6803L73.5131 62.0704ZM74.3484 60.8019V54.8768H72.3484V60.8019H74.3484ZM73.3497 53.8768L35.4862 53.829L35.4837 55.829L73.3471 55.8768L73.3497 53.8768ZM36.2343 54.1668C36.0827 53.9954 36.023 53.8993 36.004 53.8633C35.9877 53.8324 36.0262 53.8926 36.0262 54.0167H34.0262C34.0262 54.5699 34.346 55.0504 34.7356 55.4912L36.2343 54.1668ZM36.0262 54.0167C36.0262 54.0894 36.0102 54.131 36.0031 54.1471C35.9948 54.1659 35.9799 54.1917 35.9491 54.2206L34.5812 52.7616C34.2341 53.087 34.0262 53.5582 34.0262 54.0167H36.0262ZM35.9865 54.1836L36.2159 53.9447L34.7731 52.5596L34.5438 52.7986L35.9865 54.1836ZM35.4945 54.2522H73.3484V52.2522H35.4945V54.2522ZM74.3484 53.2522V51.6275H72.3484V53.2522H74.3484ZM73.3484 50.6275H27.6676V52.6275H73.3484V50.6275ZM26.6676 51.6275V53.2522H28.6676V51.6275H26.6676ZM39.8714 38.7704C39.8788 38.7704 39.8937 38.7709 39.9142 38.7728C39.9342 38.7747 39.954 38.7775 39.9709 38.7805C39.9791 38.782 39.9853 38.7834 39.9896 38.7844C39.994 38.7854 39.9948 38.7857 39.9923 38.785C39.9902 38.7843 39.9817 38.7817 39.9681 38.7764C39.9612 38.7737 39.9519 38.7699 39.9408 38.7648C39.9297 38.7597 39.9156 38.7528 39.8991 38.7439L40.8568 36.9881C40.6611 36.8813 40.4503 36.8349 40.3287 36.8128C40.1836 36.7864 40.0232 36.7704 39.8714 36.7704V38.7704ZM39.8991 38.7439C39.8295 38.7059 39.788 38.6688 39.7721 38.6537C39.7534 38.6361 39.744 38.624 39.7409 38.6199C39.7375 38.6155 39.7308 38.6069 39.7217 38.5811L41.6076 37.9154C41.5412 37.7271 41.4436 37.5561 41.3375 37.4154C41.2417 37.2884 41.0829 37.1114 40.8568 36.9881L39.8991 38.7439ZM39.716 38.5645C39.716 38.5647 39.715 38.5617 39.7141 38.556C39.7131 38.5502 39.7124 38.543 39.7124 38.5349C39.7124 38.5269 39.7131 38.5197 39.7141 38.5139C39.715 38.5081 39.716 38.5052 39.716 38.5054L41.6133 39.1379C41.7455 38.7415 41.7455 38.3284 41.6133 37.932L39.716 38.5645ZM39.7283 38.4705C39.7311 38.4632 39.7332 38.4584 39.7342 38.4562C39.7348 38.455 39.7352 38.4542 39.7354 38.4537C39.7357 38.4532 39.7358 38.453 39.7358 38.453C39.7358 38.453 39.7357 38.4531 39.7356 38.4533C39.7355 38.4535 39.7354 38.4537 39.7353 38.4539C39.735 38.4543 39.7351 38.4541 39.7359 38.453C39.7363 38.4525 39.744 38.4419 39.7618 38.4246C39.776 38.4109 39.8211 38.3686 39.8991 38.326L40.8568 40.0818C41.0948 39.952 41.2555 39.7615 41.3425 39.6442C41.443 39.5086 41.536 39.346 41.601 39.1728L39.7283 38.4705ZM39.8991 38.326C39.9156 38.317 39.9297 38.3101 39.9408 38.3051C39.9519 38.3 39.9612 38.2962 39.9681 38.2934C39.9817 38.2881 39.9902 38.2855 39.9923 38.2849C39.9948 38.2842 39.994 38.2845 39.9896 38.2855C39.9854 38.2865 39.9791 38.2878 39.9709 38.2893C39.954 38.2924 39.9342 38.2951 39.9142 38.297C39.8937 38.299 39.8788 38.2995 39.8714 38.2995V40.2995C40.0232 40.2995 40.1836 40.2834 40.3287 40.2571C40.4503 40.2349 40.6611 40.1885 40.8568 40.0818L39.8991 38.326ZM39.8714 38.2995C39.9312 38.2995 39.9635 38.3118 39.9745 38.3163C39.986 38.3211 40.0148 38.3344 40.0529 38.3725L38.6387 39.7868C38.9589 40.1069 39.423 40.2995 39.8714 40.2995V38.2995ZM40.0263 38.3469C40.0826 38.3992 40.1015 38.4415 40.1055 38.4511C40.1106 38.4631 40.1143 38.476 40.1153 38.4969L38.1176 38.5921C38.1371 39.0019 38.3048 39.4776 38.6654 39.8125L40.0263 38.3469ZM40.1157 38.5045C40.1144 38.4733 40.1204 38.5184 40.0924 38.5926C40.0631 38.6699 40.0243 38.7068 40.0338 38.6973L38.6196 37.2831C38.4667 37.436 38.318 37.6306 38.2218 37.8848C38.1268 38.1357 38.109 38.3768 38.1173 38.5845L40.1157 38.5045ZM40.0338 38.6973C40.01 38.7211 39.9801 38.741 39.9475 38.7542C39.9153 38.7672 39.8883 38.7704 39.8714 38.7704V36.7704C39.4105 36.7704 38.9605 36.9422 38.6196 37.2831L40.0338 38.6973ZM61.1159 38.7704C61.109 38.7704 61.0854 38.769 61.0524 38.7558C61.0186 38.7424 60.9874 38.7216 60.9631 38.6973L62.3773 37.2831C62.0319 36.9378 61.5797 36.7704 61.1159 36.7704V38.7704ZM60.9631 38.6973C60.9443 38.6786 60.9159 38.6416 60.8963 38.591C60.8782 38.544 60.8804 38.5182 60.8804 38.5349H62.8804C62.8804 38.0756 62.7317 37.6375 62.3773 37.2831L60.9631 38.6973ZM60.8804 38.5349C60.8804 38.504 60.8866 38.4796 60.8938 38.4617C60.9008 38.4444 60.9117 38.4261 60.9296 38.4069L62.3917 39.7715C62.689 39.453 62.8804 39.0118 62.8804 38.5349H60.8804ZM60.9535 38.3821C61.0195 38.3161 61.0883 38.2995 61.135 38.2995V40.2995C61.583 40.2995 62.0341 40.1299 62.3677 39.7963L60.9535 38.3821ZM61.135 38.2995C61.134 38.2995 61.1302 38.2994 61.1238 38.2991C61.1174 38.2987 61.1096 38.2982 61.1005 38.2973C61.0819 38.2955 61.0628 38.2928 61.0462 38.2897C61.0381 38.2882 61.0319 38.2869 61.0276 38.2859C61.0232 38.2848 61.0222 38.2845 61.0245 38.2852C61.0265 38.2858 61.0349 38.2883 61.0482 38.2936C61.0551 38.2963 61.0642 38.3001 61.0753 38.3051C61.0863 38.3102 61.1004 38.317 61.1169 38.326L60.1592 40.0818C60.3542 40.1881 60.5644 40.2346 60.6839 40.2566C60.8262 40.2829 60.9852 40.2995 61.135 40.2995V38.2995ZM61.1169 38.326C61.189 38.3654 61.2305 38.4033 61.2432 38.4153C61.2595 38.4308 61.2674 38.441 61.2699 38.4442C61.2727 38.448 61.2761 38.4528 61.2805 38.4609C61.2843 38.4679 61.2949 38.4884 61.3058 38.5234L59.3969 39.1199C59.4633 39.3325 59.5725 39.5158 59.6765 39.653C59.771 39.7776 59.932 39.9579 60.1592 40.0818L61.1169 38.326ZM61.2952 38.4913C61.2949 38.4905 61.3012 38.5089 61.3012 38.5409C61.3012 38.5737 61.2946 38.5997 61.2897 38.613L59.413 37.9216C59.2619 38.3318 59.2677 38.7527 59.4075 39.152L61.2952 38.4913ZM61.2798 38.6387C61.2777 38.6441 61.2782 38.6421 61.2823 38.6344C61.2863 38.6272 61.2906 38.6202 61.294 38.6153C61.2979 38.6096 61.2963 38.6129 61.287 38.6232C61.282 38.6287 61.2727 38.6385 61.2589 38.6512C61.2455 38.6636 61.2233 38.6827 61.1924 38.7043L60.0455 37.0658C59.8545 37.1995 59.7218 37.3722 59.6476 37.4798C59.5623 37.6035 59.4822 37.7477 59.4229 37.896L61.2798 38.6387ZM61.1736 38.7171C61.1368 38.7417 61.1075 38.7567 61.0919 38.7642C61.0751 38.7723 61.0634 38.7769 61.0584 38.7788C61.0491 38.7823 61.05 38.7813 61.0614 38.7786C61.0718 38.7761 61.0845 38.7737 61.0971 38.7721C61.1101 38.7704 61.1167 38.7704 61.1159 38.7704V36.7704C60.9289 36.7704 60.7471 36.7973 60.5946 36.8338C60.4683 36.8642 60.255 36.9259 60.0642 37.053L61.1736 38.7171ZM38.3882 42.7837C38.3268 42.7925 38.2792 42.7927 38.2543 42.7921C38.2271 42.7915 38.2071 42.7895 38.1964 42.7883C38.176 42.7859 38.1678 42.7836 38.1733 42.7849C38.1853 42.7877 38.2044 42.7939 38.216 42.7989L39.0039 40.9606C38.8818 40.9083 38.7527 40.8667 38.6333 40.8385C38.5585 40.8208 38.3406 40.7702 38.1054 40.8038L38.3882 42.7837ZM38.2736 42.8215C38.2224 42.8032 38.1838 42.7832 38.1585 42.7685C38.1328 42.7535 38.1144 42.7403 38.1032 42.7317C38.082 42.7153 38.0739 42.7057 38.0757 42.7077C38.0767 42.7088 38.0797 42.7124 38.0826 42.7168C38.086 42.7217 38.0837 42.7193 38.0779 42.7069L39.8875 41.8553C39.8032 41.6763 39.6859 41.5067 39.5599 41.3672C39.4526 41.2483 39.2442 41.0444 38.9463 40.938L38.2736 42.8215ZM38.0507 42.6436C38.0488 42.6388 38.0484 42.6372 38.049 42.6392C38.0496 42.6411 38.0507 42.6449 38.052 42.6507C38.0549 42.6629 38.0575 42.6773 38.0591 42.691C38.0599 42.6975 38.0603 42.7025 38.0605 42.7057C38.0607 42.709 38.0606 42.709 38.0606 42.7057C38.0607 42.7026 38.0608 42.6932 38.0623 42.6781C38.0636 42.664 38.0669 42.637 38.0752 42.601L40.024 43.0507C40.0766 42.8225 40.062 42.5951 40.0448 42.4518C40.0252 42.2892 39.9849 42.0993 39.9147 41.9187L38.0507 42.6436ZM38.0752 42.601C38.0841 42.5624 38.0941 42.5335 38.1009 42.5159C38.1079 42.4976 38.1141 42.4848 38.1178 42.4775C38.1247 42.4638 38.1284 42.4591 38.1271 42.4608C38.1262 42.4621 38.1261 42.462 38.1289 42.459C38.1306 42.4572 38.1441 42.443 38.1721 42.4231L39.3346 44.0505C39.5147 43.9218 39.656 43.7614 39.7546 43.6233C39.8453 43.4963 39.9679 43.2939 40.024 43.0507L38.0752 42.601ZM38.1721 42.4231C38.1801 42.4174 38.1806 42.4177 38.1731 42.4217C38.1663 42.4253 38.1584 42.4289 38.152 42.4314C38.1447 42.4342 38.1466 42.4329 38.1587 42.43C38.1653 42.4285 38.1776 42.4259 38.1952 42.4235C38.2124 42.4212 38.2398 42.4184 38.2755 42.4184V44.4184C38.5207 44.4184 38.74 44.3487 38.8768 44.2954C39.0292 44.2362 39.1908 44.1532 39.3346 44.0505L38.1721 42.4231ZM38.2755 42.4184C38.3112 42.4184 38.3386 42.4212 38.3557 42.4235C38.3733 42.4259 38.3857 42.4285 38.3922 42.43C38.4044 42.4329 38.4062 42.4342 38.399 42.4314C38.3925 42.4289 38.3847 42.4253 38.3778 42.4217C38.3704 42.4177 38.3709 42.4174 38.3789 42.4231L37.2164 44.0505C37.3602 44.1532 37.5218 44.2362 37.6741 44.2954C37.811 44.3487 38.0302 44.4184 38.2755 44.4184V42.4184ZM38.3789 42.4231C38.4068 42.443 38.4203 42.4572 38.4221 42.459C38.4249 42.462 38.4247 42.4621 38.4238 42.4608C38.4226 42.4591 38.4263 42.4638 38.4332 42.4775C38.4369 42.4848 38.443 42.4976 38.4501 42.5159C38.4568 42.5335 38.4669 42.5624 38.4758 42.601L36.527 43.0507C36.5831 43.2939 36.7057 43.4963 36.7964 43.6233C36.895 43.7614 37.0362 43.9218 37.2164 44.0505L38.3789 42.4231ZM38.4572 42.5318C38.4737 42.5856 38.4809 42.6295 38.4842 42.6577C38.4876 42.6868 38.488 42.7084 38.4879 42.7209C38.4878 42.7443 38.4856 42.7523 38.4871 42.7433C38.4884 42.7359 38.4912 42.723 38.4959 42.7069C38.5006 42.6909 38.5055 42.6777 38.509 42.6692L36.6658 41.8931C36.5987 42.0524 36.5456 42.2312 36.5157 42.4067C36.4916 42.5477 36.4559 42.8285 36.5456 43.12L38.4572 42.5318ZM38.5012 42.6873C38.4929 42.706 38.4875 42.7133 38.4893 42.7107C38.4906 42.7088 38.4938 42.7043 38.4981 42.6995C38.5027 42.6943 38.5032 42.6946 38.4967 42.7002C38.4931 42.7033 38.4853 42.7097 38.4731 42.7185C38.4615 42.7269 38.4404 42.7412 38.4103 42.7577L37.4526 41.0019C37.258 41.108 37.1021 41.2589 36.9992 41.3754C36.887 41.5024 36.7633 41.6732 36.6736 41.875L38.5012 42.6873ZM38.3161 42.8028C38.3209 42.8008 38.3297 42.7974 38.3414 42.7934C38.353 42.7895 38.3638 42.7863 38.372 42.7841C38.3813 42.7815 38.3813 42.7819 38.3722 42.7836C38.3675 42.7845 38.3559 42.7866 38.3389 42.7886C38.3301 42.7896 38.3183 42.7908 38.3039 42.7918C38.2898 42.7928 38.2703 42.7937 38.2468 42.7937V40.7937C38.074 40.7937 37.9119 40.8366 37.8492 40.8536C37.7545 40.8792 37.6485 40.9143 37.5468 40.9567L38.3161 42.8028ZM46.4655 42.7842C46.3939 42.7842 46.3382 42.7749 46.304 42.7675C46.2687 42.7598 46.2433 42.7513 46.2292 42.7461C46.2025 42.7363 46.1939 42.7301 46.2034 42.7356C46.2111 42.7401 46.2247 42.7487 46.2418 42.7616C46.2588 42.7743 46.2743 42.7875 46.2867 42.7991L47.6574 41.3427C47.5237 41.2169 47.3668 41.0982 47.2055 41.0048C47.0877 40.9366 46.8068 40.7842 46.4655 40.7842V42.7842ZM46.2649 42.778C46.2816 42.7946 46.3037 42.8231 46.3163 42.8439C46.3221 42.8536 46.3159 42.8454 46.3055 42.8188C46.3 42.8049 46.29 42.7777 46.2807 42.7392C46.272 42.7034 46.2587 42.6367 46.2587 42.5487H48.2587C48.2587 42.3387 48.1991 42.1687 48.1654 42.0836C48.1251 41.9815 48.0759 41.889 48.0292 41.8115C47.9366 41.6579 47.8154 41.5001 47.6791 41.3638L46.2649 42.778ZM46.2587 42.5487C46.2587 42.525 46.26 42.5075 46.261 42.4976C46.2619 42.4872 46.263 42.4804 46.2635 42.4774C46.2644 42.472 46.2645 42.4726 46.2632 42.4774C46.2619 42.482 46.2609 42.4844 46.2614 42.4831C46.2615 42.4831 46.2667 42.4695 46.2803 42.4462L48.0078 43.454C48.097 43.3012 48.1543 43.1414 48.1898 43.0143C48.2237 42.8926 48.2587 42.7249 48.2587 42.5487H46.2587ZM46.2361 42.531C46.2434 42.5152 46.2476 42.509 46.2459 42.5118C46.2446 42.5139 46.2415 42.5184 46.2373 42.5238C46.233 42.5294 46.2308 42.5316 46.2324 42.5299C46.2334 42.5288 46.2366 42.5255 46.2423 42.5203C46.2477 42.5153 46.2576 42.5065 46.2721 42.4952L47.5 44.0739C47.7214 43.9017 47.9327 43.6276 48.052 43.3692L46.2361 42.531ZM46.2721 42.4952C46.3102 42.4656 46.3422 42.4463 46.3618 42.4354C46.3823 42.424 46.398 42.4169 46.4068 42.4131C46.4237 42.4059 46.4303 42.4045 46.4256 42.4058C46.422 42.4068 46.4163 42.408 46.4109 42.4087C46.405 42.4096 46.407 42.4088 46.4177 42.4088V44.4088C46.6043 44.4088 46.7873 44.3794 46.9427 44.3378C47.0722 44.3031 47.2994 44.2299 47.5 44.0739L46.2721 42.4952ZM46.4177 42.4088C46.4501 42.4088 46.4909 42.416 46.5303 42.4333C46.5679 42.4498 46.5837 42.4664 46.5801 42.4628L45.1659 43.877C45.4911 44.2022 45.9196 44.4088 46.4177 44.4088V42.4088ZM46.5801 42.4628C46.5793 42.462 46.5963 42.4792 46.6122 42.516C46.6286 42.5543 46.6341 42.5909 46.6341 42.6156H44.6341C44.6341 43.1113 44.8339 43.545 45.1659 43.877L46.5801 42.4628ZM46.6341 42.6156C46.6341 42.6316 46.6329 42.637 46.6336 42.6322C46.6342 42.6283 46.6352 42.6232 46.6362 42.6195C46.6375 42.6149 46.6362 42.6211 46.6292 42.6374C46.6255 42.646 46.6185 42.6613 46.6073 42.6815C46.5965 42.7009 46.5773 42.7327 46.5477 42.7708L44.969 41.543C44.8137 41.7426 44.7405 41.9689 44.7061 42.0956C44.6649 42.2474 44.6341 42.4296 44.6341 42.6156H46.6341ZM46.5109 42.8154C46.5087 42.818 46.5123 42.8137 46.5222 42.804C46.5314 42.7949 46.5422 42.7848 46.5531 42.7753C46.5643 42.7656 46.5719 42.7597 46.5746 42.7577C46.5758 42.7568 46.5742 42.7581 46.5699 42.7609C46.5659 42.7635 46.5568 42.7693 46.543 42.7768L45.5853 41.021C45.3344 41.1578 45.1105 41.3787 45.0058 41.4984L46.5109 42.8154ZM46.543 42.7768C46.5272 42.7854 46.5211 42.7874 46.5265 42.7852C46.5307 42.7836 46.5373 42.7812 46.5443 42.7791C46.5517 42.7769 46.5529 42.7771 46.5466 42.7782C46.5431 42.7788 46.5351 42.7802 46.5232 42.7814C46.5116 42.7826 46.4919 42.7842 46.4655 42.7842V40.7842C46.2711 40.7842 46.0925 40.8272 45.9782 40.8609C45.8546 40.8974 45.7141 40.9507 45.5853 41.021L46.543 42.7768ZM54.5122 42.7842C54.4926 42.7842 54.4781 42.7832 54.4695 42.7824C54.4607 42.7817 54.455 42.7808 54.4525 42.7804C54.4481 42.7797 54.4489 42.7797 54.4533 42.7808C54.4575 42.782 54.4593 42.7828 54.4574 42.782C54.4566 42.7817 54.4427 42.7763 54.4193 42.7626L55.427 41.0351C55.1637 40.8815 54.8089 40.7842 54.5122 40.7842V42.7842ZM54.5041 42.8068C54.4883 42.7995 54.4821 42.7953 54.4849 42.7971C54.4869 42.7983 54.4915 42.8014 54.4969 42.8056C54.5024 42.81 54.5046 42.8122 54.5029 42.8105C54.5019 42.8095 54.4985 42.8063 54.4934 42.8007C54.4884 42.7953 54.4796 42.7853 54.4683 42.7708L56.047 41.543C55.8748 41.3215 55.6007 41.1102 55.3422 40.9909L54.5041 42.8068ZM54.4683 42.7708C54.4387 42.7327 54.4195 42.7009 54.4087 42.6815C54.3975 42.6613 54.3905 42.646 54.3868 42.6374C54.3798 42.6211 54.3785 42.6149 54.3798 42.6195C54.3808 42.6232 54.3818 42.6283 54.3824 42.6322C54.3831 42.637 54.3819 42.6316 54.3819 42.6156H56.3819C56.3819 42.4296 56.3511 42.2474 56.3099 42.0956C56.2755 41.9689 56.2023 41.7426 56.047 41.543L54.4683 42.7708ZM54.3819 42.6156C54.3819 42.5979 54.3855 42.5644 54.4024 42.5246C54.4196 42.4841 54.4423 42.4561 54.4576 42.4417L55.8283 43.8981C56.1996 43.5487 56.3819 43.0904 56.3819 42.6156H54.3819ZM54.4148 42.4845C54.4219 42.477 54.4479 42.453 54.4938 42.433C54.54 42.413 54.5791 42.4088 54.5982 42.4088V44.4088C55.0868 44.4088 55.5311 44.2166 55.8712 43.8553L54.4148 42.4845ZM54.5982 42.4088C54.609 42.4088 54.611 42.4096 54.6051 42.4087C54.5997 42.408 54.594 42.4068 54.5904 42.4058C54.5857 42.4045 54.5923 42.4059 54.6092 42.4131C54.618 42.4169 54.6337 42.424 54.6541 42.4354C54.6738 42.4463 54.7058 42.4656 54.7439 42.4952L53.516 44.0739C53.7166 44.2299 53.9438 44.3031 54.0733 44.3378C54.2287 44.3794 54.4117 44.4088 54.5982 44.4088V42.4088ZM54.7439 42.4952C54.7584 42.5065 54.7683 42.5153 54.7737 42.5203C54.7794 42.5255 54.7826 42.5288 54.7836 42.5299C54.7852 42.5316 54.783 42.5294 54.7787 42.5238C54.7745 42.5184 54.7714 42.5139 54.7701 42.5118C54.7684 42.509 54.7726 42.5152 54.7799 42.531L52.964 43.3692C53.0833 43.6276 53.2946 43.9017 53.516 44.0739L54.7439 42.4952ZM54.7357 42.4462C54.7495 42.4698 54.7553 42.4845 54.7566 42.4877C54.7583 42.492 54.7587 42.4938 54.759 42.4948C54.7591 42.4954 54.761 42.5023 54.7627 42.5168C54.7641 42.5284 54.7681 42.5658 54.7634 42.6222L52.7703 42.4561C52.7527 42.6669 52.7881 42.8614 52.8224 42.9945C52.8589 43.136 52.9183 43.2999 53.0082 43.454L54.7357 42.4462ZM54.7668 42.5392C54.7668 42.62 54.7555 42.6814 54.7479 42.715C54.7398 42.7509 54.731 42.7764 54.726 42.7899C54.7164 42.8158 54.7105 42.8245 54.7148 42.8169C54.7181 42.8111 54.7245 42.8011 54.7332 42.7896C54.742 42.7781 54.7487 42.7708 54.7511 42.7684L53.3369 41.3542C53.1933 41.4978 53.0716 41.6624 52.9813 41.8195C52.9355 41.8991 52.8889 41.992 52.8512 42.0934C52.8192 42.1796 52.7668 42.3415 52.7668 42.5392H54.7668ZM54.7511 42.7684C54.7669 42.7526 54.7909 42.7346 54.8052 42.7261C54.8116 42.7223 54.8007 42.7297 54.7719 42.7406C54.7569 42.7463 54.7296 42.7558 54.6918 42.7645C54.6561 42.7727 54.5936 42.7842 54.5122 42.7842V40.7842C54.3122 40.7842 54.1491 40.8377 54.0605 40.8714C53.958 40.9104 53.8652 40.9584 53.7869 41.0047C53.6315 41.0966 53.4739 41.2172 53.3369 41.3542L54.7511 42.7684ZM62.8533 42.7837C62.7918 42.7925 62.7442 42.7927 62.7193 42.7921C62.6921 42.7915 62.6721 42.7895 62.6615 42.7883C62.641 42.7859 62.6329 42.7836 62.6383 42.7849C62.6504 42.7877 62.6694 42.7939 62.6811 42.7989L63.4689 40.9606C63.3468 40.9083 63.2177 40.8667 63.0984 40.8385C63.0235 40.8208 62.8056 40.7702 62.5704 40.8038L62.8533 42.7837ZM62.7387 42.8215C62.6874 42.8032 62.6489 42.7832 62.6236 42.7685C62.5978 42.7535 62.5794 42.7403 62.5682 42.7317C62.5471 42.7153 62.5389 42.7057 62.5408 42.7077C62.5417 42.7088 62.5447 42.7124 62.5477 42.7168C62.551 42.7217 62.5487 42.7193 62.5429 42.7069L64.3525 41.8553C64.2682 41.6762 64.151 41.5067 64.0249 41.3671C63.9176 41.2483 63.7093 41.0444 63.4113 40.938L62.7387 42.8215ZM62.5157 42.6436C62.5138 42.6388 62.5134 42.6372 62.514 42.6392C62.5146 42.641 62.5157 42.6449 62.5171 42.6507C62.52 42.6629 62.5225 42.6773 62.5242 42.691C62.525 42.6975 62.5254 42.7025 62.5256 42.7057C62.5258 42.709 62.5257 42.709 62.5257 42.7057C62.5257 42.7026 62.5258 42.6931 62.5273 42.6781C62.5287 42.664 62.5319 42.637 62.5402 42.601L64.489 43.0507C64.5417 42.8225 64.5271 42.5951 64.5098 42.4518C64.4902 42.2892 64.45 42.0993 64.3797 41.9187L62.5157 42.6436ZM62.5402 42.601C62.5491 42.5624 62.5591 42.5335 62.5659 42.5159C62.573 42.4976 62.5791 42.4848 62.5828 42.4775C62.5897 42.4638 62.5934 42.4591 62.5922 42.4608C62.5912 42.4621 62.5911 42.462 62.5939 42.459C62.5957 42.4572 62.6091 42.443 62.6371 42.4231L63.7996 44.0505C63.9798 43.9218 64.121 43.7614 64.2196 43.6233C64.3103 43.4963 64.4329 43.2939 64.489 43.0507L62.5402 42.601ZM62.6371 42.4231C62.6451 42.4174 62.6456 42.4177 62.6382 42.4217C62.6313 42.4253 62.6235 42.4289 62.617 42.4314C62.6098 42.4342 62.6116 42.4329 62.6238 42.43C62.6303 42.4285 62.6426 42.4259 62.6603 42.4235C62.6774 42.4212 62.7048 42.4184 62.7405 42.4184V44.4184C62.9858 44.4184 63.205 44.3487 63.3419 44.2954C63.4942 44.2362 63.6558 44.1532 63.7996 44.0505L62.6371 42.4231ZM62.7405 42.4184C62.7762 42.4184 62.8036 42.4212 62.8208 42.4235C62.8384 42.4259 62.8507 42.4285 62.8573 42.43C62.8694 42.4329 62.8713 42.4342 62.864 42.4314C62.8576 42.4289 62.8497 42.4253 62.8429 42.4217C62.8354 42.4177 62.8359 42.4174 62.8439 42.4231L61.6814 44.0505C61.8252 44.1532 61.9868 44.2362 62.1391 44.2954C62.276 44.3487 62.4953 44.4184 62.7405 44.4184V42.4184ZM62.8439 42.4231C62.8719 42.443 62.8854 42.4572 62.8871 42.459C62.8899 42.462 62.8898 42.4621 62.8889 42.4608C62.8876 42.4591 62.8913 42.4638 62.8982 42.4775C62.9019 42.4848 62.9081 42.4976 62.9151 42.5159C62.9219 42.5335 62.9319 42.5624 62.9408 42.601L60.992 43.0507C61.0481 43.2939 61.1707 43.4963 61.2614 43.6233C61.36 43.7614 61.5013 43.9218 61.6814 44.0505L62.8439 42.4231ZM62.9222 42.5318C62.9388 42.5856 62.9459 42.6295 62.9492 42.6577C62.9526 42.6868 62.953 42.7084 62.953 42.7209C62.9528 42.7442 62.9506 42.7523 62.9522 42.7433C62.9534 42.7359 62.9562 42.723 62.9609 42.7069C62.9656 42.6909 62.9705 42.6777 62.9741 42.6692L61.1308 41.8931C61.0637 42.0525 61.0106 42.2312 60.9807 42.4067C60.9566 42.5477 60.921 42.8285 61.0106 43.12L62.9222 42.5318ZM62.9662 42.6873C62.9579 42.706 62.9526 42.7133 62.9543 42.7107C62.9556 42.7088 62.9589 42.7043 62.9632 42.6995C62.9678 42.6943 62.9682 42.6946 62.9617 42.7002C62.9581 42.7033 62.9504 42.7097 62.9381 42.7185C62.9265 42.7269 62.9054 42.7412 62.8753 42.7577L61.9176 41.0019C61.723 41.108 61.5671 41.2589 61.4642 41.3754C61.3521 41.5024 61.2283 41.6732 61.1386 41.875L62.9662 42.6873ZM62.7811 42.8028C62.786 42.8008 62.7947 42.7974 62.8065 42.7934C62.818 42.7895 62.8288 42.7863 62.8371 42.7841C62.8464 42.7815 62.8464 42.7819 62.8373 42.7836C62.8325 42.7845 62.8209 42.7866 62.8039 42.7886C62.7952 42.7896 62.7833 42.7908 62.7689 42.7918C62.7548 42.7928 62.7354 42.7937 62.7118 42.7937V40.7937C62.539 40.7937 62.3769 40.8366 62.3142 40.8536C62.2196 40.8792 62.1135 40.9143 62.0119 40.9567L62.7811 42.8028ZM36.7221 46.891C36.6379 46.897 36.5814 46.8864 36.5646 46.883C36.5531 46.8807 36.5454 46.8785 36.5414 46.8773C36.5373 46.8761 36.5352 46.8753 36.5351 46.8752C36.5349 46.8752 36.5355 46.8754 36.5367 46.876C36.5379 46.8765 36.5388 46.877 36.5392 46.8772C36.5413 46.8784 36.5355 46.8755 36.5231 46.8656L37.7725 45.3038C37.6103 45.174 37.4274 45.076 37.2564 45.0098C37.1044 44.9511 36.8568 44.8763 36.5796 44.8961L36.7221 46.891ZM36.5767 46.9056C36.6009 46.9224 36.5867 46.9153 36.5594 46.8867C36.5265 46.8523 36.4865 46.7995 36.455 46.7307C36.425 46.6654 36.4163 46.6152 36.4143 46.6006C36.4129 46.5907 36.4154 46.6029 36.4154 46.6581H38.4154C38.4154 46.4809 38.4076 46.191 38.2731 45.8974C38.1256 45.5757 37.8912 45.3837 37.7189 45.2638L36.5767 46.9056ZM36.4154 46.6581C36.4154 46.7052 36.4092 46.7056 36.4189 46.6763C36.4303 46.6422 36.4587 46.5828 36.5171 46.5244L37.9314 47.9386C38.3125 47.5575 38.4154 47.0671 38.4154 46.6581H36.4154ZM36.5171 46.5244C36.5267 46.5148 36.5293 46.5135 36.5231 46.5183C36.5177 46.5224 36.5105 46.5274 36.5034 46.5318C36.4958 46.5365 36.4945 46.5366 36.5013 46.5335C36.5051 46.5317 36.5135 46.5281 36.5264 46.5235C36.5388 46.519 36.5599 46.5122 36.5885 46.5056L37.0382 48.4543C37.2499 48.4055 37.4317 48.3086 37.5485 48.237C37.6758 48.159 37.8128 48.0571 37.9314 47.9386L36.5171 46.5244ZM36.5708 46.5098C36.6089 46.5003 36.6389 46.4961 36.6571 46.4941C36.676 46.492 36.6894 46.4915 36.6962 46.4914C36.7086 46.4912 36.7098 46.492 36.6992 46.4909C36.6896 46.4898 36.6766 46.4878 36.6625 46.4848C36.6481 46.4819 36.638 46.479 36.6338 46.4777L36.0372 48.3867C36.1766 48.4302 36.3304 48.4622 36.4783 48.4786C36.6031 48.4925 36.8252 48.5078 37.0559 48.4501L36.5708 46.5098ZM36.7363 46.516C36.7807 46.5354 36.8086 46.5547 36.8219 46.5646C36.8359 46.5752 36.8429 46.5825 36.845 46.5847C36.847 46.587 36.849 46.5888 36.8532 46.5986L35.015 47.3865C35.1793 47.77 35.5027 48.1594 35.9347 48.3483L36.7363 46.516ZM36.8551 46.6029C36.824 46.5294 36.838 46.5402 36.8426 46.5985C36.8452 46.6309 36.8441 46.668 36.8379 46.7063C36.8319 46.7435 36.8229 46.7698 36.8183 46.7816L34.9543 46.0567C34.8737 46.2639 34.8283 46.4959 34.8488 46.7559C34.8677 46.9958 34.9391 47.2073 35.0131 47.3822L36.8551 46.6029ZM36.8281 46.7555C36.8113 46.8024 36.7955 46.8285 36.7928 46.8329C36.7887 46.8397 36.788 46.84 36.7911 46.8361C36.7941 46.8324 36.7957 46.831 36.7936 46.833C36.7932 46.8334 36.7782 46.848 36.7468 46.869L35.6374 45.2049C35.4716 45.3154 35.335 45.4563 35.2372 45.577C35.1416 45.6949 35.0203 45.8707 34.9446 46.0828L36.8281 46.7555ZM36.7162 46.8886C36.7024 46.8971 36.6974 46.8988 36.7029 46.8964C36.7074 46.8944 36.7143 46.8916 36.7217 46.8893C36.7294 46.8868 36.7312 46.8868 36.7256 46.8879C36.7224 46.8885 36.7151 46.8897 36.704 46.8909C36.6931 46.8921 36.675 46.8936 36.6509 46.8936V44.8936C36.442 44.8936 36.2492 44.9408 36.1141 44.9838C35.9715 45.0293 35.8129 45.0961 35.668 45.1852L36.7162 46.8886ZM45.5959 46.8936C45.586 46.8936 45.5521 46.891 45.5097 46.8731C45.4682 46.8555 45.4493 46.8362 45.4526 46.8396L46.8668 45.4254C46.5246 45.0831 46.0917 44.8936 45.5959 44.8936V46.8936ZM45.4526 46.8396C45.4489 46.8358 45.4375 46.8234 45.4257 46.7974C45.4141 46.7718 45.3986 46.7248 45.3986 46.6581H47.3986C47.3986 46.1657 47.1723 45.7309 46.8668 45.4254L45.4526 46.8396ZM45.3986 46.6581C45.3986 46.6662 45.3982 46.6798 45.3968 46.697C45.3954 46.7141 45.3934 46.7294 45.3915 46.741C45.3894 46.7538 45.3888 46.7537 45.392 46.7423C45.3937 46.7362 45.3977 46.7226 45.4051 46.7034C45.412 46.6853 45.4254 46.6527 45.448 46.612L47.1963 47.5833C47.3085 47.3814 47.3486 47.1654 47.3651 47.065C47.3869 46.9326 47.3986 46.79 47.3986 46.6581H45.3986ZM45.4084 46.6916C45.4302 46.6425 45.452 46.6062 45.4667 46.5839C45.482 46.5606 45.4952 46.5436 45.5041 46.5327C45.5214 46.5118 45.5334 46.501 45.5373 46.4975C45.5412 46.4941 45.5531 46.483 45.5869 46.4682L46.3885 48.3005C46.5752 48.2189 46.7352 48.1075 46.8586 47.9989C46.9613 47.9085 47.1311 47.7399 47.236 47.5038L45.4084 46.6916ZM45.5171 46.502C45.5188 46.5011 45.5183 46.5015 45.5154 46.5028C45.5125 46.5041 45.5083 46.5059 45.5028 46.5081C45.4913 46.5127 45.4785 46.5171 45.4666 46.5206C45.4609 46.5223 45.4565 46.5234 45.4536 46.5241C45.4505 46.5249 45.4502 46.5249 45.4526 46.5244C45.4547 46.524 45.4621 46.5227 45.4743 46.5214C45.4805 46.5207 45.4889 46.5199 45.4992 46.5193C45.5094 46.5187 45.5226 46.5182 45.5385 46.5182V48.5182C45.7313 48.5182 45.9141 48.4737 46.031 48.4393C46.1639 48.4002 46.3153 48.343 46.4583 48.2667L45.5171 46.502ZM45.5385 46.5182C45.5988 46.5182 45.6461 46.5248 45.676 46.5303C45.707 46.536 45.7303 46.5425 45.7448 46.547C45.7726 46.5558 45.7864 46.5629 45.787 46.5632C45.7888 46.5641 45.7873 46.5634 45.7846 46.5616C45.7817 46.5596 45.7832 46.5602 45.7889 46.5656L44.428 48.0312C44.5689 48.1619 44.7283 48.2687 44.8816 48.3465C45.0035 48.4084 45.248 48.5182 45.5385 48.5182V46.5182ZM45.7593 46.5391C45.7733 46.5511 45.7823 46.5603 45.7866 46.5649C45.7911 46.5697 45.793 46.5721 45.7926 46.5717C45.7914 46.5701 45.7869 46.564 45.7814 46.5547C45.7758 46.5453 45.7739 46.5404 45.7749 46.5428C45.7756 46.5445 45.7781 46.5506 45.7814 46.5612C45.7846 46.5714 45.7901 46.5904 45.7951 46.6171L43.8294 46.9857C43.873 47.2186 43.9736 47.4271 44.0605 47.5737C44.15 47.725 44.2824 47.9074 44.4577 48.0576L45.7593 46.5391ZM45.7894 46.589C45.7891 46.5875 45.796 46.618 45.795 46.6685C45.794 46.7237 45.784 46.7802 45.7668 46.8311C45.7512 46.8775 45.7353 46.9019 45.7372 46.8989C45.7402 46.8942 45.7541 46.8732 45.7909 46.8277L44.235 45.571C44.1176 45.7164 43.9619 45.925 43.872 46.1912C43.7678 46.4998 43.7843 46.7802 43.8351 47.0139L45.7894 46.589ZM45.7786 46.8426C45.813 46.8016 45.8264 46.7895 45.8247 46.7911C45.8205 46.7949 45.7947 46.8175 45.7491 46.8415C45.7009 46.8669 45.6537 46.8818 45.6164 46.8891C45.5845 46.8953 45.5722 46.8936 45.5959 46.8936V44.8936C45.3784 44.8936 45.1025 44.9216 44.8167 45.0722C44.5538 45.2107 44.3718 45.4078 44.2472 45.5562L45.7786 46.8426ZM55.4297 46.8936C55.4578 46.8936 55.4468 46.8956 55.4148 46.8894C55.3766 46.882 55.3266 46.8664 55.275 46.8389C55.2266 46.813 55.1995 46.7886 55.1959 46.7853C55.1953 46.7847 55.2096 46.7981 55.2469 46.8426L56.7783 45.5562C56.6616 45.4172 56.4814 45.2159 56.2174 45.0748C55.9273 44.9199 55.6465 44.8936 55.4297 44.8936V46.8936ZM55.22 46.8091C55.2555 46.8552 55.2693 46.8768 55.2728 46.8826C55.2752 46.8867 55.2609 46.8638 55.2467 46.82C55.231 46.7718 55.2219 46.7181 55.2211 46.6653C55.2203 46.6169 55.2269 46.5877 55.2266 46.589L57.1809 47.0139C57.2318 46.78 57.2471 46.5047 57.1489 46.2023C57.0641 45.941 56.9163 45.734 56.8053 45.5897L55.22 46.8091ZM55.2209 46.6171C55.2259 46.5904 55.2314 46.5714 55.2346 46.5612C55.2379 46.5506 55.2404 46.5445 55.2411 46.5428C55.2421 46.5404 55.2402 46.5453 55.2346 46.5547C55.2291 46.564 55.2246 46.5701 55.2234 46.5717C55.223 46.5721 55.2249 46.5697 55.2294 46.5649C55.2337 46.5603 55.2427 46.5511 55.2567 46.5391L56.5583 48.0576C56.7336 47.9074 56.866 47.725 56.9555 47.5737C57.0424 47.4271 57.143 47.2186 57.1866 46.9857L55.2209 46.6171ZM55.2271 46.5656C55.2328 46.5602 55.2343 46.5596 55.2314 46.5616C55.2287 46.5634 55.2272 46.5641 55.229 46.5632C55.2296 46.5629 55.2434 46.5558 55.2712 46.547C55.2857 46.5425 55.309 46.536 55.34 46.5303C55.3699 46.5248 55.4172 46.5182 55.4775 46.5182V48.5182C55.768 48.5182 56.0125 48.4084 56.1344 48.3465C56.2877 48.2687 56.4471 48.1619 56.588 48.0312L55.2271 46.5656ZM55.4775 46.5182C55.4934 46.5182 55.5066 46.5187 55.5168 46.5193C55.527 46.5199 55.5354 46.5207 55.5416 46.5214C55.5536 46.5227 55.5608 46.524 55.5625 46.5243C55.5646 46.5247 55.5637 46.5246 55.56 46.5237C55.5564 46.5228 55.5511 46.5214 55.5444 46.5195C55.5305 46.5155 55.5146 46.5102 55.4989 46.5041C55.4829 46.498 55.4716 46.4928 55.466 46.49L54.5715 48.2788C54.709 48.3476 54.8549 48.402 54.9876 48.4404C55.1023 48.4737 55.2849 48.5182 55.4775 48.5182V46.5182ZM55.4416 46.4782C55.462 46.4877 55.4724 46.4947 55.474 46.4959C55.4748 46.4964 55.4753 46.4967 55.4756 46.497C55.4759 46.4972 55.476 46.4973 55.4761 46.4973C55.4761 46.4973 55.4761 46.4973 55.4763 46.4975C55.4765 46.4977 55.4775 46.4986 55.4794 46.5005C55.4812 46.5023 55.4849 46.5061 55.4902 46.5121C55.4952 46.5179 55.5037 46.528 55.5142 46.5424C55.5243 46.5563 55.5404 46.5796 55.5584 46.612L53.8101 47.5833C53.9123 47.7672 54.0537 47.9097 54.155 47.9989C54.2682 48.0985 54.4186 48.2078 54.5959 48.2906L55.4416 46.4782ZM55.5981 46.6916C55.6055 46.7082 55.611 46.7222 55.6149 46.7327C55.6188 46.7433 55.6217 46.752 55.6237 46.7583C55.6275 46.7704 55.6293 46.7777 55.6296 46.7789C55.63 46.7804 55.6296 46.7789 55.6287 46.7743C55.6278 46.7697 55.6267 46.7634 55.6255 46.7554C55.6231 46.7389 55.6209 46.7198 55.6193 46.7006C55.6178 46.681 55.6174 46.6663 55.6174 46.6581H53.6174C53.6174 46.7899 53.6291 46.928 53.6474 47.0506C53.6621 47.1489 53.694 47.3318 53.7704 47.5038L55.5981 46.6916ZM55.616 46.7106C55.6144 46.7412 55.6099 46.7615 55.6073 46.7715C55.6046 46.7819 55.602 46.788 55.6006 46.7912C55.5991 46.7944 55.5969 46.7988 55.5927 46.805C55.5886 46.811 55.5797 46.8233 55.5634 46.8396L54.1492 45.4254C53.8485 45.7261 53.6418 46.1665 53.6187 46.6055L55.616 46.7106ZM55.5634 46.8396C55.5735 46.8294 55.5529 46.8524 55.5039 46.8731C55.4813 46.8826 55.4607 46.8883 55.4447 46.8912C55.4295 46.894 55.4234 46.8936 55.4297 46.8936V44.8936C54.9148 44.8936 54.4914 45.0831 54.1492 45.4254L55.5634 46.8396ZM64.3556 46.8936C64.3316 46.8936 64.314 46.8921 64.3042 46.8911C64.294 46.89 64.2877 46.8889 64.2855 46.8885C64.2818 46.8878 64.2848 46.8882 64.2923 46.8906C64.2996 46.8929 64.304 46.8948 64.3036 46.8946C64.3031 46.8943 64.2994 46.8927 64.2931 46.8893C64.2869 46.886 64.2753 46.8794 64.2596 46.869L65.369 45.2049C65.2079 45.0975 65.0318 45.0265 64.8919 44.9826C64.755 44.9395 64.5616 44.8936 64.3556 44.8936V46.8936ZM64.2902 46.8886C64.2504 46.8641 64.229 46.8443 64.2241 46.8397C64.2177 46.8337 64.2171 46.8324 64.2201 46.8361C64.2213 46.8375 64.2225 46.8392 64.2237 46.8407C64.2248 46.8423 64.2253 46.8432 64.2253 46.8431C64.2253 46.8431 64.224 46.8411 64.2218 46.8369C64.2197 46.8329 64.2156 46.825 64.2105 46.8131L66.0488 46.0252C65.9764 45.8562 65.8749 45.7014 65.774 45.577C65.6768 45.457 65.5304 45.3034 65.3384 45.1852L64.2902 46.8886ZM64.1977 46.7816C64.1931 46.7698 64.1841 46.7435 64.1781 46.7063C64.1719 46.668 64.1708 46.6309 64.1734 46.5985C64.178 46.5402 64.192 46.5294 64.1609 46.6029L66.0029 47.3822C66.0769 47.2073 66.1483 46.9958 66.1672 46.7559C66.1877 46.4959 66.1423 46.2639 66.0617 46.0567L64.1977 46.7816ZM64.1627 46.5986C64.1669 46.589 64.171 46.5822 64.181 46.5717C64.187 46.5654 64.1998 46.5529 64.2219 46.5376C64.2434 46.5227 64.2817 46.4996 64.3381 46.4796L65.0038 48.3656C65.5032 48.1893 65.8398 47.7626 66.001 47.3865L64.1627 46.5986ZM64.2996 46.4941C64.3149 46.488 64.326 46.4845 64.3319 46.4828C64.335 46.4819 64.3373 46.4813 64.3387 46.4809C64.3402 46.4805 64.3409 46.4804 64.341 46.4804C64.3411 46.4803 64.3393 46.4807 64.3359 46.4812C64.3325 46.4817 64.3282 46.4822 64.3235 46.4827C64.3132 46.4836 64.3051 46.4836 64.3015 46.4835C64.3 46.4835 64.3012 46.4835 64.305 46.4838C64.3087 46.4842 64.3171 46.4852 64.3296 46.4875L63.9611 48.4533C64.2878 48.5145 64.711 48.4836 65.0423 48.3511L64.2996 46.4941ZM64.3415 46.4898C64.3882 46.4992 64.4185 46.5112 64.4324 46.5172C64.4478 46.5239 64.4589 46.5303 64.4679 46.5362C64.4767 46.542 64.491 46.5522 64.5095 46.5699C64.5265 46.5862 64.5602 46.6211 64.5956 46.6787L62.8923 47.7269C63.0319 47.9538 63.2217 48.1106 63.3712 48.2087C63.5247 48.3093 63.7242 48.406 63.9492 48.451L64.3415 46.4898ZM64.576 46.6481C64.5844 46.6607 64.5909 46.6713 64.5955 46.6793C64.6001 46.6874 64.6035 46.6938 64.6059 46.6984C64.6103 46.7071 64.6121 46.7115 64.6118 46.7109C64.6117 46.7104 64.6104 46.7073 64.6084 46.7016C64.6065 46.6959 64.6043 46.6889 64.602 46.6808C64.5998 46.6727 64.5977 46.6644 64.5959 46.6562C64.5941 46.6481 64.5928 46.641 64.5919 46.6353C64.591 46.6296 64.5907 46.6264 64.5907 46.6261C64.5906 46.6256 64.5911 46.63 64.5911 46.639H62.5911C62.5911 46.8513 62.6307 47.0572 62.6756 47.2184C62.7174 47.3678 62.7903 47.575 62.9119 47.7575L64.576 46.6481ZM64.5905 46.6045C64.5877 46.5236 64.6037 46.6177 64.5398 46.7515C64.4734 46.8903 64.3832 46.9423 64.4373 46.903L63.2609 45.2855C63.1047 45.3991 62.8808 45.5849 62.7355 45.8886C62.5927 46.1872 62.5849 46.4772 62.5916 46.6734L64.5905 46.6045ZM64.4738 46.8751C64.4576 46.8881 64.4499 46.8918 64.4538 46.8896C64.4568 46.888 64.4625 46.8852 64.4689 46.8827C64.4759 46.88 64.4756 46.8807 64.4658 46.883C64.4604 46.8842 64.4494 46.8866 64.4332 46.8887C64.4176 46.8908 64.391 46.8936 64.3556 46.8936V44.8936C64.1141 44.8936 63.8919 44.9611 63.7429 45.0191C63.5806 45.0823 63.393 45.1785 63.2244 45.3134L64.4738 46.8751ZM49.8359 30.5371L52.5909 33.2921L54.0051 31.8779L51.2501 29.1229L49.8359 30.5371ZM52.5909 33.2921C52.9709 33.6721 53.4557 33.8462 53.963 33.8462V31.8462C53.9373 31.8462 53.9407 31.8424 53.9605 31.8502C53.9697 31.8538 53.9794 31.8588 53.9883 31.8647C53.9972 31.8706 54.0028 31.8756 54.0051 31.8779L52.5909 33.2921ZM53.963 33.8462C54.4703 33.8462 54.955 33.6721 55.3351 33.2921L53.9209 31.8779C53.9231 31.8756 53.9287 31.8706 53.9376 31.8647C53.9466 31.8588 53.9562 31.8538 53.9654 31.8502C53.9853 31.8424 53.9886 31.8462 53.963 31.8462V33.8462ZM55.3351 33.2921C55.7151 32.9121 55.8892 32.4273 55.8892 31.92H53.8892C53.8892 31.9456 53.8854 31.9423 53.8932 31.9225C53.8968 31.9133 53.9017 31.9036 53.9077 31.8946C53.9135 31.8857 53.9186 31.8802 53.9209 31.8779L55.3351 33.2921ZM55.8892 31.92C55.8892 31.4127 55.7151 30.9279 55.3351 30.5479L53.9209 31.9621C53.9186 31.9598 53.9135 31.9543 53.9077 31.9454C53.9017 31.9364 53.8968 31.9267 53.8932 31.9175C53.8854 31.8977 53.8892 31.8944 53.8892 31.92H55.8892ZM55.3351 30.5479L52.5801 27.7929L51.1659 29.2071L53.9209 31.9621L55.3351 30.5479ZM52.5801 29.2071L55.3351 26.4521L53.9209 25.0379L51.1659 27.7929L52.5801 29.2071ZM55.3351 26.4521C55.7151 26.0721 55.8892 25.5873 55.8892 25.08H53.8892C53.8892 25.1056 53.8854 25.1023 53.8932 25.0825C53.8968 25.0733 53.9017 25.0636 53.9077 25.0546C53.9135 25.0457 53.9186 25.0402 53.9209 25.0379L55.3351 26.4521ZM55.8892 25.08C55.8892 24.5727 55.7151 24.0879 55.3351 23.7079L53.9209 25.1221C53.9186 25.1198 53.9135 25.1143 53.9077 25.1054C53.9017 25.0964 53.8968 25.0867 53.8932 25.0775C53.8854 25.0577 53.8892 25.0544 53.8892 25.08H55.8892ZM55.3351 23.7079C54.955 23.3279 54.4703 23.1537 53.963 23.1537V25.1537C53.9886 25.1537 53.9853 25.1576 53.9654 25.1498C53.9562 25.1462 53.9466 25.1412 53.9376 25.1353C53.9287 25.1294 53.9231 25.1244 53.9209 25.1221L55.3351 23.7079ZM53.963 23.1537C53.4557 23.1537 52.9709 23.3279 52.5909 23.7079L54.0051 25.1221C54.0028 25.1244 53.9972 25.1294 53.9883 25.1353C53.9794 25.1412 53.9697 25.1462 53.9605 25.1498C53.9407 25.1576 53.9373 25.1537 53.963 25.1537V23.1537ZM52.5909 23.7079L49.8359 26.4629L51.2501 27.8771L54.0051 25.1221L52.5909 23.7079ZM51.2501 26.4629L48.4951 23.7079L47.0809 25.1221L49.8359 27.8771L51.2501 26.4629ZM48.4951 23.7079C48.115 23.3279 47.6303 23.1537 47.123 23.1537V25.1537C47.1486 25.1537 47.1453 25.1576 47.1254 25.1498C47.1162 25.1462 47.1066 25.1412 47.0976 25.1353C47.0887 25.1294 47.0831 25.1244 47.0809 25.1221L48.4951 23.7079ZM47.123 23.1537C46.6157 23.1537 46.1309 23.3279 45.7509 23.7079L47.1651 25.1221C47.1628 25.1244 47.1572 25.1294 47.1483 25.1353C47.1394 25.1412 47.1297 25.1462 47.1205 25.1498C47.1007 25.1576 47.0973 25.1537 47.123 25.1537V23.1537ZM45.7509 23.7079C45.3708 24.0879 45.1967 24.5727 45.1967 25.08H47.1967C47.1967 25.0544 47.2006 25.0577 47.1928 25.0775C47.1892 25.0867 47.1842 25.0964 47.1783 25.1054C47.1724 25.1143 47.1674 25.1198 47.1651 25.1221L45.7509 23.7079ZM45.1967 25.08C45.1967 25.5873 45.3708 26.0721 45.7509 26.4521L47.1651 25.0379C47.1674 25.0402 47.1724 25.0457 47.1783 25.0546C47.1842 25.0636 47.1892 25.0733 47.1928 25.0825C47.2006 25.1023 47.1967 25.1056 47.1967 25.08H45.1967ZM45.7509 26.4521L48.5059 29.2071L49.9201 27.7929L47.1651 25.0379L45.7509 26.4521ZM48.5059 27.7929L45.7509 30.5479L47.1651 31.9621L49.9201 29.2071L48.5059 27.7929ZM45.7509 30.5479C45.3708 30.9279 45.1967 31.4127 45.1967 31.92H47.1967C47.1967 31.8944 47.2006 31.8977 47.1928 31.9175C47.1892 31.9267 47.1842 31.9364 47.1783 31.9454C47.1724 31.9543 47.1674 31.9598 47.1651 31.9621L45.7509 30.5479ZM45.1967 31.92C45.1967 32.4273 45.3708 32.9121 45.7509 33.2921L47.1651 31.8779C47.1674 31.8802 47.1724 31.8857 47.1783 31.8946C47.1842 31.9036 47.1892 31.9133 47.1928 31.9225C47.2006 31.9423 47.1967 31.9456 47.1967 31.92H45.1967ZM45.7509 33.2921C46.1309 33.6721 46.6157 33.8462 47.123 33.8462V31.8462C47.0973 31.8462 47.1007 31.8424 47.1205 31.8502C47.1297 31.8538 47.1394 31.8588 47.1483 31.8647C47.1572 31.8706 47.1628 31.8756 47.1651 31.8779L45.7509 33.2921ZM47.123 33.8462C47.6303 33.8462 48.115 33.6721 48.4951 33.2921L47.0809 31.8779C47.0831 31.8756 47.0887 31.8706 47.0976 31.8647C47.1066 31.8588 47.1162 31.8538 47.1254 31.8502C47.1453 31.8424 47.1486 31.8462 47.123 31.8462V33.8462ZM48.4951 33.2921L51.2501 30.5371L49.8359 29.1229L47.0809 31.8779L48.4951 33.2921ZM50.543 37C49.359 37 48.2596 36.776 47.2344 36.3333L46.4416 38.1695C47.728 38.725 49.0986 39 50.543 39V37ZM47.2344 36.3333C46.1895 35.8822 45.2906 35.2754 44.5286 34.5139L43.1149 35.9286C44.0628 36.8759 45.1748 37.6225 46.4416 38.1695L47.2344 36.3333ZM44.5288 34.5141C43.7669 33.7522 43.1603 32.8536 42.7098 31.809L40.8733 32.601C41.4197 33.8681 42.1665 34.9803 43.1146 35.9284L44.5288 34.5141ZM42.7098 31.809C42.2676 30.7836 42.0435 29.6838 42.043 28.4995L40.043 28.5005C40.0437 29.9446 40.3186 31.3148 40.8733 32.601L42.7098 31.809ZM42.043 28.5C42.043 27.3161 42.267 26.2166 42.7096 25.1914L40.8735 24.3986C40.318 25.6851 40.043 27.0556 40.043 28.5H42.043ZM42.7096 25.1914C43.1608 24.1465 43.7676 23.2476 44.5291 22.4856L43.1143 21.0719C42.1671 22.0199 41.4205 23.1318 40.8735 24.3986L42.7096 25.1914ZM44.5288 22.4859C45.2907 21.7239 46.1894 21.1173 47.234 20.6669L46.442 18.8303C45.1749 19.3768 44.0627 20.1236 43.1146 21.0716L44.5288 22.4859ZM47.234 20.6669C48.2594 20.2247 49.3592 20.0006 50.5435 20L50.5425 18C49.0984 18.0007 47.7282 18.2757 46.442 18.8303L47.234 20.6669ZM50.543 20C51.7269 20 52.8264 20.224 53.8516 20.6667L54.6444 18.8305C53.3579 18.275 51.9874 18 50.543 18V20ZM53.8516 20.6667C54.8964 21.1178 55.7953 21.7246 56.5574 22.4861L57.9711 21.0714C57.0231 20.1241 55.9112 19.3775 54.6444 18.8305L53.8516 20.6667ZM56.5571 22.4859C57.3191 23.2479 57.9261 24.1467 58.3772 25.1914L60.2134 24.3986C59.6664 23.1317 58.9193 22.0196 57.9713 21.0716L56.5571 22.4859ZM58.3772 25.1914C58.8198 26.2164 59.0435 27.3157 59.043 28.4995L61.043 28.5005C61.0437 27.0559 60.7689 25.6852 60.2134 24.3986L58.3772 25.1914ZM59.043 28.5C59.043 29.6839 58.8189 30.7834 58.3763 31.8086L60.2124 32.6014C60.7679 31.3149 61.043 29.9444 61.043 28.5H59.043ZM58.3763 31.8086C57.9251 32.8535 57.3183 33.7524 56.5568 34.5144L57.9716 35.9281C58.9188 34.9801 59.6655 33.8682 60.2124 32.6014L58.3763 31.8086ZM56.5571 34.5141C55.7951 35.2762 54.8963 35.8832 53.8516 36.3343L54.6444 38.1704C55.9113 37.6234 57.0233 36.8763 57.9713 35.9284L56.5571 34.5141ZM53.8516 36.3343C52.8265 36.7769 51.7272 37.0006 50.5435 37L50.5425 39C51.987 39.0007 53.3577 38.726 54.6444 38.1704L53.8516 36.3343ZM50.543 37.1C52.9242 37.1 54.9774 36.2623 56.6413 34.5984L55.2271 33.1841C53.9461 34.4652 52.405 35.1 50.543 35.1V37.1ZM56.6413 34.5984C58.3053 32.9344 59.143 30.8813 59.143 28.5H57.143C57.143 30.3621 56.5081 31.9031 55.2271 33.1841L56.6413 34.5984ZM59.143 28.5C59.143 26.1187 58.3053 24.0656 56.6413 22.4016L55.2271 23.8159C56.5081 25.0969 57.143 26.6379 57.143 28.5H59.143ZM56.6413 22.4016C54.9774 20.7377 52.9242 19.9 50.543 19.9V21.9C52.405 21.9 53.9461 22.5348 55.2271 23.8159L56.6413 22.4016ZM50.543 19.9C48.1617 19.9 46.1086 20.7377 44.4446 22.4016L45.8588 23.8159C47.1399 22.5348 48.6809 21.9 50.543 21.9V19.9ZM44.4446 22.4016C42.7806 24.0656 41.943 26.1187 41.943 28.5H43.943C43.943 26.6379 44.5778 25.0969 45.8588 23.8159L44.4446 22.4016ZM41.943 28.5C41.943 30.8813 42.7806 32.9344 44.4446 34.5984L45.8588 33.1841C44.5778 31.9031 43.943 30.3621 43.943 28.5H41.943ZM44.4446 34.5984C46.1086 36.2623 48.1617 37.1 50.543 37.1V35.1C48.6809 35.1 47.1399 34.4652 45.8588 33.1841L44.4446 34.5984Z" fill="white" mask="url(#path-2-inside-1_2246_25183)"/>
<path d="M39.67 81.14C38.6433 81.14 37.7613 80.9347 37.024 80.524C36.296 80.104 35.736 79.516 35.344 78.76C34.952 77.9947 34.756 77.094 34.756 76.058C34.756 75.2833 34.868 74.588 35.092 73.972C35.316 73.3467 35.638 72.8147 36.058 72.376C36.478 71.928 36.9913 71.5873 37.598 71.354C38.214 71.1113 38.9047 70.99 39.67 70.99C40.1833 70.99 40.6873 71.0553 41.182 71.186C41.6767 71.3167 42.1107 71.5033 42.484 71.746C42.68 71.8673 42.8107 72.0167 42.876 72.194C42.9413 72.362 42.9553 72.53 42.918 72.698C42.8807 72.8567 42.8013 72.992 42.68 73.104C42.568 73.216 42.4233 73.2813 42.246 73.3C42.078 73.3093 41.8913 73.2487 41.686 73.118C41.3967 72.9313 41.084 72.796 40.748 72.712C40.412 72.628 40.0713 72.586 39.726 72.586C39.0633 72.586 38.5033 72.7213 38.046 72.992C37.5887 73.2627 37.2433 73.6547 37.01 74.168C36.7767 74.6813 36.66 75.3113 36.66 76.058C36.66 76.7953 36.7767 77.4253 37.01 77.948C37.2433 78.4707 37.5887 78.8673 38.046 79.138C38.5033 79.4087 39.0633 79.544 39.726 79.544C40.0807 79.544 40.4307 79.502 40.776 79.418C41.1213 79.3247 41.448 79.1847 41.756 78.998C41.9613 78.8767 42.1433 78.8253 42.302 78.844C42.47 78.8533 42.61 78.9093 42.722 79.012C42.834 79.1147 42.9087 79.2453 42.946 79.404C42.9833 79.5533 42.974 79.712 42.918 79.88C42.862 80.0387 42.75 80.1787 42.582 80.3C42.2087 80.5707 41.7607 80.7807 41.238 80.93C40.7247 81.07 40.202 81.14 39.67 81.14ZM47.0554 81.14C46.3461 81.14 45.7301 80.9953 45.2074 80.706C44.6848 80.4167 44.2788 80.006 43.9894 79.474C43.7001 78.9327 43.5554 78.298 43.5554 77.57C43.5554 77.0193 43.6348 76.5293 43.7934 76.1C43.9614 75.6613 44.1994 75.288 44.5074 74.98C44.8154 74.6627 45.1841 74.4247 45.6134 74.266C46.0428 74.098 46.5234 74.014 47.0554 74.014C47.7648 74.014 48.3808 74.1587 48.9034 74.448C49.4261 74.7373 49.8321 75.148 50.1214 75.68C50.4108 76.212 50.5554 76.842 50.5554 77.57C50.5554 78.1207 50.4714 78.6153 50.3034 79.054C50.1448 79.4927 49.9114 79.8707 49.6034 80.188C49.2954 80.496 48.9268 80.734 48.4974 80.902C48.0681 81.0607 47.5874 81.14 47.0554 81.14ZM47.0554 79.81C47.4008 79.81 47.7041 79.726 47.9654 79.558C48.2268 79.39 48.4274 79.1427 48.5674 78.816C48.7168 78.48 48.7914 78.0647 48.7914 77.57C48.7914 76.8233 48.6328 76.268 48.3154 75.904C47.9981 75.5307 47.5781 75.344 47.0554 75.344C46.7101 75.344 46.4068 75.428 46.1454 75.596C45.8841 75.7547 45.6788 76.002 45.5294 76.338C45.3894 76.6647 45.3194 77.0753 45.3194 77.57C45.3194 78.3073 45.4781 78.8673 45.7954 79.25C46.1128 79.6233 46.5328 79.81 47.0554 79.81ZM52.8678 81.112C52.5878 81.112 52.3732 81.0373 52.2238 80.888C52.0745 80.7293 51.9998 80.5053 51.9998 80.216V74.924C51.9998 74.6347 52.0745 74.4153 52.2238 74.266C52.3732 74.1167 52.5832 74.042 52.8538 74.042C53.1245 74.042 53.3345 74.1167 53.4838 74.266C53.6332 74.4153 53.7078 74.6347 53.7078 74.924V75.876L53.5538 75.526C53.7592 75.0313 54.0765 74.658 54.5058 74.406C54.9445 74.1447 55.4392 74.014 55.9898 74.014C56.5405 74.014 56.9932 74.1167 57.3478 74.322C57.7025 74.5273 57.9685 74.84 58.1458 75.26C58.3232 75.6707 58.4118 76.1933 58.4118 76.828V80.216C58.4118 80.5053 58.3372 80.7293 58.1878 80.888C58.0385 81.0373 57.8238 81.112 57.5438 81.112C57.2638 81.112 57.0445 81.0373 56.8858 80.888C56.7365 80.7293 56.6618 80.5053 56.6618 80.216V76.912C56.6618 76.38 56.5592 75.9927 56.3538 75.75C56.1578 75.5073 55.8498 75.386 55.4298 75.386C54.9165 75.386 54.5058 75.5493 54.1978 75.876C53.8992 76.1933 53.7498 76.618 53.7498 77.15V80.216C53.7498 80.8133 53.4558 81.112 52.8678 81.112ZM62.6953 81.14C62.294 81.14 61.8693 81.098 61.4213 81.014C60.9733 80.93 60.572 80.7853 60.2173 80.58C60.068 80.4867 59.9606 80.3793 59.8953 80.258C59.8393 80.1273 59.816 80.0013 59.8253 79.88C59.844 79.7493 59.8906 79.6373 59.9653 79.544C60.0493 79.4507 60.152 79.39 60.2733 79.362C60.404 79.334 60.544 79.3573 60.6933 79.432C61.0666 79.6093 61.4166 79.7353 61.7433 79.81C62.07 79.8753 62.392 79.908 62.7093 79.908C63.1573 79.908 63.4886 79.8333 63.7033 79.684C63.9273 79.5253 64.0393 79.32 64.0393 79.068C64.0393 78.8533 63.9646 78.69 63.8153 78.578C63.6753 78.4567 63.4606 78.368 63.1713 78.312L61.7713 78.046C61.1926 77.934 60.7493 77.724 60.4413 77.416C60.1426 77.0987 59.9933 76.6927 59.9933 76.198C59.9933 75.75 60.1146 75.3627 60.3573 75.036C60.6093 74.7093 60.9546 74.4573 61.3933 74.28C61.832 74.1027 62.336 74.014 62.9053 74.014C63.316 74.014 63.6986 74.0607 64.0533 74.154C64.4173 74.238 64.7673 74.3733 65.1033 74.56C65.2433 74.6347 65.3366 74.7327 65.3833 74.854C65.4393 74.9753 65.4533 75.1013 65.4253 75.232C65.3973 75.3533 65.3413 75.4653 65.2573 75.568C65.1733 75.6613 65.066 75.722 64.9353 75.75C64.814 75.7687 64.674 75.7407 64.5153 75.666C64.226 75.5167 63.946 75.4093 63.6753 75.344C63.414 75.2787 63.162 75.246 62.9193 75.246C62.462 75.246 62.1213 75.3253 61.8973 75.484C61.6826 75.6427 61.5753 75.8527 61.5753 76.114C61.5753 76.31 61.6406 76.4733 61.7713 76.604C61.902 76.7347 62.1026 76.8233 62.3733 76.87L63.7733 77.136C64.38 77.248 64.8373 77.4533 65.1453 77.752C65.4626 78.0507 65.6213 78.452 65.6213 78.956C65.6213 79.6373 65.3553 80.174 64.8233 80.566C64.2913 80.9487 63.582 81.14 62.6953 81.14Z" fill="white"/>
</svg>
