<svg width="275" height="43" viewBox="0 0 275 43" fill="none" xmlns="http://www.w3.org/2000/svg">
<path d="M93.9892 32.479H99.9184C104.888 32.479 108.258 29.206 108.258 24.5164C108.258 19.8267 104.888 16.5194 99.9184 16.5194H93.9892V32.479ZM96.7824 30.0171V18.9985H99.9184C103.477 18.9985 105.391 21.4318 105.391 24.5164C105.391 27.6009 103.386 30.0171 99.9184 30.0171H96.7824ZM122.458 32.479H125.669L121.773 26.1957C123.686 25.8873 125.549 24.3564 125.549 21.5118C125.549 18.5701 123.492 16.5137 120.339 16.5137H113.353V32.479H116.146V26.527H118.923L122.458 32.479ZM122.698 21.5289C122.698 23.0598 121.556 24.0651 119.974 24.0651H116.146V18.9985H119.956C121.533 18.9985 122.681 19.9981 122.681 21.5289M130.735 32.479H141.662V30.0171H133.551V25.5959H141.514V23.134H133.551V18.9985H141.662V16.5308H130.752L130.735 32.479ZM158.21 32.479H161.266L154.983 16.5308H151.493L145.21 32.479H148.271L149.442 29.4173H157.085L158.21 32.479ZM153.258 18.9014L156.251 26.9554H150.288L153.258 18.9014ZM179.191 32.479H181.984V16.5308H178.043L173.69 27.2696L169.366 16.5308H165.419V32.479H168.218V20.4036L173.079 32.479H174.279L179.179 20.4036L179.191 32.479ZM195.299 32.7646C196.609 32.8073 197.906 32.4968 199.055 31.8657C200.204 31.2346 201.162 30.306 201.828 29.1774L199.435 27.9893C199.006 28.6989 198.398 29.2834 197.672 29.6844C196.946 30.0853 196.128 30.2887 195.299 30.2741C192.266 30.2741 189.924 27.8579 189.924 24.5106C189.924 21.1633 192.266 18.7528 195.299 18.7528C196.131 18.7453 196.95 18.9553 197.675 19.3621C198.401 19.7689 199.007 20.3584 199.435 21.072L201.828 19.8496C201.164 18.7185 200.207 17.7879 199.058 17.1564C197.908 16.5249 196.61 16.216 195.299 16.2624C194.206 16.2275 193.118 16.4169 192.102 16.8191C191.085 17.2212 190.162 17.8275 189.389 18.6005C188.616 19.3735 188.01 20.2968 187.607 21.3133C187.205 22.3298 187.016 23.418 187.051 24.5106C187.015 25.6037 187.204 26.6925 187.606 27.7097C188.008 28.7269 188.614 29.6509 189.387 30.4245C190.16 31.1981 191.083 31.8049 192.1 32.2074C193.117 32.6099 194.206 32.7996 195.299 32.7646ZM206.455 32.479H216.285V30.0171H209.254V16.5308H206.455V32.479ZM219.758 24.5164C219.758 29.2745 223.128 32.7646 227.909 32.7646C232.69 32.7646 236.061 29.2745 236.061 24.5164C236.061 19.7582 232.69 16.2681 227.915 16.2681C223.14 16.2681 219.764 19.7582 219.764 24.5164M233.199 24.5164C233.193 27.7951 231.114 30.2741 227.915 30.2741C224.716 30.2741 222.631 27.7894 222.631 24.5106C222.631 21.2319 224.688 18.7528 227.915 18.7528C231.142 18.7528 233.199 21.2148 233.199 24.5106M241.15 26.1843C241.15 30.1085 243.435 32.7589 248.062 32.7589C252.689 32.7589 254.945 30.1313 254.945 26.1614V16.5308H252.123V26.0986C252.123 28.6291 250.712 30.2799 248.062 30.2799C245.411 30.2799 243.972 28.6291 243.972 26.0986V16.5308H241.15V26.1843ZM260.725 32.4676H266.655C271.624 32.4676 275 29.1946 275 24.5049C275 19.8153 271.624 16.508 266.655 16.508H260.72L260.725 32.4676ZM263.524 30.0057V18.9985H266.655C270.219 18.9985 272.127 21.4318 272.127 24.5164C272.127 27.6009 270.122 30.0171 266.655 30.0171L263.524 30.0057Z" fill="white"/>
<path d="M32.7098 12.9151C35.928 12.9453 39.0771 13.852 41.8186 15.5378C44.5601 17.2236 46.7903 19.6246 48.2696 22.4828C48.7925 20.7684 49.0582 18.9858 49.0578 17.1934C49.0578 7.69991 41.7406 0 32.7098 0C23.679 0 16.3561 7.69991 16.3561 17.1934C16.3511 18.9858 16.6149 20.7687 17.1386 22.4828C18.6188 19.6229 20.8508 17.2208 23.5945 15.5349C26.3382 13.849 29.4897 12.9432 32.7098 12.9151Z" fill="white"/>
<path d="M4.69766 35.8663C5.55928 36.3027 6.47863 36.6143 7.42805 36.7917C6.50731 35.4534 6.00961 33.8694 5.99943 32.245C5.98924 30.6206 6.46704 29.0306 7.37093 27.6808C9.29019 24.7563 12.7803 23.1112 16.3618 23.1683C15.6877 22.5153 14.917 21.9701 14.0769 21.5518C9.59294 19.2669 3.85227 20.6207 1.25898 24.562C-1.33431 28.5034 0.207953 33.5872 4.69766 35.8663Z" fill="white"/>
<path d="M63.458 29.2574C64.7113 31.3188 65.3699 33.6868 65.3608 36.0992C65.3518 38.5117 64.6754 40.8746 63.4066 42.9265C64.718 42.6537 65.9811 42.1858 67.1538 41.5385C68.6062 40.7664 69.8866 39.7072 70.9172 38.4251C71.9478 37.1431 72.707 35.6649 73.1488 34.0804C73.5906 32.4959 73.7058 30.8382 73.4872 29.2078C73.2687 27.5775 72.7211 26.0086 71.8777 24.5964C68.3133 18.6672 60.4249 16.6337 54.2501 20.061C53.0883 20.7022 52.0341 21.5213 51.1256 22.4886C53.596 22.4439 56.0353 23.0449 58.2023 24.2321C60.3692 25.4192 62.1887 27.1514 63.4809 29.2574" fill="white"/>
</svg>
