<svg width="101" height="100" viewBox="0 0 101 100" fill="none" xmlns="http://www.w3.org/2000/svg">
<rect x="0.5" width="100" height="100" rx="20" fill="#384FAE"/>
<path fill-rule="evenodd" clip-rule="evenodd" d="M45.0457 19C45.199 19 45.6409 19.0721 46.0377 19.1804C46.4345 19.2796 46.9666 19.4689 47.2101 19.6042C47.4626 19.7395 47.9496 20.1273 48.2923 20.47C48.8965 21.0652 48.9325 21.0832 49.2843 21.0381C49.4827 21.0111 49.9065 21.0291 50.2312 21.0742C50.5648 21.1283 51.0699 21.2906 51.3945 21.453C51.7372 21.6243 52.1611 21.9399 52.4406 22.2375C52.6932 22.5081 53.0178 22.95 53.1441 23.2115C53.2793 23.464 53.4417 23.8608 53.5048 24.0863C53.586 24.4019 53.6761 24.5192 53.8836 24.6093C54.0279 24.6635 54.3796 24.943 54.6591 25.2136C54.9657 25.5112 55.2724 25.944 55.4437 26.2958C55.597 26.6204 55.7684 27.1435 55.8315 27.4681C55.9036 27.91 55.9036 28.2166 55.8315 28.6856C55.7684 29.0283 55.597 29.5784 55.4347 29.9031C55.2814 30.2277 54.9477 30.6967 54.6952 30.9402C54.4517 31.1927 53.9828 31.5263 53.6581 31.6887C53.3334 31.842 52.8465 32.0133 52.5759 32.0674C52.2693 32.1215 49.5638 32.1576 45.4515 32.1576C39.7971 32.1576 38.7329 32.1306 38.2369 32.0133C37.9123 31.9412 37.4523 31.7698 37.1998 31.6346C36.9563 31.4993 36.5505 31.1836 36.298 30.9311C36.0545 30.6786 35.7208 30.2097 35.5585 29.894C35.4052 29.5784 35.2248 29.0463 35.1797 28.7036C35.1076 28.2798 35.1076 27.919 35.1797 27.4862C35.2248 27.1525 35.3871 26.6294 35.5405 26.3138C35.6848 25.9982 36.0094 25.5472 36.28 25.2767C36.5325 25.0061 37.0014 24.6635 37.3171 24.5101C37.6237 24.3478 37.9393 24.2216 38.0115 24.2216C38.0836 24.2216 38.2459 24.0683 38.3541 23.8789C38.4714 23.6985 38.769 23.3648 39.0125 23.1394C39.265 22.9139 39.6798 22.6434 39.9504 22.5352C40.2209 22.436 40.5095 22.3277 40.5817 22.3007C40.6538 22.2826 40.8612 21.967 41.0506 21.5973C41.249 21.1914 41.5737 20.7315 41.8622 20.4339C42.1328 20.1634 42.5927 19.8116 42.8903 19.6493C43.1789 19.487 43.729 19.2796 44.0988 19.1804C44.4685 19.0902 44.8924 19 45.0457 19V19ZM43.6028 21.002C43.4495 21.0742 43.1609 21.3177 42.9625 21.5341C42.7551 21.7506 42.5025 22.0842 42.4033 22.2826C42.3041 22.481 42.1959 22.7877 42.1598 22.959C42.1328 23.1304 42.0516 23.3378 41.9975 23.4189C41.9344 23.5001 41.7991 23.6083 41.6819 23.6624C41.5737 23.7256 41.3933 23.7706 41.2761 23.7706C41.1678 23.7706 40.9153 23.8248 40.7259 23.8879C40.5275 23.942 40.2119 24.1404 40.0315 24.3117C39.8422 24.4831 39.5896 24.8077 39.4724 25.0332C39.292 25.3669 39.1748 25.4661 38.8592 25.5653C38.6427 25.6374 38.3 25.7547 38.1107 25.8358C37.9123 25.917 37.5966 26.1424 37.3892 26.3408C37.1908 26.5392 36.9473 26.8819 36.8481 27.1074C36.7399 27.3779 36.6768 27.7116 36.6768 28.0994C36.6768 28.5052 36.7399 28.8118 36.8661 29.0914C36.9744 29.3169 37.2088 29.6505 37.3982 29.8399C37.5876 30.0293 37.9213 30.2728 38.1467 30.381L38.5526 30.5794H52.4406C53.126 30.2277 53.4958 29.9391 53.6942 29.7137C53.9016 29.4882 54.118 29.1275 54.1902 28.902C54.2533 28.6856 54.3074 28.2798 54.3074 28.0092C54.3074 27.7387 54.2353 27.3509 54.1541 27.1525C54.0729 26.9541 53.8745 26.6385 53.7212 26.44C53.5499 26.2416 53.1892 25.9801 52.8555 25.8088C52.5398 25.6555 52.2513 25.4841 52.2062 25.439C52.1611 25.3939 52.0889 25.0963 52.0348 24.7807C51.9897 24.4741 51.8725 24.0683 51.7733 23.8789C51.6831 23.6985 51.4306 23.3829 51.2051 23.1845C50.9797 22.9861 50.646 22.7696 50.4476 22.7155C50.2582 22.6524 49.8704 22.5983 49.5999 22.5983C49.3293 22.5983 48.9506 22.6524 48.7702 22.7155C48.5267 22.7967 48.3824 22.7967 48.2291 22.7245C48.1119 22.6704 47.8413 22.3728 47.6159 22.0572C47.3904 21.7415 47.0297 21.3447 46.8042 21.1734C46.5788 21.0111 46.191 20.8127 45.9475 20.7405C45.695 20.6684 45.2892 20.6143 45.0457 20.6233C44.7932 20.6233 44.4324 20.6774 44.234 20.7405C44.0356 20.8036 43.7561 20.9209 43.6028 21.002ZM61.0531 20.1363C61.522 20.1543 62.2976 20.2355 62.7665 20.3167C63.2355 20.3888 64.0922 20.6052 64.6604 20.7946C65.2285 20.975 66.0852 21.3267 66.5542 21.5702C67.0231 21.8137 67.7175 22.2285 68.0873 22.4991C68.457 22.7696 68.9981 23.1935 69.2957 23.446C69.5843 23.6985 70.0893 24.2306 70.423 24.6274C70.7657 25.0242 71.1986 25.5923 71.397 25.8899C71.6044 26.1875 71.9742 26.8549 72.2267 27.3779C72.4882 27.901 72.8128 28.7126 72.9571 29.1816C73.1014 29.6505 73.2908 30.4081 73.381 30.85C73.4802 31.4001 73.5343 32.1035 73.5343 33.0594C73.5343 34.0154 73.4802 34.7098 73.372 35.2689C73.2908 35.7108 73.1195 36.4232 72.9842 36.8471C72.8579 37.271 72.5784 38.0014 72.3529 38.4704C72.1365 38.9393 71.6856 39.7329 71.3519 40.2289C70.9821 40.7791 70.3689 41.5185 69.7557 42.1318C69.1063 42.7811 68.448 43.3312 67.8618 43.728C67.3658 44.0527 66.5722 44.5036 66.1033 44.729C65.6343 44.9455 64.985 45.216 64.6604 45.3242C64.3357 45.4325 63.7315 45.5948 63.3076 45.694C62.8838 45.7842 62.0811 45.9014 61.522 45.9555C60.8096 46.0187 60.1873 46.0187 59.4027 45.9465C58.7985 45.8924 57.8606 45.7391 57.3105 45.6038C56.7604 45.4595 55.9127 45.18 55.4167 44.9725C54.9207 44.7651 54.2353 44.4314 53.8836 44.224C53.5318 44.0256 52.9727 43.6469 52.621 43.3853C52.2693 43.1238 51.7282 42.6729 51.4035 42.3753C51.0789 42.0777 50.7182 41.6538 50.6009 41.4374C50.4386 41.1308 50.4025 40.9594 50.4476 40.6979C50.4747 40.4995 50.628 40.2289 50.8083 40.0215C51.0969 39.7149 51.1601 39.6878 51.6019 39.6878C51.8635 39.6969 52.3865 39.769 52.7563 39.8682C53.2703 39.9945 53.7573 40.0305 54.7403 40.0305C55.8586 40.0305 56.1742 39.9945 56.9498 39.787C57.4458 39.6608 58.2394 39.3632 58.7083 39.1377C59.1773 38.9123 59.7635 38.5786 60.016 38.3982C60.2595 38.2269 60.6653 37.9113 60.8998 37.7129C61.1432 37.5054 61.5851 37.0365 61.8827 36.6667C62.1803 36.297 62.5952 35.7018 62.7936 35.3591C62.992 35.0164 63.2715 34.4212 63.4068 34.0514C63.5421 33.6817 63.7225 33.0053 63.8036 32.5634C63.9209 31.9592 63.9479 31.4632 63.9118 30.6245C63.8848 29.9031 63.8036 29.2357 63.6864 28.7758C63.5782 28.379 63.3798 27.7838 63.2445 27.4591C63.1092 27.1345 62.8297 26.5934 62.6313 26.2507C62.4329 25.917 62.0451 25.3669 61.7745 25.0422C61.495 24.7176 60.9448 24.1855 60.539 23.8608C60.1422 23.5362 59.4568 23.0853 59.0149 22.8508C58.573 22.6163 58.1131 22.3187 57.9869 22.1925C57.8245 22.0211 57.7524 21.8227 57.7344 21.5341C57.7163 21.2275 57.7614 21.0291 57.8877 20.8127C57.9959 20.6594 58.2123 20.461 58.3656 20.3798C58.528 20.2986 59.0059 20.1994 59.4298 20.1634C59.8536 20.1273 60.5841 20.1092 61.0531 20.1363ZM60.9178 22.1834C61.3146 22.454 61.9278 22.95 62.2795 23.2927C62.6222 23.6264 63.1543 24.2306 63.4519 24.6274C63.7405 25.0242 64.1553 25.6915 64.3628 26.1154C64.5792 26.5392 64.8497 27.1886 64.976 27.5583C65.1023 27.9281 65.2736 28.5774 65.3548 29.0012C65.4359 29.4521 65.4991 30.2277 65.4991 30.8951C65.4991 31.5985 65.4359 32.329 65.3457 32.834C65.2556 33.2759 65.0572 33.9883 64.9129 34.4122C64.7596 34.836 64.5161 35.4222 64.3628 35.7198C64.2185 36.0174 63.8848 36.5675 63.6413 36.9373C63.3888 37.307 62.8657 37.9383 62.487 38.3351C62.1082 38.7319 61.4769 39.282 61.0891 39.5706C60.6923 39.8502 60.0069 40.256 59.5651 40.4815C59.1232 40.7069 58.4197 40.9955 58.0049 41.1217C57.5991 41.248 56.9137 41.4193 56.4718 41.4915C56.0389 41.5636 55.2453 41.6268 54.6952 41.6268C54.1451 41.6178 53.5138 41.5907 53.2793 41.5546C53.0449 41.5185 52.8465 41.5095 52.8465 41.5366C52.8374 41.5636 53.0088 41.726 53.2252 41.9063C53.4417 42.0867 53.8745 42.4023 54.1992 42.6098C54.5239 42.8262 55.11 43.1509 55.5068 43.3402C55.9036 43.5296 56.553 43.7821 56.9498 43.9084C57.3466 44.0346 58.1402 44.206 58.7083 44.2871C59.4568 44.4044 60.052 44.4314 60.8727 44.3954C61.495 44.3683 62.3066 44.2781 62.6763 44.206C63.0461 44.1248 63.6774 43.9535 64.0742 43.8272C64.471 43.6919 65.2195 43.3673 65.7425 43.1058C66.2656 42.8442 67.0322 42.3663 67.456 42.0416C67.8799 41.726 68.5111 41.1668 68.8538 40.8061C69.2056 40.4364 69.7106 39.8321 69.9721 39.4624C70.2336 39.0926 70.6755 38.3441 70.9371 37.794C71.2076 37.2439 71.5232 36.4142 71.6405 35.9453C71.7577 35.4763 71.911 34.6647 71.9651 34.1416C72.0283 33.6096 72.0463 32.861 72.0102 32.4282C71.9832 32.0043 71.875 31.2738 71.7848 30.8049C71.6856 30.3359 71.5052 29.6415 71.3699 29.2718C71.2437 28.902 70.9912 28.3068 70.8108 27.9641C70.6395 27.6214 70.2607 26.9902 69.9721 26.5663C69.6925 26.1424 69.0973 25.439 68.6554 24.9971C68.2226 24.5643 67.474 23.942 67.0051 23.6354C66.5362 23.3197 65.8417 22.9229 65.472 22.7516C65.1023 22.5802 64.462 22.3277 64.0471 22.2015C63.6413 22.0752 62.9559 21.9039 62.514 21.8317C62.0811 21.7596 61.3867 21.6965 60.9629 21.6965H60.1963L60.9178 22.1834ZM57.8516 36.0355L58.059 36.2339C58.1853 36.3691 58.2574 36.5405 58.2574 36.7299C58.2574 36.8922 58.2213 37.1086 58.1672 37.2078C58.1131 37.307 57.9418 37.4243 57.7794 37.4784C57.5901 37.5325 54.109 37.5686 47.7512 37.5595C38.5165 37.5595 38.0024 37.5686 37.8131 37.7219C37.7048 37.803 35.829 40.7069 33.6376 44.1699C31.4552 47.6329 29.6696 50.5007 29.6696 50.5548C29.6696 50.6089 36.6768 50.645 50.5017 50.645C64.3267 50.645 71.3339 50.6089 71.3339 50.5548C71.3339 50.5007 70.7026 49.4636 69.936 48.2552C69.1695 47.0377 68.5021 45.9375 68.448 45.8202C68.3939 45.694 68.3849 45.5226 68.4119 45.4325C68.448 45.3423 68.5562 45.18 68.6645 45.0717C68.7907 44.9274 68.953 44.8643 69.1695 44.8643C69.3799 44.8643 69.5513 44.9335 69.6835 45.0717C69.7827 45.18 70.6304 46.4696 71.5503 47.9395C72.5964 49.5989 73.2998 50.7983 73.4081 51.141C73.5794 51.6551 73.5884 51.8895 73.5704 56.4618C73.5433 61.025 73.5343 61.2505 73.363 61.6022C73.2638 61.8006 73.0203 62.1162 72.8219 62.2966C72.5964 62.513 72.2627 62.7114 71.92 62.8196C71.388 62.991 71.0182 63 50.5017 63C29.9852 63 29.6155 62.991 29.0834 62.8196C28.7407 62.7114 28.407 62.513 28.1816 62.2966C27.9832 62.1162 27.7397 61.8006 27.6405 61.6022C27.4691 61.2505 27.4601 61.025 27.4331 56.4798C27.415 51.7452 27.415 51.7182 27.6224 51.114C27.7758 50.663 28.894 48.8053 32.0955 43.7461C34.4402 40.0215 36.4874 36.8471 36.6407 36.6848C36.803 36.5224 37.0916 36.306 37.29 36.2068C37.6417 36.0355 37.8852 36.0355 57.8516 36.0355ZM28.9481 53.7112H33.0965C33.4753 54.081 33.5474 54.2523 33.5474 54.4507C33.5474 54.613 33.4933 54.8114 33.4302 54.8836C33.3671 54.9647 33.2318 55.073 33.1146 55.1361C32.9793 55.2082 32.2668 55.2443 30.9321 55.2443H28.9481C28.9481 60.015 28.9752 60.7995 29.0563 60.9619C29.1195 61.0881 29.2638 61.2324 29.372 61.2775C29.5073 61.3406 36.6948 61.3767 50.5558 61.3767H71.5323L72.0553 60.8356V55.2443H36.4333C35.9824 54.7934 35.8922 54.613 35.8922 54.4327C35.8922 54.2613 35.9733 54.0719 36.1176 53.9367L36.3341 53.7112H72.0553V52.1781H28.9481V53.7112ZM40.4825 39.0926C40.7079 39.0926 40.8702 39.1558 40.9965 39.3001C41.1047 39.4083 41.2129 39.5706 41.249 39.6608C41.2761 39.751 41.249 39.9494 41.1859 40.1117C41.1077 40.3041 40.9634 40.4424 40.753 40.5265C40.4915 40.6348 40.4103 40.6348 40.1849 40.5265C40.0406 40.4634 39.8873 40.3372 39.8512 40.247C39.8061 40.1568 39.761 39.9584 39.752 39.8051C39.743 39.6067 39.7971 39.4534 39.9504 39.3091C40.0857 39.1648 40.266 39.0926 40.4825 39.0926ZM47.4265 39.1017C47.6429 39.1017 47.8233 39.1738 47.9586 39.3001C48.0908 39.4383 48.157 39.6127 48.157 39.8231C48.157 40.0035 48.0848 40.2199 47.9766 40.3372C47.8774 40.4454 47.7061 40.5626 47.5888 40.5897C47.4806 40.6257 47.2732 40.5897 47.1289 40.5265C46.9846 40.4634 46.8133 40.2921 46.7501 40.1568C46.678 40.0215 46.6509 39.8141 46.678 39.7059C46.7141 39.5977 46.8223 39.4083 46.9215 39.3001C47.0477 39.1648 47.2101 39.1017 47.4265 39.1017ZM38.9313 42.8893C38.9944 42.8893 39.1568 42.9434 39.292 43.0066C39.4363 43.0787 39.5716 43.1959 39.6077 43.2771C39.6528 43.3583 39.6798 43.5567 39.6798 43.719C39.6798 43.8994 39.5987 44.0887 39.4724 44.215C39.3371 44.3593 39.1748 44.4224 38.9584 44.4224C38.76 44.4134 38.5706 44.3413 38.4353 44.215C38.303 44.0827 38.2369 43.9114 38.2369 43.701C38.2369 43.5206 38.282 43.3132 38.3451 43.232C38.4083 43.1509 38.5435 43.0426 38.6427 42.9885C38.7419 42.9344 38.8772 42.8893 38.9313 42.8893ZM46.8042 42.9434C46.9305 42.9705 47.1018 43.0607 47.192 43.1418C47.2732 43.223 47.3724 43.4034 47.3904 43.5386C47.4175 43.6739 47.3814 43.8994 47.3093 44.0346C47.2461 44.1699 47.1199 44.3142 47.0387 44.3503C46.9576 44.3864 46.7682 44.4224 46.6239 44.4224C46.4525 44.4224 46.2722 44.3322 46.1279 44.197C46.0016 44.0617 45.9024 43.8633 45.9024 43.719C45.9024 43.5837 45.9655 43.3763 46.0467 43.2591C46.1279 43.1509 46.2812 43.0156 46.3894 42.9705C46.4886 42.9254 46.678 42.9164 46.8042 42.9434ZM37.4343 46.7672C37.5966 46.7672 37.786 46.8483 37.9213 46.9926C38.0746 47.1459 38.1467 47.3173 38.1467 47.5337C38.1467 47.7411 38.0746 47.9215 37.9213 48.0748C37.786 48.2101 37.6056 48.3003 37.4253 48.3003C37.272 48.3003 37.0555 48.2101 36.9022 48.0748C36.7218 47.9125 36.6587 47.7772 36.6587 47.5247C36.6587 47.2722 36.7218 47.1369 36.9112 46.9746C37.0555 46.8573 37.281 46.7672 37.4343 46.7672ZM45.9114 46.7672C46.0738 46.7672 46.2631 46.8483 46.3984 46.9926C46.5517 47.1459 46.6239 47.3173 46.6239 47.5337C46.6239 47.7411 46.5517 47.9215 46.3984 48.0748C46.2631 48.2101 46.0828 48.3003 45.9024 48.3003C45.7491 48.3003 45.5327 48.2101 45.3794 48.0748C45.199 47.9125 45.1359 47.7772 45.1359 47.5247C45.1359 47.2722 45.199 47.1369 45.3884 46.9746C45.5327 46.8573 45.7581 46.7672 45.9114 46.7672ZM55.101 46.7672C55.2543 46.7672 55.4708 46.8483 55.6151 46.9836C55.8044 47.1459 55.8676 47.2812 55.8676 47.5337C55.8676 47.7772 55.8044 47.9125 55.6151 48.0748C55.4798 48.2011 55.2543 48.3003 55.101 48.3003C54.9297 48.3003 54.7493 48.2101 54.605 48.0748C54.4427 47.9125 54.3796 47.7502 54.3796 47.5247C54.3856 47.3143 54.4607 47.1339 54.605 46.9836C54.7403 46.8483 54.9207 46.7672 55.101 46.7672ZM63.5782 46.7672C63.7315 46.7672 63.9479 46.8483 64.0832 46.9656C64.2636 47.1189 64.3177 47.2542 64.3177 47.5337C64.3177 47.8043 64.2636 47.9395 64.0832 48.0928C63.9479 48.2101 63.7315 48.3003 63.5782 48.3003C63.4068 48.3003 63.2265 48.2101 63.0822 48.0748C62.9198 47.9125 62.8567 47.7502 62.8567 47.5247C62.8627 47.3143 62.9379 47.1339 63.0822 46.9836C63.2174 46.8483 63.3978 46.7672 63.5782 46.7672Z" fill="white"/>
<path d="M24.002 81.112C23.7127 81.112 23.484 81.0327 23.316 80.874C23.1573 80.706 23.078 80.468 23.078 80.16V72.082C23.078 71.774 23.1573 71.5407 23.316 71.382C23.484 71.214 23.722 71.13 24.03 71.13H28.916C29.1587 71.13 29.3407 71.1907 29.462 71.312C29.5833 71.4333 29.644 71.606 29.644 71.83C29.644 72.0633 29.5833 72.2453 29.462 72.376C29.3407 72.4973 29.1587 72.558 28.916 72.558H24.87V75.344H28.622C28.8553 75.344 29.0327 75.4047 29.154 75.526C29.2847 75.6473 29.35 75.82 29.35 76.044C29.35 76.2773 29.2847 76.4593 29.154 76.59C29.0327 76.7113 28.8553 76.772 28.622 76.772H24.87V80.16C24.87 80.7947 24.5807 81.112 24.002 81.112ZM33.8992 81.14C33.1246 81.14 32.4572 80.9953 31.8972 80.706C31.3372 80.4167 30.9032 80.006 30.5952 79.474C30.2966 78.942 30.1472 78.312 30.1472 77.584C30.1472 76.8747 30.2919 76.254 30.5812 75.722C30.8799 75.19 31.2859 74.7747 31.7992 74.476C32.3219 74.168 32.9146 74.014 33.5772 74.014C34.0626 74.014 34.4966 74.0933 34.8792 74.252C35.2712 74.4107 35.6026 74.6393 35.8732 74.938C36.1532 75.2367 36.3632 75.6007 36.5032 76.03C36.6526 76.45 36.7272 76.926 36.7272 77.458C36.7272 77.626 36.6666 77.7567 36.5452 77.85C36.4332 77.934 36.2699 77.976 36.0552 77.976H31.5612V76.968H35.4952L35.2712 77.178C35.2712 76.7487 35.2059 76.3893 35.0752 76.1C34.9539 75.8107 34.7719 75.5913 34.5292 75.442C34.2959 75.2833 34.0019 75.204 33.6472 75.204C33.2552 75.204 32.9192 75.2973 32.6392 75.484C32.3686 75.6613 32.1586 75.918 32.0092 76.254C31.8692 76.5807 31.7992 76.9727 31.7992 77.43V77.528C31.7992 78.2933 31.9766 78.8673 32.3312 79.25C32.6952 79.6233 33.2272 79.81 33.9272 79.81C34.1699 79.81 34.4406 79.782 34.7392 79.726C35.0472 79.6607 35.3366 79.5533 35.6072 79.404C35.8032 79.292 35.9759 79.2453 36.1252 79.264C36.2746 79.2733 36.3912 79.3247 36.4752 79.418C36.5686 79.5113 36.6246 79.628 36.6432 79.768C36.6619 79.8987 36.6339 80.034 36.5592 80.174C36.4939 80.314 36.3772 80.4353 36.2092 80.538C35.8826 80.7433 35.5046 80.8973 35.0752 81C34.6552 81.0933 34.2632 81.14 33.8992 81.14ZM40.3671 81.14C39.8725 81.14 39.4291 81.0467 39.0371 80.86C38.6545 80.664 38.3511 80.4027 38.1271 80.076C37.9125 79.7493 37.8051 79.3807 37.8051 78.97C37.8051 78.466 37.9358 78.0693 38.1971 77.78C38.4585 77.4813 38.8831 77.2667 39.4711 77.136C40.0591 77.0053 40.8478 76.94 41.8371 76.94H42.5371V77.948H41.8511C41.2725 77.948 40.8105 77.976 40.4651 78.032C40.1198 78.088 39.8725 78.186 39.7231 78.326C39.5831 78.4567 39.5131 78.6433 39.5131 78.886C39.5131 79.194 39.6205 79.446 39.8351 79.642C40.0498 79.838 40.3485 79.936 40.7311 79.936C41.0391 79.936 41.3098 79.866 41.5431 79.726C41.7858 79.5767 41.9771 79.376 42.1171 79.124C42.2571 78.872 42.3271 78.5827 42.3271 78.256V76.646C42.3271 76.1793 42.2245 75.8433 42.0191 75.638C41.8138 75.4327 41.4685 75.33 40.9831 75.33C40.7125 75.33 40.4185 75.3627 40.1011 75.428C39.7931 75.4933 39.4665 75.6053 39.1211 75.764C38.9438 75.848 38.7851 75.8713 38.6451 75.834C38.5145 75.7967 38.4118 75.722 38.3371 75.61C38.2625 75.4887 38.2251 75.358 38.2251 75.218C38.2251 75.078 38.2625 74.9427 38.3371 74.812C38.4118 74.672 38.5378 74.5693 38.7151 74.504C39.1445 74.3267 39.5551 74.2007 39.9471 74.126C40.3485 74.0513 40.7125 74.014 41.0391 74.014C41.7111 74.014 42.2618 74.1167 42.6911 74.322C43.1298 74.5273 43.4565 74.84 43.6711 75.26C43.8858 75.6707 43.9931 76.2027 43.9931 76.856V80.216C43.9931 80.5053 43.9231 80.7293 43.7831 80.888C43.6431 81.0373 43.4425 81.112 43.1811 81.112C42.9198 81.112 42.7145 81.0373 42.5651 80.888C42.4251 80.7293 42.3551 80.5053 42.3551 80.216V79.544H42.4671C42.4018 79.8707 42.2711 80.1553 42.0751 80.398C41.8885 80.6313 41.6505 80.8133 41.3611 80.944C41.0718 81.0747 40.7405 81.14 40.3671 81.14ZM48.9054 81.14C48.2987 81.14 47.79 81.0373 47.3794 80.832C46.978 80.6267 46.6794 80.328 46.4834 79.936C46.2874 79.5347 46.1894 79.04 46.1894 78.452V75.47H45.4614C45.2374 75.47 45.0647 75.414 44.9434 75.302C44.822 75.1807 44.7614 75.0173 44.7614 74.812C44.7614 74.5973 44.822 74.434 44.9434 74.322C45.0647 74.21 45.2374 74.154 45.4614 74.154H46.1894V72.88C46.1894 72.5907 46.264 72.3713 46.4134 72.222C46.572 72.0727 46.7914 71.998 47.0714 71.998C47.3514 71.998 47.566 72.0727 47.7154 72.222C47.8647 72.3713 47.9394 72.5907 47.9394 72.88V74.154H49.4234C49.6474 74.154 49.82 74.21 49.9414 74.322C50.0627 74.434 50.1234 74.5973 50.1234 74.812C50.1234 75.0173 50.0627 75.1807 49.9414 75.302C49.82 75.414 49.6474 75.47 49.4234 75.47H47.9394V78.354C47.9394 78.802 48.0374 79.138 48.2334 79.362C48.4294 79.586 48.7467 79.698 49.1854 79.698C49.344 79.698 49.484 79.684 49.6054 79.656C49.7267 79.628 49.834 79.6093 49.9274 79.6C50.0394 79.5907 50.1327 79.628 50.2074 79.712C50.282 79.7867 50.3194 79.9453 50.3194 80.188C50.3194 80.3747 50.2867 80.5427 50.2214 80.692C50.1654 80.832 50.058 80.93 49.8994 80.986C49.778 81.0233 49.6194 81.056 49.4234 81.084C49.2274 81.1213 49.0547 81.14 48.9054 81.14ZM53.6204 81.14C53.0511 81.14 52.5798 81.0373 52.2064 80.832C51.8331 80.6173 51.5531 80.3 51.3664 79.88C51.1891 79.46 51.1004 78.9373 51.1004 78.312V74.924C51.1004 74.6253 51.1751 74.406 51.3244 74.266C51.4738 74.1167 51.6884 74.042 51.9684 74.042C52.2484 74.042 52.4631 74.1167 52.6124 74.266C52.7711 74.406 52.8504 74.6253 52.8504 74.924V78.34C52.8504 78.8253 52.9484 79.1847 53.1444 79.418C53.3404 79.6513 53.6531 79.768 54.0824 79.768C54.5491 79.768 54.9318 79.6093 55.2304 79.292C55.5291 78.9653 55.6784 78.536 55.6784 78.004V74.924C55.6784 74.6253 55.7531 74.406 55.9024 74.266C56.0518 74.1167 56.2664 74.042 56.5464 74.042C56.8264 74.042 57.0411 74.1167 57.1904 74.266C57.3491 74.406 57.4284 74.6253 57.4284 74.924V80.216C57.4284 80.8133 57.1438 81.112 56.5744 81.112C56.3038 81.112 56.0938 81.0373 55.9444 80.888C55.7951 80.7293 55.7204 80.5053 55.7204 80.216V79.152L55.9164 79.572C55.7204 80.076 55.4218 80.4633 55.0204 80.734C54.6284 81.0047 54.1618 81.14 53.6204 81.14ZM60.1458 81.112C59.8565 81.112 59.6325 81.0373 59.4738 80.888C59.3245 80.7293 59.2498 80.5053 59.2498 80.216V74.924C59.2498 74.6347 59.3245 74.4153 59.4738 74.266C59.6232 74.1167 59.8332 74.042 60.1038 74.042C60.3745 74.042 60.5845 74.1167 60.7338 74.266C60.8832 74.4153 60.9578 74.6347 60.9578 74.924V75.806H60.8178C60.9485 75.246 61.2052 74.8213 61.5878 74.532C61.9705 74.2427 62.4792 74.07 63.1138 74.014C63.3098 73.9953 63.4638 74.0467 63.5758 74.168C63.6972 74.28 63.7672 74.4573 63.7858 74.7C63.8045 74.9333 63.7485 75.1247 63.6178 75.274C63.4965 75.414 63.3098 75.498 63.0578 75.526L62.7498 75.554C62.1805 75.61 61.7512 75.7873 61.4618 76.086C61.1725 76.3753 61.0278 76.786 61.0278 77.318V80.216C61.0278 80.5053 60.9532 80.7293 60.8038 80.888C60.6545 81.0373 60.4352 81.112 60.1458 81.112ZM67.9969 81.14C67.2222 81.14 66.5549 80.9953 65.9949 80.706C65.4349 80.4167 65.0009 80.006 64.6929 79.474C64.3942 78.942 64.2449 78.312 64.2449 77.584C64.2449 76.8747 64.3896 76.254 64.6789 75.722C64.9776 75.19 65.3836 74.7747 65.8969 74.476C66.4196 74.168 67.0122 74.014 67.6749 74.014C68.1602 74.014 68.5942 74.0933 68.9769 74.252C69.3689 74.4107 69.7002 74.6393 69.9709 74.938C70.2509 75.2367 70.4609 75.6007 70.6009 76.03C70.7502 76.45 70.8249 76.926 70.8249 77.458C70.8249 77.626 70.7642 77.7567 70.6429 77.85C70.5309 77.934 70.3676 77.976 70.1529 77.976H65.6589V76.968H69.5929L69.3689 77.178C69.3689 76.7487 69.3036 76.3893 69.1729 76.1C69.0516 75.8107 68.8696 75.5913 68.6269 75.442C68.3936 75.2833 68.0996 75.204 67.7449 75.204C67.3529 75.204 67.0169 75.2973 66.7369 75.484C66.4662 75.6613 66.2562 75.918 66.1069 76.254C65.9669 76.5807 65.8969 76.9727 65.8969 77.43V77.528C65.8969 78.2933 66.0742 78.8673 66.4289 79.25C66.7929 79.6233 67.3249 79.81 68.0249 79.81C68.2676 79.81 68.5382 79.782 68.8369 79.726C69.1449 79.6607 69.4342 79.5533 69.7049 79.404C69.9009 79.292 70.0736 79.2453 70.2229 79.264C70.3722 79.2733 70.4889 79.3247 70.5729 79.418C70.6662 79.5113 70.7222 79.628 70.7409 79.768C70.7596 79.8987 70.7316 80.034 70.6569 80.174C70.5916 80.314 70.4749 80.4353 70.3069 80.538C69.9802 80.7433 69.6022 80.8973 69.1729 81C68.7529 81.0933 68.3609 81.14 67.9969 81.14ZM74.7168 81.14C74.3154 81.14 73.8908 81.098 73.4428 81.014C72.9948 80.93 72.5934 80.7853 72.2388 80.58C72.0894 80.4867 71.9821 80.3793 71.9168 80.258C71.8608 80.1273 71.8374 80.0013 71.8468 79.88C71.8654 79.7493 71.9121 79.6373 71.9868 79.544C72.0708 79.4507 72.1734 79.39 72.2948 79.362C72.4254 79.334 72.5654 79.3573 72.7148 79.432C73.0881 79.6093 73.4381 79.7353 73.7648 79.81C74.0914 79.8753 74.4134 79.908 74.7308 79.908C75.1788 79.908 75.5101 79.8333 75.7248 79.684C75.9488 79.5253 76.0608 79.32 76.0608 79.068C76.0608 78.8533 75.9861 78.69 75.8368 78.578C75.6968 78.4567 75.4821 78.368 75.1928 78.312L73.7928 78.046C73.2141 77.934 72.7708 77.724 72.4628 77.416C72.1641 77.0987 72.0148 76.6927 72.0148 76.198C72.0148 75.75 72.1361 75.3627 72.3788 75.036C72.6308 74.7093 72.9761 74.4573 73.4148 74.28C73.8534 74.1027 74.3574 74.014 74.9268 74.014C75.3374 74.014 75.7201 74.0607 76.0748 74.154C76.4388 74.238 76.7888 74.3733 77.1248 74.56C77.2648 74.6347 77.3581 74.7327 77.4048 74.854C77.4608 74.9753 77.4748 75.1013 77.4468 75.232C77.4188 75.3533 77.3628 75.4653 77.2788 75.568C77.1948 75.6613 77.0874 75.722 76.9568 75.75C76.8354 75.7687 76.6954 75.7407 76.5368 75.666C76.2474 75.5167 75.9674 75.4093 75.6968 75.344C75.4354 75.2787 75.1834 75.246 74.9408 75.246C74.4834 75.246 74.1428 75.3253 73.9188 75.484C73.7041 75.6427 73.5968 75.8527 73.5968 76.114C73.5968 76.31 73.6621 76.4733 73.7928 76.604C73.9234 76.7347 74.1241 76.8233 74.3948 76.87L75.7948 77.136C76.4014 77.248 76.8588 77.4533 77.1668 77.752C77.4841 78.0507 77.6428 78.452 77.6428 78.956C77.6428 79.6373 77.3768 80.174 76.8448 80.566C76.3128 80.9487 75.6034 81.14 74.7168 81.14Z" fill="white"/>
</svg>
