<svg width="101" height="101" viewBox="0 0 101 101" fill="none" xmlns="http://www.w3.org/2000/svg">
<rect x="0.5" y="0.5" width="100" height="100" rx="20" fill="#384FAE"/>
<path fill-rule="evenodd" clip-rule="evenodd" d="M66.5912 19.5C66.9406 19.5 67.2796 19.8173 71.8548 24.3971C76.4618 28.9875 76.7583 29.3048 76.7583 29.6538C76.7583 30.0029 76.4935 30.2885 72.8609 33.9163C70.7216 36.0635 68.847 37.8827 68.6775 37.9673C68.5187 38.0519 68.2963 38.1154 68.1798 38.1154C68.0633 38.1154 67.6608 37.8192 66.5806 36.7933L66.2311 37.1635C66.0404 37.3644 64.3777 39.1308 62.5455 41.0769C60.6285 43.1183 58.987 44.7683 58.6904 44.9587C58.4045 45.1385 57.8114 45.4663 57.3772 45.6673C56.9429 45.8788 56.2016 46.1433 55.7356 46.2596C55.2696 46.376 54.4541 46.5029 53.9351 46.5452C53.3632 46.5875 52.6431 46.5558 52.1347 46.4817C51.6687 46.4077 51.0227 46.2702 50.705 46.1856C50.3872 46.0904 49.8365 45.8894 49.487 45.7413C49.1375 45.5827 48.5868 45.2865 47.6866 44.6942L46.2039 46.1644C45.3672 46.9894 44.4882 47.7615 44.1916 47.9202C43.7468 48.174 43.535 48.2163 42.8678 48.2163C42.2535 48.2163 41.9675 48.1529 41.6181 47.9731C41.3745 47.8462 40.9826 47.5606 40.3154 46.9471L39.9235 47.3385C39.7117 47.55 39.3198 47.8356 39.0551 47.9731C38.6844 48.1635 38.409 48.2163 37.7842 48.2163C37.117 48.2163 36.9051 48.174 36.4603 47.9308C36.1638 47.7615 35.7613 47.476 35.1894 46.9154L34.7129 47.1375C34.3528 47.3173 34.035 47.3702 33.389 47.3702C32.7641 47.3702 32.4146 47.3067 32.0652 47.1481C31.8004 47.0317 31.3767 46.725 31.1226 46.4606C30.8578 46.2067 30.5507 45.7837 30.4342 45.5192C30.2753 45.1702 30.2118 44.8212 30.2118 44.1971C30.2118 43.5413 30.2647 43.2346 30.4554 42.8221C30.646 42.399 31.5144 41.4788 34.7976 38.2106C38.0701 34.9529 39.0551 34.0327 39.6905 33.6413C40.1247 33.3769 40.8449 33.0173 41.2791 32.8375C41.7134 32.6683 42.5077 32.4462 43.0266 32.351C43.8209 32.2135 45.0071 32.1923 56.0533 32.1923L59.0187 29.2413L58.5633 28.7654C58.2032 28.374 58.1185 28.2154 58.1397 27.9404C58.1609 27.6442 58.701 27.0519 62.196 23.551C65.9663 19.7644 66.2522 19.5 66.5912 19.5V19.5ZM60.1837 27.9615L68.2857 36.0529L74.6931 29.6538C68.4551 23.424 66.6229 21.6154 66.5912 21.6154C66.5594 21.6154 65.1084 23.0433 63.361 24.7885L60.1837 27.9615ZM56.8476 33.8317L43.2384 33.9375C41.9252 34.3817 41.2368 34.6885 40.8555 34.9106C40.326 35.2173 39.2563 36.2115 36.1108 39.3317C33.0713 42.3462 32.0334 43.4462 31.9487 43.7212C31.8851 43.9221 31.8533 44.25 31.8957 44.4298C31.9275 44.6202 32.1181 44.9481 32.2982 45.1596C32.4888 45.3606 32.8171 45.5827 33.0183 45.6462C33.2195 45.699 33.5585 45.7202 33.7597 45.6779C34.0668 45.625 34.7658 44.9692 37.9007 41.8596L41.6604 38.1154H50.4931V39.8077H42.8678C42.9101 41.0769 42.9737 41.3519 43.1325 41.5529C43.249 41.7115 43.482 41.9442 43.6409 42.0712C43.9057 42.2721 44.1175 42.2933 45.7061 42.3462L47.4748 42.399C48.8727 43.4462 49.6035 43.9115 50.0166 44.1019C50.419 44.2923 51.0439 44.525 51.3934 44.6202C51.7429 44.7154 52.4101 44.8106 52.8761 44.8529C53.3421 44.8846 54.0728 44.8529 54.4859 44.7894C54.9095 44.726 55.5767 44.5673 55.9686 44.4298C56.3604 44.3029 57.0277 43.9856 57.4407 43.7212C58.055 43.3404 58.8811 42.526 61.8041 39.4375L65.405 35.6298C61.444 31.6529 60.2684 30.5 60.2367 30.5C60.2049 30.5 59.4318 31.251 58.5104 32.1606L56.8476 33.8317ZM36.4603 45.7413C37.0852 46.3125 37.3923 46.5029 37.5512 46.5452C37.71 46.5769 37.9642 46.5769 38.1019 46.5346C38.2502 46.4923 39.1928 45.6462 40.1883 44.6413L41.9993 42.8221C41.5969 42.251 41.4274 41.8913 41.3639 41.6587C41.3003 41.426 41.2156 41.2038 41.1838 41.1615C41.1415 41.1192 40.0718 42.1346 38.7903 43.4144L36.4603 45.7413ZM41.5439 45.7413C42.1582 46.3125 42.4441 46.5029 42.5712 46.5346C42.7089 46.5769 42.9525 46.5663 43.1325 46.524C43.3444 46.4817 43.8633 46.0481 44.647 45.276L45.8438 44.0913C44.234 43.9962 43.6938 43.9327 43.6091 43.8904C43.4926 43.8481 43.1537 44.1231 42.4971 44.7894L41.5439 45.7413ZM28.2525 48.2798C28.5066 48.2692 30.3494 48.5548 32.3299 48.9038C34.3104 49.2529 36.6933 49.6548 37.6253 49.7923C38.5573 49.9404 40.1777 50.1519 41.2262 50.2683C42.2747 50.3846 43.8951 50.5327 44.8271 50.6067C45.812 50.6913 48.2055 50.7442 50.5461 50.7442C52.7596 50.7442 55.2802 50.6808 56.1592 50.6067C57.0277 50.5433 58.4362 50.4058 59.2835 50.3212C60.1202 50.2365 61.5076 50.0673 62.3548 49.951C63.1915 49.824 65.7968 49.401 68.1268 48.9885C71.643 48.3644 72.4796 48.2587 73.0515 48.3115C73.4434 48.3433 73.9729 48.4913 74.2907 48.6394C74.5978 48.7769 75.0956 49.126 75.3921 49.401C75.6781 49.676 76.0381 50.099 76.1652 50.3317C76.3029 50.5644 76.483 50.9875 76.5889 51.2837C76.7371 51.749 76.7583 52.3202 76.7054 60.2846L76.3135 61.0673C76.0699 61.575 75.7416 62.0192 75.4133 62.326C75.1379 62.5904 74.5554 62.9606 73.3693 63.5H27.617L26.8439 63.151C26.4203 62.9606 25.8484 62.5904 25.5624 62.326C25.2341 62.0192 24.9164 61.575 24.2809 60.2846L24.2491 56.0962C24.228 52.4894 24.2491 51.8337 24.3974 51.3365C24.4821 51.0087 24.6728 50.5644 24.8105 50.3317C24.9481 50.099 25.287 49.6865 25.5624 49.4221C25.8484 49.1577 26.2826 48.8298 26.5262 48.7029C26.7803 48.576 27.1616 48.4385 27.3734 48.3856C27.5958 48.3327 27.9877 48.2798 28.2525 48.2798ZM26.5262 50.85C26.3673 51.0615 26.1661 51.4317 26.0814 51.675C25.9437 52.0452 25.9119 52.7856 25.9225 55.8846C25.9225 58.4865 25.9649 59.7663 26.0496 60.0625C26.1237 60.3163 26.3885 60.6865 26.7062 61.0144C27.0345 61.3423 27.4052 61.5962 27.67 61.6702C27.9877 61.7654 33.3784 61.7971 50.4931 61.7971C67.5973 61.7971 72.988 61.7654 73.3163 61.6702C73.5705 61.5962 73.9412 61.3423 74.2695 61.0144C74.5978 60.6865 74.852 60.3163 74.9261 60.0625C75.0214 59.7663 75.0638 58.4865 75.0638 55.8846C75.0638 52.7856 75.032 52.0452 74.9049 51.675C74.8202 51.4317 74.6084 51.0615 74.4495 50.85C74.2907 50.6385 73.92 50.3529 73.634 50.2154C73.3375 50.0673 72.935 49.951 72.7338 49.9615C72.522 49.9615 70.7639 50.2471 68.8152 50.5856C66.8559 50.9346 64.6636 51.3154 63.9435 51.4317C63.2127 51.5481 62.0159 51.7173 61.2958 51.8019C60.565 51.8971 59.2305 52.0346 58.3303 52.1192C57.4195 52.2038 55.5661 52.3308 54.1999 52.4048C52.7066 52.4788 50.5779 52.5 48.9045 52.4577C47.3583 52.426 45.4307 52.3413 44.6152 52.2885C43.7998 52.225 42.2217 52.0769 41.1203 51.9606C40.0083 51.8442 38.4832 51.6538 37.7312 51.5375C36.9687 51.4212 34.6069 51.0192 32.4888 50.6385C30.36 50.2683 28.4537 49.9615 28.2525 49.9615C28.0406 49.951 27.6382 50.0673 27.3522 50.2154C27.0557 50.3529 26.685 50.6385 26.5262 50.85ZM29.3115 54.1923H31.0061V55.8846H29.3115V54.1923ZM32.7006 54.1923H34.3951V55.8846H32.7006V54.1923ZM36.0897 54.1923H37.7842V55.8846H36.0897V54.1923ZM39.4787 54.1923H41.1732V55.8846H39.4787V54.1923ZM42.8678 54.1923H44.5623V55.8846H42.8678V54.1923ZM46.2568 54.1923H47.9513V55.8846H46.2568V54.1923ZM49.6459 54.1923H51.3404V55.8846H49.6459V54.1923ZM53.0349 54.1923H54.7295V55.8846H53.0349V54.1923ZM56.424 54.1923H58.1185V55.8846H56.424V54.1923ZM59.813 54.1923H61.5076V55.8846H59.813V54.1923ZM63.2021 54.1923H64.8966V55.8846H63.2021V54.1923ZM66.5912 54.1923H68.2857V55.8846H66.5912V54.1923ZM69.9802 54.1923H71.6747V55.8846H69.9802V54.1923ZM29.3115 58.4231H31.0061V60.1154H29.3115V58.4231ZM32.7006 58.4231H34.3951V60.1154H32.7006V58.4231ZM36.0897 58.4231H37.7842V60.1154H36.0897V58.4231ZM39.4787 58.4231H41.1732V60.1154H39.4787V58.4231ZM42.8678 58.4231H44.5623V60.1154H42.8678V58.4231ZM46.2568 58.4231H47.9513V60.1154H46.2568V58.4231ZM49.6459 58.4231H51.3404V60.1154H49.6459V58.4231ZM53.0349 58.4231H54.7295V60.1154H53.0349V58.4231ZM56.424 58.4231H58.1185V60.1154H56.424V58.4231ZM59.813 58.4231H61.5076V60.1154H59.813V58.4231ZM63.2021 58.4231H64.8966V60.1154H63.2021V58.4231ZM66.5912 58.4231H68.2857V60.1154H66.5912V58.4231ZM69.9802 58.4231H71.6747V60.1154H69.9802V58.4231Z" fill="white"/>
<path d="M22.502 81.612C22.2127 81.612 21.984 81.5327 21.816 81.374C21.6573 81.206 21.578 80.968 21.578 80.66V72.582C21.578 72.274 21.6573 72.0407 21.816 71.882C21.984 71.714 22.222 71.63 22.53 71.63H27.416C27.6587 71.63 27.8407 71.6907 27.962 71.812C28.0833 71.9333 28.144 72.106 28.144 72.33C28.144 72.5633 28.0833 72.7453 27.962 72.876C27.8407 72.9973 27.6587 73.058 27.416 73.058H23.37V75.844H27.122C27.3553 75.844 27.5327 75.9047 27.654 76.026C27.7847 76.1473 27.85 76.32 27.85 76.544C27.85 76.7773 27.7847 76.9593 27.654 77.09C27.5327 77.2113 27.3553 77.272 27.122 77.272H23.37V80.66C23.37 81.2947 23.0807 81.612 22.502 81.612ZM30.6999 81.598C30.4199 81.598 30.2052 81.514 30.0559 81.346C29.9065 81.178 29.8319 80.9447 29.8319 80.646V75.508C29.8319 75.2 29.9065 74.9667 30.0559 74.808C30.2052 74.64 30.4199 74.556 30.6999 74.556C30.9799 74.556 31.1945 74.64 31.3439 74.808C31.5025 74.9667 31.5819 75.2 31.5819 75.508V80.646C31.5819 80.9447 31.5072 81.178 31.3579 81.346C31.2085 81.514 30.9892 81.598 30.6999 81.598ZM30.6999 73.254C30.3732 73.254 30.1165 73.1747 29.9299 73.016C29.7525 72.848 29.6639 72.6193 29.6639 72.33C29.6639 72.0313 29.7525 71.8027 29.9299 71.644C30.1165 71.4853 30.3732 71.406 30.6999 71.406C31.0359 71.406 31.2925 71.4853 31.4699 71.644C31.6472 71.8027 31.7359 72.0313 31.7359 72.33C31.7359 72.6193 31.6472 72.848 31.4699 73.016C31.2925 73.1747 31.0359 73.254 30.6999 73.254ZM34.2962 81.612C34.0069 81.612 33.7829 81.5373 33.6242 81.388C33.4749 81.2293 33.4002 81.0053 33.4002 80.716V75.424C33.4002 75.1347 33.4749 74.9153 33.6242 74.766C33.7736 74.6167 33.9836 74.542 34.2542 74.542C34.5249 74.542 34.7349 74.6167 34.8842 74.766C35.0336 74.9153 35.1082 75.1347 35.1082 75.424V76.306H34.9682C35.0989 75.746 35.3556 75.3213 35.7382 75.032C36.1209 74.7427 36.6296 74.57 37.2642 74.514C37.4602 74.4953 37.6142 74.5467 37.7262 74.668C37.8476 74.78 37.9176 74.9573 37.9362 75.2C37.9549 75.4333 37.8989 75.6247 37.7682 75.774C37.6469 75.914 37.4602 75.998 37.2082 76.026L36.9002 76.054C36.3309 76.11 35.9016 76.2873 35.6122 76.586C35.3229 76.8753 35.1782 77.286 35.1782 77.818V80.716C35.1782 81.0053 35.1036 81.2293 34.9542 81.388C34.8049 81.5373 34.5856 81.612 34.2962 81.612ZM39.7787 81.612C39.4987 81.612 39.284 81.5373 39.1347 81.388C38.9853 81.2293 38.9107 81.0053 38.9107 80.716V75.424C38.9107 75.1347 38.9853 74.9153 39.1347 74.766C39.284 74.6167 39.494 74.542 39.7647 74.542C40.0353 74.542 40.2453 74.6167 40.3947 74.766C40.544 74.9153 40.6187 75.1347 40.6187 75.424V76.446L40.4647 76.026C40.6513 75.5593 40.9407 75.1907 41.3327 74.92C41.7247 74.6493 42.1913 74.514 42.7327 74.514C43.2833 74.514 43.736 74.6447 44.0907 74.906C44.4453 75.1673 44.6927 75.5687 44.8327 76.11H44.6367C44.8233 75.6153 45.1313 75.228 45.5607 74.948C45.99 74.6587 46.4847 74.514 47.0447 74.514C47.5673 74.514 47.9967 74.6167 48.3327 74.822C48.678 75.0273 48.9347 75.34 49.1027 75.76C49.2707 76.1707 49.3547 76.6933 49.3547 77.328V80.716C49.3547 81.0053 49.2753 81.2293 49.1167 81.388C48.9673 81.5373 48.7527 81.612 48.4727 81.612C48.1927 81.612 47.978 81.5373 47.8287 81.388C47.6793 81.2293 47.6047 81.0053 47.6047 80.716V77.398C47.6047 76.8753 47.516 76.4927 47.3387 76.25C47.1707 76.0073 46.8813 75.886 46.4707 75.886C46.0133 75.886 45.654 76.0493 45.3927 76.376C45.1313 76.6933 45.0007 77.1367 45.0007 77.706V80.716C45.0007 81.0053 44.926 81.2293 44.7767 81.388C44.6273 81.5373 44.4127 81.612 44.1327 81.612C43.8527 81.612 43.6333 81.5373 43.4747 81.388C43.3253 81.2293 43.2507 81.0053 43.2507 80.716V77.398C43.2507 76.8753 43.162 76.4927 42.9847 76.25C42.8167 76.0073 42.532 75.886 42.1307 75.886C41.6733 75.886 41.314 76.0493 41.0527 76.376C40.7913 76.6933 40.6607 77.1367 40.6607 77.706V80.716C40.6607 81.3133 40.3667 81.612 39.7787 81.612ZM52.028 81.612C51.748 81.612 51.5333 81.5373 51.384 81.388C51.2347 81.2293 51.16 81.0053 51.16 80.716V75.424C51.16 75.1347 51.2347 74.9153 51.384 74.766C51.5333 74.6167 51.7433 74.542 52.014 74.542C52.2847 74.542 52.4947 74.6167 52.644 74.766C52.7933 74.9153 52.868 75.1347 52.868 75.424V76.376L52.714 76.026C52.9193 75.5313 53.2367 75.158 53.666 74.906C54.1047 74.6447 54.5993 74.514 55.15 74.514C55.7007 74.514 56.1533 74.6167 56.508 74.822C56.8627 75.0273 57.1287 75.34 57.306 75.76C57.4833 76.1707 57.572 76.6933 57.572 77.328V80.716C57.572 81.0053 57.4973 81.2293 57.348 81.388C57.1987 81.5373 56.984 81.612 56.704 81.612C56.424 81.612 56.2047 81.5373 56.046 81.388C55.8967 81.2293 55.822 81.0053 55.822 80.716V77.412C55.822 76.88 55.7193 76.4927 55.514 76.25C55.318 76.0073 55.01 75.886 54.59 75.886C54.0767 75.886 53.666 76.0493 53.358 76.376C53.0593 76.6933 52.91 77.118 52.91 77.65V80.716C52.91 81.3133 52.616 81.612 52.028 81.612ZM62.7235 81.64C61.9488 81.64 61.2815 81.4953 60.7215 81.206C60.1615 80.9167 59.7275 80.506 59.4195 79.974C59.1208 79.442 58.9715 78.812 58.9715 78.084C58.9715 77.3747 59.1161 76.754 59.4055 76.222C59.7041 75.69 60.1101 75.2747 60.6235 74.976C61.1461 74.668 61.7388 74.514 62.4015 74.514C62.8868 74.514 63.3208 74.5933 63.7035 74.752C64.0955 74.9107 64.4268 75.1393 64.6975 75.438C64.9775 75.7367 65.1875 76.1007 65.3275 76.53C65.4768 76.95 65.5515 77.426 65.5515 77.958C65.5515 78.126 65.4908 78.2567 65.3695 78.35C65.2575 78.434 65.0941 78.476 64.8795 78.476H60.3855V77.468H64.3195L64.0955 77.678C64.0955 77.2487 64.0301 76.8893 63.8995 76.6C63.7781 76.3107 63.5961 76.0913 63.3535 75.942C63.1201 75.7833 62.8261 75.704 62.4715 75.704C62.0795 75.704 61.7435 75.7973 61.4635 75.984C61.1928 76.1613 60.9828 76.418 60.8335 76.754C60.6935 77.0807 60.6235 77.4727 60.6235 77.93V78.028C60.6235 78.7933 60.8008 79.3673 61.1555 79.75C61.5195 80.1233 62.0515 80.31 62.7515 80.31C62.9941 80.31 63.2648 80.282 63.5635 80.226C63.8715 80.1607 64.1608 80.0533 64.4315 79.904C64.6275 79.792 64.8001 79.7453 64.9495 79.764C65.0988 79.7733 65.2155 79.8247 65.2995 79.918C65.3928 80.0113 65.4488 80.128 65.4675 80.268C65.4861 80.3987 65.4581 80.534 65.3835 80.674C65.3181 80.814 65.2015 80.9353 65.0335 81.038C64.7068 81.2433 64.3288 81.3973 63.8995 81.5C63.4795 81.5933 63.0875 81.64 62.7235 81.64ZM69.4433 81.64C69.042 81.64 68.6173 81.598 68.1693 81.514C67.7213 81.43 67.32 81.2853 66.9653 81.08C66.816 80.9867 66.7087 80.8793 66.6433 80.758C66.5873 80.6273 66.564 80.5013 66.5733 80.38C66.592 80.2493 66.6387 80.1373 66.7133 80.044C66.7973 79.9507 66.9 79.89 67.0213 79.862C67.152 79.834 67.292 79.8573 67.4413 79.932C67.8147 80.1093 68.1647 80.2353 68.4913 80.31C68.818 80.3753 69.14 80.408 69.4573 80.408C69.9053 80.408 70.2367 80.3333 70.4513 80.184C70.6753 80.0253 70.7873 79.82 70.7873 79.568C70.7873 79.3533 70.7127 79.19 70.5633 79.078C70.4233 78.9567 70.2087 78.868 69.9193 78.812L68.5193 78.546C67.9407 78.434 67.4973 78.224 67.1893 77.916C66.8907 77.5987 66.7413 77.1927 66.7413 76.698C66.7413 76.25 66.8627 75.8627 67.1053 75.536C67.3573 75.2093 67.7027 74.9573 68.1413 74.78C68.58 74.6027 69.084 74.514 69.6533 74.514C70.064 74.514 70.4467 74.5607 70.8013 74.654C71.1653 74.738 71.5153 74.8733 71.8513 75.06C71.9913 75.1347 72.0847 75.2327 72.1313 75.354C72.1873 75.4753 72.2013 75.6013 72.1733 75.732C72.1453 75.8533 72.0893 75.9653 72.0053 76.068C71.9213 76.1613 71.814 76.222 71.6833 76.25C71.562 76.2687 71.422 76.2407 71.2633 76.166C70.974 76.0167 70.694 75.9093 70.4233 75.844C70.162 75.7787 69.91 75.746 69.6673 75.746C69.21 75.746 68.8693 75.8253 68.6453 75.984C68.4307 76.1427 68.3233 76.3527 68.3233 76.614C68.3233 76.81 68.3887 76.9733 68.5193 77.104C68.65 77.2347 68.8507 77.3233 69.1213 77.37L70.5213 77.636C71.128 77.748 71.5853 77.9533 71.8933 78.252C72.2107 78.5507 72.3693 78.952 72.3693 79.456C72.3693 80.1373 72.1033 80.674 71.5713 81.066C71.0393 81.4487 70.33 81.64 69.4433 81.64ZM76.2793 81.64C75.8779 81.64 75.4533 81.598 75.0053 81.514C74.5573 81.43 74.1559 81.2853 73.8013 81.08C73.6519 80.9867 73.5446 80.8793 73.4793 80.758C73.4233 80.6273 73.3999 80.5013 73.4093 80.38C73.4279 80.2493 73.4746 80.1373 73.5493 80.044C73.6333 79.9507 73.7359 79.89 73.8573 79.862C73.9879 79.834 74.1279 79.8573 74.2773 79.932C74.6506 80.1093 75.0006 80.2353 75.3273 80.31C75.6539 80.3753 75.9759 80.408 76.2933 80.408C76.7413 80.408 77.0726 80.3333 77.2873 80.184C77.5113 80.0253 77.6233 79.82 77.6233 79.568C77.6233 79.3533 77.5486 79.19 77.3993 79.078C77.2593 78.9567 77.0446 78.868 76.7553 78.812L75.3553 78.546C74.7766 78.434 74.3333 78.224 74.0253 77.916C73.7266 77.5987 73.5773 77.1927 73.5773 76.698C73.5773 76.25 73.6986 75.8627 73.9413 75.536C74.1933 75.2093 74.5386 74.9573 74.9773 74.78C75.4159 74.6027 75.9199 74.514 76.4893 74.514C76.8999 74.514 77.2826 74.5607 77.6373 74.654C78.0013 74.738 78.3513 74.8733 78.6873 75.06C78.8273 75.1347 78.9206 75.2327 78.9673 75.354C79.0233 75.4753 79.0373 75.6013 79.0093 75.732C78.9813 75.8533 78.9253 75.9653 78.8413 76.068C78.7573 76.1613 78.6499 76.222 78.5193 76.25C78.3979 76.2687 78.2579 76.2407 78.0993 76.166C77.8099 76.0167 77.5299 75.9093 77.2593 75.844C76.9979 75.7787 76.7459 75.746 76.5033 75.746C76.0459 75.746 75.7053 75.8253 75.4813 75.984C75.2666 76.1427 75.1593 76.3527 75.1593 76.614C75.1593 76.81 75.2246 76.9733 75.3553 77.104C75.4859 77.2347 75.6866 77.3233 75.9573 77.37L77.3573 77.636C77.9639 77.748 78.4213 77.9533 78.7293 78.252C79.0466 78.5507 79.2053 78.952 79.2053 79.456C79.2053 80.1373 78.9393 80.674 78.4073 81.066C77.8753 81.4487 77.1659 81.64 76.2793 81.64Z" fill="white"/>
</svg>
