<svg width="77" height="16" viewBox="0 0 77 16" fill="none" xmlns="http://www.w3.org/2000/svg">
<path d="M6.74894 2.92705C7.0483 2.00574 8.3517 2.00574 8.65106 2.92705L9.20424 4.62959C9.33812 5.04161 9.72207 5.32057 10.1553 5.32057H11.9455C12.9142 5.32057 13.3169 6.56018 12.5332 7.12959L11.085 8.18181C10.7345 8.43645 10.5878 8.88782 10.7217 9.29984L11.2749 11.0024C11.5742 11.9237 10.5198 12.6898 9.73605 12.1204L8.28779 11.0682C7.9373 10.8135 7.4627 10.8135 7.11221 11.0682L5.66395 12.1204C4.88024 12.6898 3.82576 11.9237 4.12511 11.0024L4.6783 9.29984C4.81217 8.88782 4.66551 8.43645 4.31503 8.18181L2.86676 7.12959C2.08305 6.56019 2.48583 5.32057 3.45455 5.32057H5.2447C5.67793 5.32057 6.06188 5.04161 6.19576 4.62959L6.74894 2.92705Z" fill="#FFBB0B"/>
<path d="M22.149 2.92705C22.4483 2.00574 23.7517 2.00574 24.0511 2.92705L24.6043 4.62959C24.7381 5.04161 25.1221 5.32057 25.5553 5.32057H27.3455C28.3142 5.32057 28.717 6.56018 27.9333 7.12959L26.485 8.18181C26.1345 8.43645 25.9879 8.88782 26.1217 9.29984L26.6749 11.0024C26.9743 11.9237 25.9198 12.6898 25.1361 12.1204L23.6878 11.0682C23.3373 10.8135 22.8627 10.8135 22.5122 11.0682L21.064 12.1204C20.2803 12.6898 19.2258 11.9237 19.5251 11.0024L20.0783 9.29984C20.2122 8.88782 20.0655 8.43645 19.7151 8.18181L18.2668 7.12959C17.4831 6.56019 17.8858 5.32057 18.8546 5.32057H20.6447C21.078 5.32057 21.4619 5.04161 21.5958 4.62959L22.149 2.92705Z" fill="#FFBB0B"/>
<path d="M37.549 2.92705C37.8483 2.00574 39.1518 2.00574 39.4511 2.92705L40.0043 4.62959C40.1382 5.04161 40.5221 5.32057 40.9553 5.32057H42.7455C43.7142 5.32057 44.117 6.56018 43.3333 7.12959L41.885 8.18181C41.5345 8.43645 41.3879 8.88782 41.5218 9.29984L42.0749 11.0024C42.3743 11.9237 41.3198 12.6898 40.5361 12.1204L39.0878 11.0682C38.7373 10.8135 38.2628 10.8135 37.9123 11.0682L36.464 12.1204C35.6803 12.6898 34.6258 11.9237 34.9252 11.0024L35.4783 9.29984C35.6122 8.88782 35.4656 8.43645 35.1151 8.18181L33.6668 7.12959C32.8831 6.56019 33.2859 5.32057 34.2546 5.32057H36.0447C36.478 5.32057 36.8619 5.04161 36.9958 4.62959L37.549 2.92705Z" fill="#FFBB0B"/>
<path d="M52.9489 2.92705C53.2482 2.00574 54.5517 2.00574 54.851 2.92705L55.4042 4.62959C55.5381 5.04161 55.922 5.32057 56.3553 5.32057H58.1454C59.1141 5.32057 59.5169 6.56018 58.7332 7.12959L57.2849 8.18181C56.9344 8.43645 56.7878 8.88782 56.9217 9.29984L57.4748 11.0024C57.7742 11.9237 56.7197 12.6898 55.936 12.1204L54.4877 11.0682C54.1372 10.8135 53.6627 10.8135 53.3122 11.0682L51.8639 12.1204C51.0802 12.6898 50.0257 11.9237 50.3251 11.0024L50.8782 9.29984C51.0121 8.88782 50.8655 8.43645 50.515 8.18181L49.0667 7.12959C48.283 6.56019 48.6858 5.32057 49.6545 5.32057H51.4447C51.8779 5.32057 52.2618 5.04161 52.3957 4.62959L52.9489 2.92705Z" fill="#FFBB0B"/>
<path d="M68.3489 2.92705C68.6483 2.00574 69.9517 2.00574 70.251 2.92705L70.8042 4.62959C70.9381 5.04161 71.322 5.32057 71.7553 5.32057H73.5454C74.5141 5.32057 74.9169 6.56018 74.1332 7.12959L72.6849 8.18181C72.3345 8.43645 72.1878 8.88782 72.3217 9.29984L72.8749 11.0024C73.1742 11.9237 72.1197 12.6898 71.336 12.1204L69.8878 11.0682C69.5373 10.8135 69.0627 10.8135 68.7122 11.0682L67.2639 12.1204C66.4802 12.6898 65.4257 11.9237 65.7251 11.0024L66.2783 9.29984C66.4121 8.88782 66.2655 8.43645 65.915 8.18181L64.4667 7.12959C63.683 6.56019 64.0858 5.32057 65.0545 5.32057H66.8447C67.2779 5.32057 67.6619 5.04161 67.7957 4.62959L68.3489 2.92705Z" fill="#FFBB0B"/>
</svg>
