<svg width="356" height="72" viewBox="0 0 356 72" fill="none" xmlns="http://www.w3.org/2000/svg">
<path d="M34.0783 4.68328C34.5403 3.26143 34.7713 2.5505 35.1182 2.35976C35.4182 2.19484 35.7818 2.19484 36.0818 2.35976C36.4287 2.5505 36.6597 3.26143 37.1217 4.68328L43.2335 23.4934C43.3626 23.8908 43.4271 24.0894 43.5487 24.2364C43.6561 24.3662 43.7945 24.4668 43.9511 24.5288C44.1285 24.599 44.3374 24.599 44.7552 24.599L64.5333 24.599C66.0283 24.599 66.7759 24.599 67.0645 24.87C67.314 25.1044 67.4264 25.4501 67.3622 25.7864C67.288 26.1753 66.6833 26.6147 65.4738 27.4934L49.4729 39.1187C49.1349 39.3643 48.9659 39.4871 48.8637 39.6481C48.7734 39.7904 48.7206 39.9531 48.71 40.1212C48.698 40.3116 48.7626 40.5102 48.8917 40.9076L55.0035 59.7177C55.4655 61.1396 55.6964 61.8505 55.5279 62.2087C55.3821 62.5185 55.088 62.7322 54.7484 62.7751C54.3556 62.8247 53.7508 62.3853 52.5413 61.5066L36.5405 49.8813C36.2025 49.6357 36.0335 49.5129 35.8487 49.4655C35.6855 49.4236 35.5145 49.4236 35.3513 49.4655C35.1665 49.5129 34.9975 49.6357 34.6595 49.8813L18.6587 61.5066C17.4492 62.3853 16.8444 62.8247 16.4516 62.7751C16.112 62.7322 15.8179 62.5185 15.6721 62.2087C15.5036 61.8505 15.7345 61.1396 16.1965 59.7177L22.3083 40.9076C22.4374 40.5102 22.502 40.3116 22.49 40.1212C22.4794 39.9531 22.4266 39.7904 22.3363 39.6481C22.2341 39.4871 22.0651 39.3643 21.7271 39.1187L5.72622 27.4934C4.51672 26.6147 3.91197 26.1753 3.83779 25.7864C3.77364 25.4501 3.88597 25.1044 4.13553 24.87C4.42414 24.599 5.17166 24.599 6.66668 24.599L26.4448 24.599C26.8626 24.599 27.0715 24.599 27.2489 24.5288C27.4055 24.4668 27.5439 24.3662 27.6513 24.2364C27.7729 24.0894 27.8374 23.8908 27.9665 23.4934L34.0783 4.68328Z" fill="#FFBB0B"/>
<path d="M105.278 4.68328C105.74 3.26143 105.971 2.5505 106.318 2.35976C106.618 2.19484 106.982 2.19484 107.282 2.35976C107.629 2.5505 107.86 3.26143 108.322 4.68328L114.433 23.4934C114.563 23.8908 114.627 24.0894 114.749 24.2364C114.856 24.3662 114.995 24.4668 115.151 24.5288C115.328 24.599 115.537 24.599 115.955 24.599L135.733 24.599C137.228 24.599 137.976 24.599 138.264 24.87C138.514 25.1044 138.626 25.4501 138.562 25.7864C138.488 26.1753 137.883 26.6147 136.674 27.4934L120.673 39.1187C120.335 39.3643 120.166 39.4871 120.064 39.6481C119.973 39.7904 119.921 39.9531 119.91 40.1212C119.898 40.3116 119.963 40.5102 120.092 40.9076L126.203 59.7177C126.665 61.1396 126.896 61.8505 126.728 62.2087C126.582 62.5185 126.288 62.7322 125.948 62.7751C125.556 62.8247 124.951 62.3853 123.741 61.5066L107.74 49.8813C107.402 49.6357 107.233 49.5129 107.049 49.4655C106.886 49.4236 106.714 49.4236 106.551 49.4655C106.367 49.5129 106.198 49.6357 105.86 49.8813L89.8587 61.5066C88.6492 62.3853 88.0444 62.8247 87.6516 62.7751C87.312 62.7322 87.0179 62.5185 86.8721 62.2087C86.7036 61.8505 86.9346 61.1396 87.3965 59.7177L93.5083 40.9076C93.6374 40.5102 93.702 40.3116 93.69 40.1212C93.6794 39.9531 93.6266 39.7904 93.5363 39.6481C93.4341 39.4871 93.2651 39.3643 92.9271 39.1187L76.9262 27.4934C75.7167 26.6147 75.112 26.1753 75.0378 25.7864C74.9736 25.4501 75.086 25.1044 75.3355 24.87C75.6242 24.599 76.3717 24.599 77.8667 24.599L97.6448 24.599C98.0626 24.599 98.2715 24.599 98.4489 24.5288C98.6055 24.4668 98.7439 24.3662 98.8513 24.2364C98.9729 24.0894 99.0374 23.8908 99.1665 23.4934L105.278 4.68328Z" fill="#FFBB0B"/>
<path d="M176.478 4.68328C176.94 3.26143 177.171 2.5505 177.518 2.35976C177.818 2.19484 178.182 2.19484 178.482 2.35976C178.829 2.5505 179.06 3.26143 179.522 4.68328L185.633 23.4934C185.763 23.8908 185.827 24.0894 185.949 24.2364C186.056 24.3662 186.195 24.4668 186.351 24.5288C186.529 24.599 186.737 24.599 187.155 24.599L206.933 24.599C208.428 24.599 209.176 24.599 209.464 24.87C209.714 25.1044 209.826 25.4501 209.762 25.7864C209.688 26.1753 209.083 26.6147 207.874 27.4934L191.873 39.1187C191.535 39.3643 191.366 39.4871 191.264 39.6481C191.173 39.7904 191.121 39.9531 191.11 40.1212C191.098 40.3116 191.163 40.5102 191.292 40.9076L197.403 59.7177C197.865 61.1396 198.096 61.8505 197.928 62.2087C197.782 62.5185 197.488 62.7322 197.148 62.7751C196.756 62.8247 196.151 62.3853 194.941 61.5066L178.94 49.8813C178.602 49.6357 178.433 49.5129 178.249 49.4655C178.086 49.4236 177.914 49.4236 177.751 49.4655C177.567 49.5129 177.398 49.6357 177.06 49.8813L161.059 61.5066C159.849 62.3853 159.244 62.8247 158.852 62.7751C158.512 62.7322 158.218 62.5185 158.072 62.2087C157.904 61.8505 158.135 61.1396 158.597 59.7177L164.708 40.9076C164.837 40.5102 164.902 40.3116 164.89 40.1212C164.879 39.9531 164.827 39.7904 164.736 39.6481C164.634 39.4871 164.465 39.3643 164.127 39.1187L148.126 27.4934C146.917 26.6147 146.312 26.1753 146.238 25.7864C146.174 25.4501 146.286 25.1044 146.536 24.87C146.824 24.599 147.572 24.599 149.067 24.599L168.845 24.599C169.263 24.599 169.472 24.599 169.649 24.5288C169.806 24.4668 169.944 24.3662 170.051 24.2364C170.173 24.0894 170.237 23.8908 170.367 23.4934L176.478 4.68328Z" fill="#FFBB0B"/>
<path d="M247.678 4.68328C248.14 3.26143 248.371 2.5505 248.718 2.35976C249.018 2.19484 249.382 2.19484 249.682 2.35976C250.029 2.5505 250.26 3.26143 250.722 4.68328L256.833 23.4934C256.963 23.8908 257.027 24.0894 257.149 24.2364C257.256 24.3662 257.394 24.4668 257.551 24.5288C257.728 24.599 257.937 24.599 258.355 24.599L278.133 24.599C279.628 24.599 280.376 24.599 280.664 24.87C280.914 25.1044 281.026 25.4501 280.962 25.7864C280.888 26.1753 280.283 26.6147 279.074 27.4934L263.073 39.1187C262.735 39.3643 262.566 39.4871 262.464 39.6481C262.373 39.7904 262.321 39.9531 262.31 40.1212C262.298 40.3116 262.363 40.5102 262.492 40.9076L268.603 59.7177C269.065 61.1396 269.296 61.8505 269.128 62.2087C268.982 62.5185 268.688 62.7322 268.348 62.7751C267.956 62.8247 267.351 62.3853 266.141 61.5066L250.14 49.8813C249.802 49.6357 249.633 49.5129 249.449 49.4655C249.286 49.4236 249.114 49.4236 248.951 49.4655C248.767 49.5129 248.598 49.6357 248.26 49.8813L232.259 61.5066C231.049 62.3853 230.444 62.8247 230.052 62.7751C229.712 62.7322 229.418 62.5185 229.272 62.2087C229.104 61.8505 229.335 61.1396 229.797 59.7177L235.908 40.9076C236.037 40.5102 236.102 40.3116 236.09 40.1212C236.079 39.9531 236.027 39.7904 235.936 39.6481C235.834 39.4871 235.665 39.3643 235.327 39.1187L219.326 27.4934C218.117 26.6147 217.512 26.1753 217.438 25.7864C217.374 25.4501 217.486 25.1044 217.736 24.87C218.024 24.599 218.772 24.599 220.267 24.599L240.045 24.599C240.463 24.599 240.671 24.599 240.849 24.5288C241.005 24.4668 241.144 24.3662 241.251 24.2364C241.373 24.0894 241.437 23.8908 241.566 23.4934L247.678 4.68328Z" fill="#FFBB0B"/>
<path d="M318.878 4.68328C319.34 3.26143 319.571 2.5505 319.918 2.35976C320.218 2.19484 320.582 2.19484 320.882 2.35976C321.229 2.5505 321.46 3.26143 321.922 4.68328L328.033 23.4934C328.163 23.8908 328.227 24.0894 328.349 24.2364C328.456 24.3662 328.594 24.4668 328.751 24.5288C328.928 24.599 329.137 24.599 329.555 24.599L349.333 24.599C350.828 24.599 351.576 24.599 351.864 24.87C352.114 25.1044 352.226 25.4501 352.162 25.7864C352.088 26.1753 351.483 26.6147 350.274 27.4934L334.273 39.1187C333.935 39.3643 333.766 39.4871 333.664 39.6481C333.573 39.7904 333.521 39.9531 333.51 40.1212C333.498 40.3116 333.563 40.5102 333.692 40.9076L339.803 59.7177C340.265 61.1396 340.496 61.8505 340.328 62.2087C340.182 62.5185 339.888 62.7322 339.548 62.7751C339.156 62.8247 338.551 62.3853 337.341 61.5066L321.34 49.8813C321.002 49.6357 320.833 49.5129 320.649 49.4655C320.486 49.4236 320.314 49.4236 320.151 49.4655C319.967 49.5129 319.798 49.6357 319.46 49.8813L303.459 61.5066C302.249 62.3853 301.644 62.8247 301.252 62.7751C300.912 62.7322 300.618 62.5185 300.472 62.2087C300.304 61.8505 300.535 61.1396 300.997 59.7177L307.108 40.9076C307.237 40.5102 307.302 40.3116 307.29 40.1212C307.279 39.9531 307.227 39.7904 307.136 39.6481C307.034 39.4871 306.865 39.3643 306.527 39.1187L290.526 27.4934C289.317 26.6147 288.712 26.1753 288.638 25.7864C288.574 25.4501 288.686 25.1044 288.936 24.87C289.224 24.599 289.972 24.599 291.467 24.599L311.245 24.599C311.663 24.599 311.872 24.599 312.049 24.5288C312.205 24.4668 312.344 24.3662 312.451 24.2364C312.573 24.0894 312.637 23.8908 312.767 23.4934L318.878 4.68328Z" fill="#FFBB0B"/>
</svg>
