<svg width="17" height="17" viewBox="0 0 17 17" fill="none" xmlns="http://www.w3.org/2000/svg">
<path fill-rule="evenodd" clip-rule="evenodd" d="M4.07765 1.23451L6.73523 3.89775C7.06457 4.22801 7.0648 4.74551 6.73575 5.07604L5.45107 6.36651C6.25773 8.69565 8.06169 10.559 10.348 11.4401L10.604 11.5339L11.8217 10.3107C12.1638 9.96713 12.7339 9.95226 13.0953 10.2775L15.7528 12.9407C16.0822 13.271 16.0824 13.7885 15.7534 14.119L15.0925 14.7829C13.8855 15.9953 12.0473 16.337 10.4329 15.6491C8.15077 14.6766 6.30931 13.488 4.90851 12.0833C3.5077 10.6785 2.32189 8.83136 1.35106 6.54173C0.691726 4.98675 0.977702 3.22403 2.06952 2.0128L2.21019 1.86433L2.80412 1.26772C3.14615 0.924144 3.71633 0.909276 4.07765 1.23451Z" stroke="#384FAE" stroke-width="1.40625" stroke-linecap="round" stroke-linejoin="round"/>
</svg>
