<svg width="36" height="28" viewBox="0 0 36 28" fill="none" xmlns="http://www.w3.org/2000/svg">
<path d="M1.99988 12.5937C1.22323 12.5937 0.593628 13.2233 0.593628 14C0.593628 14.7766 1.22323 15.4062 1.99988 15.4062V12.5937ZM33.9999 15.4062C34.7765 15.4062 35.4061 14.7766 35.4061 14C35.4061 13.2233 34.7765 12.5937 33.9999 12.5937V15.4062ZM1.99988 0.593735C1.22323 0.593735 0.593628 1.22333 0.593628 1.99998C0.593628 2.77664 1.22323 3.40623 1.99988 3.40623V0.593735ZM33.9999 3.40623C34.7765 3.40623 35.4061 2.77664 35.4061 1.99998C35.4061 1.22333 34.7765 0.593735 33.9999 0.593735V3.40623ZM1.99988 24.5937C1.22323 24.5937 0.593628 25.2233 0.593628 26C0.593628 26.7766 1.22323 27.4062 1.99988 27.4062V24.5937ZM33.9999 27.4062C34.7765 27.4062 35.4061 26.7766 35.4061 26C35.4061 25.2233 34.7765 24.5937 33.9999 24.5937V27.4062ZM1.99988 15.4062H33.9999V12.5937H1.99988V15.4062ZM1.99988 3.40623H33.9999V0.593735H1.99988V3.40623ZM1.99988 27.4062H33.9999V24.5937H1.99988V27.4062Z" fill="#384FAE"/>
</svg>
