<svg width="30" height="16" viewBox="0 0 30 16" fill="none" xmlns="http://www.w3.org/2000/svg">
<g clip-path="url(#clip0_101_7)">
<path d="M0 0H30V15.7895H0V0Z" fill="#B22234"/>
<path d="M0 1.82186H30H0ZM30 4.25101H0H30ZM0 6.68016H30H0ZM30 9.10931H0H30ZM0 11.5385H30H0ZM30 13.9676H0H30Z" fill="black"/>
<path d="M0 1.82186H30M30 4.25101H0M0 6.68016H30M30 9.10931H0M0 11.5385H30M30 13.9676H0" stroke="white" stroke-width="1.21457"/>
<path d="M0 0H12V8.50202H0V0Z" fill="#3C3B6E"/>
<path d="M1.00001 0.364372L1.28558 1.24325L0.537964 0.700073H1.46207L0.71445 1.24325L1.00001 0.364372Z" fill="white"/>
<path d="M1.00001 2.06478L1.28558 2.94366L0.537964 2.40048H1.46207L0.71445 2.94366L1.00001 2.06478Z" fill="white"/>
<path d="M1.00001 3.76518L1.28558 4.64406L0.537964 4.10088H1.46207L0.71445 4.64406L1.00001 3.76518Z" fill="white"/>
<path d="M1.00001 5.46559L1.28558 6.34447L0.537964 5.80129H1.46207L0.71445 6.34447L1.00001 5.46559Z" fill="white"/>
<path d="M1.00001 7.16599L1.28558 8.04487L0.537964 7.50169H1.46207L0.71445 8.04487L1.00001 7.16599Z" fill="white"/>
<path d="M2.00001 1.21458L2.28558 2.09345L1.53796 1.55028H2.46207L1.71445 2.09345L2.00001 1.21458Z" fill="white"/>
<path d="M2.00001 2.91498L2.28558 3.79385L1.53796 3.25068H2.46207L1.71445 3.79385L2.00001 2.91498Z" fill="white"/>
<path d="M2.00001 4.61539L2.28558 5.49426L1.53796 4.95109H2.46207L1.71445 5.49426L2.00001 4.61539Z" fill="white"/>
<path d="M2.00001 6.31579L2.28558 7.19466L1.53796 6.65149H2.46207L1.71445 7.19466L2.00001 6.31579Z" fill="white"/>
<path d="M3.00001 0.364372L3.28558 1.24325L2.53796 0.700073H3.46207L2.71445 1.24325L3.00001 0.364372Z" fill="white"/>
<path d="M3.00001 2.06478L3.28558 2.94366L2.53796 2.40048H3.46207L2.71445 2.94366L3.00001 2.06478Z" fill="white"/>
<path d="M3.00001 3.76518L3.28558 4.64406L2.53796 4.10088H3.46207L2.71445 4.64406L3.00001 3.76518Z" fill="white"/>
<path d="M3.00001 5.46559L3.28558 6.34447L2.53796 5.80129H3.46207L2.71445 6.34447L3.00001 5.46559Z" fill="white"/>
<path d="M3.00001 7.16599L3.28558 8.04487L2.53796 7.50169H3.46207L2.71445 8.04487L3.00001 7.16599Z" fill="white"/>
<path d="M4.00001 1.21458L4.28558 2.09345L3.53796 1.55028H4.46207L3.71445 2.09345L4.00001 1.21458Z" fill="white"/>
<path d="M4.00001 2.91498L4.28558 3.79385L3.53796 3.25068H4.46207L3.71445 3.79385L4.00001 2.91498Z" fill="white"/>
<path d="M4.00001 4.61539L4.28558 5.49426L3.53796 4.95109H4.46207L3.71445 5.49426L4.00001 4.61539Z" fill="white"/>
<path d="M4.00001 6.31579L4.28558 7.19466L3.53796 6.65149H4.46207L3.71445 7.19466L4.00001 6.31579Z" fill="white"/>
<path d="M5.00001 0.364372L5.28558 1.24325L4.53796 0.700073H5.46207L4.71445 1.24325L5.00001 0.364372Z" fill="white"/>
<path d="M5.00001 2.06478L5.28558 2.94366L4.53796 2.40048H5.46207L4.71445 2.94366L5.00001 2.06478Z" fill="white"/>
<path d="M5.00001 3.76518L5.28558 4.64406L4.53796 4.10088H5.46207L4.71445 4.64406L5.00001 3.76518Z" fill="white"/>
<path d="M5.00001 5.46559L5.28558 6.34447L4.53796 5.80129H5.46207L4.71445 6.34447L5.00001 5.46559Z" fill="white"/>
<path d="M5.00001 7.16599L5.28558 8.04487L4.53796 7.50169H5.46207L4.71445 8.04487L5.00001 7.16599Z" fill="white"/>
<path d="M6.00001 1.21458L6.28558 2.09345L5.53796 1.55028H6.46207L5.71445 2.09345L6.00001 1.21458Z" fill="white"/>
<path d="M6.00001 2.91498L6.28558 3.79385L5.53796 3.25068H6.46207L5.71445 3.79385L6.00001 2.91498Z" fill="white"/>
<path d="M6.00001 4.61539L6.28558 5.49426L5.53796 4.95109H6.46207L5.71445 5.49426L6.00001 4.61539Z" fill="white"/>
<path d="M6.00001 6.31579L6.28558 7.19466L5.53796 6.65149H6.46207L5.71445 7.19466L6.00001 6.31579Z" fill="white"/>
<path d="M7.00001 0.364372L7.28558 1.24325L6.53796 0.700073H7.46207L6.71445 1.24325L7.00001 0.364372Z" fill="white"/>
<path d="M7.00001 2.06478L7.28558 2.94366L6.53796 2.40048H7.46207L6.71445 2.94366L7.00001 2.06478Z" fill="white"/>
<path d="M7.00001 3.76518L7.28558 4.64406L6.53796 4.10088H7.46207L6.71445 4.64406L7.00001 3.76518Z" fill="white"/>
<path d="M7.00001 5.46559L7.28558 6.34447L6.53796 5.80129H7.46207L6.71445 6.34447L7.00001 5.46559Z" fill="white"/>
<path d="M7.00001 7.16599L7.28558 8.04487L6.53796 7.50169H7.46207L6.71445 8.04487L7.00001 7.16599Z" fill="white"/>
<path d="M8.00001 1.21458L8.28558 2.09345L7.53796 1.55028H8.46207L7.71445 2.09345L8.00001 1.21458Z" fill="white"/>
<path d="M8.00001 2.91498L8.28558 3.79385L7.53796 3.25068H8.46207L7.71445 3.79385L8.00001 2.91498Z" fill="white"/>
<path d="M8.00001 4.61539L8.28558 5.49426L7.53796 4.95109H8.46207L7.71445 5.49426L8.00001 4.61539Z" fill="white"/>
<path d="M8.00001 6.31579L8.28558 7.19466L7.53796 6.65149H8.46207L7.71445 7.19466L8.00001 6.31579Z" fill="white"/>
<path d="M9.00001 0.364372L9.28558 1.24325L8.53796 0.700073H9.46207L8.71445 1.24325L9.00001 0.364372Z" fill="white"/>
<path d="M9.00001 2.06478L9.28558 2.94366L8.53796 2.40048H9.46207L8.71445 2.94366L9.00001 2.06478Z" fill="white"/>
<path d="M9.00001 3.76518L9.28558 4.64406L8.53796 4.10088H9.46207L8.71445 4.64406L9.00001 3.76518Z" fill="white"/>
<path d="M9.00001 5.46559L9.28558 6.34447L8.53796 5.80129H9.46207L8.71445 6.34447L9.00001 5.46559Z" fill="white"/>
<path d="M9.00001 7.16599L9.28558 8.04487L8.53796 7.50169H9.46207L8.71445 8.04487L9.00001 7.16599Z" fill="white"/>
<path d="M10 1.21458L10.2856 2.09345L9.53796 1.55028H10.4621L9.71445 2.09345L10 1.21458Z" fill="white"/>
<path d="M10 2.91498L10.2856 3.79385L9.53796 3.25068H10.4621L9.71445 3.79385L10 2.91498Z" fill="white"/>
<path d="M10 4.61539L10.2856 5.49426L9.53796 4.95109H10.4621L9.71445 5.49426L10 4.61539Z" fill="white"/>
<path d="M10 6.31579L10.2856 7.19466L9.53796 6.65149H10.4621L9.71445 7.19466L10 6.31579Z" fill="white"/>
<path d="M11 0.364372L11.2856 1.24325L10.538 0.700073H11.4621L10.7144 1.24325L11 0.364372Z" fill="white"/>
<path d="M11 2.06478L11.2856 2.94366L10.538 2.40048H11.4621L10.7144 2.94366L11 2.06478Z" fill="white"/>
<path d="M11 3.76518L11.2856 4.64406L10.538 4.10088H11.4621L10.7144 4.64406L11 3.76518Z" fill="white"/>
<path d="M11 5.46559L11.2856 6.34447L10.538 5.80129H11.4621L10.7144 6.34447L11 5.46559Z" fill="white"/>
<path d="M11 7.16599L11.2856 8.04487L10.538 7.50169H11.4621L10.7144 8.04487L11 7.16599Z" fill="white"/>
</g>
<defs>
<clipPath id="clip0_101_7">
<rect width="30" height="15.7895" fill="white"/>
</clipPath>
</defs>
</svg>