<svg width="18" height="15" viewBox="0 0 18 15" fill="none" xmlns="http://www.w3.org/2000/svg">
<path d="M0.648929 9.32094C0.228655 8.91737 0.0114136 8.38049 0.000426961 7.83995C-0.0104131 7.29956 0.185148 6.75418 0.588576 6.33391C0.991711 5.91393 1.52859 5.69654 2.06898 5.6857C2.60967 5.67456 3.15475 5.86954 3.57532 6.27341L7.20632 9.76729L14.4354 0.584255L14.6943 0.781867L14.4351 0.583376C14.4557 0.556569 14.4792 0.533717 14.5052 0.515113C14.9353 0.142594 15.4751 -0.0255742 16.0028 0.00313745V0.00255149L16.0286 0.0048953C16.5593 0.0400524 17.0777 0.275898 17.4605 0.703057C17.8498 1.13739 18.0264 1.68907 17.9969 2.22829H17.9975L17.9952 2.25407C17.9606 2.77528 17.7328 3.28461 17.32 3.66504L8.64439 14.2254L8.64497 14.2259C8.62871 14.2466 8.6104 14.2643 8.59048 14.2799C8.18427 14.6366 7.67127 14.8115 7.1612 14.8027C6.64688 14.7937 6.13359 14.5982 5.73426 14.2144L0.648929 9.32094Z" fill="#61E69E"/>
</svg>
