<svg width="28" height="28" viewBox="0 0 28 28" fill="none" xmlns="http://www.w3.org/2000/svg">
    <path d="M1.99988 0.955063C1.42278 0.955063 0.954956 1.42289 0.954956 1.99998C0.954956 2.57708 1.42278 3.04491 1.99988 3.04491L1.99988 0.955063ZM5.33321 1.99998L6.34693 1.74655C6.23064 1.28139 5.81269 0.955063 5.33321 0.955063V1.99998ZM5.99988 4.66665L4.98615 4.92008L5.99988 4.66665ZM23.3332 20.3782C23.9103 20.3782 24.3781 19.9104 24.3781 19.3333C24.3781 18.7562 23.9103 18.2884 23.3332 18.2884V20.3782ZM25.9999 4.66665L27.0136 4.92008C27.0916 4.60792 27.0215 4.27721 26.8235 4.02359C26.6255 3.76997 26.3216 3.62173 25.9999 3.62173V4.66665ZM23.3332 15.3333V16.3782C23.8127 16.3782 24.2306 16.0519 24.3469 15.5867L23.3332 15.3333ZM1.99988 3.04491H5.33321V0.955063H1.99988L1.99988 3.04491ZM4.31949 2.25342L4.98615 4.92008L7.0136 4.41322L6.34693 1.74655L4.31949 2.25342ZM4.98615 4.92008L7.65282 15.5867L9.68027 15.0799L7.0136 4.41322L4.98615 4.92008ZM8.66654 14.2884H7.99988V16.3782H8.66654V14.2884ZM7.99988 20.3782H23.3332V18.2884H7.99988V20.3782ZM4.95496 17.3333C4.95496 19.015 6.31821 20.3782 7.99988 20.3782V18.2884C7.4724 18.2884 7.0448 17.8608 7.0448 17.3333H4.95496ZM7.99988 14.2884C6.31821 14.2884 4.95496 15.6517 4.95496 17.3333H7.0448C7.0448 16.8058 7.4724 16.3782 7.99988 16.3782V14.2884ZM5.99988 5.71157H25.9999V3.62173H5.99988V5.71157ZM24.9862 4.41322L22.3195 15.0799L24.3469 15.5867L27.0136 4.92008L24.9862 4.41322ZM23.3332 14.2884H8.66654V16.3782H23.3332V14.2884ZM22.2883 24.6667C22.2883 24.8259 22.1592 24.9551 21.9999 24.9551V27.0449C23.3134 27.0449 24.3781 25.9801 24.3781 24.6667H22.2883ZM21.9999 24.9551C21.8406 24.9551 21.7115 24.8259 21.7115 24.6667H19.6216C19.6216 25.9801 20.6864 27.0449 21.9999 27.0449V24.9551ZM21.7115 24.6667C21.7115 24.5074 21.8406 24.3782 21.9999 24.3782V22.2884C20.6864 22.2884 19.6216 23.3532 19.6216 24.6667H21.7115ZM21.9999 24.3782C22.1592 24.3782 22.2883 24.5074 22.2883 24.6667H24.3781C24.3781 23.3532 23.3134 22.2884 21.9999 22.2884V24.3782ZM8.95496 24.6667C8.95496 24.8259 8.82583 24.9551 8.66654 24.9551V27.0449C9.98002 27.0449 11.0448 25.9801 11.0448 24.6667H8.95496ZM8.66654 24.9551C8.50726 24.9551 8.37813 24.8259 8.37813 24.6667H6.28829C6.28829 25.9801 7.35307 27.0449 8.66654 27.0449V24.9551ZM8.37813 24.6667C8.37813 24.5074 8.50726 24.3782 8.66654 24.3782V22.2884C7.35307 22.2884 6.28829 23.3532 6.28829 24.6667H8.37813ZM8.66654 24.3782C8.82583 24.3782 8.95496 24.5074 8.95496 24.6667H11.0448C11.0448 23.3532 9.98002 22.2884 8.66654 22.2884V24.3782Z" fill="#384FAE"/>
</svg>
