<svg width="28" height="28" viewBox="0 0 28 28" fill="none" xmlns="http://www.w3.org/2000/svg">
<path d="M18.7513 17.2487C18.3364 16.8338 17.6636 16.8338 17.2487 17.2487C16.8338 17.6636 16.8338 18.3364 17.2487 18.7513L18.7513 17.2487ZM25.2487 26.7513C25.6636 27.1662 26.3364 27.1662 26.7513 26.7513C27.1662 26.3364 27.1662 25.6636 26.7513 25.2487L25.2487 26.7513ZM11.3333 19.6042C6.76548 19.6042 3.0625 15.9012 3.0625 11.3333H0.9375C0.9375 17.0748 5.59187 21.7292 11.3333 21.7292V19.6042ZM19.6042 11.3333C19.6042 15.9012 15.9012 19.6042 11.3333 19.6042V21.7292C17.0748 21.7292 21.7292 17.0748 21.7292 11.3333H19.6042ZM11.3333 3.06248C15.9012 3.06248 19.6042 6.76546 19.6042 11.3333H21.7292C21.7292 5.59186 17.0748 0.937485 11.3333 0.937485V3.06248ZM11.3333 0.937485C5.59187 0.937485 0.9375 5.59186 0.9375 11.3333H3.0625C3.0625 6.76546 6.76548 3.06248 11.3333 3.06248V0.937485ZM17.2487 18.7513L25.2487 26.7513L26.7513 25.2487L18.7513 17.2487L17.2487 18.7513Z" fill="#384FAE"/>
</svg>
