<svg width="36" height="19" viewBox="0 0 36 19" fill="none" xmlns="http://www.w3.org/2000/svg">
<path fill-rule="evenodd" clip-rule="evenodd" d="M31.4173 14.2584C31.4488 13.3433 30.7564 12.6729 29.8449 12.733C28.878 12.7967 28.0483 13.6519 28.0148 14.6228C27.9833 15.5387 28.6744 16.2079 29.5868 16.1478C30.5546 16.0841 31.3842 15.2276 31.4173 14.2586L31.4173 14.2584ZM32.8264 14.3068C32.8866 12.5586 31.4971 11.211 29.7521 11.326C28.0625 11.4374 26.664 12.88 26.6057 14.5742C26.5454 16.3234 27.9336 17.6698 29.6795 17.5548C31.37 17.4434 32.7685 15.9996 32.8264 14.307" fill="#384FAE"/>
<path fill-rule="evenodd" clip-rule="evenodd" d="M35.8134 8.95509C35.8317 8.47563 35.6217 7.78449 35.3484 7.41937L31.4158 2.16995C31.1421 1.80483 30.5266 1.53237 30.048 1.5634L25.5952 1.85711C25.3584 1.87792 25.1371 1.98336 24.9719 2.1541C24.8066 2.32484 24.7084 2.54944 24.6953 2.78671L24.3302 13.4505C24.3242 13.5612 24.3421 13.6719 24.3827 13.7751C24.4232 13.8784 24.4854 13.9717 24.5651 14.0488C24.6448 14.1259 24.7402 14.1849 24.8447 14.222C24.9492 14.2591 25.0605 14.2732 25.1709 14.2636L26.1579 14.1977C26.4529 12.4125 28.0082 10.9465 29.8385 10.8257C31.6687 10.705 33.1263 11.9683 33.3039 13.7182L34.7861 13.6188C35.0229 13.5978 35.2442 13.4922 35.4094 13.3213C35.5747 13.1504 35.6729 12.9257 35.6859 12.6883L35.8134 8.95509ZM34.2964 12.0641L34.4045 8.90138C34.4059 8.86337 34.3952 8.73238 34.3409 8.55336C34.3164 8.47257 34.2885 8.40052 34.2618 8.34339C34.2384 8.29336 34.2224 8.26875 34.2196 8.26443C34.2191 8.26354 34.219 8.26364 34.2196 8.26443L30.3116 3.0477C30.2962 3.03704 30.2709 3.02204 30.2374 3.00719C30.1995 2.9904 30.1643 2.97965 30.1381 2.97421C30.1315 2.97284 30.1265 2.97201 30.1231 2.97151L26.0907 3.23749L25.8051 11.5797C26.7295 10.3626 28.15 9.52405 29.7457 9.41881C31.7745 9.28499 33.5169 10.3766 34.2964 12.0641Z" fill="#384FAE"/>
<path fill-rule="evenodd" clip-rule="evenodd" d="M14.1201 15.4016C14.1513 14.4862 13.4609 13.8179 12.5464 13.8765C11.581 13.9382 10.7504 14.7944 10.7173 15.766C10.686 16.682 11.3776 17.3513 12.2897 17.2912C13.257 17.2275 14.087 16.371 14.1201 15.4016M12.4564 12.4693C14.1992 12.3578 15.589 13.6983 15.5293 15.4497L15.5293 15.4497C15.4715 17.1429 14.0725 18.5868 12.3824 18.6982C10.637 18.8132 9.24839 17.4669 9.30808 15.7179C9.36589 14.0243 10.7643 12.5776 12.4564 12.4693Z" fill="#384FAE"/>
<path fill-rule="evenodd" clip-rule="evenodd" d="M22.6984 0.0030249C22.8092 -0.00679256 22.9208 0.00735302 23.0256 0.0445016C23.1305 0.0816503 23.2261 0.140931 23.3059 0.218315C23.3858 0.295699 23.4481 0.389373 23.4886 0.49297C23.529 0.596568 23.5467 0.707662 23.5404 0.818703L23.1052 13.5325C23.0919 13.7698 22.9935 13.9943 22.8281 14.165C22.6626 14.3356 22.4413 14.441 22.2045 14.4617L16.0102 14.8706C15.8376 13.1155 14.3759 11.8471 12.5443 11.9679C10.7127 12.0886 9.15705 13.5567 8.86291 15.3419L8.47313 15.3674L6.95017 15.4682C6.83958 15.4778 6.72822 15.4635 6.62362 15.4264C6.51902 15.3892 6.42361 15.33 6.34386 15.2528C6.26411 15.1756 6.20187 15.0821 6.16135 14.9788C6.12083 14.8755 6.10297 14.7646 6.10899 14.6538L6.20335 11.8867L2.258 12.1468C2.06213 12.1601 1.86895 12.0954 1.72071 11.9666C1.57247 11.8379 1.48124 11.6557 1.46697 11.4599C1.46022 11.3633 1.47267 11.2662 1.50359 11.1744C1.53452 11.0825 1.58331 10.9977 1.64716 10.9248C1.71101 10.8519 1.78865 10.7924 1.87562 10.7496C1.96258 10.7069 2.05714 10.6817 2.15386 10.6757L6.25435 10.4054L6.29346 9.26877L4.23917 9.40479C4.04335 9.41789 3.8503 9.35303 3.70211 9.22436C3.68044 9.20554 3.65999 9.18558 3.64082 9.16461C3.52887 9.04214 3.46052 8.885 3.44815 8.7179C3.4414 8.6212 3.45386 8.52412 3.48481 8.43225C3.51576 8.34039 3.56459 8.25556 3.62849 8.18266C3.69238 8.10975 3.77007 8.05022 3.85709 8.00749C3.9441 7.96475 4.03871 7.93967 4.13546 7.93368L6.34574 7.78789L6.47326 4.03424L0.792838 4.40786C0.596992 4.42107 0.403874 4.35625 0.255662 4.22755C0.107451 4.09885 0.0161905 3.91673 0.00181309 3.72097C-0.0049945 3.62429 0.00741051 3.52722 0.0383139 3.43535C0.0692173 3.34349 0.118006 3.25866 0.181866 3.18575C0.245725 3.11284 0.323391 3.0533 0.410381 3.01056C0.497371 2.96782 0.591963 2.94274 0.688699 2.93675L6.52426 2.55165L6.54552 1.93872C6.55854 1.70147 6.65671 1.47687 6.82201 1.30619C6.98731 1.1355 7.20864 1.03017 7.44535 1.00955L22.6984 0.0030249ZM7.94072 2.38993L22.1078 1.45501L21.7098 13.0812L20.612 13.1538L17.932 13.3305L17.0805 13.3868C16.3443 11.5971 14.5497 10.4226 12.4516 10.5609C10.3428 10.6999 8.54054 12.1197 7.78402 13.9999L7.54155 14.016L7.61956 11.7284L7.70972 9.11098L7.71161 9.11085L7.94072 2.38993ZM0.781231 4.34371C0.781335 4.3437 0.781126 4.34371 0.781231 4.34371ZM0.781231 4.34371C0.779435 4.34383 0.777639 4.34394 0.775842 4.34405L0.781231 4.34371ZM2.24632 12.0827C2.24642 12.0827 2.24622 12.0827 2.24632 12.0827ZM2.24632 12.0827C2.24482 12.0828 2.24332 12.0829 2.24182 12.083L2.24632 12.0827Z" fill="#384FAE"/>
</svg>