<svg width="15" height="15" viewBox="0 0 15 15" fill="none" xmlns="http://www.w3.org/2000/svg">
<path d="M10.585 0C14.6795 0 15 0.299187 15 4.1214V9.8811C15 13.7033 14.6795 14.0025 10.585 14.0025H9.8015V8.90466H11.7265L12.029 6.88503H9.801C9.801 6.88503 9.7975 5.70228 9.801 5.4073C9.8075 4.82993 10.3235 4.53774 10.7675 4.54241C11.2115 4.54661 12.1305 4.54381 12.1305 4.54381V2.68241C12.1305 2.68241 11.3345 2.58626 10.4995 2.57833C9.798 2.57179 9.023 2.74869 8.398 3.3368C7.762 3.93517 7.6615 4.82573 7.6495 5.91466C7.646 6.22971 7.6495 6.88503 7.6495 6.88503H5.7655V8.90466H7.65V14.0025H4.415C0.3205 14.0025 0 13.7033 0 9.8811V4.1214C0 0.299187 0.3205 0 4.415 0H10.585Z" fill="white"/>
</svg>
