<svg width="15" height="15" viewBox="0 0 15 15" fill="none" xmlns="http://www.w3.org/2000/svg">
<path d="M7.4248 0C0.538805 0 0 0.502974 0 6.93106V7.07144C0 13.4995 0.538805 14.0025 7.4248 14.0025H7.5752C14.4612 14.0025 15 13.4995 15 7.07144V6.93106C15 0.502974 14.4612 0 7.5752 0H7.4248ZM11.748 2.33375C12.1625 2.33282 12.499 2.64512 12.5 3.03205C12.501 3.41899 12.1665 3.73307 11.752 3.734C11.3375 3.73493 11.001 3.42263 11 3.0357C10.999 2.64876 11.3335 2.33468 11.748 2.33375ZM7.49023 3.26725C9.69923 3.26258 11.4945 4.93003 11.5 6.99213C11.505 9.05424 9.71877 10.7301 7.50977 10.7353C5.30077 10.7404 3.5055 9.07247 3.5 7.01037C3.495 4.94827 5.28123 3.27238 7.49023 3.26725ZM7.49121 3.734C5.55821 3.7382 3.9955 5.205 4 7.00946C4.0045 8.81391 5.57579 10.2727 7.50879 10.2685C9.44179 10.2643 11.0045 8.7975 11 6.99305C10.9955 5.18859 9.42421 3.7298 7.49121 3.734Z" fill="white"/>
</svg>
