<svg width="25" height="21" viewBox="0 0 25 21" fill="none" xmlns="http://www.w3.org/2000/svg">
<path d="M1 1.40625V0.65625C0.585786 0.65625 0.25 0.992036 0.25 1.40625L1 1.40625ZM24.1429 1.40625H24.8929C24.8929 0.992036 24.5571 0.65625 24.1429 0.65625V1.40625ZM24.1429 19.4062V20.1562C24.5571 20.1562 24.8929 19.8205 24.8929 19.4062H24.1429ZM1 19.4062H0.25C0.25 19.8205 0.585786 20.1562 1 20.1562L1 19.4062ZM1.36423 3.32206C1.00214 3.1209 0.545542 3.25136 0.344382 3.61345C0.143222 3.97553 0.27368 4.43214 0.635768 4.6333L1.36423 3.32206ZM12.5714 10.4062L12.2072 11.0619C12.4337 11.1877 12.7091 11.1877 12.9357 11.0619L12.5714 10.4062ZM24.5071 4.6333C24.8692 4.43214 24.9996 3.97553 24.7985 3.61345C24.5973 3.25136 24.1407 3.1209 23.7786 3.32206L24.5071 4.6333ZM1 2.15625H24.1429V0.65625H1V2.15625ZM23.3929 1.40625V19.4062H24.8929V1.40625H23.3929ZM24.1429 18.6562H1V20.1562H24.1429V18.6562ZM1.75 19.4062V1.40625H0.25V19.4062H1.75ZM0.635768 4.6333L12.2072 11.0619L12.9357 9.75063L1.36423 3.32206L0.635768 4.6333ZM12.9357 11.0619L24.5071 4.6333L23.7786 3.32206L12.2072 9.75063L12.9357 11.0619Z" fill="white"/>
</svg>
