<svg width="101" height="101" viewBox="0 0 101 101" fill="none" xmlns="http://www.w3.org/2000/svg">
<rect x="0.5" y="0.5" width="100" height="100" rx="20" fill="#384FAE"/>
<path fill-rule="evenodd" clip-rule="evenodd" d="M50.4781 19.5C50.8305 19.5 51.0023 19.5516 51.2859 19.7492C51.4922 19.8867 52.5148 20.8664 53.5547 21.9234C55.1875 23.5648 55.4797 23.8914 55.557 24.2094C55.6086 24.407 55.6258 24.7164 55.5914 24.8883C55.557 25.0687 55.4539 25.3266 55.3508 25.4727C55.2562 25.6188 55.007 25.8164 54.7922 25.9281C54.5258 26.057 54.2508 26.1172 53.4172 26.1172V27.0023C53.4172 27.7586 53.3914 27.9305 53.2195 28.2656C53.0734 28.5406 52.9016 28.7125 52.6352 28.85C52.2656 29.0391 52.1969 29.0477 50.4008 29.0219C48.5875 28.9961 48.5445 28.9875 48.2352 28.7812C48.0547 28.6609 47.8398 28.4117 47.7453 28.2227C47.6078 27.9477 47.5734 27.6984 47.5734 26.1172H47.075C46.7398 26.1172 46.4648 26.057 46.1984 25.9281C45.9836 25.8164 45.7344 25.6188 45.6398 25.4727C45.5367 25.3266 45.4336 25.0687 45.3992 24.8883C45.3648 24.7164 45.382 24.407 45.4336 24.2008C45.5195 23.8914 45.8117 23.5563 47.393 21.9578C48.4156 20.9266 49.4211 19.9469 49.6359 19.7922C49.9539 19.5516 50.1 19.5 50.4695 19.5H50.4781ZM46.9375 24.5531C47.5992 24.6305 47.9602 24.6562 48.1578 24.6562C48.3641 24.6562 48.5875 24.682 48.6648 24.725C48.7422 24.7594 48.8625 24.8883 48.9227 25.0258C49.0086 25.1891 49.043 25.6102 49.043 26.418V27.5781H51.9648C51.9648 25.6102 51.9992 25.1891 52.0852 25.0258C52.1453 24.8883 52.2656 24.7594 52.343 24.725C52.4203 24.682 52.8328 24.6562 53.2539 24.6562C53.675 24.6562 54.0273 24.6305 54.0273 24.5961C54.0273 24.5531 53.2453 23.7453 52.2914 22.7914C51.3289 21.8289 50.5297 21.0469 50.5039 21.0469C50.4781 21.0469 49.6703 21.8375 48.6992 22.8L46.9375 24.5531ZM42.0133 37.8477L42.2195 38.0883C42.3312 38.2172 42.4258 38.4234 42.4258 38.5609C42.4344 38.6898 42.357 38.8875 42.2625 39.0078C42.0992 39.2227 42.0906 39.2227 40.3289 39.2656C38.5844 39.3086 38.5586 39.3086 38.3523 39.5234C38.2406 39.6437 36.4617 42.4195 34.3992 45.6937C32.3367 48.9594 30.6523 51.6578 30.6523 51.6836C30.6523 51.7094 39.5812 51.7266 50.5039 51.7266C61.418 51.7266 70.3555 51.7094 70.3555 51.6836C70.3555 51.6578 68.6711 48.9594 66.6086 45.6937C64.5461 42.4195 62.7586 39.6437 62.6469 39.5234C62.4578 39.3258 62.3719 39.3086 61.4094 39.2656C60.4297 39.2227 60.3609 39.2141 60.2062 39.0078C60.1117 38.8875 60.0344 38.6898 60.0344 38.5609C60.043 38.4234 60.1375 38.2172 60.2492 38.0883C60.4555 37.8477 60.4727 37.8477 61.5211 37.8477C62.3117 37.8477 62.6727 37.882 62.9648 37.9937C63.1797 38.0797 63.4891 38.2945 63.6695 38.4664C63.8414 38.6469 65.775 41.6375 67.975 45.1094C70.1664 48.5812 72.0398 51.5805 72.1344 51.7695C72.2289 51.9586 72.3492 52.2852 72.4094 52.5C72.4867 52.7836 72.5039 54.0812 72.4867 57.3984C72.4609 61.8328 72.4609 61.9188 72.2719 62.2539C72.1687 62.443 71.9625 62.718 71.7992 62.8727C71.6445 63.0187 71.3523 63.2164 70.7852 63.5H30.2227L29.8102 63.2938C29.5867 63.182 29.2859 62.9586 29.1312 62.7953C28.9766 62.6406 28.7789 62.3398 28.6844 62.125C28.5125 61.7555 28.5039 61.575 28.5039 57.3125C28.5039 53.9008 28.5297 52.7922 28.6156 52.457C28.6844 52.225 28.8047 51.8898 28.8906 51.7266C28.9766 51.5633 30.8414 48.5812 33.0328 45.1094C35.2242 41.6375 37.1492 38.6641 37.2953 38.5094C37.45 38.3461 37.6734 38.1656 37.8023 38.0969C37.9398 38.0281 38.1891 37.9422 38.3609 37.8992C38.5414 37.8563 39.4352 37.8219 42.0133 37.8477ZM29.9648 54.7344H33.918C34.2703 55.0867 34.3477 55.2672 34.3477 55.4477C34.3477 55.6367 34.2789 55.7914 34.1242 55.9375L33.9008 56.1523L29.9648 56.1953V61.5234L30.4805 62.0391H70.5359L71.043 61.5234V56.1953L36.9945 56.1523C36.668 55.7828 36.582 55.5766 36.582 55.4219C36.582 55.2672 36.6594 55.0781 36.7883 54.9492L37.0031 54.7344H71.043V53.2734H29.9648V54.7344ZM50.5039 40.0391C52.1883 40.0391 52.2828 40.0477 52.6523 40.2367C52.893 40.3656 53.1078 40.5633 53.2281 40.7781C53.3914 41.0703 53.4258 41.2422 53.4258 42.9609H53.8727C54.1219 42.9609 54.4656 43.0039 54.6289 43.0555C54.7922 43.1156 55.0242 43.2359 55.1359 43.3391C55.2477 43.4422 55.4195 43.6914 55.5055 43.9062C55.6344 44.1984 55.6687 44.3875 55.6172 44.6797C55.5656 45.0492 55.4453 45.1867 53.4859 47.1633C51.9562 48.7016 51.3031 49.3031 51.0195 49.4234C50.7187 49.5609 50.5383 49.5867 50.2461 49.5352C49.8766 49.4836 49.7391 49.3633 47.6852 47.318C45.8719 45.5047 45.5023 45.1008 45.425 44.8086C45.3734 44.6195 45.3562 44.3531 45.382 44.207C45.4078 44.0695 45.5195 43.8117 45.6227 43.6484C45.7344 43.4852 45.9922 43.2617 46.207 43.1586C46.4734 43.0211 46.7484 42.9609 47.582 42.9609V42.0414C47.582 41.2422 47.6078 41.0703 47.7797 40.7695C47.9 40.5461 48.0977 40.357 48.3555 40.2367C48.7164 40.0477 48.8453 40.0391 50.5039 40.0391ZM49.043 42.6602C49.043 43.3734 49 43.8977 48.9398 44.018C48.8883 44.1211 48.7852 44.2586 48.7078 44.3102C48.6219 44.3789 48.2609 44.4219 47.7711 44.4219C47.3414 44.4219 46.9805 44.4477 46.9805 44.4906C46.9805 44.525 47.7711 45.3414 48.7422 46.3125L50.5039 48.0742C53.2367 45.3414 54.0273 44.525 54.0273 44.4906C54.0273 44.4477 53.6664 44.4219 53.2281 44.4219C52.7469 44.4219 52.3859 44.3789 52.3 44.3102C52.2227 44.2586 52.1195 44.1211 52.068 44.018C51.9992 43.8977 51.9648 43.3734 51.9648 42.6602V41.5H49.043V42.6602ZM40.9391 40.8125C41.0937 40.8125 41.3 40.8555 41.3945 40.8984C41.4891 40.95 41.6008 41.1047 41.6523 41.2422C41.7096 41.4141 41.7096 41.5859 41.6523 41.7578C41.6008 41.9039 41.4891 42.0586 41.3945 42.1016C41.3 42.1531 41.0937 42.1875 40.9391 42.1875C40.7672 42.1875 40.5867 42.1102 40.4664 41.9898C40.3461 41.8781 40.2687 41.6891 40.2602 41.5086C40.2516 41.2938 40.3031 41.1562 40.4492 41.0102C40.5781 40.8813 40.75 40.8125 40.9391 40.8125ZM60.043 40.8125C60.232 40.8125 60.4125 40.8813 60.5414 41.0102C60.6703 41.1391 60.7305 41.2938 60.7305 41.5C60.7305 41.6891 60.6531 41.8695 60.5328 41.9984C60.4039 42.1273 60.2492 42.1875 60.043 42.1875C59.8797 42.1875 59.6734 42.1359 59.5961 42.0758C59.5187 42.0242 59.4156 41.8695 59.3641 41.7406C59.2953 41.5687 59.2953 41.4312 59.3555 41.268C59.407 41.1305 59.5102 40.9758 59.5961 40.9242C59.6734 40.8641 59.8711 40.8125 60.043 40.8125ZM39.4781 44.4305C39.5383 44.4219 39.6844 44.4648 39.8047 44.5078C39.925 44.5594 40.0711 44.7227 40.1398 44.8773C40.2 45.0234 40.2258 45.2469 40.2 45.3586C40.1742 45.4703 40.0539 45.6422 39.9336 45.7281C39.8133 45.8141 39.6242 45.8914 39.5039 45.8914C39.3836 45.8914 39.1945 45.8141 39.0742 45.7281C38.9539 45.6422 38.8336 45.4703 38.8078 45.3586C38.7734 45.2469 38.8078 45.032 38.8852 44.8688C38.9539 44.7141 39.1 44.5594 39.1945 44.5164C39.2977 44.4734 39.4266 44.4305 39.4781 44.4305ZM61.4781 44.4305C61.5383 44.4219 61.6844 44.4648 61.8047 44.5078C61.925 44.5594 62.0711 44.7227 62.1398 44.8773C62.2 45.0234 62.2258 45.2469 62.2 45.3586C62.1742 45.4703 62.0539 45.6422 61.9336 45.7281C61.8133 45.8141 61.6242 45.8914 61.5039 45.8914C61.3836 45.8914 61.1945 45.8141 61.0742 45.7281C60.9539 45.6422 60.8336 45.4703 60.8078 45.3586C60.7734 45.2469 60.8078 45.032 60.8852 44.8688C60.9539 44.7141 61.1 44.5594 61.1945 44.5164C61.2977 44.4734 61.4266 44.4305 61.4781 44.4305ZM38.043 48.1172C38.1633 48.1172 38.3609 48.1945 38.4898 48.2891C38.6789 48.4266 38.7305 48.5297 38.7305 48.8047C38.7305 49.0339 38.6732 49.2057 38.5586 49.3203C38.4641 49.4148 38.3008 49.518 38.1891 49.5438C38.0859 49.5695 37.8969 49.5438 37.7594 49.5008C37.6219 49.4406 37.4758 49.2859 37.3984 49.1055C37.3039 48.882 37.2953 48.7445 37.3555 48.5898C37.3984 48.4695 37.5273 48.3148 37.6305 48.2461C37.7422 48.1773 37.9227 48.1172 38.043 48.1172ZM46.0867 48.1172C46.2844 48.1172 46.4477 48.1859 46.5937 48.332C46.7227 48.4695 46.8086 48.6414 46.8086 48.8047C46.8086 48.9508 46.7828 49.1227 46.7398 49.2086C46.7055 49.2859 46.5766 49.3977 46.4391 49.4664C46.3102 49.5266 46.1297 49.5781 46.0352 49.5781C45.9406 49.5781 45.7687 49.4922 45.6484 49.3891C45.5281 49.2773 45.4078 49.0797 45.382 48.9336C45.3391 48.7359 45.382 48.6156 45.5625 48.4008C45.7344 48.1859 45.8547 48.1172 46.0867 48.1172ZM54.9211 48.1172C55.1617 48.1172 55.2734 48.1773 55.4539 48.4008C55.6258 48.6156 55.6687 48.7359 55.6258 48.9336C55.6 49.0797 55.4797 49.2773 55.3594 49.3891C55.2391 49.4922 55.0672 49.5781 54.9727 49.5781C54.8781 49.5781 54.6977 49.5266 54.5602 49.4664C54.4312 49.3977 54.3023 49.2859 54.2594 49.2086C54.225 49.1227 54.1992 48.9422 54.1992 48.8047C54.2078 48.6414 54.2852 48.4523 54.4141 48.332C54.5602 48.1859 54.7148 48.1172 54.9211 48.1172ZM62.9562 48.1172C63.0766 48.1172 63.2656 48.1773 63.3687 48.2461C63.4805 48.3148 63.6008 48.4695 63.6523 48.5898C63.7125 48.7445 63.7039 48.882 63.6094 49.1055C63.532 49.2859 63.3859 49.4406 63.2398 49.5008C63.1109 49.5438 62.9219 49.5695 62.8102 49.5438C62.707 49.518 62.5437 49.4148 62.4492 49.3203C62.3375 49.2086 62.2773 49.0281 62.2687 48.8133C62.2602 48.5383 62.3031 48.4438 62.4922 48.2977C62.6297 48.1945 62.8359 48.1172 62.9562 48.1172Z" fill="white"/>
<path d="M47.2895 37.9655C47.0666 37.9655 46.8957 37.899 46.7769 37.766C46.658 37.633 46.5986 37.4484 46.5986 37.212V33.1452C46.5986 32.9014 46.658 32.7167 46.7769 32.5911C46.8957 32.4582 47.0666 32.3917 47.2895 32.3917C47.5124 32.3917 47.6833 32.4582 47.8021 32.5911C47.9284 32.7167 47.9916 32.9014 47.9916 33.1452V37.212C47.9916 37.4484 47.9321 37.633 47.8133 37.766C47.6944 37.899 47.5198 37.9655 47.2895 37.9655ZM47.2895 31.3611C47.0295 31.3611 46.8252 31.2984 46.6766 31.1728C46.5354 31.0398 46.4648 30.8588 46.4648 30.6298C46.4648 30.3934 46.5354 30.2124 46.6766 30.0868C46.8252 29.9612 47.0295 29.8984 47.2895 29.8984C47.557 29.8984 47.7613 29.9612 47.9024 30.0868C48.0436 30.2124 48.1142 30.3934 48.1142 30.6298C48.1142 30.8588 48.0436 31.0398 47.9024 31.1728C47.7613 31.2984 47.557 31.3611 47.2895 31.3611Z" fill="white"/>
<path d="M50.1299 37.9766C49.907 37.9766 49.7362 37.9175 49.6173 37.7993C49.4984 37.6737 49.439 37.4964 49.439 37.2674V33.0787C49.439 32.8497 49.4984 32.6761 49.6173 32.5579C49.7362 32.4397 49.9033 32.3806 50.1188 32.3806C50.3342 32.3806 50.5014 32.4397 50.6203 32.5579C50.7391 32.6761 50.7986 32.8497 50.7986 33.0787V33.8322L50.676 33.5552C50.8394 33.1637 51.092 32.8682 51.4338 32.6687C51.783 32.4619 52.1767 32.3584 52.615 32.3584C53.0534 32.3584 53.4137 32.4397 53.696 32.6022C53.9783 32.7648 54.1901 33.0122 54.3312 33.3447C54.4724 33.6697 54.543 34.0834 54.543 34.5857V37.2674C54.543 37.4964 54.4835 37.6737 54.3647 37.7993C54.2458 37.9175 54.0749 37.9766 53.852 37.9766C53.6292 37.9766 53.4546 37.9175 53.3283 37.7993C53.2094 37.6737 53.15 37.4964 53.15 37.2674V34.6522C53.15 34.2311 53.0682 33.9246 52.9048 33.7325C52.7488 33.5404 52.5036 33.4444 52.1693 33.4444C51.7607 33.4444 51.4338 33.5737 51.1886 33.8322C50.9509 34.0834 50.832 34.4195 50.832 34.8406V37.2674C50.832 37.7402 50.598 37.9766 50.1299 37.9766Z" fill="white"/>
<path d="M28.418 81.612C28.1567 81.612 27.956 81.5373 27.816 81.388C27.676 81.2387 27.606 81.0333 27.606 80.772V72.358C27.606 72.0873 27.6807 71.882 27.83 71.742C27.9793 71.5927 28.1847 71.518 28.446 71.518C28.6793 71.518 28.8613 71.5647 28.992 71.658C29.132 71.742 29.258 71.8913 29.37 72.106L32.828 78.504H32.38L35.838 72.106C35.95 71.8913 36.0713 71.742 36.202 71.658C36.3327 71.5647 36.5147 71.518 36.748 71.518C37.0093 71.518 37.21 71.5927 37.35 71.742C37.49 71.882 37.56 72.0873 37.56 72.358V80.772C37.56 81.0333 37.49 81.2387 37.35 81.388C37.2193 81.5373 37.0187 81.612 36.748 81.612C36.4867 81.612 36.286 81.5373 36.146 81.388C36.006 81.2387 35.936 81.0333 35.936 80.772V74.29H36.244L33.304 79.652C33.2107 79.8107 33.1127 79.9273 33.01 80.002C32.9073 80.0767 32.7673 80.114 32.59 80.114C32.4127 80.114 32.268 80.0767 32.156 80.002C32.044 79.918 31.946 79.8013 31.862 79.652L28.894 74.276H29.23V80.772C29.23 81.0333 29.16 81.2387 29.02 81.388C28.8893 81.5373 28.6887 81.612 28.418 81.612ZM42.6863 81.64C41.977 81.64 41.361 81.4953 40.8383 81.206C40.3156 80.9167 39.9096 80.506 39.6203 79.974C39.331 79.4327 39.1863 78.798 39.1863 78.07C39.1863 77.5193 39.2656 77.0293 39.4243 76.6C39.5923 76.1613 39.8303 75.788 40.1383 75.48C40.4463 75.1627 40.815 74.9247 41.2443 74.766C41.6736 74.598 42.1543 74.514 42.6863 74.514C43.3956 74.514 44.0116 74.6587 44.5343 74.948C45.057 75.2373 45.463 75.648 45.7523 76.18C46.0416 76.712 46.1863 77.342 46.1863 78.07C46.1863 78.6207 46.1023 79.1153 45.9343 79.554C45.7756 79.9927 45.5423 80.3707 45.2343 80.688C44.9263 80.996 44.5576 81.234 44.1283 81.402C43.699 81.5607 43.2183 81.64 42.6863 81.64ZM42.6863 80.31C43.0316 80.31 43.335 80.226 43.5963 80.058C43.8576 79.89 44.0583 79.6427 44.1983 79.316C44.3476 78.98 44.4223 78.5647 44.4223 78.07C44.4223 77.3233 44.2636 76.768 43.9463 76.404C43.629 76.0307 43.209 75.844 42.6863 75.844C42.341 75.844 42.0376 75.928 41.7763 76.096C41.515 76.2547 41.3096 76.502 41.1603 76.838C41.0203 77.1647 40.9503 77.5753 40.9503 78.07C40.9503 78.8073 41.109 79.3673 41.4263 79.75C41.7436 80.1233 42.1636 80.31 42.6863 80.31ZM50.2627 81.64C49.6654 81.64 49.138 81.4953 48.6807 81.206C48.2327 80.9167 47.8827 80.506 47.6307 79.974C47.3787 79.4327 47.2527 78.798 47.2527 78.07C47.2527 77.3327 47.3787 76.7027 47.6307 76.18C47.8827 75.648 48.2327 75.2373 48.6807 74.948C49.138 74.6587 49.6654 74.514 50.2627 74.514C50.832 74.514 51.3267 74.654 51.7467 74.934C52.176 75.214 52.4654 75.5827 52.6147 76.04H52.4607V72.4C52.4607 72.1107 52.5354 71.8913 52.6847 71.742C52.834 71.5927 53.0487 71.518 53.3287 71.518C53.6087 71.518 53.8234 71.5927 53.9727 71.742C54.1314 71.8913 54.2107 72.1107 54.2107 72.4V80.716C54.2107 81.0053 54.136 81.2293 53.9867 81.388C53.8374 81.5373 53.6227 81.612 53.3427 81.612C53.0627 81.612 52.848 81.5373 52.6987 81.388C52.5494 81.2293 52.4747 81.0053 52.4747 80.716V79.624L52.6287 80.044C52.4887 80.5293 52.204 80.9167 51.7747 81.206C51.3454 81.4953 50.8414 81.64 50.2627 81.64ZM50.7527 80.31C51.098 80.31 51.4014 80.226 51.6627 80.058C51.924 79.89 52.1247 79.6427 52.2647 79.316C52.414 78.98 52.4887 78.5647 52.4887 78.07C52.4887 77.3233 52.33 76.768 52.0127 76.404C51.6954 76.0307 51.2754 75.844 50.7527 75.844C50.4074 75.844 50.104 75.928 49.8427 76.096C49.5814 76.2547 49.376 76.502 49.2267 76.838C49.0867 77.1647 49.0167 77.5753 49.0167 78.07C49.0167 78.8073 49.1754 79.3673 49.4927 79.75C49.81 80.1233 50.23 80.31 50.7527 80.31ZM59.3992 81.64C58.6246 81.64 57.9572 81.4953 57.3972 81.206C56.8372 80.9167 56.4032 80.506 56.0952 79.974C55.7966 79.442 55.6472 78.812 55.6472 78.084C55.6472 77.3747 55.7919 76.754 56.0812 76.222C56.3799 75.69 56.7859 75.2747 57.2992 74.976C57.8219 74.668 58.4146 74.514 59.0772 74.514C59.5626 74.514 59.9966 74.5933 60.3792 74.752C60.7712 74.9107 61.1026 75.1393 61.3732 75.438C61.6532 75.7367 61.8632 76.1007 62.0032 76.53C62.1526 76.95 62.2272 77.426 62.2272 77.958C62.2272 78.126 62.1666 78.2567 62.0452 78.35C61.9332 78.434 61.7699 78.476 61.5552 78.476H57.0612V77.468H60.9952L60.7712 77.678C60.7712 77.2487 60.7059 76.8893 60.5752 76.6C60.4539 76.3107 60.2719 76.0913 60.0292 75.942C59.7959 75.7833 59.5019 75.704 59.1472 75.704C58.7552 75.704 58.4192 75.7973 58.1392 75.984C57.8686 76.1613 57.6586 76.418 57.5092 76.754C57.3692 77.0807 57.2992 77.4727 57.2992 77.93V78.028C57.2992 78.7933 57.4766 79.3673 57.8312 79.75C58.1952 80.1233 58.7272 80.31 59.4272 80.31C59.6699 80.31 59.9406 80.282 60.2392 80.226C60.5472 80.1607 60.8366 80.0533 61.1072 79.904C61.3032 79.792 61.4759 79.7453 61.6252 79.764C61.7746 79.7733 61.8912 79.8247 61.9752 79.918C62.0686 80.0113 62.1246 80.128 62.1432 80.268C62.1619 80.3987 62.1339 80.534 62.0592 80.674C61.9939 80.814 61.8772 80.9353 61.7092 81.038C61.3826 81.2433 61.0046 81.3973 60.5752 81.5C60.1552 81.5933 59.7632 81.64 59.3992 81.64ZM65.9511 81.64C65.1765 81.64 64.5931 81.4207 64.2011 80.982C63.8091 80.534 63.6131 79.8807 63.6131 79.022V72.4C63.6131 72.1107 63.6878 71.8913 63.8371 71.742C63.9865 71.5927 64.2011 71.518 64.4811 71.518C64.7611 71.518 64.9758 71.5927 65.1251 71.742C65.2838 71.8913 65.3631 72.1107 65.3631 72.4V78.938C65.3631 79.3673 65.4518 79.6847 65.6291 79.89C65.8158 80.0953 66.0771 80.198 66.4131 80.198C66.4878 80.198 66.5578 80.198 66.6231 80.198C66.6885 80.1887 66.7538 80.1793 66.8191 80.17C66.9498 80.1513 67.0385 80.1887 67.0851 80.282C67.1318 80.366 67.1551 80.5433 67.1551 80.814C67.1551 81.0473 67.1085 81.2293 67.0151 81.36C66.9218 81.4907 66.7678 81.57 66.5531 81.598C66.4598 81.6073 66.3618 81.6167 66.2591 81.626C66.1565 81.6353 66.0538 81.64 65.9511 81.64ZM70.5215 81.64C70.1201 81.64 69.6955 81.598 69.2475 81.514C68.7995 81.43 68.3981 81.2853 68.0435 81.08C67.8941 80.9867 67.7868 80.8793 67.7215 80.758C67.6655 80.6273 67.6421 80.5013 67.6515 80.38C67.6701 80.2493 67.7168 80.1373 67.7915 80.044C67.8755 79.9507 67.9781 79.89 68.0995 79.862C68.2301 79.834 68.3701 79.8573 68.5195 79.932C68.8928 80.1093 69.2428 80.2353 69.5695 80.31C69.8961 80.3753 70.2181 80.408 70.5355 80.408C70.9835 80.408 71.3148 80.3333 71.5295 80.184C71.7535 80.0253 71.8655 79.82 71.8655 79.568C71.8655 79.3533 71.7908 79.19 71.6415 79.078C71.5015 78.9567 71.2868 78.868 70.9975 78.812L69.5975 78.546C69.0188 78.434 68.5755 78.224 68.2675 77.916C67.9688 77.5987 67.8195 77.1927 67.8195 76.698C67.8195 76.25 67.9408 75.8627 68.1835 75.536C68.4355 75.2093 68.7808 74.9573 69.2195 74.78C69.6581 74.6027 70.1621 74.514 70.7315 74.514C71.1421 74.514 71.5248 74.5607 71.8795 74.654C72.2435 74.738 72.5935 74.8733 72.9295 75.06C73.0695 75.1347 73.1628 75.2327 73.2095 75.354C73.2655 75.4753 73.2795 75.6013 73.2515 75.732C73.2235 75.8533 73.1675 75.9653 73.0835 76.068C72.9995 76.1613 72.8921 76.222 72.7615 76.25C72.6401 76.2687 72.5001 76.2407 72.3415 76.166C72.0521 76.0167 71.7721 75.9093 71.5015 75.844C71.2401 75.7787 70.9881 75.746 70.7455 75.746C70.2881 75.746 69.9475 75.8253 69.7235 75.984C69.5088 76.1427 69.4015 76.3527 69.4015 76.614C69.4015 76.81 69.4668 76.9733 69.5975 77.104C69.7281 77.2347 69.9288 77.3233 70.1995 77.37L71.5995 77.636C72.2061 77.748 72.6635 77.9533 72.9715 78.252C73.2888 78.5507 73.4475 78.952 73.4475 79.456C73.4475 80.1373 73.1815 80.674 72.6495 81.066C72.1175 81.4487 71.4081 81.64 70.5215 81.64Z" fill="white"/>
</svg>
