<svg width="96" height="16" viewBox="0 0 96 16" fill="none" xmlns="http://www.w3.org/2000/svg">
<path fill-rule="evenodd" clip-rule="evenodd" d="M7.95312 0.000383743C8.42813 -0.00274179 8.68125 0.0128859 9.00937 0.0597689C9.24375 0.0941498 9.575 0.153535 9.74375 0.187916C9.90937 0.225422 10.2219 0.309812 10.4375 0.378574C10.6531 0.447335 10.9906 0.575482 11.1875 0.659872C11.3844 0.744261 11.6812 0.888036 11.8438 0.981802C12.0063 1.07244 12.2688 1.23184 12.4219 1.33186C12.575 1.435 12.8438 1.63191 13.0156 1.76944C13.1875 1.91009 13.4875 2.18201 13.6781 2.37579C13.8719 2.5727 14.125 2.85087 14.2406 2.99777C14.3594 3.14467 14.5469 3.40409 14.6625 3.576C14.775 3.7479 14.9344 4.00732 15.0156 4.15422C15.0969 4.30112 15.2344 4.58867 15.3281 4.79495C15.4187 5.00124 15.55 5.34505 15.6187 5.56071C15.6875 5.77637 15.7719 6.0858 15.8062 6.24833C15.8438 6.41086 15.9 6.74529 15.9344 6.99221C15.9812 7.30476 16 7.59543 16 7.97675C16 8.27993 15.9781 8.67687 15.9531 8.88941C15.925 9.09569 15.8687 9.43637 15.8281 9.64891C15.7844 9.85832 15.6781 10.2459 15.5938 10.5084C15.5063 10.7741 15.3375 11.1898 15.2094 11.4523C15.0844 11.7118 14.8906 12.0618 14.7844 12.2337C14.675 12.4056 14.4906 12.6744 14.375 12.8276C14.2563 12.9807 14.05 13.2276 13.9156 13.3745C13.7812 13.5215 13.5437 13.759 13.3906 13.9028C13.2375 14.0465 12.975 14.2653 12.8125 14.3872C12.65 14.5091 12.3875 14.6904 12.2344 14.7842C12.0813 14.8811 11.8344 15.0217 11.6875 15.0998C11.5406 15.1749 11.2875 15.2968 11.125 15.3655C10.9625 15.4343 10.6531 15.5499 10.4375 15.6187C10.2219 15.6874 9.90937 15.7718 9.74375 15.8093C9.575 15.8437 9.24375 15.9031 9.00937 15.9375C8.7 15.9812 8.4125 16 8 16C7.575 16 7.30625 15.9844 6.98438 15.9344C6.74375 15.9 6.4125 15.8437 6.25 15.8062C6.0875 15.7718 5.74062 15.6749 5.48438 15.5906C5.225 15.503 4.80312 15.3311 4.54688 15.2061C4.2875 15.0811 3.95312 14.8998 3.79688 14.806C3.64062 14.7092 3.39062 14.5372 3.23438 14.4185C3.07812 14.3028 2.89687 14.1591 2.82812 14.0997C2.75938 14.0403 2.55 13.8434 2.36562 13.659C2.17812 13.4777 1.91875 13.1933 1.78437 13.0307C1.65312 12.8682 1.45312 12.5932 1.3375 12.4213C1.225 12.2494 1.0625 11.9806 0.978125 11.8274C0.890625 11.6743 0.7625 11.4117 0.6875 11.2492C0.615625 11.0867 0.4875 10.7491 0.40625 10.4991C0.321875 10.249 0.228125 9.91146 0.19375 9.74893C0.15625 9.5864 0.1 9.25197 0.065625 9.00818C0.01875 8.6925 0 8.40182 0 8.02363C0 7.71733 0.021875 7.32039 0.046875 7.10785C0.075 6.90157 0.13125 6.56088 0.171875 6.35147C0.215625 6.13894 0.31875 5.76075 0.403125 5.50758C0.4875 5.25128 0.621875 4.8981 0.703125 4.71682C0.784375 4.53554 0.934375 4.24173 1.0375 4.06045C1.14062 3.87917 1.31875 3.59787 1.43438 3.43535C1.54688 3.27282 1.74062 3.01965 1.8625 2.87275C1.98438 2.72585 2.23125 2.46331 2.40937 2.28828C2.5875 2.11325 2.85313 1.87258 3 1.75693C3.14687 1.63816 3.40625 1.45063 3.57812 1.33499C3.75 1.22247 4.01875 1.05994 4.17188 0.975551C4.325 0.888036 4.5875 0.759889 4.75 0.684876C4.9125 0.612989 5.25 0.484842 5.5 0.403578C5.75 0.319188 6.09375 0.222297 6.26562 0.187916C6.4375 0.150409 6.74687 0.0941498 6.95312 0.0628944C7.21562 0.0222625 7.51562 0.00350928 7.95312 0.000383743ZM7.3875 2.62896C7.37187 2.65084 7.35313 2.89775 7.34375 3.1728C7.33125 3.62288 7.32188 3.68539 7.26562 3.74478C7.23125 3.78228 7.075 3.86355 6.92188 3.92293C6.76875 3.98544 6.55 4.08233 6.4375 4.14484C6.325 4.20423 6.15625 4.31675 6.0625 4.39176C5.96875 4.46677 5.83437 4.59492 5.76562 4.67618C5.69688 4.75745 5.6 4.8981 5.54688 4.98249C5.49375 5.07 5.4125 5.25753 5.3625 5.40443C5.2875 5.62635 5.26875 5.73574 5.25625 6.07642C5.24687 6.38898 5.25312 6.52963 5.29375 6.6859C5.32187 6.79842 5.39062 6.98908 5.45 7.10785C5.51875 7.2485 5.6375 7.41415 5.7875 7.57668C5.91563 7.7142 6.125 7.89861 6.25313 7.98613C6.38125 8.07364 6.59688 8.20491 6.73438 8.27368C6.87187 8.34244 7.24375 8.50497 7.5625 8.63624C7.88125 8.76751 8.23125 8.93004 8.34375 8.99568C8.45625 9.06131 8.60625 9.18321 8.68125 9.2676C8.77187 9.36761 8.83438 9.48013 8.86563 9.59265C8.90313 9.73018 8.90625 9.79581 8.87813 9.92083C8.85938 10.0083 8.80313 10.1365 8.75 10.2115C8.7 10.2834 8.60312 10.3772 8.54062 10.4178C8.475 10.4616 8.33125 10.5272 8.21875 10.5647C8.05937 10.621 7.94375 10.6335 7.67188 10.6366C7.45625 10.6366 7.23125 10.6147 7.0625 10.5803C6.91563 10.5491 6.68437 10.4897 6.54688 10.4459C6.40938 10.4022 6.15938 10.3053 5.99375 10.2303C5.81875 10.1521 5.65938 10.099 5.625 10.1084C5.59062 10.1177 5.54375 10.1552 5.51875 10.1959C5.49375 10.2334 5.40625 10.4897 5.32812 10.7647C5.24687 11.0398 5.18125 11.3242 5.17812 11.393C5.175 11.4867 5.19063 11.543 5.23438 11.593C5.26875 11.6305 5.37813 11.7024 5.47813 11.7524C5.575 11.8024 5.77813 11.8837 5.93125 11.9337C6.08125 11.9868 6.41563 12.0712 6.67188 12.1212C6.93125 12.1743 7.15312 12.2337 7.17188 12.2494C7.19063 12.2681 7.20938 12.5057 7.22188 12.7744C7.23125 13.1245 7.25 13.2839 7.28438 13.3339C7.30625 13.3714 7.35938 13.4183 7.4 13.4371C7.4375 13.4527 7.68125 13.4683 7.9375 13.4683C8.19687 13.4683 8.4375 13.4527 8.47812 13.4371C8.51562 13.4183 8.56563 13.3714 8.59062 13.3339C8.62187 13.287 8.6375 13.112 8.64688 12.7494C8.65938 12.4213 8.67813 12.2119 8.70312 12.1712C8.72188 12.1368 8.79375 12.0868 8.8625 12.0587C8.92813 12.0306 9.08125 11.9712 9.20312 11.9243C9.325 11.8805 9.5125 11.7899 9.625 11.7274C9.74375 11.6586 9.95312 11.4867 10.1281 11.3117C10.3844 11.0585 10.4469 10.971 10.5719 10.7178C10.6531 10.5553 10.7438 10.3303 10.7719 10.2178C10.8063 10.0834 10.825 9.8927 10.825 9.65516C10.825 9.37386 10.8094 9.23947 10.7531 9.04568C10.7156 8.90816 10.6344 8.69875 10.5719 8.57685C10.5125 8.45808 10.4031 8.27993 10.3281 8.18616C10.2563 8.09239 10.1281 7.95175 10.0437 7.87361C9.95937 7.79547 9.82812 7.68608 9.75 7.63294C9.67188 7.57981 9.46875 7.46729 9.29688 7.37977C9.125 7.29538 8.75937 7.12973 8.48438 7.01408C8.20938 6.89844 7.89375 6.75467 7.78125 6.69215C7.66875 6.62964 7.51562 6.52338 7.44063 6.45461C7.36563 6.38273 7.27812 6.27333 7.24687 6.21082C7.2125 6.14519 7.1875 6.02954 7.1875 5.9514C7.1875 5.87326 7.2125 5.75762 7.24687 5.69511C7.27812 5.62947 7.35938 5.52946 7.425 5.4732C7.49063 5.42006 7.60938 5.3513 7.6875 5.32317C7.76562 5.29504 7.975 5.26379 8.15625 5.25753C8.39062 5.24503 8.57812 5.25441 8.8125 5.29504C8.99375 5.3263 9.23125 5.38256 9.34375 5.42006C9.45625 5.45757 9.63125 5.52633 9.73438 5.57321C9.8375 5.6201 9.95 5.6576 9.98438 5.6576C10.0188 5.6576 10.0719 5.6326 10.1 5.60134C10.1281 5.57009 10.1687 5.50445 10.1875 5.45132C10.2063 5.40131 10.2844 5.13876 10.3625 4.87309C10.4812 4.46365 10.4969 4.37301 10.4688 4.28862C10.4438 4.21048 10.4 4.16672 10.2812 4.10734C10.1969 4.06358 10.0031 3.98857 9.85312 3.93856C9.7 3.88542 9.41562 3.81666 9.21875 3.78228C8.95312 3.73227 8.84375 3.69789 8.79688 3.65101C8.74375 3.59475 8.73125 3.52911 8.71562 3.15717C8.70625 2.92276 8.68125 2.70085 8.6625 2.66334C8.64062 2.62271 8.59062 2.57895 8.54688 2.5602C8.50313 2.54457 8.2625 2.52894 8.00937 2.53207C7.75312 2.53207 7.51875 2.54457 7.48125 2.5602C7.44687 2.57582 7.40312 2.60708 7.3875 2.62896Z" fill="#384FAE"/>
<path fill-rule="evenodd" clip-rule="evenodd" d="M27.9531 0.000383743C28.4281 -0.00274179 28.6812 0.0128859 29.0094 0.0597689C29.2437 0.0941498 29.575 0.153535 29.7437 0.187916C29.9094 0.225422 30.2219 0.309812 30.4375 0.378574C30.6531 0.447335 30.9906 0.575482 31.1875 0.659872C31.3844 0.744261 31.6812 0.888036 31.8438 0.981802C32.0063 1.07244 32.2688 1.23184 32.4219 1.33186C32.575 1.435 32.8438 1.63191 33.0156 1.76944C33.1875 1.91009 33.4875 2.18201 33.6781 2.37579C33.8719 2.5727 34.125 2.85087 34.2406 2.99777C34.3594 3.14467 34.5469 3.40409 34.6625 3.576C34.775 3.7479 34.9344 4.00732 35.0156 4.15422C35.0969 4.30112 35.2344 4.58867 35.3281 4.79495C35.4187 5.00124 35.55 5.34505 35.6187 5.56071C35.6875 5.77637 35.7719 6.0858 35.8062 6.24833C35.8438 6.41086 35.9 6.74529 35.9344 6.99221C35.9812 7.30476 36 7.59543 36 7.97675C36 8.27993 35.9781 8.67687 35.9531 8.88941C35.925 9.09569 35.8687 9.43637 35.8281 9.64891C35.7844 9.85832 35.6781 10.2459 35.5938 10.5084C35.5063 10.7741 35.3375 11.1898 35.2094 11.4523C35.0844 11.7118 34.8906 12.0618 34.7844 12.2337C34.675 12.4056 34.4906 12.6744 34.375 12.8276C34.2563 12.9807 34.05 13.2276 33.9156 13.3745C33.7812 13.5215 33.5437 13.759 33.3906 13.9028C33.2375 14.0465 32.975 14.2653 32.8125 14.3872C32.65 14.5091 32.3875 14.6904 32.2344 14.7842C32.0813 14.8811 31.8344 15.0217 31.6875 15.0998C31.5406 15.1749 31.2875 15.2968 31.125 15.3655C30.9625 15.4343 30.6531 15.5499 30.4375 15.6187C30.2219 15.6874 29.9094 15.7718 29.7437 15.8093C29.575 15.8437 29.2437 15.9031 29.0094 15.9375C28.7 15.9812 28.4125 16 28 16C27.575 16 27.3063 15.9844 26.9844 15.9344C26.7438 15.9 26.4125 15.8437 26.25 15.8062C26.0875 15.7718 25.7406 15.6749 25.4844 15.5906C25.225 15.503 24.8031 15.3311 24.5469 15.2061C24.2875 15.0811 23.9531 14.8998 23.7969 14.806C23.6406 14.7092 23.3906 14.5372 23.2344 14.4185C23.0781 14.3028 22.8969 14.1591 22.8281 14.0997C22.7594 14.0403 22.55 13.8434 22.3656 13.659C22.1781 13.4777 21.9187 13.1933 21.7844 13.0307C21.6531 12.8682 21.4531 12.5932 21.3375 12.4213C21.225 12.2494 21.0625 11.9806 20.9781 11.8274C20.8906 11.6743 20.7625 11.4117 20.6875 11.2492C20.6156 11.0867 20.4875 10.7491 20.4062 10.4991C20.3219 10.249 20.2281 9.91146 20.1937 9.74893C20.1562 9.5864 20.1 9.25197 20.0656 9.00818C20.0187 8.6925 20 8.40182 20 8.02363C20 7.71733 20.0219 7.32039 20.0469 7.10785C20.075 6.90157 20.1312 6.56088 20.1719 6.35147C20.2156 6.13894 20.3187 5.76075 20.4031 5.50758C20.4875 5.25128 20.6219 4.8981 20.7031 4.71682C20.7844 4.53554 20.9344 4.24173 21.0375 4.06045C21.1406 3.87917 21.3188 3.59787 21.4344 3.43535C21.5469 3.27282 21.7406 3.01965 21.8625 2.87275C21.9844 2.72585 22.2313 2.46331 22.4094 2.28828C22.5875 2.11325 22.8531 1.87258 23 1.75693C23.1469 1.63816 23.4062 1.45063 23.5781 1.33499C23.75 1.22247 24.0188 1.05994 24.1719 0.975551C24.325 0.888036 24.5875 0.759889 24.75 0.684876C24.9125 0.612989 25.25 0.484842 25.5 0.403578C25.75 0.319188 26.0938 0.222297 26.2656 0.187916C26.4375 0.150409 26.7469 0.0941498 26.9531 0.0628944C27.2156 0.0222625 27.5156 0.00350928 27.9531 0.000383743ZM27.3875 2.62896C27.3719 2.65084 27.3531 2.89775 27.3438 3.1728C27.3313 3.62288 27.3219 3.68539 27.2656 3.74478C27.2312 3.78228 27.075 3.86355 26.9219 3.92293C26.7688 3.98544 26.55 4.08233 26.4375 4.14484C26.325 4.20423 26.1562 4.31675 26.0625 4.39176C25.9688 4.46677 25.8344 4.59492 25.7656 4.67618C25.6969 4.75745 25.6 4.8981 25.5469 4.98249C25.4938 5.07 25.4125 5.25753 25.3625 5.40443C25.2875 5.62635 25.2687 5.73574 25.2562 6.07642C25.2469 6.38898 25.2531 6.52963 25.2937 6.6859C25.3219 6.79842 25.3906 6.98908 25.45 7.10785C25.5187 7.2485 25.6375 7.41415 25.7875 7.57668C25.9156 7.7142 26.125 7.89861 26.2531 7.98613C26.3813 8.07364 26.5969 8.20491 26.7344 8.27368C26.8719 8.34244 27.2438 8.50497 27.5625 8.63624C27.8812 8.76751 28.2312 8.93004 28.3438 8.99568C28.4563 9.06131 28.6062 9.18321 28.6812 9.2676C28.7719 9.36761 28.8344 9.48013 28.8656 9.59265C28.9031 9.73018 28.9062 9.79581 28.8781 9.92083C28.8594 10.0083 28.8031 10.1365 28.75 10.2115C28.7 10.2834 28.6031 10.3772 28.5406 10.4178C28.475 10.4616 28.3313 10.5272 28.2188 10.5647C28.0594 10.621 27.9437 10.6335 27.6719 10.6366C27.4563 10.6366 27.2312 10.6147 27.0625 10.5803C26.9156 10.5491 26.6844 10.4897 26.5469 10.4459C26.4094 10.4022 26.1594 10.3053 25.9938 10.2303C25.8187 10.1521 25.6594 10.099 25.625 10.1084C25.5906 10.1177 25.5438 10.1552 25.5188 10.1959C25.4938 10.2334 25.4062 10.4897 25.3281 10.7647C25.2469 11.0398 25.1813 11.3242 25.1781 11.393C25.175 11.4867 25.1906 11.543 25.2344 11.593C25.2688 11.6305 25.3781 11.7024 25.4781 11.7524C25.575 11.8024 25.7781 11.8837 25.9313 11.9337C26.0813 11.9868 26.4156 12.0712 26.6719 12.1212C26.9313 12.1743 27.1531 12.2337 27.1719 12.2494C27.1906 12.2681 27.2094 12.5057 27.2219 12.7744C27.2313 13.1245 27.25 13.2839 27.2844 13.3339C27.3063 13.3714 27.3594 13.4183 27.4 13.4371C27.4375 13.4527 27.6813 13.4683 27.9375 13.4683C28.1969 13.4683 28.4375 13.4527 28.4781 13.4371C28.5156 13.4183 28.5656 13.3714 28.5906 13.3339C28.6219 13.287 28.6375 13.112 28.6469 12.7494C28.6594 12.4213 28.6781 12.2119 28.7031 12.1712C28.7219 12.1368 28.7937 12.0868 28.8625 12.0587C28.9281 12.0306 29.0813 11.9712 29.2031 11.9243C29.325 11.8805 29.5125 11.7899 29.625 11.7274C29.7437 11.6586 29.9531 11.4867 30.1281 11.3117C30.3844 11.0585 30.4469 10.971 30.5719 10.7178C30.6531 10.5553 30.7438 10.3303 30.7719 10.2178C30.8063 10.0834 30.825 9.8927 30.825 9.65516C30.825 9.37386 30.8094 9.23947 30.7531 9.04568C30.7156 8.90816 30.6344 8.69875 30.5719 8.57685C30.5125 8.45808 30.4031 8.27993 30.3281 8.18616C30.2563 8.09239 30.1281 7.95175 30.0437 7.87361C29.9594 7.79547 29.8281 7.68608 29.75 7.63294C29.6719 7.57981 29.4688 7.46729 29.2969 7.37977C29.125 7.29538 28.7594 7.12973 28.4844 7.01408C28.2094 6.89844 27.8938 6.75467 27.7812 6.69215C27.6687 6.62964 27.5156 6.52338 27.4406 6.45461C27.3656 6.38273 27.2781 6.27333 27.2469 6.21082C27.2125 6.14519 27.1875 6.02954 27.1875 5.9514C27.1875 5.87326 27.2125 5.75762 27.2469 5.69511C27.2781 5.62947 27.3594 5.52946 27.425 5.4732C27.4906 5.42006 27.6094 5.3513 27.6875 5.32317C27.7656 5.29504 27.975 5.26379 28.1562 5.25753C28.3906 5.24503 28.5781 5.25441 28.8125 5.29504C28.9937 5.3263 29.2312 5.38256 29.3438 5.42006C29.4563 5.45757 29.6313 5.52633 29.7344 5.57321C29.8375 5.6201 29.95 5.6576 29.9844 5.6576C30.0188 5.6576 30.0719 5.6326 30.1 5.60134C30.1281 5.57009 30.1687 5.50445 30.1875 5.45132C30.2063 5.40131 30.2844 5.13876 30.3625 4.87309C30.4812 4.46365 30.4969 4.37301 30.4688 4.28862C30.4438 4.21048 30.4 4.16672 30.2812 4.10734C30.1969 4.06358 30.0031 3.98857 29.8531 3.93856C29.7 3.88542 29.4156 3.81666 29.2188 3.78228C28.9531 3.73227 28.8438 3.69789 28.7969 3.65101C28.7437 3.59475 28.7312 3.52911 28.7156 3.15717C28.7063 2.92276 28.6813 2.70085 28.6625 2.66334C28.6406 2.62271 28.5906 2.57895 28.5469 2.5602C28.5031 2.54457 28.2625 2.52894 28.0094 2.53207C27.7531 2.53207 27.5187 2.54457 27.4812 2.5602C27.4469 2.57582 27.4031 2.60708 27.3875 2.62896Z" fill="#384FAE"/>
<path fill-rule="evenodd" clip-rule="evenodd" d="M47.9531 0.000383743C48.4281 -0.00274179 48.6812 0.0128859 49.0094 0.0597689C49.2437 0.0941498 49.575 0.153535 49.7437 0.187916C49.9094 0.225422 50.2219 0.309812 50.4375 0.378574C50.6531 0.447335 50.9906 0.575482 51.1875 0.659872C51.3844 0.744261 51.6812 0.888036 51.8438 0.981802C52.0063 1.07244 52.2688 1.23184 52.4219 1.33186C52.575 1.435 52.8438 1.63191 53.0156 1.76944C53.1875 1.91009 53.4875 2.18201 53.6781 2.37579C53.8719 2.5727 54.125 2.85087 54.2406 2.99777C54.3594 3.14467 54.5469 3.40409 54.6625 3.576C54.775 3.7479 54.9344 4.00732 55.0156 4.15422C55.0969 4.30112 55.2344 4.58867 55.3281 4.79495C55.4187 5.00124 55.55 5.34505 55.6187 5.56071C55.6875 5.77637 55.7719 6.0858 55.8062 6.24833C55.8438 6.41086 55.9 6.74529 55.9344 6.99221C55.9812 7.30476 56 7.59543 56 7.97675C56 8.27993 55.9781 8.67687 55.9531 8.88941C55.925 9.09569 55.8687 9.43637 55.8281 9.64891C55.7844 9.85832 55.6781 10.2459 55.5938 10.5084C55.5063 10.7741 55.3375 11.1898 55.2094 11.4523C55.0844 11.7118 54.8906 12.0618 54.7844 12.2337C54.675 12.4056 54.4906 12.6744 54.375 12.8276C54.2563 12.9807 54.05 13.2276 53.9156 13.3745C53.7812 13.5215 53.5437 13.759 53.3906 13.9028C53.2375 14.0465 52.975 14.2653 52.8125 14.3872C52.65 14.5091 52.3875 14.6904 52.2344 14.7842C52.0813 14.8811 51.8344 15.0217 51.6875 15.0998C51.5406 15.1749 51.2875 15.2968 51.125 15.3655C50.9625 15.4343 50.6531 15.5499 50.4375 15.6187C50.2219 15.6874 49.9094 15.7718 49.7437 15.8093C49.575 15.8437 49.2437 15.9031 49.0094 15.9375C48.7 15.9812 48.4125 16 48 16C47.575 16 47.3063 15.9844 46.9844 15.9344C46.7438 15.9 46.4125 15.8437 46.25 15.8062C46.0875 15.7718 45.7406 15.6749 45.4844 15.5906C45.225 15.503 44.8031 15.3311 44.5469 15.2061C44.2875 15.0811 43.9531 14.8998 43.7969 14.806C43.6406 14.7092 43.3906 14.5372 43.2344 14.4185C43.0781 14.3028 42.8969 14.1591 42.8281 14.0997C42.7594 14.0403 42.55 13.8434 42.3656 13.659C42.1781 13.4777 41.9187 13.1933 41.7844 13.0307C41.6531 12.8682 41.4531 12.5932 41.3375 12.4213C41.225 12.2494 41.0625 11.9806 40.9781 11.8274C40.8906 11.6743 40.7625 11.4117 40.6875 11.2492C40.6156 11.0867 40.4875 10.7491 40.4062 10.4991C40.3219 10.249 40.2281 9.91146 40.1937 9.74893C40.1562 9.5864 40.1 9.25197 40.0656 9.00818C40.0187 8.6925 40 8.40182 40 8.02363C40 7.71733 40.0219 7.32039 40.0469 7.10785C40.075 6.90157 40.1312 6.56088 40.1719 6.35147C40.2156 6.13894 40.3187 5.76075 40.4031 5.50758C40.4875 5.25128 40.6219 4.8981 40.7031 4.71682C40.7844 4.53554 40.9344 4.24173 41.0375 4.06045C41.1406 3.87917 41.3188 3.59787 41.4344 3.43535C41.5469 3.27282 41.7406 3.01965 41.8625 2.87275C41.9844 2.72585 42.2313 2.46331 42.4094 2.28828C42.5875 2.11325 42.8531 1.87258 43 1.75693C43.1469 1.63816 43.4062 1.45063 43.5781 1.33499C43.75 1.22247 44.0188 1.05994 44.1719 0.975551C44.325 0.888036 44.5875 0.759889 44.75 0.684876C44.9125 0.612989 45.25 0.484842 45.5 0.403578C45.75 0.319188 46.0938 0.222297 46.2656 0.187916C46.4375 0.150409 46.7469 0.0941498 46.9531 0.0628944C47.2156 0.0222625 47.5156 0.00350928 47.9531 0.000383743ZM47.3875 2.62896C47.3719 2.65084 47.3531 2.89775 47.3438 3.1728C47.3313 3.62288 47.3219 3.68539 47.2656 3.74478C47.2312 3.78228 47.075 3.86355 46.9219 3.92293C46.7688 3.98544 46.55 4.08233 46.4375 4.14484C46.325 4.20423 46.1562 4.31675 46.0625 4.39176C45.9688 4.46677 45.8344 4.59492 45.7656 4.67618C45.6969 4.75745 45.6 4.8981 45.5469 4.98249C45.4938 5.07 45.4125 5.25753 45.3625 5.40443C45.2875 5.62635 45.2687 5.73574 45.2562 6.07642C45.2469 6.38898 45.2531 6.52963 45.2937 6.6859C45.3219 6.79842 45.3906 6.98908 45.45 7.10785C45.5187 7.2485 45.6375 7.41415 45.7875 7.57668C45.9156 7.7142 46.125 7.89861 46.2531 7.98613C46.3813 8.07364 46.5969 8.20491 46.7344 8.27368C46.8719 8.34244 47.2438 8.50497 47.5625 8.63624C47.8812 8.76751 48.2312 8.93004 48.3438 8.99568C48.4563 9.06131 48.6062 9.18321 48.6812 9.2676C48.7719 9.36761 48.8344 9.48013 48.8656 9.59265C48.9031 9.73018 48.9062 9.79581 48.8781 9.92083C48.8594 10.0083 48.8031 10.1365 48.75 10.2115C48.7 10.2834 48.6031 10.3772 48.5406 10.4178C48.475 10.4616 48.3313 10.5272 48.2188 10.5647C48.0594 10.621 47.9437 10.6335 47.6719 10.6366C47.4563 10.6366 47.2312 10.6147 47.0625 10.5803C46.9156 10.5491 46.6844 10.4897 46.5469 10.4459C46.4094 10.4022 46.1594 10.3053 45.9938 10.2303C45.8187 10.1521 45.6594 10.099 45.625 10.1084C45.5906 10.1177 45.5438 10.1552 45.5188 10.1959C45.4938 10.2334 45.4062 10.4897 45.3281 10.7647C45.2469 11.0398 45.1813 11.3242 45.1781 11.393C45.175 11.4867 45.1906 11.543 45.2344 11.593C45.2688 11.6305 45.3781 11.7024 45.4781 11.7524C45.575 11.8024 45.7781 11.8837 45.9313 11.9337C46.0813 11.9868 46.4156 12.0712 46.6719 12.1212C46.9313 12.1743 47.1531 12.2337 47.1719 12.2494C47.1906 12.2681 47.2094 12.5057 47.2219 12.7744C47.2313 13.1245 47.25 13.2839 47.2844 13.3339C47.3063 13.3714 47.3594 13.4183 47.4 13.4371C47.4375 13.4527 47.6813 13.4683 47.9375 13.4683C48.1969 13.4683 48.4375 13.4527 48.4781 13.4371C48.5156 13.4183 48.5656 13.3714 48.5906 13.3339C48.6219 13.287 48.6375 13.112 48.6469 12.7494C48.6594 12.4213 48.6781 12.2119 48.7031 12.1712C48.7219 12.1368 48.7937 12.0868 48.8625 12.0587C48.9281 12.0306 49.0813 11.9712 49.2031 11.9243C49.325 11.8805 49.5125 11.7899 49.625 11.7274C49.7437 11.6586 49.9531 11.4867 50.1281 11.3117C50.3844 11.0585 50.4469 10.971 50.5719 10.7178C50.6531 10.5553 50.7438 10.3303 50.7719 10.2178C50.8063 10.0834 50.825 9.8927 50.825 9.65516C50.825 9.37386 50.8094 9.23947 50.7531 9.04568C50.7156 8.90816 50.6344 8.69875 50.5719 8.57685C50.5125 8.45808 50.4031 8.27993 50.3281 8.18616C50.2563 8.09239 50.1281 7.95175 50.0437 7.87361C49.9594 7.79547 49.8281 7.68608 49.75 7.63294C49.6719 7.57981 49.4688 7.46729 49.2969 7.37977C49.125 7.29538 48.7594 7.12973 48.4844 7.01408C48.2094 6.89844 47.8938 6.75467 47.7812 6.69215C47.6687 6.62964 47.5156 6.52338 47.4406 6.45461C47.3656 6.38273 47.2781 6.27333 47.2469 6.21082C47.2125 6.14519 47.1875 6.02954 47.1875 5.9514C47.1875 5.87326 47.2125 5.75762 47.2469 5.69511C47.2781 5.62947 47.3594 5.52946 47.425 5.4732C47.4906 5.42006 47.6094 5.3513 47.6875 5.32317C47.7656 5.29504 47.975 5.26379 48.1562 5.25753C48.3906 5.24503 48.5781 5.25441 48.8125 5.29504C48.9937 5.3263 49.2312 5.38256 49.3438 5.42006C49.4563 5.45757 49.6313 5.52633 49.7344 5.57321C49.8375 5.6201 49.95 5.6576 49.9844 5.6576C50.0188 5.6576 50.0719 5.6326 50.1 5.60134C50.1281 5.57009 50.1687 5.50445 50.1875 5.45132C50.2063 5.40131 50.2844 5.13876 50.3625 4.87309C50.4812 4.46365 50.4969 4.37301 50.4688 4.28862C50.4438 4.21048 50.4 4.16672 50.2812 4.10734C50.1969 4.06358 50.0031 3.98857 49.8531 3.93856C49.7 3.88542 49.4156 3.81666 49.2188 3.78228C48.9531 3.73227 48.8438 3.69789 48.7969 3.65101C48.7437 3.59475 48.7312 3.52911 48.7156 3.15717C48.7063 2.92276 48.6813 2.70085 48.6625 2.66334C48.6406 2.62271 48.5906 2.57895 48.5469 2.5602C48.5031 2.54457 48.2625 2.52894 48.0094 2.53207C47.7531 2.53207 47.5187 2.54457 47.4812 2.5602C47.4469 2.57582 47.4031 2.60708 47.3875 2.62896Z" fill="#384FAE"/>
<path fill-rule="evenodd" clip-rule="evenodd" d="M67.9531 0.000383743C68.4281 -0.00274179 68.6812 0.0128859 69.0094 0.0597689C69.2437 0.0941498 69.575 0.153535 69.7437 0.187916C69.9094 0.225422 70.2219 0.309812 70.4375 0.378574C70.6531 0.447335 70.9906 0.575482 71.1875 0.659872C71.3844 0.744261 71.6812 0.888036 71.8438 0.981802C72.0063 1.07244 72.2688 1.23184 72.4219 1.33186C72.575 1.435 72.8438 1.63191 73.0156 1.76944C73.1875 1.91009 73.4875 2.18201 73.6781 2.37579C73.8719 2.5727 74.125 2.85087 74.2406 2.99777C74.3594 3.14467 74.5469 3.40409 74.6625 3.576C74.775 3.7479 74.9344 4.00732 75.0156 4.15422C75.0969 4.30112 75.2344 4.58867 75.3281 4.79495C75.4187 5.00124 75.55 5.34505 75.6187 5.56071C75.6875 5.77637 75.7719 6.0858 75.8062 6.24833C75.8438 6.41086 75.9 6.74529 75.9344 6.99221C75.9812 7.30476 76 7.59543 76 7.97675C76 8.27993 75.9781 8.67687 75.9531 8.88941C75.925 9.09569 75.8687 9.43637 75.8281 9.64891C75.7844 9.85832 75.6781 10.2459 75.5938 10.5084C75.5063 10.7741 75.3375 11.1898 75.2094 11.4523C75.0844 11.7118 74.8906 12.0618 74.7844 12.2337C74.675 12.4056 74.4906 12.6744 74.375 12.8276C74.2563 12.9807 74.05 13.2276 73.9156 13.3745C73.7812 13.5215 73.5437 13.759 73.3906 13.9028C73.2375 14.0465 72.975 14.2653 72.8125 14.3872C72.65 14.5091 72.3875 14.6904 72.2344 14.7842C72.0813 14.8811 71.8344 15.0217 71.6875 15.0998C71.5406 15.1749 71.2875 15.2968 71.125 15.3655C70.9625 15.4343 70.6531 15.5499 70.4375 15.6187C70.2219 15.6874 69.9094 15.7718 69.7437 15.8093C69.575 15.8437 69.2437 15.9031 69.0094 15.9375C68.7 15.9812 68.4125 16 68 16C67.575 16 67.3063 15.9844 66.9844 15.9344C66.7438 15.9 66.4125 15.8437 66.25 15.8062C66.0875 15.7718 65.7406 15.6749 65.4844 15.5906C65.225 15.503 64.8031 15.3311 64.5469 15.2061C64.2875 15.0811 63.9531 14.8998 63.7969 14.806C63.6406 14.7092 63.3906 14.5372 63.2344 14.4185C63.0781 14.3028 62.8969 14.1591 62.8281 14.0997C62.7594 14.0403 62.55 13.8434 62.3656 13.659C62.1781 13.4777 61.9187 13.1933 61.7844 13.0307C61.6531 12.8682 61.4531 12.5932 61.3375 12.4213C61.225 12.2494 61.0625 11.9806 60.9781 11.8274C60.8906 11.6743 60.7625 11.4117 60.6875 11.2492C60.6156 11.0867 60.4875 10.7491 60.4062 10.4991C60.3219 10.249 60.2281 9.91146 60.1937 9.74893C60.1562 9.5864 60.1 9.25197 60.0656 9.00818C60.0187 8.6925 60 8.40182 60 8.02363C60 7.71733 60.0219 7.32039 60.0469 7.10785C60.075 6.90157 60.1312 6.56088 60.1719 6.35147C60.2156 6.13894 60.3187 5.76075 60.4031 5.50758C60.4875 5.25128 60.6219 4.8981 60.7031 4.71682C60.7844 4.53554 60.9344 4.24173 61.0375 4.06045C61.1406 3.87917 61.3188 3.59787 61.4344 3.43535C61.5469 3.27282 61.7406 3.01965 61.8625 2.87275C61.9844 2.72585 62.2313 2.46331 62.4094 2.28828C62.5875 2.11325 62.8531 1.87258 63 1.75693C63.1469 1.63816 63.4062 1.45063 63.5781 1.33499C63.75 1.22247 64.0188 1.05994 64.1719 0.975551C64.325 0.888036 64.5875 0.759889 64.75 0.684876C64.9125 0.612989 65.25 0.484842 65.5 0.403578C65.75 0.319188 66.0938 0.222297 66.2656 0.187916C66.4375 0.150409 66.7469 0.0941498 66.9531 0.0628944C67.2156 0.0222625 67.5156 0.00350928 67.9531 0.000383743ZM67.3875 2.62896C67.3719 2.65084 67.3531 2.89775 67.3438 3.1728C67.3313 3.62288 67.3219 3.68539 67.2656 3.74478C67.2312 3.78228 67.075 3.86355 66.9219 3.92293C66.7688 3.98544 66.55 4.08233 66.4375 4.14484C66.325 4.20423 66.1562 4.31675 66.0625 4.39176C65.9688 4.46677 65.8344 4.59492 65.7656 4.67618C65.6969 4.75745 65.6 4.8981 65.5469 4.98249C65.4938 5.07 65.4125 5.25753 65.3625 5.40443C65.2875 5.62635 65.2687 5.73574 65.2562 6.07642C65.2469 6.38898 65.2531 6.52963 65.2937 6.6859C65.3219 6.79842 65.3906 6.98908 65.45 7.10785C65.5187 7.2485 65.6375 7.41415 65.7875 7.57668C65.9156 7.7142 66.125 7.89861 66.2531 7.98613C66.3813 8.07364 66.5969 8.20491 66.7344 8.27368C66.8719 8.34244 67.2438 8.50497 67.5625 8.63624C67.8812 8.76751 68.2312 8.93004 68.3438 8.99568C68.4563 9.06131 68.6062 9.18321 68.6812 9.2676C68.7719 9.36761 68.8344 9.48013 68.8656 9.59265C68.9031 9.73018 68.9062 9.79581 68.8781 9.92083C68.8594 10.0083 68.8031 10.1365 68.75 10.2115C68.7 10.2834 68.6031 10.3772 68.5406 10.4178C68.475 10.4616 68.3313 10.5272 68.2188 10.5647C68.0594 10.621 67.9437 10.6335 67.6719 10.6366C67.4563 10.6366 67.2312 10.6147 67.0625 10.5803C66.9156 10.5491 66.6844 10.4897 66.5469 10.4459C66.4094 10.4022 66.1594 10.3053 65.9938 10.2303C65.8187 10.1521 65.6594 10.099 65.625 10.1084C65.5906 10.1177 65.5438 10.1552 65.5188 10.1959C65.4938 10.2334 65.4062 10.4897 65.3281 10.7647C65.2469 11.0398 65.1813 11.3242 65.1781 11.393C65.175 11.4867 65.1906 11.543 65.2344 11.593C65.2688 11.6305 65.3781 11.7024 65.4781 11.7524C65.575 11.8024 65.7781 11.8837 65.9313 11.9337C66.0813 11.9868 66.4156 12.0712 66.6719 12.1212C66.9313 12.1743 67.1531 12.2337 67.1719 12.2494C67.1906 12.2681 67.2094 12.5057 67.2219 12.7744C67.2313 13.1245 67.25 13.2839 67.2844 13.3339C67.3063 13.3714 67.3594 13.4183 67.4 13.4371C67.4375 13.4527 67.6813 13.4683 67.9375 13.4683C68.1969 13.4683 68.4375 13.4527 68.4781 13.4371C68.5156 13.4183 68.5656 13.3714 68.5906 13.3339C68.6219 13.287 68.6375 13.112 68.6469 12.7494C68.6594 12.4213 68.6781 12.2119 68.7031 12.1712C68.7219 12.1368 68.7937 12.0868 68.8625 12.0587C68.9281 12.0306 69.0813 11.9712 69.2031 11.9243C69.325 11.8805 69.5125 11.7899 69.625 11.7274C69.7437 11.6586 69.9531 11.4867 70.1281 11.3117C70.3844 11.0585 70.4469 10.971 70.5719 10.7178C70.6531 10.5553 70.7438 10.3303 70.7719 10.2178C70.8063 10.0834 70.825 9.8927 70.825 9.65516C70.825 9.37386 70.8094 9.23947 70.7531 9.04568C70.7156 8.90816 70.6344 8.69875 70.5719 8.57685C70.5125 8.45808 70.4031 8.27993 70.3281 8.18616C70.2563 8.09239 70.1281 7.95175 70.0437 7.87361C69.9594 7.79547 69.8281 7.68608 69.75 7.63294C69.6719 7.57981 69.4688 7.46729 69.2969 7.37977C69.125 7.29538 68.7594 7.12973 68.4844 7.01408C68.2094 6.89844 67.8938 6.75467 67.7812 6.69215C67.6687 6.62964 67.5156 6.52338 67.4406 6.45461C67.3656 6.38273 67.2781 6.27333 67.2469 6.21082C67.2125 6.14519 67.1875 6.02954 67.1875 5.9514C67.1875 5.87326 67.2125 5.75762 67.2469 5.69511C67.2781 5.62947 67.3594 5.52946 67.425 5.4732C67.4906 5.42006 67.6094 5.3513 67.6875 5.32317C67.7656 5.29504 67.975 5.26379 68.1562 5.25753C68.3906 5.24503 68.5781 5.25441 68.8125 5.29504C68.9937 5.3263 69.2312 5.38256 69.3438 5.42006C69.4563 5.45757 69.6313 5.52633 69.7344 5.57321C69.8375 5.6201 69.95 5.6576 69.9844 5.6576C70.0188 5.6576 70.0719 5.6326 70.1 5.60134C70.1281 5.57009 70.1687 5.50445 70.1875 5.45132C70.2063 5.40131 70.2844 5.13876 70.3625 4.87309C70.4812 4.46365 70.4969 4.37301 70.4688 4.28862C70.4438 4.21048 70.4 4.16672 70.2812 4.10734C70.1969 4.06358 70.0031 3.98857 69.8531 3.93856C69.7 3.88542 69.4156 3.81666 69.2188 3.78228C68.9531 3.73227 68.8438 3.69789 68.7969 3.65101C68.7437 3.59475 68.7312 3.52911 68.7156 3.15717C68.7063 2.92276 68.6813 2.70085 68.6625 2.66334C68.6406 2.62271 68.5906 2.57895 68.5469 2.5602C68.5031 2.54457 68.2625 2.52894 68.0094 2.53207C67.7531 2.53207 67.5187 2.54457 67.4812 2.5602C67.4469 2.57582 67.4031 2.60708 67.3875 2.62896Z" fill="#384FAE"/>
<path fill-rule="evenodd" clip-rule="evenodd" d="M87.9531 0.000383743C88.4281 -0.00274179 88.6812 0.0128859 89.0094 0.0597689C89.2437 0.0941498 89.575 0.153535 89.7437 0.187916C89.9094 0.225422 90.2219 0.309812 90.4375 0.378574C90.6531 0.447335 90.9906 0.575482 91.1875 0.659872C91.3844 0.744261 91.6813 0.888036 91.8438 0.981802C92.0062 1.07244 92.2687 1.23184 92.4219 1.33186C92.575 1.435 92.8438 1.63191 93.0156 1.76944C93.1875 1.91009 93.4875 2.18201 93.6781 2.37579C93.8719 2.5727 94.125 2.85087 94.2406 2.99777C94.3594 3.14467 94.5469 3.40409 94.6625 3.576C94.775 3.7479 94.9344 4.00732 95.0156 4.15422C95.0969 4.30112 95.2344 4.58867 95.3281 4.79495C95.4188 5.00124 95.55 5.34505 95.6187 5.56071C95.6875 5.77637 95.7719 6.0858 95.8062 6.24833C95.8437 6.41086 95.9 6.74529 95.9344 6.99221C95.9812 7.30476 96 7.59543 96 7.97675C96 8.27993 95.9781 8.67687 95.9531 8.88941C95.925 9.09569 95.8687 9.43637 95.8281 9.64891C95.7844 9.85832 95.6781 10.2459 95.5938 10.5084C95.5063 10.7741 95.3375 11.1898 95.2094 11.4523C95.0844 11.7118 94.8906 12.0618 94.7844 12.2337C94.675 12.4056 94.4906 12.6744 94.375 12.8276C94.2563 12.9807 94.05 13.2276 93.9156 13.3745C93.7812 13.5215 93.5438 13.759 93.3906 13.9028C93.2375 14.0465 92.975 14.2653 92.8125 14.3872C92.65 14.5091 92.3875 14.6904 92.2344 14.7842C92.0812 14.8811 91.8344 15.0217 91.6875 15.0998C91.5406 15.1749 91.2875 15.2968 91.125 15.3655C90.9625 15.4343 90.6531 15.5499 90.4375 15.6187C90.2219 15.6874 89.9094 15.7718 89.7437 15.8093C89.575 15.8437 89.2437 15.9031 89.0094 15.9375C88.7 15.9812 88.4125 16 88 16C87.575 16 87.3063 15.9844 86.9844 15.9344C86.7438 15.9 86.4125 15.8437 86.25 15.8062C86.0875 15.7718 85.7406 15.6749 85.4844 15.5906C85.225 15.503 84.8031 15.3311 84.5469 15.2061C84.2875 15.0811 83.9531 14.8998 83.7969 14.806C83.6406 14.7092 83.3906 14.5372 83.2344 14.4185C83.0781 14.3028 82.8969 14.1591 82.8281 14.0997C82.7594 14.0403 82.55 13.8434 82.3656 13.659C82.1781 13.4777 81.9187 13.1933 81.7844 13.0307C81.6531 12.8682 81.4531 12.5932 81.3375 12.4213C81.225 12.2494 81.0625 11.9806 80.9781 11.8274C80.8906 11.6743 80.7625 11.4117 80.6875 11.2492C80.6156 11.0867 80.4875 10.7491 80.4062 10.4991C80.3219 10.249 80.2281 9.91146 80.1937 9.74893C80.1562 9.5864 80.1 9.25197 80.0656 9.00818C80.0187 8.6925 80 8.40182 80 8.02363C80 7.71733 80.0219 7.32039 80.0469 7.10785C80.075 6.90157 80.1313 6.56088 80.1719 6.35147C80.2156 6.13894 80.3187 5.76075 80.4031 5.50758C80.4875 5.25128 80.6219 4.8981 80.7031 4.71682C80.7844 4.53554 80.9344 4.24174 81.0375 4.06045C81.1406 3.87917 81.3188 3.59787 81.4344 3.43535C81.5469 3.27282 81.7406 3.01965 81.8625 2.87275C81.9844 2.72585 82.2312 2.46331 82.4094 2.28828C82.5875 2.11325 82.8531 1.87258 83 1.75693C83.1469 1.63816 83.4062 1.45063 83.5781 1.33499C83.75 1.22247 84.0187 1.05994 84.1719 0.975551C84.325 0.888036 84.5875 0.759889 84.75 0.684876C84.9125 0.612989 85.25 0.484842 85.5 0.403578C85.75 0.319188 86.0938 0.222297 86.2656 0.187916C86.4375 0.150409 86.7469 0.0941498 86.9531 0.0628944C87.2156 0.0222625 87.5156 0.00350928 87.9531 0.000383743V0.000383743ZM87.3875 2.62896C87.3719 2.65084 87.3531 2.89775 87.3438 3.1728C87.3312 3.62288 87.3219 3.68539 87.2656 3.74478C87.2312 3.78228 87.075 3.86355 86.9219 3.92293C86.7687 3.98544 86.55 4.08233 86.4375 4.14484C86.325 4.20423 86.1562 4.31675 86.0625 4.39176C85.9688 4.46677 85.8344 4.59492 85.7656 4.67618C85.6969 4.75745 85.6 4.8981 85.5469 4.98249C85.4937 5.07 85.4125 5.25753 85.3625 5.40443C85.2875 5.62635 85.2687 5.73574 85.2562 6.07642C85.2469 6.38898 85.2531 6.52963 85.2937 6.6859C85.3219 6.79842 85.3906 6.98908 85.45 7.10785C85.5187 7.2485 85.6375 7.41415 85.7875 7.57668C85.9156 7.7142 86.125 7.89861 86.2531 7.98613C86.3813 8.07364 86.5969 8.20491 86.7344 8.27368C86.8719 8.34244 87.2438 8.50497 87.5625 8.63624C87.8812 8.76751 88.2313 8.93004 88.3438 8.99567C88.4562 9.06131 88.6062 9.18321 88.6812 9.2676C88.7719 9.36761 88.8344 9.48013 88.8656 9.59265C88.9031 9.73018 88.9063 9.79581 88.8781 9.92083C88.8594 10.0083 88.8031 10.1365 88.75 10.2115C88.7 10.2834 88.6031 10.3772 88.5406 10.4178C88.475 10.4616 88.3312 10.5272 88.2188 10.5647C88.0594 10.621 87.9437 10.6335 87.6719 10.6366C87.4562 10.6366 87.2313 10.6147 87.0625 10.5803C86.9156 10.5491 86.6844 10.4897 86.5469 10.4459C86.4094 10.4022 86.1594 10.3053 85.9938 10.2303C85.8188 10.1521 85.6594 10.099 85.625 10.1084C85.5906 10.1177 85.5438 10.1552 85.5188 10.1959C85.4938 10.2334 85.4062 10.4897 85.3281 10.7647C85.2469 11.0398 85.1812 11.3242 85.1781 11.393C85.175 11.4867 85.1906 11.543 85.2344 11.593C85.2688 11.6305 85.3781 11.7024 85.4781 11.7524C85.575 11.8024 85.7781 11.8837 85.9313 11.9337C86.0813 11.9868 86.4156 12.0712 86.6719 12.1212C86.9313 12.1743 87.1531 12.2337 87.1719 12.2494C87.1906 12.2681 87.2094 12.5057 87.2219 12.7744C87.2313 13.1245 87.25 13.2839 87.2844 13.3339C87.3063 13.3714 87.3594 13.4183 87.4 13.4371C87.4375 13.4527 87.6813 13.4683 87.9375 13.4683C88.1969 13.4683 88.4375 13.4527 88.4781 13.4371C88.5156 13.4183 88.5656 13.3714 88.5906 13.3339C88.6219 13.287 88.6375 13.112 88.6469 12.7494C88.6594 12.4213 88.6781 12.2119 88.7031 12.1712C88.7219 12.1368 88.7938 12.0868 88.8625 12.0587C88.9281 12.0306 89.0812 11.9712 89.2031 11.9243C89.325 11.8805 89.5125 11.7899 89.625 11.7274C89.7437 11.6586 89.9531 11.4867 90.1281 11.3117C90.3844 11.0585 90.4469 10.971 90.5719 10.7178C90.6531 10.5553 90.7438 10.3303 90.7719 10.2178C90.8063 10.0834 90.825 9.8927 90.825 9.65516C90.825 9.37386 90.8094 9.23947 90.7531 9.04568C90.7156 8.90816 90.6344 8.69875 90.5719 8.57685C90.5125 8.45808 90.4031 8.27993 90.3281 8.18616C90.2563 8.0924 90.1281 7.95175 90.0437 7.87361C89.9594 7.79547 89.8281 7.68608 89.75 7.63294C89.6719 7.57981 89.4688 7.46729 89.2969 7.37977C89.125 7.29538 88.7594 7.12973 88.4844 7.01408C88.2094 6.89844 87.8937 6.75467 87.7812 6.69215C87.6688 6.62964 87.5156 6.52338 87.4406 6.45461C87.3656 6.38273 87.2781 6.27333 87.2469 6.21082C87.2125 6.14519 87.1875 6.02954 87.1875 5.9514C87.1875 5.87326 87.2125 5.75762 87.2469 5.69511C87.2781 5.62947 87.3594 5.52946 87.425 5.4732C87.4906 5.42006 87.6094 5.3513 87.6875 5.32317C87.7656 5.29504 87.975 5.26379 88.1562 5.25753C88.3906 5.24503 88.5781 5.25441 88.8125 5.29504C88.9938 5.3263 89.2313 5.38256 89.3438 5.42006C89.4562 5.45757 89.6313 5.52633 89.7344 5.57321C89.8375 5.6201 89.95 5.6576 89.9844 5.6576C90.0188 5.6576 90.0719 5.6326 90.1 5.60134C90.1281 5.57009 90.1687 5.50445 90.1875 5.45132C90.2063 5.40131 90.2844 5.13876 90.3625 4.87309C90.4813 4.46365 90.4969 4.37301 90.4688 4.28862C90.4437 4.21048 90.4 4.16672 90.2812 4.10734C90.1969 4.06358 90.0031 3.98857 89.8531 3.93856C89.7 3.88542 89.4156 3.81666 89.2188 3.78228C88.9531 3.73227 88.8438 3.69789 88.7969 3.65101C88.7437 3.59475 88.7312 3.52911 88.7156 3.15717C88.7062 2.92276 88.6813 2.70085 88.6625 2.66334C88.6406 2.62271 88.5906 2.57895 88.5469 2.5602C88.5031 2.54457 88.2625 2.52894 88.0094 2.53207C87.7531 2.53207 87.5187 2.54457 87.4812 2.5602C87.4469 2.57582 87.4031 2.60708 87.3875 2.62896V2.62896Z" fill="#384FAE"/>
</svg>
