<svg width="97" height="18" viewBox="0 0 97 18" fill="none" xmlns="http://www.w3.org/2000/svg">
<path fill-rule="evenodd" clip-rule="evenodd" d="M7.95312 1.00038C8.42812 0.997258 8.68125 1.01289 9.00937 1.05977C9.24375 1.09415 9.575 1.15353 9.74375 1.18792C9.90937 1.22542 10.2219 1.30981 10.4375 1.37857C10.6531 1.44734 10.9906 1.57548 11.1875 1.65987C11.3844 1.74426 11.6813 1.88804 11.8438 1.9818C12.0062 2.07244 12.2687 2.23184 12.4219 2.33186C12.575 2.435 12.8438 2.63191 13.0156 2.76944C13.1875 2.91009 13.4875 3.18201 13.6781 3.37579C13.8719 3.5727 14.125 3.85087 14.2406 3.99777C14.3594 4.14467 14.5469 4.40409 14.6625 4.576C14.775 4.7479 14.9344 5.00732 15.0156 5.15422C15.0969 5.30112 15.2344 5.58867 15.3281 5.79495C15.4188 6.00124 15.55 6.34505 15.6187 6.56071C15.6875 6.77637 15.7719 7.0858 15.8062 7.24833C15.8437 7.41086 15.9 7.74529 15.9344 7.99221C15.9812 8.30476 16 8.59543 16 8.97675C16 9.27993 15.9781 9.67687 15.9531 9.88941C15.925 10.0957 15.8687 10.4364 15.8281 10.6489C15.7844 10.8583 15.6781 11.2459 15.5938 11.5084C15.5063 11.7741 15.3375 12.1898 15.2094 12.4523C15.0844 12.7118 14.8906 13.0618 14.7844 13.2337C14.675 13.4056 14.4906 13.6744 14.375 13.8276C14.2563 13.9807 14.05 14.2276 13.9156 14.3745C13.7812 14.5215 13.5438 14.759 13.3906 14.9028C13.2375 15.0465 12.975 15.2653 12.8125 15.3872C12.65 15.5091 12.3875 15.6904 12.2344 15.7842C12.0812 15.8811 11.8344 16.0217 11.6875 16.0998C11.5406 16.1749 11.2875 16.2968 11.125 16.3655C10.9625 16.4343 10.6531 16.5499 10.4375 16.6187C10.2219 16.6874 9.90937 16.7718 9.74375 16.8093C9.575 16.8437 9.24375 16.9031 9.00937 16.9375C8.7 16.9812 8.4125 17 8 17C7.575 17 7.30625 16.9844 6.98438 16.9344C6.74375 16.9 6.4125 16.8437 6.25 16.8062C6.0875 16.7718 5.74062 16.6749 5.48438 16.5906C5.225 16.503 4.80312 16.3311 4.54688 16.2061C4.2875 16.0811 3.95312 15.8998 3.79688 15.806C3.64062 15.7092 3.39062 15.5372 3.23438 15.4185C3.07812 15.3028 2.89688 15.1591 2.82812 15.0997C2.75937 15.0403 2.55 14.8434 2.36562 14.659C2.17812 14.4777 1.91875 14.1933 1.78437 14.0307C1.65312 13.8682 1.45312 13.5932 1.3375 13.4213C1.225 13.2494 1.0625 12.9806 0.978125 12.8274C0.890625 12.6743 0.7625 12.4117 0.6875 12.2492C0.615625 12.0867 0.4875 11.7491 0.40625 11.4991C0.321875 11.249 0.228125 10.9115 0.19375 10.7489C0.15625 10.5864 0.1 10.252 0.065625 10.0082C0.01875 9.6925 0 9.40182 0 9.02363C0 8.71733 0.021875 8.32039 0.046875 8.10785C0.075 7.90157 0.13125 7.56088 0.171875 7.35147C0.215625 7.13894 0.31875 6.76075 0.403125 6.50758C0.4875 6.25128 0.621875 5.8981 0.703125 5.71682C0.784375 5.53554 0.934375 5.24174 1.0375 5.06045C1.14063 4.87917 1.31875 4.59787 1.43438 4.43535C1.54688 4.27282 1.74062 4.01965 1.8625 3.87275C1.98437 3.72585 2.23125 3.46331 2.40937 3.28828C2.5875 3.11325 2.85313 2.87258 3 2.75693C3.14687 2.63816 3.40625 2.45063 3.57812 2.33499C3.75 2.22247 4.01875 2.05994 4.17188 1.97555C4.325 1.88804 4.5875 1.75989 4.75 1.68488C4.9125 1.61299 5.25 1.48484 5.5 1.40358C5.75 1.31919 6.09375 1.2223 6.26562 1.18792C6.4375 1.15041 6.74688 1.09415 6.95312 1.06289C7.21562 1.02226 7.51562 1.00351 7.95312 1.00038V1.00038ZM7.3875 3.62896C7.37187 3.65084 7.35313 3.89775 7.34375 4.1728C7.33125 4.62288 7.32187 4.68539 7.26562 4.74478C7.23125 4.78228 7.075 4.86355 6.92188 4.92293C6.76875 4.98544 6.55 5.08233 6.4375 5.14484C6.325 5.20423 6.15625 5.31675 6.0625 5.39176C5.96875 5.46677 5.83438 5.59492 5.76562 5.67618C5.69687 5.75745 5.6 5.8981 5.54688 5.98249C5.49375 6.07 5.4125 6.25753 5.3625 6.40443C5.2875 6.62635 5.26875 6.73574 5.25625 7.07642C5.24687 7.38898 5.25312 7.52963 5.29375 7.6859C5.32187 7.79842 5.39062 7.98908 5.45 8.10785C5.51875 8.2485 5.6375 8.41415 5.7875 8.57668C5.91562 8.7142 6.125 8.89861 6.25313 8.98613C6.38125 9.07364 6.59687 9.20491 6.73438 9.27368C6.87188 9.34244 7.24375 9.50497 7.5625 9.63624C7.88125 9.76751 8.23125 9.93004 8.34375 9.99567C8.45625 10.0613 8.60625 10.1832 8.68125 10.2676C8.77187 10.3676 8.83438 10.4801 8.86563 10.5927C8.90313 10.7302 8.90625 10.7958 8.87813 10.9208C8.85938 11.0083 8.80313 11.1365 8.75 11.2115C8.7 11.2834 8.60312 11.3772 8.54062 11.4178C8.475 11.4616 8.33125 11.5272 8.21875 11.5647C8.05938 11.621 7.94375 11.6335 7.67188 11.6366C7.45625 11.6366 7.23125 11.6147 7.0625 11.5803C6.91563 11.5491 6.68438 11.4897 6.54688 11.4459C6.40937 11.4022 6.15938 11.3053 5.99375 11.2303C5.81875 11.1521 5.65938 11.099 5.625 11.1084C5.59062 11.1177 5.54375 11.1552 5.51875 11.1959C5.49375 11.2334 5.40625 11.4897 5.32812 11.7647C5.24688 12.0398 5.18125 12.3242 5.17812 12.393C5.175 12.4867 5.19063 12.543 5.23438 12.593C5.26875 12.6305 5.37813 12.7024 5.47813 12.7524C5.575 12.8024 5.77813 12.8837 5.93125 12.9337C6.08125 12.9868 6.41563 13.0712 6.67188 13.1212C6.93125 13.1743 7.15312 13.2337 7.17188 13.2494C7.19063 13.2681 7.20938 13.5057 7.22188 13.7744C7.23125 14.1245 7.25 14.2839 7.28438 14.3339C7.30625 14.3714 7.35938 14.4183 7.4 14.4371C7.4375 14.4527 7.68125 14.4683 7.9375 14.4683C8.19688 14.4683 8.4375 14.4527 8.47812 14.4371C8.51562 14.4183 8.56562 14.3714 8.59062 14.3339C8.62187 14.287 8.6375 14.112 8.64688 13.7494C8.65938 13.4213 8.67812 13.2119 8.70312 13.1712C8.72188 13.1368 8.79375 13.0868 8.8625 13.0587C8.92813 13.0306 9.08125 12.9712 9.20312 12.9243C9.325 12.8805 9.5125 12.7899 9.625 12.7274C9.74375 12.6586 9.95313 12.4867 10.1281 12.3117C10.3844 12.0585 10.4469 11.971 10.5719 11.7178C10.6531 11.5553 10.7438 11.3303 10.7719 11.2178C10.8063 11.0834 10.825 10.8927 10.825 10.6552C10.825 10.3739 10.8094 10.2395 10.7531 10.0457C10.7156 9.90816 10.6344 9.69875 10.5719 9.57685C10.5125 9.45808 10.4031 9.27993 10.3281 9.18616C10.2563 9.0924 10.1281 8.95175 10.0437 8.87361C9.95937 8.79547 9.82812 8.68608 9.75 8.63294C9.67188 8.57981 9.46875 8.46729 9.29688 8.37977C9.125 8.29538 8.75938 8.12973 8.48438 8.01408C8.20937 7.89844 7.89375 7.75467 7.78125 7.69215C7.66875 7.62964 7.51563 7.52338 7.44063 7.45461C7.36563 7.38273 7.27812 7.27333 7.24687 7.21082C7.2125 7.14519 7.1875 7.02954 7.1875 6.9514C7.1875 6.87326 7.2125 6.75762 7.24687 6.69511C7.27812 6.62947 7.35938 6.52946 7.425 6.4732C7.49063 6.42006 7.60938 6.3513 7.6875 6.32317C7.76562 6.29504 7.975 6.26379 8.15625 6.25753C8.39062 6.24503 8.57812 6.25441 8.8125 6.29504C8.99375 6.3263 9.23125 6.38256 9.34375 6.42006C9.45625 6.45757 9.63125 6.52633 9.73438 6.57321C9.8375 6.6201 9.95 6.6576 9.98438 6.6576C10.0188 6.6576 10.0719 6.6326 10.1 6.60134C10.1281 6.57009 10.1687 6.50445 10.1875 6.45132C10.2063 6.40131 10.2844 6.13876 10.3625 5.87309C10.4813 5.46365 10.4969 5.37301 10.4688 5.28862C10.4437 5.21048 10.4 5.16672 10.2812 5.10734C10.1969 5.06358 10.0031 4.98857 9.85312 4.93856C9.7 4.88542 9.41563 4.81666 9.21875 4.78228C8.95312 4.73227 8.84375 4.69789 8.79688 4.65101C8.74375 4.59475 8.73125 4.52911 8.71562 4.15717C8.70625 3.92276 8.68125 3.70085 8.6625 3.66334C8.64063 3.62271 8.59062 3.57895 8.54688 3.5602C8.50313 3.54457 8.2625 3.52894 8.00937 3.53207C7.75312 3.53207 7.51875 3.54457 7.48125 3.5602C7.44687 3.57582 7.40312 3.60708 7.3875 3.62896V3.62896Z" fill="#384FAE"/>
<path fill-rule="evenodd" clip-rule="evenodd" d="M27.9531 1.00038C28.4281 0.997258 28.6812 1.01289 29.0094 1.05977C29.2437 1.09415 29.575 1.15353 29.7437 1.18792C29.9094 1.22542 30.2219 1.30981 30.4375 1.37857C30.6531 1.44734 30.9906 1.57548 31.1875 1.65987C31.3844 1.74426 31.6813 1.88804 31.8438 1.9818C32.0062 2.07244 32.2687 2.23184 32.4219 2.33186C32.575 2.435 32.8438 2.63191 33.0156 2.76944C33.1875 2.91009 33.4875 3.18201 33.6781 3.37579C33.8719 3.5727 34.125 3.85087 34.2406 3.99777C34.3594 4.14467 34.5469 4.40409 34.6625 4.576C34.775 4.7479 34.9344 5.00732 35.0156 5.15422C35.0969 5.30112 35.2344 5.58867 35.3281 5.79495C35.4188 6.00124 35.55 6.34505 35.6187 6.56071C35.6875 6.77637 35.7719 7.0858 35.8062 7.24833C35.8437 7.41086 35.9 7.74529 35.9344 7.99221C35.9812 8.30476 36 8.59543 36 8.97675C36 9.27993 35.9781 9.67687 35.9531 9.88941C35.925 10.0957 35.8687 10.4364 35.8281 10.6489C35.7844 10.8583 35.6781 11.2459 35.5938 11.5084C35.5063 11.7741 35.3375 12.1898 35.2094 12.4523C35.0844 12.7118 34.8906 13.0618 34.7844 13.2337C34.675 13.4056 34.4906 13.6744 34.375 13.8276C34.2563 13.9807 34.05 14.2276 33.9156 14.3745C33.7812 14.5215 33.5438 14.759 33.3906 14.9028C33.2375 15.0465 32.975 15.2653 32.8125 15.3872C32.65 15.5091 32.3875 15.6904 32.2344 15.7842C32.0812 15.8811 31.8344 16.0217 31.6875 16.0998C31.5406 16.1749 31.2875 16.2968 31.125 16.3655C30.9625 16.4343 30.6531 16.5499 30.4375 16.6187C30.2219 16.6874 29.9094 16.7718 29.7437 16.8093C29.575 16.8437 29.2437 16.9031 29.0094 16.9375C28.7 16.9812 28.4125 17 28 17C27.575 17 27.3063 16.9844 26.9844 16.9344C26.7438 16.9 26.4125 16.8437 26.25 16.8062C26.0875 16.7718 25.7406 16.6749 25.4844 16.5906C25.225 16.503 24.8031 16.3311 24.5469 16.2061C24.2875 16.0811 23.9531 15.8998 23.7969 15.806C23.6406 15.7092 23.3906 15.5372 23.2344 15.4185C23.0781 15.3028 22.8969 15.1591 22.8281 15.0997C22.7594 15.0403 22.55 14.8434 22.3656 14.659C22.1781 14.4777 21.9187 14.1933 21.7844 14.0307C21.6531 13.8682 21.4531 13.5932 21.3375 13.4213C21.225 13.2494 21.0625 12.9806 20.9781 12.8274C20.8906 12.6743 20.7625 12.4117 20.6875 12.2492C20.6156 12.0867 20.4875 11.7491 20.4062 11.4991C20.3219 11.249 20.2281 10.9115 20.1937 10.7489C20.1562 10.5864 20.1 10.252 20.0656 10.0082C20.0187 9.6925 20 9.40182 20 9.02363C20 8.71733 20.0219 8.32039 20.0469 8.10785C20.075 7.90157 20.1313 7.56088 20.1719 7.35147C20.2156 7.13894 20.3187 6.76075 20.4031 6.50758C20.4875 6.25128 20.6219 5.8981 20.7031 5.71682C20.7844 5.53554 20.9344 5.24174 21.0375 5.06045C21.1406 4.87917 21.3188 4.59787 21.4344 4.43535C21.5469 4.27282 21.7406 4.01965 21.8625 3.87275C21.9844 3.72585 22.2312 3.46331 22.4094 3.28828C22.5875 3.11325 22.8531 2.87258 23 2.75693C23.1469 2.63816 23.4062 2.45063 23.5781 2.33499C23.75 2.22247 24.0187 2.05994 24.1719 1.97555C24.325 1.88804 24.5875 1.75989 24.75 1.68488C24.9125 1.61299 25.25 1.48484 25.5 1.40358C25.75 1.31919 26.0938 1.2223 26.2656 1.18792C26.4375 1.15041 26.7469 1.09415 26.9531 1.06289C27.2156 1.02226 27.5156 1.00351 27.9531 1.00038V1.00038ZM27.3875 3.62896C27.3719 3.65084 27.3531 3.89775 27.3438 4.1728C27.3312 4.62288 27.3219 4.68539 27.2656 4.74478C27.2312 4.78228 27.075 4.86355 26.9219 4.92293C26.7687 4.98544 26.55 5.08233 26.4375 5.14484C26.325 5.20423 26.1562 5.31675 26.0625 5.39176C25.9688 5.46677 25.8344 5.59492 25.7656 5.67618C25.6969 5.75745 25.6 5.8981 25.5469 5.98249C25.4937 6.07 25.4125 6.25753 25.3625 6.40443C25.2875 6.62635 25.2687 6.73574 25.2562 7.07642C25.2469 7.38898 25.2531 7.52963 25.2937 7.6859C25.3219 7.79842 25.3906 7.98908 25.45 8.10785C25.5187 8.2485 25.6375 8.41415 25.7875 8.57668C25.9156 8.7142 26.125 8.89861 26.2531 8.98613C26.3813 9.07364 26.5969 9.20491 26.7344 9.27368C26.8719 9.34244 27.2438 9.50497 27.5625 9.63624C27.8812 9.76751 28.2313 9.93004 28.3438 9.99567C28.4562 10.0613 28.6062 10.1832 28.6812 10.2676C28.7719 10.3676 28.8344 10.4801 28.8656 10.5927C28.9031 10.7302 28.9063 10.7958 28.8781 10.9208C28.8594 11.0083 28.8031 11.1365 28.75 11.2115C28.7 11.2834 28.6031 11.3772 28.5406 11.4178C28.475 11.4616 28.3312 11.5272 28.2188 11.5647C28.0594 11.621 27.9437 11.6335 27.6719 11.6366C27.4562 11.6366 27.2313 11.6147 27.0625 11.5803C26.9156 11.5491 26.6844 11.4897 26.5469 11.4459C26.4094 11.4022 26.1594 11.3053 25.9938 11.2303C25.8188 11.1521 25.6594 11.099 25.625 11.1084C25.5906 11.1177 25.5438 11.1552 25.5188 11.1959C25.4938 11.2334 25.4062 11.4897 25.3281 11.7647C25.2469 12.0398 25.1812 12.3242 25.1781 12.393C25.175 12.4867 25.1906 12.543 25.2344 12.593C25.2688 12.6305 25.3781 12.7024 25.4781 12.7524C25.575 12.8024 25.7781 12.8837 25.9313 12.9337C26.0813 12.9868 26.4156 13.0712 26.6719 13.1212C26.9313 13.1743 27.1531 13.2337 27.1719 13.2494C27.1906 13.2681 27.2094 13.5057 27.2219 13.7744C27.2313 14.1245 27.25 14.2839 27.2844 14.3339C27.3063 14.3714 27.3594 14.4183 27.4 14.4371C27.4375 14.4527 27.6813 14.4683 27.9375 14.4683C28.1969 14.4683 28.4375 14.4527 28.4781 14.4371C28.5156 14.4183 28.5656 14.3714 28.5906 14.3339C28.6219 14.287 28.6375 14.112 28.6469 13.7494C28.6594 13.4213 28.6781 13.2119 28.7031 13.1712C28.7219 13.1368 28.7938 13.0868 28.8625 13.0587C28.9281 13.0306 29.0812 12.9712 29.2031 12.9243C29.325 12.8805 29.5125 12.7899 29.625 12.7274C29.7437 12.6586 29.9531 12.4867 30.1281 12.3117C30.3844 12.0585 30.4469 11.971 30.5719 11.7178C30.6531 11.5553 30.7438 11.3303 30.7719 11.2178C30.8063 11.0834 30.825 10.8927 30.825 10.6552C30.825 10.3739 30.8094 10.2395 30.7531 10.0457C30.7156 9.90816 30.6344 9.69875 30.5719 9.57685C30.5125 9.45808 30.4031 9.27993 30.3281 9.18616C30.2563 9.0924 30.1281 8.95175 30.0437 8.87361C29.9594 8.79547 29.8281 8.68608 29.75 8.63294C29.6719 8.57981 29.4688 8.46729 29.2969 8.37977C29.125 8.29538 28.7594 8.12973 28.4844 8.01408C28.2094 7.89844 27.8937 7.75467 27.7812 7.69215C27.6688 7.62964 27.5156 7.52338 27.4406 7.45461C27.3656 7.38273 27.2781 7.27333 27.2469 7.21082C27.2125 7.14519 27.1875 7.02954 27.1875 6.9514C27.1875 6.87326 27.2125 6.75762 27.2469 6.69511C27.2781 6.62947 27.3594 6.52946 27.425 6.4732C27.4906 6.42006 27.6094 6.3513 27.6875 6.32317C27.7656 6.29504 27.975 6.26379 28.1562 6.25753C28.3906 6.24503 28.5781 6.25441 28.8125 6.29504C28.9938 6.3263 29.2313 6.38256 29.3438 6.42006C29.4562 6.45757 29.6313 6.52633 29.7344 6.57321C29.8375 6.6201 29.95 6.6576 29.9844 6.6576C30.0188 6.6576 30.0719 6.6326 30.1 6.60134C30.1281 6.57009 30.1687 6.50445 30.1875 6.45132C30.2063 6.40131 30.2844 6.13876 30.3625 5.87309C30.4813 5.46365 30.4969 5.37301 30.4688 5.28862C30.4437 5.21048 30.4 5.16672 30.2812 5.10734C30.1969 5.06358 30.0031 4.98857 29.8531 4.93856C29.7 4.88542 29.4156 4.81666 29.2188 4.78228C28.9531 4.73227 28.8438 4.69789 28.7969 4.65101C28.7437 4.59475 28.7312 4.52911 28.7156 4.15717C28.7062 3.92276 28.6813 3.70085 28.6625 3.66334C28.6406 3.62271 28.5906 3.57895 28.5469 3.5602C28.5031 3.54457 28.2625 3.52894 28.0094 3.53207C27.7531 3.53207 27.5187 3.54457 27.4812 3.5602C27.4469 3.57582 27.4031 3.60708 27.3875 3.62896V3.62896Z" stroke="#384FAE"/>
<path fill-rule="evenodd" clip-rule="evenodd" d="M47.9531 1.00038C48.4281 0.997258 48.6812 1.01289 49.0094 1.05977C49.2437 1.09415 49.575 1.15353 49.7437 1.18792C49.9094 1.22542 50.2219 1.30981 50.4375 1.37857C50.6531 1.44734 50.9906 1.57548 51.1875 1.65987C51.3844 1.74426 51.6813 1.88804 51.8438 1.9818C52.0062 2.07244 52.2687 2.23184 52.4219 2.33186C52.575 2.435 52.8438 2.63191 53.0156 2.76944C53.1875 2.91009 53.4875 3.18201 53.6781 3.37579C53.8719 3.5727 54.125 3.85087 54.2406 3.99777C54.3594 4.14467 54.5469 4.40409 54.6625 4.576C54.775 4.7479 54.9344 5.00732 55.0156 5.15422C55.0969 5.30112 55.2344 5.58867 55.3281 5.79495C55.4188 6.00124 55.55 6.34505 55.6187 6.56071C55.6875 6.77637 55.7719 7.0858 55.8062 7.24833C55.8437 7.41086 55.9 7.74529 55.9344 7.99221C55.9812 8.30476 56 8.59543 56 8.97675C56 9.27993 55.9781 9.67687 55.9531 9.88941C55.925 10.0957 55.8687 10.4364 55.8281 10.6489C55.7844 10.8583 55.6781 11.2459 55.5938 11.5084C55.5063 11.7741 55.3375 12.1898 55.2094 12.4523C55.0844 12.7118 54.8906 13.0618 54.7844 13.2337C54.675 13.4056 54.4906 13.6744 54.375 13.8276C54.2563 13.9807 54.05 14.2276 53.9156 14.3745C53.7812 14.5215 53.5438 14.759 53.3906 14.9028C53.2375 15.0465 52.975 15.2653 52.8125 15.3872C52.65 15.5091 52.3875 15.6904 52.2344 15.7842C52.0812 15.8811 51.8344 16.0217 51.6875 16.0998C51.5406 16.1749 51.2875 16.2968 51.125 16.3655C50.9625 16.4343 50.6531 16.5499 50.4375 16.6187C50.2219 16.6874 49.9094 16.7718 49.7437 16.8093C49.575 16.8437 49.2437 16.9031 49.0094 16.9375C48.7 16.9812 48.4125 17 48 17C47.575 17 47.3063 16.9844 46.9844 16.9344C46.7438 16.9 46.4125 16.8437 46.25 16.8062C46.0875 16.7718 45.7406 16.6749 45.4844 16.5906C45.225 16.503 44.8031 16.3311 44.5469 16.2061C44.2875 16.0811 43.9531 15.8998 43.7969 15.806C43.6406 15.7092 43.3906 15.5372 43.2344 15.4185C43.0781 15.3028 42.8969 15.1591 42.8281 15.0997C42.7594 15.0403 42.55 14.8434 42.3656 14.659C42.1781 14.4777 41.9187 14.1933 41.7844 14.0307C41.6531 13.8682 41.4531 13.5932 41.3375 13.4213C41.225 13.2494 41.0625 12.9806 40.9781 12.8274C40.8906 12.6743 40.7625 12.4117 40.6875 12.2492C40.6156 12.0867 40.4875 11.7491 40.4062 11.4991C40.3219 11.249 40.2281 10.9115 40.1937 10.7489C40.1562 10.5864 40.1 10.252 40.0656 10.0082C40.0187 9.6925 40 9.40182 40 9.02363C40 8.71733 40.0219 8.32039 40.0469 8.10785C40.075 7.90157 40.1313 7.56088 40.1719 7.35147C40.2156 7.13894 40.3187 6.76075 40.4031 6.50758C40.4875 6.25128 40.6219 5.8981 40.7031 5.71682C40.7844 5.53554 40.9344 5.24174 41.0375 5.06045C41.1406 4.87917 41.3188 4.59787 41.4344 4.43535C41.5469 4.27282 41.7406 4.01965 41.8625 3.87275C41.9844 3.72585 42.2312 3.46331 42.4094 3.28828C42.5875 3.11325 42.8531 2.87258 43 2.75693C43.1469 2.63816 43.4062 2.45063 43.5781 2.33499C43.75 2.22247 44.0187 2.05994 44.1719 1.97555C44.325 1.88804 44.5875 1.75989 44.75 1.68488C44.9125 1.61299 45.25 1.48484 45.5 1.40358C45.75 1.31919 46.0938 1.2223 46.2656 1.18792C46.4375 1.15041 46.7469 1.09415 46.9531 1.06289C47.2156 1.02226 47.5156 1.00351 47.9531 1.00038V1.00038ZM47.3875 3.62896C47.3719 3.65084 47.3531 3.89775 47.3438 4.1728C47.3312 4.62288 47.3219 4.68539 47.2656 4.74478C47.2312 4.78228 47.075 4.86355 46.9219 4.92293C46.7687 4.98544 46.55 5.08233 46.4375 5.14484C46.325 5.20423 46.1562 5.31675 46.0625 5.39176C45.9688 5.46677 45.8344 5.59492 45.7656 5.67618C45.6969 5.75745 45.6 5.8981 45.5469 5.98249C45.4937 6.07 45.4125 6.25753 45.3625 6.40443C45.2875 6.62635 45.2687 6.73574 45.2562 7.07642C45.2469 7.38898 45.2531 7.52963 45.2937 7.6859C45.3219 7.79842 45.3906 7.98908 45.45 8.10785C45.5187 8.2485 45.6375 8.41415 45.7875 8.57668C45.9156 8.7142 46.125 8.89861 46.2531 8.98613C46.3813 9.07364 46.5969 9.20491 46.7344 9.27368C46.8719 9.34244 47.2438 9.50497 47.5625 9.63624C47.8812 9.76751 48.2313 9.93004 48.3438 9.99567C48.4562 10.0613 48.6062 10.1832 48.6812 10.2676C48.7719 10.3676 48.8344 10.4801 48.8656 10.5927C48.9031 10.7302 48.9063 10.7958 48.8781 10.9208C48.8594 11.0083 48.8031 11.1365 48.75 11.2115C48.7 11.2834 48.6031 11.3772 48.5406 11.4178C48.475 11.4616 48.3312 11.5272 48.2188 11.5647C48.0594 11.621 47.9437 11.6335 47.6719 11.6366C47.4562 11.6366 47.2313 11.6147 47.0625 11.5803C46.9156 11.5491 46.6844 11.4897 46.5469 11.4459C46.4094 11.4022 46.1594 11.3053 45.9938 11.2303C45.8188 11.1521 45.6594 11.099 45.625 11.1084C45.5906 11.1177 45.5438 11.1552 45.5188 11.1959C45.4938 11.2334 45.4062 11.4897 45.3281 11.7647C45.2469 12.0398 45.1812 12.3242 45.1781 12.393C45.175 12.4867 45.1906 12.543 45.2344 12.593C45.2688 12.6305 45.3781 12.7024 45.4781 12.7524C45.575 12.8024 45.7781 12.8837 45.9313 12.9337C46.0813 12.9868 46.4156 13.0712 46.6719 13.1212C46.9313 13.1743 47.1531 13.2337 47.1719 13.2494C47.1906 13.2681 47.2094 13.5057 47.2219 13.7744C47.2313 14.1245 47.25 14.2839 47.2844 14.3339C47.3063 14.3714 47.3594 14.4183 47.4 14.4371C47.4375 14.4527 47.6813 14.4683 47.9375 14.4683C48.1969 14.4683 48.4375 14.4527 48.4781 14.4371C48.5156 14.4183 48.5656 14.3714 48.5906 14.3339C48.6219 14.287 48.6375 14.112 48.6469 13.7494C48.6594 13.4213 48.6781 13.2119 48.7031 13.1712C48.7219 13.1368 48.7938 13.0868 48.8625 13.0587C48.9281 13.0306 49.0812 12.9712 49.2031 12.9243C49.325 12.8805 49.5125 12.7899 49.625 12.7274C49.7437 12.6586 49.9531 12.4867 50.1281 12.3117C50.3844 12.0585 50.4469 11.971 50.5719 11.7178C50.6531 11.5553 50.7438 11.3303 50.7719 11.2178C50.8063 11.0834 50.825 10.8927 50.825 10.6552C50.825 10.3739 50.8094 10.2395 50.7531 10.0457C50.7156 9.90816 50.6344 9.69875 50.5719 9.57685C50.5125 9.45808 50.4031 9.27993 50.3281 9.18616C50.2563 9.0924 50.1281 8.95175 50.0437 8.87361C49.9594 8.79547 49.8281 8.68608 49.75 8.63294C49.6719 8.57981 49.4688 8.46729 49.2969 8.37977C49.125 8.29538 48.7594 8.12973 48.4844 8.01408C48.2094 7.89844 47.8937 7.75467 47.7812 7.69215C47.6688 7.62964 47.5156 7.52338 47.4406 7.45461C47.3656 7.38273 47.2781 7.27333 47.2469 7.21082C47.2125 7.14519 47.1875 7.02954 47.1875 6.9514C47.1875 6.87326 47.2125 6.75762 47.2469 6.69511C47.2781 6.62947 47.3594 6.52946 47.425 6.4732C47.4906 6.42006 47.6094 6.3513 47.6875 6.32317C47.7656 6.29504 47.975 6.26379 48.1562 6.25753C48.3906 6.24503 48.5781 6.25441 48.8125 6.29504C48.9938 6.3263 49.2313 6.38256 49.3438 6.42006C49.4562 6.45757 49.6313 6.52633 49.7344 6.57321C49.8375 6.6201 49.95 6.6576 49.9844 6.6576C50.0188 6.6576 50.0719 6.6326 50.1 6.60134C50.1281 6.57009 50.1687 6.50445 50.1875 6.45132C50.2063 6.40131 50.2844 6.13876 50.3625 5.87309C50.4813 5.46365 50.4969 5.37301 50.4688 5.28862C50.4437 5.21048 50.4 5.16672 50.2812 5.10734C50.1969 5.06358 50.0031 4.98857 49.8531 4.93856C49.7 4.88542 49.4156 4.81666 49.2188 4.78228C48.9531 4.73227 48.8438 4.69789 48.7969 4.65101C48.7437 4.59475 48.7312 4.52911 48.7156 4.15717C48.7062 3.92276 48.6813 3.70085 48.6625 3.66334C48.6406 3.62271 48.5906 3.57895 48.5469 3.5602C48.5031 3.54457 48.2625 3.52894 48.0094 3.53207C47.7531 3.53207 47.5187 3.54457 47.4812 3.5602C47.4469 3.57582 47.4031 3.60708 47.3875 3.62896V3.62896Z" stroke="#384FAE"/>
<path fill-rule="evenodd" clip-rule="evenodd" d="M67.9531 1.00038C68.4281 0.997258 68.6812 1.01289 69.0094 1.05977C69.2437 1.09415 69.575 1.15353 69.7437 1.18792C69.9094 1.22542 70.2219 1.30981 70.4375 1.37857C70.6531 1.44734 70.9906 1.57548 71.1875 1.65987C71.3844 1.74426 71.6813 1.88804 71.8438 1.9818C72.0062 2.07244 72.2687 2.23184 72.4219 2.33186C72.575 2.435 72.8438 2.63191 73.0156 2.76944C73.1875 2.91009 73.4875 3.18201 73.6781 3.37579C73.8719 3.5727 74.125 3.85087 74.2406 3.99777C74.3594 4.14467 74.5469 4.40409 74.6625 4.576C74.775 4.7479 74.9344 5.00732 75.0156 5.15422C75.0969 5.30112 75.2344 5.58867 75.3281 5.79495C75.4188 6.00124 75.55 6.34505 75.6187 6.56071C75.6875 6.77637 75.7719 7.0858 75.8062 7.24833C75.8437 7.41086 75.9 7.74529 75.9344 7.99221C75.9812 8.30476 76 8.59543 76 8.97675C76 9.27993 75.9781 9.67687 75.9531 9.88941C75.925 10.0957 75.8687 10.4364 75.8281 10.6489C75.7844 10.8583 75.6781 11.2459 75.5938 11.5084C75.5063 11.7741 75.3375 12.1898 75.2094 12.4523C75.0844 12.7118 74.8906 13.0618 74.7844 13.2337C74.675 13.4056 74.4906 13.6744 74.375 13.8276C74.2563 13.9807 74.05 14.2276 73.9156 14.3745C73.7812 14.5215 73.5438 14.759 73.3906 14.9028C73.2375 15.0465 72.975 15.2653 72.8125 15.3872C72.65 15.5091 72.3875 15.6904 72.2344 15.7842C72.0812 15.8811 71.8344 16.0217 71.6875 16.0998C71.5406 16.1749 71.2875 16.2968 71.125 16.3655C70.9625 16.4343 70.6531 16.5499 70.4375 16.6187C70.2219 16.6874 69.9094 16.7718 69.7437 16.8093C69.575 16.8437 69.2437 16.9031 69.0094 16.9375C68.7 16.9812 68.4125 17 68 17C67.575 17 67.3063 16.9844 66.9844 16.9344C66.7438 16.9 66.4125 16.8437 66.25 16.8062C66.0875 16.7718 65.7406 16.6749 65.4844 16.5906C65.225 16.503 64.8031 16.3311 64.5469 16.2061C64.2875 16.0811 63.9531 15.8998 63.7969 15.806C63.6406 15.7092 63.3906 15.5372 63.2344 15.4185C63.0781 15.3028 62.8969 15.1591 62.8281 15.0997C62.7594 15.0403 62.55 14.8434 62.3656 14.659C62.1781 14.4777 61.9187 14.1933 61.7844 14.0307C61.6531 13.8682 61.4531 13.5932 61.3375 13.4213C61.225 13.2494 61.0625 12.9806 60.9781 12.8274C60.8906 12.6743 60.7625 12.4117 60.6875 12.2492C60.6156 12.0867 60.4875 11.7491 60.4062 11.4991C60.3219 11.249 60.2281 10.9115 60.1937 10.7489C60.1562 10.5864 60.1 10.252 60.0656 10.0082C60.0187 9.6925 60 9.40182 60 9.02363C60 8.71733 60.0219 8.32039 60.0469 8.10785C60.075 7.90157 60.1313 7.56088 60.1719 7.35147C60.2156 7.13894 60.3187 6.76075 60.4031 6.50758C60.4875 6.25128 60.6219 5.8981 60.7031 5.71682C60.7844 5.53554 60.9344 5.24174 61.0375 5.06045C61.1406 4.87917 61.3188 4.59787 61.4344 4.43535C61.5469 4.27282 61.7406 4.01965 61.8625 3.87275C61.9844 3.72585 62.2312 3.46331 62.4094 3.28828C62.5875 3.11325 62.8531 2.87258 63 2.75693C63.1469 2.63816 63.4062 2.45063 63.5781 2.33499C63.75 2.22247 64.0187 2.05994 64.1719 1.97555C64.325 1.88804 64.5875 1.75989 64.75 1.68488C64.9125 1.61299 65.25 1.48484 65.5 1.40358C65.75 1.31919 66.0938 1.2223 66.2656 1.18792C66.4375 1.15041 66.7469 1.09415 66.9531 1.06289C67.2156 1.02226 67.5156 1.00351 67.9531 1.00038V1.00038ZM67.3875 3.62896C67.3719 3.65084 67.3531 3.89775 67.3438 4.1728C67.3312 4.62288 67.3219 4.68539 67.2656 4.74478C67.2312 4.78228 67.075 4.86355 66.9219 4.92293C66.7687 4.98544 66.55 5.08233 66.4375 5.14484C66.325 5.20423 66.1562 5.31675 66.0625 5.39176C65.9688 5.46677 65.8344 5.59492 65.7656 5.67618C65.6969 5.75745 65.6 5.8981 65.5469 5.98249C65.4937 6.07 65.4125 6.25753 65.3625 6.40443C65.2875 6.62635 65.2687 6.73574 65.2562 7.07642C65.2469 7.38898 65.2531 7.52963 65.2937 7.6859C65.3219 7.79842 65.3906 7.98908 65.45 8.10785C65.5187 8.2485 65.6375 8.41415 65.7875 8.57668C65.9156 8.7142 66.125 8.89861 66.2531 8.98613C66.3813 9.07364 66.5969 9.20491 66.7344 9.27368C66.8719 9.34244 67.2438 9.50497 67.5625 9.63624C67.8812 9.76751 68.2313 9.93004 68.3438 9.99567C68.4562 10.0613 68.6062 10.1832 68.6812 10.2676C68.7719 10.3676 68.8344 10.4801 68.8656 10.5927C68.9031 10.7302 68.9063 10.7958 68.8781 10.9208C68.8594 11.0083 68.8031 11.1365 68.75 11.2115C68.7 11.2834 68.6031 11.3772 68.5406 11.4178C68.475 11.4616 68.3312 11.5272 68.2188 11.5647C68.0594 11.621 67.9437 11.6335 67.6719 11.6366C67.4562 11.6366 67.2313 11.6147 67.0625 11.5803C66.9156 11.5491 66.6844 11.4897 66.5469 11.4459C66.4094 11.4022 66.1594 11.3053 65.9938 11.2303C65.8188 11.1521 65.6594 11.099 65.625 11.1084C65.5906 11.1177 65.5438 11.1552 65.5188 11.1959C65.4938 11.2334 65.4062 11.4897 65.3281 11.7647C65.2469 12.0398 65.1812 12.3242 65.1781 12.393C65.175 12.4867 65.1906 12.543 65.2344 12.593C65.2688 12.6305 65.3781 12.7024 65.4781 12.7524C65.575 12.8024 65.7781 12.8837 65.9313 12.9337C66.0813 12.9868 66.4156 13.0712 66.6719 13.1212C66.9313 13.1743 67.1531 13.2337 67.1719 13.2494C67.1906 13.2681 67.2094 13.5057 67.2219 13.7744C67.2313 14.1245 67.25 14.2839 67.2844 14.3339C67.3063 14.3714 67.3594 14.4183 67.4 14.4371C67.4375 14.4527 67.6813 14.4683 67.9375 14.4683C68.1969 14.4683 68.4375 14.4527 68.4781 14.4371C68.5156 14.4183 68.5656 14.3714 68.5906 14.3339C68.6219 14.287 68.6375 14.112 68.6469 13.7494C68.6594 13.4213 68.6781 13.2119 68.7031 13.1712C68.7219 13.1368 68.7938 13.0868 68.8625 13.0587C68.9281 13.0306 69.0812 12.9712 69.2031 12.9243C69.325 12.8805 69.5125 12.7899 69.625 12.7274C69.7437 12.6586 69.9531 12.4867 70.1281 12.3117C70.3844 12.0585 70.4469 11.971 70.5719 11.7178C70.6531 11.5553 70.7438 11.3303 70.7719 11.2178C70.8063 11.0834 70.825 10.8927 70.825 10.6552C70.825 10.3739 70.8094 10.2395 70.7531 10.0457C70.7156 9.90816 70.6344 9.69875 70.5719 9.57685C70.5125 9.45808 70.4031 9.27993 70.3281 9.18616C70.2563 9.0924 70.1281 8.95175 70.0437 8.87361C69.9594 8.79547 69.8281 8.68608 69.75 8.63294C69.6719 8.57981 69.4688 8.46729 69.2969 8.37977C69.125 8.29538 68.7594 8.12973 68.4844 8.01408C68.2094 7.89844 67.8937 7.75467 67.7812 7.69215C67.6688 7.62964 67.5156 7.52338 67.4406 7.45461C67.3656 7.38273 67.2781 7.27333 67.2469 7.21082C67.2125 7.14519 67.1875 7.02954 67.1875 6.9514C67.1875 6.87326 67.2125 6.75762 67.2469 6.69511C67.2781 6.62947 67.3594 6.52946 67.425 6.4732C67.4906 6.42006 67.6094 6.3513 67.6875 6.32317C67.7656 6.29504 67.975 6.26379 68.1562 6.25753C68.3906 6.24503 68.5781 6.25441 68.8125 6.29504C68.9938 6.3263 69.2313 6.38256 69.3438 6.42006C69.4562 6.45757 69.6313 6.52633 69.7344 6.57321C69.8375 6.6201 69.95 6.6576 69.9844 6.6576C70.0188 6.6576 70.0719 6.6326 70.1 6.60134C70.1281 6.57009 70.1687 6.50445 70.1875 6.45132C70.2063 6.40131 70.2844 6.13876 70.3625 5.87309C70.4813 5.46365 70.4969 5.37301 70.4688 5.28862C70.4437 5.21048 70.4 5.16672 70.2812 5.10734C70.1969 5.06358 70.0031 4.98857 69.8531 4.93856C69.7 4.88542 69.4156 4.81666 69.2188 4.78228C68.9531 4.73227 68.8438 4.69789 68.7969 4.65101C68.7437 4.59475 68.7312 4.52911 68.7156 4.15717C68.7062 3.92276 68.6813 3.70085 68.6625 3.66334C68.6406 3.62271 68.5906 3.57895 68.5469 3.5602C68.5031 3.54457 68.2625 3.52894 68.0094 3.53207C67.7531 3.53207 67.5187 3.54457 67.4812 3.5602C67.4469 3.57582 67.4031 3.60708 67.3875 3.62896V3.62896Z" stroke="#384FAE"/>
<path fill-rule="evenodd" clip-rule="evenodd" d="M87.9531 1.00038C88.4281 0.997258 88.6812 1.01289 89.0094 1.05977C89.2437 1.09415 89.575 1.15353 89.7437 1.18792C89.9094 1.22542 90.2219 1.30981 90.4375 1.37857C90.6531 1.44734 90.9906 1.57548 91.1875 1.65987C91.3844 1.74426 91.6813 1.88804 91.8438 1.9818C92.0062 2.07244 92.2687 2.23184 92.4219 2.33186C92.575 2.435 92.8438 2.63191 93.0156 2.76944C93.1875 2.91009 93.4875 3.18201 93.6781 3.37579C93.8719 3.5727 94.125 3.85087 94.2406 3.99777C94.3594 4.14467 94.5469 4.40409 94.6625 4.576C94.775 4.7479 94.9344 5.00732 95.0156 5.15422C95.0969 5.30112 95.2344 5.58867 95.3281 5.79495C95.4188 6.00124 95.55 6.34505 95.6187 6.56071C95.6875 6.77637 95.7719 7.0858 95.8062 7.24833C95.8437 7.41086 95.9 7.74529 95.9344 7.99221C95.9812 8.30476 96 8.59543 96 8.97675C96 9.27993 95.9781 9.67687 95.9531 9.88941C95.925 10.0957 95.8687 10.4364 95.8281 10.6489C95.7844 10.8583 95.6781 11.2459 95.5938 11.5084C95.5063 11.7741 95.3375 12.1898 95.2094 12.4523C95.0844 12.7118 94.8906 13.0618 94.7844 13.2337C94.675 13.4056 94.4906 13.6744 94.375 13.8276C94.2563 13.9807 94.05 14.2276 93.9156 14.3745C93.7812 14.5215 93.5438 14.759 93.3906 14.9028C93.2375 15.0465 92.975 15.2653 92.8125 15.3872C92.65 15.5091 92.3875 15.6904 92.2344 15.7842C92.0812 15.8811 91.8344 16.0217 91.6875 16.0998C91.5406 16.1749 91.2875 16.2968 91.125 16.3655C90.9625 16.4343 90.6531 16.5499 90.4375 16.6187C90.2219 16.6874 89.9094 16.7718 89.7437 16.8093C89.575 16.8437 89.2437 16.9031 89.0094 16.9375C88.7 16.9812 88.4125 17 88 17C87.575 17 87.3063 16.9844 86.9844 16.9344C86.7438 16.9 86.4125 16.8437 86.25 16.8062C86.0875 16.7718 85.7406 16.6749 85.4844 16.5906C85.225 16.503 84.8031 16.3311 84.5469 16.2061C84.2875 16.0811 83.9531 15.8998 83.7969 15.806C83.6406 15.7092 83.3906 15.5372 83.2344 15.4185C83.0781 15.3028 82.8969 15.1591 82.8281 15.0997C82.7594 15.0403 82.55 14.8434 82.3656 14.659C82.1781 14.4777 81.9187 14.1933 81.7844 14.0307C81.6531 13.8682 81.4531 13.5932 81.3375 13.4213C81.225 13.2494 81.0625 12.9806 80.9781 12.8274C80.8906 12.6743 80.7625 12.4117 80.6875 12.2492C80.6156 12.0867 80.4875 11.7491 80.4062 11.4991C80.3219 11.249 80.2281 10.9115 80.1937 10.7489C80.1562 10.5864 80.1 10.252 80.0656 10.0082C80.0187 9.6925 80 9.40182 80 9.02363C80 8.71733 80.0219 8.32039 80.0469 8.10785C80.075 7.90157 80.1313 7.56088 80.1719 7.35147C80.2156 7.13894 80.3187 6.76075 80.4031 6.50758C80.4875 6.25128 80.6219 5.8981 80.7031 5.71682C80.7844 5.53554 80.9344 5.24174 81.0375 5.06045C81.1406 4.87917 81.3188 4.59787 81.4344 4.43535C81.5469 4.27282 81.7406 4.01965 81.8625 3.87275C81.9844 3.72585 82.2312 3.46331 82.4094 3.28828C82.5875 3.11325 82.8531 2.87258 83 2.75693C83.1469 2.63816 83.4062 2.45063 83.5781 2.33499C83.75 2.22247 84.0187 2.05994 84.1719 1.97555C84.325 1.88804 84.5875 1.75989 84.75 1.68488C84.9125 1.61299 85.25 1.48484 85.5 1.40358C85.75 1.31919 86.0938 1.2223 86.2656 1.18792C86.4375 1.15041 86.7469 1.09415 86.9531 1.06289C87.2156 1.02226 87.5156 1.00351 87.9531 1.00038V1.00038ZM87.3875 3.62896C87.3719 3.65084 87.3531 3.89775 87.3438 4.1728C87.3312 4.62288 87.3219 4.68539 87.2656 4.74478C87.2312 4.78228 87.075 4.86355 86.9219 4.92293C86.7687 4.98544 86.55 5.08233 86.4375 5.14484C86.325 5.20423 86.1562 5.31675 86.0625 5.39176C85.9688 5.46677 85.8344 5.59492 85.7656 5.67618C85.6969 5.75745 85.6 5.8981 85.5469 5.98249C85.4937 6.07 85.4125 6.25753 85.3625 6.40443C85.2875 6.62635 85.2687 6.73574 85.2562 7.07642C85.2469 7.38898 85.2531 7.52963 85.2937 7.6859C85.3219 7.79842 85.3906 7.98908 85.45 8.10785C85.5187 8.2485 85.6375 8.41415 85.7875 8.57668C85.9156 8.7142 86.125 8.89861 86.2531 8.98613C86.3813 9.07364 86.5969 9.20491 86.7344 9.27368C86.8719 9.34244 87.2438 9.50497 87.5625 9.63624C87.8812 9.76751 88.2313 9.93004 88.3438 9.99567C88.4562 10.0613 88.6062 10.1832 88.6812 10.2676C88.7719 10.3676 88.8344 10.4801 88.8656 10.5927C88.9031 10.7302 88.9063 10.7958 88.8781 10.9208C88.8594 11.0083 88.8031 11.1365 88.75 11.2115C88.7 11.2834 88.6031 11.3772 88.5406 11.4178C88.475 11.4616 88.3312 11.5272 88.2188 11.5647C88.0594 11.621 87.9437 11.6335 87.6719 11.6366C87.4562 11.6366 87.2313 11.6147 87.0625 11.5803C86.9156 11.5491 86.6844 11.4897 86.5469 11.4459C86.4094 11.4022 86.1594 11.3053 85.9938 11.2303C85.8188 11.1521 85.6594 11.099 85.625 11.1084C85.5906 11.1177 85.5438 11.1552 85.5188 11.1959C85.4938 11.2334 85.4062 11.4897 85.3281 11.7647C85.2469 12.0398 85.1812 12.3242 85.1781 12.393C85.175 12.4867 85.1906 12.543 85.2344 12.593C85.2688 12.6305 85.3781 12.7024 85.4781 12.7524C85.575 12.8024 85.7781 12.8837 85.9313 12.9337C86.0813 12.9868 86.4156 13.0712 86.6719 13.1212C86.9313 13.1743 87.1531 13.2337 87.1719 13.2494C87.1906 13.2681 87.2094 13.5057 87.2219 13.7744C87.2313 14.1245 87.25 14.2839 87.2844 14.3339C87.3063 14.3714 87.3594 14.4183 87.4 14.4371C87.4375 14.4527 87.6813 14.4683 87.9375 14.4683C88.1969 14.4683 88.4375 14.4527 88.4781 14.4371C88.5156 14.4183 88.5656 14.3714 88.5906 14.3339C88.6219 14.287 88.6375 14.112 88.6469 13.7494C88.6594 13.4213 88.6781 13.2119 88.7031 13.1712C88.7219 13.1368 88.7938 13.0868 88.8625 13.0587C88.9281 13.0306 89.0812 12.9712 89.2031 12.9243C89.325 12.8805 89.5125 12.7899 89.625 12.7274C89.7437 12.6586 89.9531 12.4867 90.1281 12.3117C90.3844 12.0585 90.4469 11.971 90.5719 11.7178C90.6531 11.5553 90.7438 11.3303 90.7719 11.2178C90.8063 11.0834 90.825 10.8927 90.825 10.6552C90.825 10.3739 90.8094 10.2395 90.7531 10.0457C90.7156 9.90816 90.6344 9.69875 90.5719 9.57685C90.5125 9.45808 90.4031 9.27993 90.3281 9.18616C90.2563 9.0924 90.1281 8.95175 90.0437 8.87361C89.9594 8.79547 89.8281 8.68608 89.75 8.63294C89.6719 8.57981 89.4688 8.46729 89.2969 8.37977C89.125 8.29538 88.7594 8.12973 88.4844 8.01408C88.2094 7.89844 87.8937 7.75467 87.7812 7.69215C87.6688 7.62964 87.5156 7.52338 87.4406 7.45461C87.3656 7.38273 87.2781 7.27333 87.2469 7.21082C87.2125 7.14519 87.1875 7.02954 87.1875 6.9514C87.1875 6.87326 87.2125 6.75762 87.2469 6.69511C87.2781 6.62947 87.3594 6.52946 87.425 6.4732C87.4906 6.42006 87.6094 6.3513 87.6875 6.32317C87.7656 6.29504 87.975 6.26379 88.1562 6.25753C88.3906 6.24503 88.5781 6.25441 88.8125 6.29504C88.9938 6.3263 89.2313 6.38256 89.3438 6.42006C89.4562 6.45757 89.6313 6.52633 89.7344 6.57321C89.8375 6.6201 89.95 6.6576 89.9844 6.6576C90.0188 6.6576 90.0719 6.6326 90.1 6.60134C90.1281 6.57009 90.1687 6.50445 90.1875 6.45132C90.2063 6.40131 90.2844 6.13876 90.3625 5.87309C90.4813 5.46365 90.4969 5.37301 90.4688 5.28862C90.4437 5.21048 90.4 5.16672 90.2812 5.10734C90.1969 5.06358 90.0031 4.98857 89.8531 4.93856C89.7 4.88542 89.4156 4.81666 89.2188 4.78228C88.9531 4.73227 88.8438 4.69789 88.7969 4.65101C88.7437 4.59475 88.7312 4.52911 88.7156 4.15717C88.7062 3.92276 88.6813 3.70085 88.6625 3.66334C88.6406 3.62271 88.5906 3.57895 88.5469 3.5602C88.5031 3.54457 88.2625 3.52894 88.0094 3.53207C87.7531 3.53207 87.5187 3.54457 87.4812 3.5602C87.4469 3.57582 87.4031 3.60708 87.3875 3.62896V3.62896Z" stroke="#384FAE"/>
</svg>
