<svg width="101" height="101" viewBox="0 0 101 101" fill="none" xmlns="http://www.w3.org/2000/svg">
<rect x="0.5" y="0.5" width="100" height="100" rx="20" fill="#384FAE"/>
<path fill-rule="evenodd" clip-rule="evenodd" d="M44.3793 19.5089C44.5313 19.5 44.898 19.5626 45.1752 19.6431C45.4614 19.7236 46.6777 20.2691 47.885 20.8593C49.0923 21.4496 50.2192 21.9504 50.3891 21.9772C50.6484 22.0041 51.0687 21.8341 52.9826 20.9041C54.2346 20.2959 55.4956 19.7325 55.7728 19.652C56.059 19.5626 56.3988 19.5 56.533 19.5C56.6761 19.5 57.0427 19.5805 57.3647 19.6789C57.6866 19.7683 58.1427 19.9829 58.3931 20.1439C58.6346 20.3049 58.9744 20.6179 59.1354 20.8415C59.2964 21.065 59.9403 22.2008 60.5663 23.3813C61.1923 24.5618 61.8005 25.5902 61.9257 25.6886C62.0866 25.8138 62.7842 25.9748 64.5639 26.2878C65.8964 26.5203 67.1395 26.7707 67.3362 26.8333C67.533 26.8959 67.8907 27.0748 68.1411 27.2268C68.3915 27.3878 68.7403 27.7276 68.9728 28.0407C69.1874 28.3358 69.42 28.7829 69.4915 29.0244C69.5631 29.2748 69.6167 29.6772 69.6167 29.9187C69.6257 30.1691 69.4736 31.4569 69.2948 32.7805C69.107 34.1309 68.9907 35.3024 69.0175 35.4455C69.0533 35.5886 69.733 36.3667 70.7883 37.4488C71.7273 38.4236 72.6037 39.3626 72.7289 39.5325C72.8631 39.7024 73.0598 40.0959 73.1671 40.4C73.2834 40.713 73.3728 41.178 73.3728 41.4374C73.3728 41.6878 73.3013 42.1618 73.2029 42.4837C73.1045 42.8057 72.9078 43.226 72.7647 43.4228C72.6126 43.6195 71.7273 44.5764 70.7883 45.5512C69.733 46.6333 69.0533 47.4114 69.0175 47.5634C68.9907 47.6976 69.107 48.8691 69.2948 50.2195C69.4736 51.552 69.6167 52.8488 69.6167 53.1081C69.6167 53.3585 69.5362 53.8057 69.4379 54.0919C69.3305 54.3691 69.1159 54.7805 68.9549 55.0041C68.7939 55.2276 68.4452 55.5496 68.1769 55.7285C67.9086 55.9073 67.533 56.1041 67.3362 56.1667C67.1395 56.2293 65.8964 56.4797 64.5639 56.7122C62.7842 57.0252 62.0866 57.1862 61.9257 57.3114C61.8005 57.4098 61.1923 58.4561 60.5395 59.6813C59.9045 60.8797 59.2517 62.0244 59.0996 62.2122C58.9476 62.4089 58.6257 62.6951 58.3842 62.8561C58.1427 63.0171 57.6866 63.2317 57.3647 63.3211C57.0427 63.4195 56.6761 63.5 56.533 63.5C56.3988 63.5 56.059 63.4374 55.7728 63.3569C55.4956 63.2675 54.2346 62.7041 52.9826 62.1049C51.7305 61.4967 50.6037 60.9959 50.4785 60.9959C50.3533 60.9959 49.2265 61.4967 47.9744 62.1049C46.7224 62.7041 45.4614 63.2675 45.1752 63.3569C44.898 63.4374 44.5582 63.5 44.4151 63.5C44.2809 63.5 43.9143 63.4195 43.5923 63.3211C43.2704 63.2317 42.8143 63.0171 42.5728 62.8561C42.3313 62.6951 42.0094 62.4089 41.8574 62.2122C41.7053 62.0244 41.0525 60.8797 40.4086 59.6634C39.5679 58.0805 39.1655 57.4098 38.9777 57.2845C38.7899 57.1504 38.0387 56.9894 36.259 56.6764C34.3005 56.3366 33.6834 56.1935 33.2362 55.9878C32.9232 55.8358 32.5029 55.5317 32.2704 55.2992C32.0468 55.0577 31.7606 54.6463 31.6265 54.378C31.4744 54.065 31.385 53.6805 31.3582 53.3049C31.3313 52.9293 31.4387 51.874 31.6533 50.2642C31.85 48.887 31.9663 47.6976 31.9395 47.5634C31.9037 47.4024 31.1793 46.5886 30.0435 45.4171C28.559 43.8789 28.1476 43.3959 27.9151 42.9309C27.6557 42.4033 27.6289 42.278 27.6289 41.5C27.6289 40.722 27.6557 40.5967 27.9151 40.0691C28.1476 39.6041 28.5679 39.1122 30.0435 37.5919C31.1793 36.4114 31.9037 35.5976 31.9395 35.4455C31.9663 35.3024 31.85 34.113 31.6533 32.7358C31.4029 30.9114 31.3313 30.1154 31.3671 29.6504C31.4029 29.2301 31.5013 28.8634 31.6712 28.5325C31.8053 28.2642 32.0826 27.8707 32.2972 27.665C32.5118 27.4504 32.9322 27.1642 33.2362 27.0122C33.6834 26.8065 34.3005 26.6634 36.259 26.3236C38.0476 26.0106 38.7899 25.8496 38.9777 25.7154C39.1655 25.5902 39.5679 24.9106 40.4086 23.3366C41.0525 22.1203 41.7053 20.9756 41.8574 20.7878C42.0094 20.5911 42.3045 20.3228 42.5192 20.1707C42.7338 20.0276 43.172 19.813 43.4939 19.7057C43.8159 19.5984 44.2183 19.5089 44.3704 19.5089H44.3793ZM42.4476 24.3382C41.8305 25.4919 41.2224 26.6008 41.0972 26.7886C40.972 26.9764 40.7126 27.2626 40.5159 27.4236C40.3192 27.5846 39.9793 27.7992 39.7557 27.8976C39.5322 27.9959 38.2354 28.2732 36.8045 28.5325C35.4005 28.7829 34.1663 29.0423 34.05 29.1138C33.9427 29.1854 33.7907 29.3821 33.7102 29.5431C33.5671 29.8114 33.5761 29.9545 33.898 32.2886C34.1305 34.0146 34.22 34.9447 34.1931 35.4187C34.1574 35.9285 34.0858 36.2146 33.8891 36.6171C33.6923 37.0106 33.1826 37.6098 31.8143 39.0317C30.598 40.2927 29.972 41.0171 29.9183 41.2138C29.8557 41.3927 29.8557 41.6073 29.9183 41.7951C29.972 41.9829 30.598 42.7073 31.8143 43.9683C33.1826 45.3902 33.6923 45.9894 33.8891 46.3829C34.0858 46.7854 34.1574 47.0715 34.1931 47.5813C34.22 48.0553 34.1305 48.9854 33.898 50.7114C33.5761 53.0455 33.5671 53.1886 33.7102 53.4659C33.7907 53.6179 33.9427 53.8146 34.05 53.8862C34.1663 53.9577 35.4005 54.2171 36.8045 54.4675C38.2354 54.7268 39.5322 55.0041 39.7557 55.1024C39.9793 55.2008 40.3192 55.4154 40.5159 55.5764C40.7126 55.7374 40.972 56.0236 41.0972 56.2114C41.2224 56.3992 41.8305 57.5081 42.4476 58.6618C43.3419 60.3431 43.637 60.8171 43.8785 60.978C44.0484 61.0854 44.2988 61.1837 44.4509 61.1837C44.6118 61.1748 45.5956 60.7455 46.9102 60.1016C48.1175 59.5114 49.298 58.9659 49.5484 58.8943C49.7899 58.8138 50.2281 58.7602 50.5053 58.7602C50.7915 58.7602 51.2655 58.8406 51.5606 58.939C51.8557 59.0374 53.0273 59.5829 54.1541 60.1463C55.4866 60.8081 56.3094 61.1748 56.4972 61.1748C56.6582 61.1748 56.9265 61.0854 57.0964 60.978C57.3468 60.8081 57.633 60.3341 58.5809 58.5366C59.4663 56.8642 59.8777 56.1846 60.1996 55.8447C60.4411 55.5943 60.8614 55.2902 61.1297 55.1561C61.4964 54.9862 62.2655 54.8073 64.1704 54.4675C65.5744 54.226 66.8086 53.9577 66.9159 53.8862C67.0322 53.8146 67.1842 53.6179 67.2647 53.4659C67.4078 53.1886 67.3988 53.0455 67.0769 50.7114C66.8444 48.9854 66.7549 48.0553 66.7818 47.5813C66.8086 47.1073 66.8891 46.7675 67.059 46.4187C67.2289 46.052 67.7476 45.4439 69.1338 44.0041C70.5289 42.5553 70.9939 42.0008 71.0566 41.7683C71.1013 41.5894 71.1013 41.339 71.0566 41.187C71.0029 41.0171 70.2874 40.1943 69.1338 38.9959C67.7476 37.5561 67.2289 36.948 67.059 36.5813C66.8891 36.2325 66.8086 35.8927 66.7818 35.4187C66.7549 34.9447 66.8444 34.0146 67.0769 32.2886C67.3988 29.9545 67.4078 29.8114 67.2647 29.5431C67.1842 29.3821 67.0322 29.1854 66.9159 29.1138C66.8086 29.0423 65.5744 28.774 64.1704 28.5325C62.2655 28.1927 61.4964 28.0138 61.1297 27.8439C60.8614 27.7098 60.4411 27.4057 60.1996 27.1553C59.8777 26.8154 59.4663 26.1358 58.5809 24.4634C57.633 22.6659 57.3468 22.1919 57.0964 22.022C56.9265 21.9146 56.6582 21.8252 56.4972 21.8252C56.3094 21.8252 55.4866 22.1919 54.1541 22.8537C53.0273 23.4171 51.8557 23.9626 51.5606 24.061C51.2655 24.1593 50.7915 24.2398 50.5053 24.2398C50.2281 24.2398 49.7899 24.1862 49.5484 24.1057C49.298 24.0341 48.1175 23.4886 46.9102 22.8984C45.524 22.2187 44.6208 21.8252 44.4419 21.8252C44.2899 21.8252 44.0395 21.9146 43.8696 22.0309C43.637 22.1829 43.324 22.6837 42.4476 24.3382ZM44.7639 31.3138C45.0322 31.3138 45.5151 31.3675 45.837 31.448C46.159 31.5195 46.6151 31.6805 46.8655 31.8057C47.107 31.922 47.5273 32.2171 47.7956 32.4496C48.0639 32.6821 48.4395 33.1114 48.6273 33.4065C48.824 33.7016 49.0565 34.2024 49.1549 34.5244C49.2622 34.9 49.3248 35.365 49.3248 35.8211C49.3248 36.2146 49.2622 36.7602 49.1818 37.0285C49.1013 37.2967 48.9224 37.7439 48.7793 38.0122C48.6362 38.2805 48.3053 38.7276 48.046 38.9959C47.7777 39.2642 47.3037 39.622 46.9907 39.7919C46.6777 39.9618 46.2126 40.1496 45.9712 40.2211C45.7208 40.2837 45.2021 40.3374 44.8086 40.3374C44.3435 40.3374 43.8874 40.2748 43.5118 40.1675C43.1899 40.0691 42.6891 39.8366 42.3939 39.6398C42.0988 39.452 41.6785 39.0943 41.4639 38.8528C41.2492 38.6114 40.9631 38.1821 40.82 37.9049C40.6769 37.6187 40.498 37.1358 40.4265 36.8317C40.3549 36.5187 40.2923 36.0805 40.2923 35.848C40.2923 35.6065 40.337 35.2041 40.3907 34.9537C40.4444 34.6943 40.6232 34.2024 40.7842 33.8537C40.9809 33.4244 41.2582 33.0488 41.6427 32.6642C42.0005 32.3065 42.4297 31.9935 42.7964 31.8146C43.1183 31.6626 43.5744 31.4837 43.8248 31.4301C44.0663 31.3675 44.4956 31.3138 44.7639 31.3138ZM57.3557 33.5943C57.4094 33.6122 57.5257 33.6301 57.5972 33.6301C57.6687 33.6301 57.8566 33.7285 57.9996 33.8537C58.1517 33.9789 58.3037 34.2203 58.3484 34.4171C58.4021 34.6138 58.4021 34.8553 58.3484 35.0163C58.2948 35.1951 55.9874 37.565 51.2655 42.287C45.6403 47.9122 44.2094 49.2984 43.959 49.361C43.7712 49.4146 43.5387 49.4146 43.3777 49.361C43.2257 49.3163 43.02 49.1911 42.9037 49.0748C42.7874 48.9675 42.6622 48.735 42.6175 48.565C42.5728 48.3862 42.5728 48.1358 42.6265 47.9837C42.6801 47.8049 44.9338 45.4886 49.7005 40.713C54.4761 35.9463 56.7923 33.6927 56.9712 33.639C57.1143 33.5943 57.2931 33.5764 57.3468 33.5943H57.3557ZM43.6818 33.9252C43.4403 34.0593 43.1809 34.274 43.0826 34.4171C42.9931 34.5512 42.85 34.8016 42.7606 34.9715C42.6622 35.1683 42.5996 35.4902 42.5996 35.8211C42.5996 36.1341 42.6622 36.5098 42.7517 36.7154C42.8322 36.9122 43.0289 37.2073 43.1899 37.3772C43.3509 37.5382 43.6818 37.7707 43.9232 37.887C44.1826 38.0122 44.5403 38.1016 44.7728 38.1016C44.9964 38.1016 45.3809 38.039 45.6224 37.9496C45.8907 37.8602 46.2126 37.6545 46.4362 37.4398C46.6509 37.2163 46.8566 36.8943 46.946 36.626C47.0354 36.3846 47.098 36 47.098 35.7764C47.098 35.5439 47.0086 35.1862 46.8834 34.9268C46.7671 34.6854 46.5346 34.3545 46.3736 34.1935C46.2037 34.0325 45.9265 33.8537 45.7565 33.7821C45.5866 33.7106 45.2826 33.6301 45.0858 33.6033C44.8891 33.5764 44.585 33.5854 44.4151 33.6211C44.2452 33.6569 43.9143 33.7911 43.6818 33.9252ZM56.1305 42.6626C56.6403 42.6626 57.0785 42.7163 57.472 42.8325C57.7939 42.9309 58.2948 43.1634 58.5899 43.3602C58.885 43.548 59.3053 43.9057 59.52 44.1472C59.7346 44.3886 60.0476 44.8626 60.2086 45.2114C60.3785 45.5602 60.5574 46.1146 60.62 46.4634C60.7005 46.9553 60.7005 47.2504 60.62 47.8049C60.5484 48.261 60.3964 48.7528 60.2086 49.1463C60.0029 49.5577 59.7078 49.9691 59.3322 50.3447C58.9655 50.7114 58.5541 51.0154 58.1427 51.2122C57.7403 51.4089 57.2663 51.552 56.8013 51.6236C56.2468 51.7041 55.9427 51.7041 55.4598 51.6236C55.111 51.561 54.5566 51.3821 54.2078 51.2122C53.859 51.0512 53.385 50.7382 53.1435 50.5236C52.9021 50.3089 52.5444 49.8886 52.3566 49.5935C52.1598 49.2984 51.9273 48.7976 51.8289 48.4756C51.7216 48.1 51.659 47.635 51.659 47.1789C51.659 46.7854 51.7216 46.2398 51.8021 45.9715C51.8826 45.7033 52.0614 45.2561 52.2045 44.9878C52.3476 44.7195 52.6696 44.2813 52.9289 44.022C53.1883 43.7537 53.5818 43.4317 53.8053 43.3065C54.0289 43.1724 54.4671 42.9756 54.7891 42.8683C55.2005 42.7252 55.585 42.6626 56.1305 42.6626ZM54.5566 45.5602C54.3419 45.7748 54.1362 46.1057 54.0468 46.374C53.9574 46.6244 53.8948 47 53.8948 47.2236C53.8948 47.4561 53.9842 47.8138 54.1094 48.0732C54.2257 48.3236 54.4582 48.6455 54.6192 48.8065C54.7891 48.9675 55.0842 49.1642 55.2809 49.2447C55.4866 49.3341 55.8712 49.3967 56.1753 49.3967C56.5956 49.3967 56.8102 49.3431 57.1948 49.1374C57.4631 48.9943 57.7671 48.7528 57.8744 48.6098C57.9907 48.4667 58.1517 48.1984 58.2322 48.0285C58.3305 47.8317 58.3931 47.5098 58.3931 47.1789C58.3931 46.8659 58.3305 46.4902 58.2411 46.2846C58.1606 46.0878 57.9639 45.7927 57.8029 45.6228C57.6419 45.4618 57.32 45.2293 57.0696 45.113C56.7744 44.9699 56.4704 44.8984 56.1753 44.9073C55.9338 44.9073 55.5492 44.9789 55.3257 45.0593C55.1021 45.1398 54.7622 45.3634 54.5566 45.5602Z" fill="white"/>
<path d="M37.002 81.64C36.05 81.64 35.2147 81.43 34.496 81.01C33.7867 80.59 33.236 80.002 32.844 79.246C32.452 78.4807 32.256 77.5847 32.256 76.558C32.256 75.7833 32.368 75.088 32.592 74.472C32.816 73.8467 33.1333 73.3147 33.544 72.876C33.964 72.428 34.4633 72.0873 35.042 71.854C35.63 71.6113 36.2833 71.49 37.002 71.49C37.9633 71.49 38.7987 71.7 39.508 72.12C40.2173 72.5307 40.768 73.114 41.16 73.87C41.552 74.626 41.748 75.5173 41.748 76.544C41.748 77.3187 41.636 78.0187 41.412 78.644C41.188 79.2693 40.866 79.806 40.446 80.254C40.0353 80.702 39.536 81.0473 38.948 81.29C38.3693 81.5233 37.7207 81.64 37.002 81.64ZM37.002 80.1C37.6087 80.1 38.122 79.96 38.542 79.68C38.9713 79.4 39.298 78.994 39.522 78.462C39.7553 77.93 39.872 77.2953 39.872 76.558C39.872 75.438 39.62 74.57 39.116 73.954C38.6213 73.338 37.9167 73.03 37.002 73.03C36.4047 73.03 35.8913 73.17 35.462 73.45C35.0327 73.7207 34.7013 74.122 34.468 74.654C34.244 75.1767 34.132 75.8113 34.132 76.558C34.132 77.6687 34.384 78.5367 34.888 79.162C35.392 79.7873 36.0967 80.1 37.002 80.1ZM44.7462 81.612C44.4662 81.612 44.2469 81.5373 44.0882 81.388C43.9389 81.2293 43.8642 81.0053 43.8642 80.716V75.97H43.2202C42.9962 75.97 42.8235 75.914 42.7022 75.802C42.5809 75.6807 42.5202 75.5173 42.5202 75.312C42.5202 75.0973 42.5809 74.934 42.7022 74.822C42.8235 74.71 42.9962 74.654 43.2202 74.654H44.3682L43.8642 75.116V74.64C43.8642 73.6787 44.1069 72.96 44.5922 72.484C45.0775 71.9987 45.7775 71.714 46.6922 71.63L47.1682 71.588C47.3549 71.5693 47.5042 71.602 47.6162 71.686C47.7282 71.7607 47.8029 71.8633 47.8402 71.994C47.8775 72.1153 47.8822 72.2413 47.8542 72.372C47.8262 72.5027 47.7655 72.6193 47.6722 72.722C47.5882 72.8153 47.4762 72.8667 47.3362 72.876L47.1402 72.89C46.6082 72.9273 46.2209 73.0627 45.9782 73.296C45.7355 73.5293 45.6142 73.884 45.6142 74.36V74.878L45.3902 74.654H46.8042C47.0282 74.654 47.2009 74.71 47.3222 74.822C47.4435 74.934 47.5042 75.0973 47.5042 75.312C47.5042 75.5173 47.4435 75.6807 47.3222 75.802C47.2009 75.914 47.0282 75.97 46.8042 75.97H45.6142V80.716C45.6142 81.3133 45.3249 81.612 44.7462 81.612ZM49.5313 81.612C49.2513 81.612 49.032 81.5373 48.8733 81.388C48.724 81.2293 48.6493 81.0053 48.6493 80.716V75.97H48.0053C47.7813 75.97 47.6087 75.914 47.4873 75.802C47.366 75.6807 47.3053 75.5173 47.3053 75.312C47.3053 75.0973 47.366 74.934 47.4873 74.822C47.6087 74.71 47.7813 74.654 48.0053 74.654H49.1533L48.6493 75.116V74.64C48.6493 73.6787 48.892 72.96 49.3773 72.484C49.8627 71.9987 50.5627 71.714 51.4773 71.63L51.9533 71.588C52.14 71.5693 52.2893 71.602 52.4013 71.686C52.5133 71.7607 52.588 71.8633 52.6253 71.994C52.6627 72.1153 52.6673 72.2413 52.6393 72.372C52.6113 72.5027 52.5507 72.6193 52.4573 72.722C52.3733 72.8153 52.2613 72.8667 52.1213 72.876L51.9253 72.89C51.3933 72.9273 51.006 73.0627 50.7633 73.296C50.5207 73.5293 50.3993 73.884 50.3993 74.36V74.878L50.1753 74.654H51.5893C51.8133 74.654 51.986 74.71 52.1073 74.822C52.2287 74.934 52.2893 75.0973 52.2893 75.312C52.2893 75.5173 52.2287 75.6807 52.1073 75.802C51.986 75.914 51.8133 75.97 51.5893 75.97H50.3993V80.716C50.3993 81.3133 50.11 81.612 49.5313 81.612ZM56.4832 81.64C55.7086 81.64 55.0412 81.4953 54.4812 81.206C53.9212 80.9167 53.4872 80.506 53.1792 79.974C52.8806 79.442 52.7312 78.812 52.7312 78.084C52.7312 77.3747 52.8759 76.754 53.1652 76.222C53.4639 75.69 53.8699 75.2747 54.3832 74.976C54.9059 74.668 55.4986 74.514 56.1612 74.514C56.6466 74.514 57.0806 74.5933 57.4632 74.752C57.8552 74.9107 58.1866 75.1393 58.4572 75.438C58.7372 75.7367 58.9472 76.1007 59.0872 76.53C59.2366 76.95 59.3112 77.426 59.3112 77.958C59.3112 78.126 59.2506 78.2567 59.1292 78.35C59.0172 78.434 58.8539 78.476 58.6392 78.476H54.1452V77.468H58.0792L57.8552 77.678C57.8552 77.2487 57.7899 76.8893 57.6592 76.6C57.5379 76.3107 57.3559 76.0913 57.1132 75.942C56.8799 75.7833 56.5859 75.704 56.2312 75.704C55.8392 75.704 55.5032 75.7973 55.2232 75.984C54.9526 76.1613 54.7426 76.418 54.5932 76.754C54.4532 77.0807 54.3832 77.4727 54.3832 77.93V78.028C54.3832 78.7933 54.5606 79.3673 54.9152 79.75C55.2792 80.1233 55.8112 80.31 56.5112 80.31C56.7539 80.31 57.0246 80.282 57.3232 80.226C57.6312 80.1607 57.9206 80.0533 58.1912 79.904C58.3872 79.792 58.5599 79.7453 58.7092 79.764C58.8586 79.7733 58.9752 79.8247 59.0592 79.918C59.1526 80.0113 59.2086 80.128 59.2272 80.268C59.2459 80.3987 59.2179 80.534 59.1432 80.674C59.0779 80.814 58.9612 80.9353 58.7932 81.038C58.4666 81.2433 58.0886 81.3973 57.6592 81.5C57.2392 81.5933 56.8472 81.64 56.4832 81.64ZM61.5931 81.612C61.3038 81.612 61.0798 81.5373 60.9211 81.388C60.7718 81.2293 60.6971 81.0053 60.6971 80.716V75.424C60.6971 75.1347 60.7718 74.9153 60.9211 74.766C61.0704 74.6167 61.2804 74.542 61.5511 74.542C61.8218 74.542 62.0318 74.6167 62.1811 74.766C62.3304 74.9153 62.4051 75.1347 62.4051 75.424V76.306H62.2651C62.3958 75.746 62.6524 75.3213 63.0351 75.032C63.4178 74.7427 63.9264 74.57 64.5611 74.514C64.7571 74.4953 64.9111 74.5467 65.0231 74.668C65.1444 74.78 65.2144 74.9573 65.2331 75.2C65.2518 75.4333 65.1958 75.6247 65.0651 75.774C64.9438 75.914 64.7571 75.998 64.5051 76.026L64.1971 76.054C63.6278 76.11 63.1984 76.2873 62.9091 76.586C62.6198 76.8753 62.4751 77.286 62.4751 77.818V80.716C62.4751 81.0053 62.4004 81.2293 62.2511 81.388C62.1018 81.5373 61.8824 81.612 61.5931 81.612ZM67.1699 78.658C66.9926 78.658 66.8526 78.602 66.7499 78.49C66.6566 78.378 66.6006 78.2193 66.5819 78.014L66.1619 72.666C66.1339 72.3207 66.2086 72.0453 66.3859 71.84C66.5633 71.6253 66.8246 71.518 67.1699 71.518C67.5059 71.518 67.7579 71.6253 67.9259 71.84C68.1033 72.0453 68.1779 72.3207 68.1499 72.666L67.7299 78.014C67.7206 78.2193 67.6646 78.378 67.5619 78.49C67.4686 78.602 67.3379 78.658 67.1699 78.658ZM67.1699 81.57C66.8526 81.57 66.5959 81.472 66.3999 81.276C66.2133 81.08 66.1199 80.828 66.1199 80.52C66.1199 80.2213 66.2133 79.9787 66.3999 79.792C66.5959 79.596 66.8526 79.498 67.1699 79.498C67.4966 79.498 67.7486 79.596 67.9259 79.792C68.1126 79.9787 68.2059 80.2213 68.2059 80.52C68.2059 80.828 68.1126 81.08 67.9259 81.276C67.7486 81.472 67.4966 81.57 67.1699 81.57Z" fill="white"/>
</svg>
