<svg width="20" height="20" viewBox="0 0 20 20" fill="none" xmlns="http://www.w3.org/2000/svg">
<path fill-rule="evenodd" clip-rule="evenodd" d="M4.69318 1.28143L7.88228 4.47732C8.27748 4.87363 8.27776 5.49463 7.8829 5.89127L6.34129 7.43982C7.30927 10.2348 9.47403 12.4708 12.2176 13.5281L12.5248 13.6407L13.9861 12.1729C14.3965 11.7606 15.0807 11.7427 15.5143 12.133L18.7034 15.3289C19.0986 15.7252 19.0989 16.3462 18.704 16.7428L17.911 17.5395C16.4626 18.9944 14.2568 19.4045 12.3194 18.5789C9.58092 17.412 7.37117 15.9857 5.69021 14.3C4.00924 12.6143 2.58626 10.3976 1.42127 7.65009C0.630071 5.78412 0.973242 3.66885 2.28343 2.21538L2.45222 2.03721L3.16495 1.32128C3.57538 0.908989 4.2596 0.891147 4.69318 1.28143Z" stroke="white" stroke-width="1.40625" stroke-linecap="round" stroke-linejoin="round"/>
</svg>
