<svg width="101" height="101" viewBox="0 0 101 101" fill="none" xmlns="http://www.w3.org/2000/svg">
<rect x="0.5" y="0.5" width="100" height="100" rx="20" fill="#384FAE"/>
<path fill-rule="evenodd" clip-rule="evenodd" d="M54.4366 19.5C54.9076 19.5 55.0703 19.543 55.5071 19.7836C55.8669 19.9898 56.1067 20.1961 56.3036 20.4969C56.4578 20.7289 56.6205 21.0555 56.6634 21.2188C56.7147 21.382 56.749 21.7859 56.749 22.1211C56.749 22.4648 56.6719 23.0148 56.5606 23.4102C56.4578 23.8055 56.0981 24.6391 55.7213 25.3867C55.3615 26.0914 54.8391 27.0453 54.565 27.4922C54.291 27.9391 53.9655 28.4719 53.8285 28.6695C53.6915 28.8758 53.5887 29.0562 53.5972 29.082C53.6144 29.1078 54.8562 29.5117 56.3636 29.993C57.871 30.4742 59.2756 30.9469 59.4897 31.0586C59.7038 31.1617 60.0035 31.4023 60.1663 31.5828C60.329 31.7719 60.7315 32.4766 61.057 33.1641C61.3824 33.8516 61.8192 34.7969 62.0333 35.2695C62.3931 36.0688 62.4102 36.1461 62.2988 36.3781C62.2389 36.5156 62.119 36.6617 62.0419 36.6961C61.9563 36.7391 61.8107 36.7734 61.7165 36.7734C61.6222 36.7734 61.451 36.6875 61.3396 36.5844C61.2197 36.4727 60.7572 35.5789 60.2947 34.582C59.8408 33.5852 59.3955 32.6742 59.3012 32.5453C59.2156 32.4078 59.0614 32.2617 58.9587 32.2016C58.8473 32.15 57.7425 31.7891 56.4921 31.3937C55.2416 30.9984 54.2053 30.6977 54.1796 30.7148C54.1539 30.7406 54.9419 32.4852 55.9268 34.5992C56.9032 36.7219 57.7511 38.6555 57.811 38.8961C57.8795 39.2398 57.8795 39.4633 57.8024 39.7984C57.7511 40.0477 56.2608 43.7602 54.488 48.0484C52.7151 52.3453 51.2677 55.8859 51.2677 55.9375C51.2677 55.9891 51.7473 57.0375 52.3211 58.2836C52.9035 59.5211 53.4859 60.7586 53.6058 61.0336C53.76 61.3602 53.9455 61.5979 54.1625 61.7469C54.4366 61.9359 54.5479 61.9617 54.9504 61.9273C55.353 61.893 56.3807 61.4375 61.8021 58.8852C65.3136 57.2352 68.3797 55.7828 68.6109 55.6711C68.9021 55.5164 69.0991 55.3445 69.2276 55.1125C69.3389 54.932 69.4246 54.6313 69.4246 54.4508C69.4246 54.2102 68.6024 52.3711 65.9131 46.6133C63.5065 41.4656 62.4016 39.0078 62.4016 38.8102C62.4016 38.6641 62.4701 38.4664 62.5558 38.3805C62.6329 38.2945 62.8213 38.2258 62.9583 38.2258C63.0954 38.2258 63.3009 38.2945 63.3951 38.3805C63.4979 38.4664 65.1166 41.818 66.9837 45.8398C68.8593 49.8617 70.4609 53.3422 70.5465 53.5742C70.6322 53.8148 70.7007 54.2102 70.7093 54.4594C70.7093 54.7172 70.6322 55.1125 70.5208 55.3961C70.4009 55.7227 70.1954 56.032 69.947 56.2812C69.6044 56.6164 69.0649 56.9 66.0844 58.2922C64.1745 59.1945 61.5966 60.4062 60.3461 60.9906C59.0957 61.575 57.7853 62.1938 57.4342 62.357C57.083 62.5289 56.5435 62.7781 56.2351 62.9242C55.7469 63.1562 55.5842 63.1906 54.9076 63.1906C54.2396 63.1992 54.0769 63.1648 53.7086 62.9758C53.4773 62.8555 53.1433 62.5977 52.9806 62.4086C52.8179 62.2195 52.3554 61.3773 51.9614 60.5266C51.5589 59.6758 51.0878 58.6617 50.5654 57.5273L49.6233 59.8047C49.1094 61.0594 48.6212 62.2023 48.5356 62.3398C48.4499 62.4773 48.2273 62.718 48.0474 62.8727C47.859 63.0187 47.5335 63.225 47.3108 63.3195C47.0368 63.4398 46.7199 63.5 46.3687 63.5C45.8634 63.5 45.5551 63.3797 41.5897 61.7297C39.2601 60.7586 37.2817 59.8992 37.1961 59.8219C37.1104 59.7359 37.0419 59.5555 37.0505 59.3922C37.0505 59.2375 37.119 59.0484 37.2218 58.9453C37.316 58.8508 37.4873 58.7734 37.6072 58.7734C37.7271 58.7734 39.6884 59.5469 41.9751 60.4922C44.2619 61.4375 46.2317 62.2109 46.3687 62.2109C46.4972 62.2109 46.7541 62.1336 46.9426 62.0391C47.1567 61.9359 47.3537 61.7469 47.4736 61.5492C47.5678 61.3687 49.6661 56.3586 52.1156 50.4117C54.9247 43.6227 56.5777 39.5063 56.5777 39.3258C56.5777 39.1453 55.8754 37.5383 54.5993 34.7539C53.503 32.3906 52.5095 30.3195 52.3811 30.1562C52.2526 29.993 51.9785 29.7266 51.773 29.5719C51.5674 29.4172 51.3876 29.3055 51.3705 29.3141C51.3619 29.3313 51.3019 29.7094 51.1392 30.9984L51.4647 31.3078C51.636 31.4797 51.8586 31.7805 51.9528 31.9781C52.0642 32.2188 52.1241 32.5367 52.1241 32.8805C52.1241 33.1812 52.0727 33.5508 52.0128 33.6969C51.9443 33.8516 51.7644 34.1352 51.6017 34.3156C51.439 34.5047 51.1221 34.7453 50.8823 34.857C50.6339 34.9688 50.2913 35.0547 50.0686 35.0547C49.8545 35.0547 49.5376 35.0117 49.3663 34.9688C49.1865 34.9172 48.8782 34.7539 48.6812 34.5992C48.4756 34.4445 48.2187 34.1266 48.0817 33.8516C47.8932 33.4992 47.8333 33.2586 47.8418 32.9062C47.8418 32.5969 47.9104 32.2789 48.0388 32.0039C48.1502 31.7633 48.4071 31.4281 48.6212 31.2477C48.8268 31.0672 49.1522 30.8781 49.3406 30.8266C49.5291 30.7836 49.7175 30.732 49.7689 30.7148C49.8203 30.7063 49.8973 30.3711 49.9573 29.9758C50.0087 29.5805 50.0429 29.2367 50.0172 29.2109C50.0001 29.1852 49.6661 29.2883 49.2721 29.443C48.8867 29.5891 46.8912 30.3539 44.8442 31.1359C42.1378 32.1758 41.0501 32.6313 40.8788 32.8031C40.7076 32.975 39.4657 35.8797 36.1084 44.0094C33.5561 50.1883 31.5692 55.1039 31.5692 55.25C31.5692 55.3875 31.6205 55.6367 31.6891 55.7828C31.749 55.9375 31.8946 56.1523 32.006 56.2555C32.1173 56.3586 32.8453 56.7023 33.6247 57.0203C34.404 57.3469 35.1063 57.682 35.192 57.7594C35.2691 57.8453 35.3376 58.043 35.3376 58.1891C35.3461 58.3523 35.2776 58.5328 35.192 58.6102C35.1063 58.6875 34.9693 58.7734 34.8922 58.7992C34.798 58.8336 34.3013 58.6875 33.6503 58.4211C33.0423 58.1805 32.2886 57.8539 31.9546 57.7078C31.6291 57.5531 31.2094 57.2695 31.0296 57.0891C30.8497 56.9086 30.6185 56.582 30.5243 56.3672C30.4215 56.1523 30.3273 55.7484 30.3016 55.4648C30.2759 55.1641 30.3102 54.8031 30.3701 54.6055C30.4301 54.4164 32.5027 49.3719 34.9693 43.3906C37.4359 37.4094 39.5513 32.382 39.6627 32.2188C39.774 32.0555 39.9796 31.8406 40.108 31.7375C40.2365 31.643 40.4592 31.4969 40.6048 31.4195C40.7504 31.3508 42.7887 30.5516 45.144 29.6492C47.4993 28.7383 49.5976 27.9734 49.8031 27.9391C50.0087 27.9047 50.1971 27.8359 50.2228 27.793C50.2485 27.7414 50.377 27.0453 50.5054 26.2461C50.6339 25.4383 50.8223 24.4328 50.9251 24.0117C51.0193 23.582 51.182 22.9891 51.2762 22.6797C51.379 22.3703 51.5931 21.8719 51.7473 21.5625C51.9015 21.2531 52.2355 20.7805 52.4838 20.5055C52.7322 20.2391 53.1519 19.8953 53.4088 19.7578C53.7942 19.5516 53.9826 19.5 54.4366 19.5V19.5ZM53.3746 21.3992C53.229 21.5711 52.9806 21.9836 52.8179 22.3016C52.6551 22.6281 52.4239 23.3156 52.2869 23.8398C52.1584 24.3555 51.9357 25.4984 51.7901 26.375C51.6445 27.2516 51.5503 27.982 51.576 28.0078C51.6103 28.0336 51.8158 28.1367 52.0471 28.2398L52.4667 28.4375C53.2461 27.2086 53.6486 26.5383 53.8627 26.1602C54.0769 25.782 54.488 24.9914 54.762 24.3984C55.0447 23.8055 55.3187 23.1437 55.3701 22.9117C55.4215 22.6883 55.4643 22.293 55.4643 22.0352C55.4643 21.743 55.4044 21.468 55.3187 21.3047C55.2331 21.1586 55.0361 20.9867 54.8905 20.918C54.7363 20.8492 54.5222 20.7891 54.4194 20.7891C54.3081 20.7891 54.094 20.8578 53.9313 20.9437C53.7685 21.0211 53.5202 21.2273 53.3746 21.3992ZM49.1351 32.8117C49.1265 32.9578 49.1779 33.1812 49.2464 33.3102C49.3064 33.4477 49.4606 33.6023 49.589 33.6539C49.7089 33.7141 49.9316 33.7656 50.0772 33.7656C50.2571 33.7656 50.4198 33.6797 50.5911 33.5078C50.7881 33.3016 50.8394 33.1727 50.8394 32.8633C50.8394 32.5367 50.7966 32.4422 50.5825 32.2617C50.4027 32.107 50.2228 32.0469 49.9744 32.0469C49.7004 32.0469 49.5719 32.0984 49.3835 32.2961C49.2293 32.4594 49.1351 32.6484 49.1351 32.8117ZM44.8014 39.3C45.7178 39.3258 46.0433 39.3773 46.6428 39.5664C47.0453 39.6953 47.5678 39.9016 47.799 40.0219C48.0388 40.1336 48.3985 40.3484 48.6127 40.4945C48.8268 40.6406 49.2207 40.9758 49.5034 41.2336C49.7774 41.5 50.1714 41.9469 50.3684 42.2305C50.5739 42.5141 50.8737 43.0383 51.045 43.3906C51.2163 43.743 51.4218 44.3273 51.516 44.6797C51.6017 45.032 51.7045 45.6164 51.7473 45.9688C51.8072 46.5875 51.7987 46.6219 51.5846 46.8453C51.4475 47 51.2677 47.0859 51.1221 47.0859C50.9936 47.0859 50.8138 47.043 50.7281 46.9828C50.6082 46.8969 50.5397 46.6562 50.4455 45.9688C50.3855 45.4703 50.2656 44.8687 50.1885 44.6367C50.1115 44.3961 49.9059 43.932 49.7432 43.6055C49.5291 43.193 49.2122 42.7805 48.7411 42.3164C48.2444 41.818 47.8675 41.5258 47.3708 41.268C46.994 41.0703 46.3773 40.8297 46.0005 40.7266C45.5722 40.6148 45.0412 40.5547 44.5873 40.5547C44.1334 40.5547 43.6024 40.6234 43.1742 40.7266C42.7973 40.8211 42.1978 41.0445 41.8466 41.2164C41.3499 41.4656 41.0244 41.7148 40.4335 42.3164C39.8425 42.9008 39.577 43.2445 39.3372 43.7344C39.1659 44.0867 38.9433 44.6883 38.849 45.0664C38.7463 45.4789 38.6778 46.0289 38.6778 46.4414C38.6778 46.8195 38.7377 47.3953 38.8062 47.7305C38.8747 48.057 39.0889 48.6414 39.2687 49.0195C39.4571 49.3977 39.7911 49.9305 40.0053 50.1969C40.2194 50.4719 40.6133 50.8672 40.8874 51.082C41.1529 51.2969 41.6497 51.6063 41.9751 51.7695C42.3091 51.9328 42.8487 52.1305 43.1742 52.2078C43.5082 52.2852 44.1248 52.3453 44.5873 52.3453C45.1611 52.3453 45.6065 52.2938 46.0861 52.1648C46.4629 52.0531 47.0368 51.8297 47.3708 51.6578C47.6962 51.4773 48.2444 51.0734 48.6127 50.7297C49.0238 50.3344 49.392 49.8789 49.649 49.4406C49.8717 49.0625 50.1115 48.7359 50.1885 48.693C50.2656 48.6586 50.4112 48.6328 50.5226 48.6328C50.6253 48.6328 50.7966 48.7102 50.908 48.8047C51.0193 48.9078 51.0964 49.0797 51.0964 49.2344C51.0964 49.3719 51.0364 49.6211 50.9594 49.7672C50.8823 49.9219 50.6596 50.2828 50.4626 50.5664C50.2742 50.85 49.9059 51.2969 49.6404 51.5547C49.3835 51.8211 48.921 52.1992 48.6127 52.4141C48.3043 52.6203 47.8162 52.8953 47.525 53.0328C47.2252 53.1617 46.6685 53.3594 46.2831 53.4625C45.7264 53.6086 45.341 53.643 44.5445 53.643C43.7994 53.6344 43.3283 53.5828 42.8316 53.4539C42.4547 53.3508 41.8552 53.1359 41.5041 52.9641C41.1529 52.7922 40.6305 52.4914 40.3478 52.2938C40.0652 52.0875 39.6199 51.6922 39.3629 51.4172C39.106 51.1336 38.7291 50.6523 38.5236 50.3516C38.3266 50.0422 38.044 49.4836 37.8984 49.1055C37.7528 48.7273 37.5729 48.1086 37.5044 47.7305C37.4102 47.2492 37.3845 46.7594 37.4188 46.0977C37.4445 45.5734 37.5301 44.9203 37.6072 44.6367C37.6843 44.3531 37.9155 43.7687 38.1125 43.3477C38.318 42.918 38.6949 42.2992 38.9604 41.9727C39.2173 41.6375 39.6798 41.1734 39.9796 40.9242C40.2793 40.6836 40.8103 40.3312 41.1615 40.1422C41.5126 39.9531 41.9751 39.7383 42.1892 39.6609C42.4033 39.5836 42.823 39.4633 43.1313 39.3945C43.5167 39.3086 44.0306 39.2742 44.8014 39.3ZM45.5637 42.5312C45.6664 42.5227 45.8549 42.6172 45.9919 42.7203C46.2146 42.9008 46.2317 42.9523 46.1889 43.3047C46.1632 43.5195 46.1204 43.7773 46.0947 43.8805C46.0519 44.0266 46.0775 44.0781 46.1974 44.0781C46.2745 44.0781 46.4544 44.1555 46.6 44.25C46.7456 44.3445 46.9254 44.5336 47.0025 44.6625C47.0967 44.8 47.1567 45.0664 47.1567 45.2984C47.1567 45.5992 47.1053 45.7625 46.9854 45.8828C46.8826 45.9859 46.7028 46.0547 46.5143 46.0547C46.3088 46.0547 46.1546 45.9945 46.0433 45.857C45.9491 45.7539 45.872 45.5906 45.872 45.4961C45.872 45.3586 45.7607 45.2898 45.2297 45.1266C44.8785 45.0234 44.5188 44.9375 44.4331 44.9375C44.3475 44.9375 44.2362 44.9891 44.1762 45.0406C44.1163 45.1008 44.0734 45.2469 44.0649 45.3672C44.0649 45.4875 44.1163 45.625 44.1762 45.6852C44.2362 45.7453 44.5787 45.8914 44.9299 46.0117C45.281 46.132 45.6836 46.3383 45.812 46.4672C45.9491 46.5961 46.1289 46.8453 46.2231 47.0172C46.3088 47.1977 46.3859 47.5156 46.3859 47.7305C46.3859 47.9453 46.3259 48.2633 46.2488 48.4352C46.1803 48.6156 46.0347 48.8562 45.9319 48.968C45.8292 49.0797 45.5894 49.243 45.4009 49.3289C45.2125 49.4148 44.9042 49.4922 44.7158 49.4922C44.3903 49.4922 44.3646 49.5008 44.2619 49.8531C44.1933 50.0594 44.0563 50.3086 43.9621 50.4203C43.8593 50.5234 43.688 50.6094 43.5853 50.6094C43.4739 50.6094 43.3112 50.5664 43.217 50.5234C43.1228 50.4719 43.0114 50.343 42.96 50.2227C42.9001 50.068 42.9087 49.8875 43.1313 49.1484L42.7459 48.9766C42.5318 48.882 42.3006 48.7188 42.232 48.607C42.1635 48.5039 42.0693 48.2977 42.0265 48.1602C41.9751 47.9969 41.9751 47.782 42.0265 47.5758C42.0693 47.4039 42.1807 47.2234 42.2749 47.1719C42.3691 47.1203 42.5575 47.0859 42.7031 47.0859C42.883 47.0859 43.0114 47.1547 43.1313 47.318C43.2341 47.4555 43.3026 47.6187 43.3026 47.6875C43.3026 47.7734 43.4996 47.8852 43.8764 48.0055C44.2019 48.1172 44.5531 48.2031 44.6815 48.2031C44.8014 48.2031 44.9385 48.1516 44.9984 48.0914C45.0584 48.0398 45.1012 47.8852 45.1012 47.7477C45.1012 47.6016 45.0327 47.4727 44.9128 47.3953C44.8014 47.3266 44.5445 47.2234 44.3304 47.1719C44.1163 47.1203 43.7822 46.9742 43.5853 46.8625C43.3711 46.7422 43.1313 46.5016 43.0029 46.2867C42.8401 46.0203 42.7802 45.7969 42.7802 45.4531C42.7802 45.1953 42.8144 44.8859 42.8573 44.7656C42.9001 44.6453 43.0457 44.4219 43.1827 44.2586C43.3198 44.0953 43.5853 43.8891 43.7737 43.8117C43.9621 43.7258 44.2704 43.6484 44.4588 43.6484C44.7929 43.6484 44.8014 43.6398 44.9128 43.2617C44.9641 43.0469 45.1012 42.7977 45.204 42.7031C45.3067 42.6086 45.4695 42.5312 45.5637 42.5312ZM61.5195 44.1641C61.6308 44.1641 61.8107 44.25 61.922 44.3531C62.0419 44.4648 63.0268 46.4758 64.1916 48.9766C65.3307 51.4086 66.2557 53.4969 66.2557 53.6172C66.2557 53.7375 66.17 53.918 66.0587 54.0297C65.9559 54.1328 65.7761 54.2273 65.6562 54.2273C65.5363 54.2273 65.3564 54.1586 65.2536 54.0727C65.1594 53.9867 64.2002 52.0445 63.121 49.75C62.0505 47.4555 61.0998 45.4102 61.0142 45.1953C60.8686 44.8602 60.86 44.7742 60.9628 44.5594C61.0227 44.4219 61.1341 44.2844 61.2026 44.2414C61.2711 44.1984 61.4167 44.1641 61.5195 44.1641ZM58.6675 45.7109C58.7702 45.7023 58.933 45.7711 59.0272 45.857C59.13 45.943 60.1491 48.0055 61.2882 50.4375C62.5986 53.2219 63.3694 54.9664 63.378 55.1469C63.3865 55.3617 63.3266 55.482 63.1724 55.6023C63.0525 55.6969 62.8727 55.7742 62.7613 55.7656C62.6586 55.7656 62.4787 55.6797 62.3674 55.568C62.2475 55.4648 61.2625 53.4539 60.0977 50.9531C58.9587 48.5211 58.0251 46.4242 58.0251 46.2953C58.0166 46.1406 58.0936 46.0117 58.2564 45.8914C58.3848 45.7883 58.5647 45.7109 58.6675 45.7109Z" fill="white"/>
<path d="M13.474 81.612C13.1847 81.612 12.9607 81.5327 12.802 81.374C12.6527 81.206 12.578 80.9773 12.578 80.688V72.54C12.578 72.2413 12.6573 72.0173 12.816 71.868C12.9747 71.7093 13.1987 71.63 13.488 71.63H16.862C17.9447 71.63 18.78 71.9007 19.368 72.442C19.956 72.9833 20.25 73.7393 20.25 74.71C20.25 75.6807 19.956 76.4413 19.368 76.992C18.78 77.5333 17.9447 77.804 16.862 77.804H14.37V80.688C14.37 80.9773 14.2953 81.206 14.146 81.374C13.9967 81.5327 13.7727 81.612 13.474 81.612ZM14.37 76.39H16.582C17.2167 76.39 17.6973 76.25 18.024 75.97C18.3507 75.6807 18.514 75.2607 18.514 74.71C18.514 74.1593 18.3507 73.744 18.024 73.464C17.6973 73.184 17.2167 73.044 16.582 73.044H14.37V76.39ZM22.3021 81.612C22.0128 81.612 21.7888 81.5373 21.6301 81.388C21.4808 81.2293 21.4061 81.0053 21.4061 80.716V75.424C21.4061 75.1347 21.4808 74.9153 21.6301 74.766C21.7794 74.6167 21.9894 74.542 22.2601 74.542C22.5308 74.542 22.7408 74.6167 22.8901 74.766C23.0394 74.9153 23.1141 75.1347 23.1141 75.424V76.306H22.9741C23.1048 75.746 23.3614 75.3213 23.7441 75.032C24.1268 74.7427 24.6354 74.57 25.2701 74.514C25.4661 74.4953 25.6201 74.5467 25.7321 74.668C25.8534 74.78 25.9234 74.9573 25.9421 75.2C25.9608 75.4333 25.9048 75.6247 25.7741 75.774C25.6528 75.914 25.4661 75.998 25.2141 76.026L24.9061 76.054C24.3368 76.11 23.9074 76.2873 23.6181 76.586C23.3288 76.8753 23.1841 77.286 23.1841 77.818V80.716C23.1841 81.0053 23.1094 81.2293 22.9601 81.388C22.8108 81.5373 22.5914 81.612 22.3021 81.612ZM27.7565 81.598C27.4765 81.598 27.2618 81.514 27.1125 81.346C26.9632 81.178 26.8885 80.9447 26.8885 80.646V75.508C26.8885 75.2 26.9632 74.9667 27.1125 74.808C27.2618 74.64 27.4765 74.556 27.7565 74.556C28.0365 74.556 28.2512 74.64 28.4005 74.808C28.5592 74.9667 28.6385 75.2 28.6385 75.508V80.646C28.6385 80.9447 28.5638 81.178 28.4145 81.346C28.2652 81.514 28.0458 81.598 27.7565 81.598ZM27.7565 73.254C27.4298 73.254 27.1732 73.1747 26.9865 73.016C26.8092 72.848 26.7205 72.6193 26.7205 72.33C26.7205 72.0313 26.8092 71.8027 26.9865 71.644C27.1732 71.4853 27.4298 71.406 27.7565 71.406C28.0925 71.406 28.3492 71.4853 28.5265 71.644C28.7038 71.8027 28.7925 72.0313 28.7925 72.33C28.7925 72.6193 28.7038 72.848 28.5265 73.016C28.3492 73.1747 28.0925 73.254 27.7565 73.254ZM33.6209 81.64C32.9022 81.64 32.2769 81.4953 31.7449 81.206C31.2129 80.9073 30.8022 80.4873 30.5129 79.946C30.2235 79.4047 30.0789 78.77 30.0789 78.042C30.0789 77.4913 30.1582 77.0013 30.3169 76.572C30.4849 76.1333 30.7229 75.7647 31.0309 75.466C31.3389 75.158 31.7122 74.9247 32.1509 74.766C32.5895 74.598 33.0795 74.514 33.6209 74.514C33.9289 74.514 34.2602 74.556 34.6149 74.64C34.9789 74.724 35.3195 74.864 35.6369 75.06C35.7862 75.1533 35.8842 75.2653 35.9309 75.396C35.9775 75.5267 35.9869 75.662 35.9589 75.802C35.9309 75.9327 35.8702 76.0493 35.7769 76.152C35.6929 76.2453 35.5855 76.306 35.4549 76.334C35.3242 76.3527 35.1795 76.32 35.0209 76.236C34.8155 76.1147 34.6055 76.026 34.3909 75.97C34.1762 75.9047 33.9709 75.872 33.7749 75.872C33.4669 75.872 33.1962 75.9233 32.9629 76.026C32.7295 76.1193 32.5289 76.2593 32.3609 76.446C32.2022 76.6233 32.0809 76.8473 31.9969 77.118C31.9129 77.3887 31.8709 77.7013 31.8709 78.056C31.8709 78.7467 32.0342 79.2927 32.3609 79.694C32.6969 80.086 33.1682 80.282 33.7749 80.282C33.9709 80.282 34.1715 80.254 34.3769 80.198C34.5915 80.142 34.8062 80.0533 35.0209 79.932C35.1795 79.848 35.3195 79.82 35.4409 79.848C35.5715 79.876 35.6789 79.9413 35.7629 80.044C35.8469 80.1373 35.8982 80.254 35.9169 80.394C35.9355 80.5247 35.9169 80.6553 35.8609 80.786C35.8142 80.9167 35.7209 81.024 35.5809 81.108C35.2729 81.2947 34.9462 81.43 34.6009 81.514C34.2555 81.598 33.9289 81.64 33.6209 81.64ZM40.2977 81.64C39.523 81.64 38.8557 81.4953 38.2957 81.206C37.7357 80.9167 37.3017 80.506 36.9937 79.974C36.695 79.442 36.5457 78.812 36.5457 78.084C36.5457 77.3747 36.6903 76.754 36.9797 76.222C37.2783 75.69 37.6843 75.2747 38.1977 74.976C38.7203 74.668 39.313 74.514 39.9757 74.514C40.461 74.514 40.895 74.5933 41.2777 74.752C41.6697 74.9107 42.001 75.1393 42.2717 75.438C42.5517 75.7367 42.7617 76.1007 42.9017 76.53C43.051 76.95 43.1257 77.426 43.1257 77.958C43.1257 78.126 43.065 78.2567 42.9437 78.35C42.8317 78.434 42.6683 78.476 42.4537 78.476H37.9597V77.468H41.8937L41.6697 77.678C41.6697 77.2487 41.6043 76.8893 41.4737 76.6C41.3523 76.3107 41.1703 76.0913 40.9277 75.942C40.6943 75.7833 40.4003 75.704 40.0457 75.704C39.6537 75.704 39.3177 75.7973 39.0377 75.984C38.767 76.1613 38.557 76.418 38.4077 76.754C38.2677 77.0807 38.1977 77.4727 38.1977 77.93V78.028C38.1977 78.7933 38.375 79.3673 38.7297 79.75C39.0937 80.1233 39.6257 80.31 40.3257 80.31C40.5683 80.31 40.839 80.282 41.1377 80.226C41.4457 80.1607 41.735 80.0533 42.0057 79.904C42.2017 79.792 42.3743 79.7453 42.5237 79.764C42.673 79.7733 42.7897 79.8247 42.8737 79.918C42.967 80.0113 43.023 80.128 43.0417 80.268C43.0603 80.3987 43.0323 80.534 42.9577 80.674C42.8923 80.814 42.7757 80.9353 42.6077 81.038C42.281 81.2433 41.903 81.3973 41.4737 81.5C41.0537 81.5933 40.6617 81.64 40.2977 81.64ZM49.3763 81.612C49.087 81.612 48.863 81.5327 48.7043 81.374C48.555 81.206 48.4803 80.9773 48.4803 80.688V72.54C48.4803 72.2413 48.5597 72.0173 48.7183 71.868C48.877 71.7093 49.101 71.63 49.3903 71.63H52.7643C53.847 71.63 54.6823 71.8913 55.2703 72.414C55.8583 72.9273 56.1523 73.6507 56.1523 74.584C56.1523 75.1907 56.017 75.7133 55.7463 76.152C55.485 76.5907 55.1023 76.9267 54.5983 77.16C54.0943 77.3933 53.483 77.51 52.7643 77.51L52.8903 77.3H53.3523C53.735 77.3 54.0663 77.3933 54.3463 77.58C54.6357 77.7667 54.8877 78.0607 55.1023 78.462L56.1523 80.408C56.2643 80.604 56.3157 80.7953 56.3063 80.982C56.297 81.1687 56.227 81.3227 56.0963 81.444C55.9657 81.556 55.7743 81.612 55.5223 81.612C55.2703 81.612 55.065 81.5607 54.9063 81.458C54.7477 81.346 54.6077 81.178 54.4863 80.954L53.0723 78.35C52.9043 78.0327 52.7037 77.8227 52.4703 77.72C52.2463 77.608 51.957 77.552 51.6023 77.552H50.2723V80.688C50.2723 80.9773 50.1977 81.206 50.0483 81.374C49.899 81.5327 49.675 81.612 49.3763 81.612ZM50.2723 76.222H52.4563C53.1003 76.222 53.5857 76.0913 53.9123 75.83C54.2483 75.5593 54.4163 75.158 54.4163 74.626C54.4163 74.1033 54.2483 73.7113 53.9123 73.45C53.5857 73.1793 53.1003 73.044 52.4563 73.044H50.2723V76.222ZM60.0956 81.64C59.601 81.64 59.1576 81.5467 58.7656 81.36C58.383 81.164 58.0796 80.9027 57.8556 80.576C57.641 80.2493 57.5336 79.8807 57.5336 79.47C57.5336 78.966 57.6643 78.5693 57.9256 78.28C58.187 77.9813 58.6116 77.7667 59.1996 77.636C59.7876 77.5053 60.5763 77.44 61.5656 77.44H62.2656V78.448H61.5796C61.001 78.448 60.539 78.476 60.1936 78.532C59.8483 78.588 59.601 78.686 59.4516 78.826C59.3116 78.9567 59.2416 79.1433 59.2416 79.386C59.2416 79.694 59.349 79.946 59.5636 80.142C59.7783 80.338 60.077 80.436 60.4596 80.436C60.7676 80.436 61.0383 80.366 61.2716 80.226C61.5143 80.0767 61.7056 79.876 61.8456 79.624C61.9856 79.372 62.0556 79.0827 62.0556 78.756V77.146C62.0556 76.6793 61.953 76.3433 61.7476 76.138C61.5423 75.9327 61.197 75.83 60.7116 75.83C60.441 75.83 60.147 75.8627 59.8296 75.928C59.5216 75.9933 59.195 76.1053 58.8496 76.264C58.6723 76.348 58.5136 76.3713 58.3736 76.334C58.243 76.2967 58.1403 76.222 58.0656 76.11C57.991 75.9887 57.9536 75.858 57.9536 75.718C57.9536 75.578 57.991 75.4427 58.0656 75.312C58.1403 75.172 58.2663 75.0693 58.4436 75.004C58.873 74.8267 59.2836 74.7007 59.6756 74.626C60.077 74.5513 60.441 74.514 60.7676 74.514C61.4396 74.514 61.9903 74.6167 62.4196 74.822C62.8583 75.0273 63.185 75.34 63.3996 75.76C63.6143 76.1707 63.7216 76.7027 63.7216 77.356V80.716C63.7216 81.0053 63.6516 81.2293 63.5116 81.388C63.3716 81.5373 63.171 81.612 62.9096 81.612C62.6483 81.612 62.443 81.5373 62.2936 81.388C62.1536 81.2293 62.0836 81.0053 62.0836 80.716V80.044H62.1956C62.1303 80.3707 61.9996 80.6553 61.8036 80.898C61.617 81.1313 61.379 81.3133 61.0896 81.444C60.8003 81.5747 60.469 81.64 60.0956 81.64ZM66.3659 81.612C66.0859 81.612 65.8712 81.5373 65.7219 81.388C65.5726 81.2293 65.4979 81.0053 65.4979 80.716V75.424C65.4979 75.1347 65.5726 74.9153 65.7219 74.766C65.8712 74.6167 66.0812 74.542 66.3519 74.542C66.6226 74.542 66.8326 74.6167 66.9819 74.766C67.1312 74.9153 67.2059 75.1347 67.2059 75.424V76.376L67.0519 76.026C67.2572 75.5313 67.5746 75.158 68.0039 74.906C68.4426 74.6447 68.9372 74.514 69.4879 74.514C70.0386 74.514 70.4912 74.6167 70.8459 74.822C71.2006 75.0273 71.4666 75.34 71.6439 75.76C71.8212 76.1707 71.9099 76.6933 71.9099 77.328V80.716C71.9099 81.0053 71.8352 81.2293 71.6859 81.388C71.5366 81.5373 71.3219 81.612 71.0419 81.612C70.7619 81.612 70.5426 81.5373 70.3839 81.388C70.2346 81.2293 70.1599 81.0053 70.1599 80.716V77.412C70.1599 76.88 70.0572 76.4927 69.8519 76.25C69.6559 76.0073 69.3479 75.886 68.9279 75.886C68.4146 75.886 68.0039 76.0493 67.6959 76.376C67.3972 76.6933 67.2479 77.118 67.2479 77.65V80.716C67.2479 81.3133 66.9539 81.612 66.3659 81.612ZM76.8793 84.16C76.3753 84.16 75.8853 84.1133 75.4093 84.02C74.9427 83.9267 74.518 83.782 74.1353 83.586C73.958 83.4927 73.8367 83.3807 73.7713 83.25C73.7153 83.1193 73.6967 82.984 73.7153 82.844C73.7433 82.7133 73.7993 82.5967 73.8833 82.494C73.9767 82.3913 74.0887 82.3213 74.2193 82.284C74.35 82.2467 74.4853 82.2653 74.6253 82.34C75.036 82.5453 75.4233 82.676 75.7873 82.732C76.1607 82.7973 76.478 82.83 76.7393 82.83C77.3647 82.83 77.8313 82.676 78.1393 82.368C78.4567 82.0693 78.6153 81.6213 78.6153 81.024V79.764H78.7413C78.6013 80.24 78.3073 80.6227 77.8593 80.912C77.4207 81.192 76.9213 81.332 76.3613 81.332C75.7453 81.332 75.2087 81.192 74.7513 80.912C74.294 80.6227 73.9393 80.2213 73.6873 79.708C73.4353 79.1947 73.3093 78.5973 73.3093 77.916C73.3093 77.4027 73.3793 76.9407 73.5193 76.53C73.6687 76.11 73.874 75.7507 74.1353 75.452C74.406 75.1533 74.728 74.9247 75.1013 74.766C75.484 74.598 75.904 74.514 76.3613 74.514C76.94 74.514 77.444 74.6587 77.8733 74.948C78.312 75.228 78.5967 75.6013 78.7273 76.068L78.5873 76.418V75.424C78.5873 75.1347 78.662 74.9153 78.8113 74.766C78.97 74.6167 79.1847 74.542 79.4553 74.542C79.7353 74.542 79.95 74.6167 80.0993 74.766C80.2487 74.9153 80.3233 75.1347 80.3233 75.424V80.814C80.3233 81.9247 80.0293 82.76 79.4413 83.32C78.8533 83.88 77.9993 84.16 76.8793 84.16ZM76.8373 80.002C77.2013 80.002 77.514 79.918 77.7753 79.75C78.0367 79.582 78.2373 79.344 78.3773 79.036C78.5267 78.7187 78.6013 78.3453 78.6013 77.916C78.6013 77.272 78.4427 76.768 78.1253 76.404C77.808 76.0307 77.3787 75.844 76.8373 75.844C76.4733 75.844 76.1607 75.928 75.8993 76.096C75.638 76.264 75.4327 76.502 75.2833 76.81C75.1433 77.118 75.0733 77.4867 75.0733 77.916C75.0733 78.56 75.232 79.0687 75.5493 79.442C75.8667 79.8153 76.296 80.002 76.8373 80.002ZM85.5106 81.64C84.7359 81.64 84.0686 81.4953 83.5086 81.206C82.9486 80.9167 82.5146 80.506 82.2066 79.974C81.9079 79.442 81.7586 78.812 81.7586 78.084C81.7586 77.3747 81.9032 76.754 82.1926 76.222C82.4912 75.69 82.8972 75.2747 83.4106 74.976C83.9332 74.668 84.5259 74.514 85.1886 74.514C85.6739 74.514 86.1079 74.5933 86.4906 74.752C86.8826 74.9107 87.2139 75.1393 87.4846 75.438C87.7646 75.7367 87.9746 76.1007 88.1146 76.53C88.2639 76.95 88.3386 77.426 88.3386 77.958C88.3386 78.126 88.2779 78.2567 88.1566 78.35C88.0446 78.434 87.8812 78.476 87.6666 78.476H83.1726V77.468H87.1066L86.8826 77.678C86.8826 77.2487 86.8172 76.8893 86.6866 76.6C86.5652 76.3107 86.3832 76.0913 86.1406 75.942C85.9072 75.7833 85.6132 75.704 85.2586 75.704C84.8666 75.704 84.5306 75.7973 84.2506 75.984C83.9799 76.1613 83.7699 76.418 83.6206 76.754C83.4806 77.0807 83.4106 77.4727 83.4106 77.93V78.028C83.4106 78.7933 83.5879 79.3673 83.9426 79.75C84.3066 80.1233 84.8386 80.31 85.5386 80.31C85.7812 80.31 86.0519 80.282 86.3506 80.226C86.6586 80.1607 86.9479 80.0533 87.2186 79.904C87.4146 79.792 87.5872 79.7453 87.7366 79.764C87.8859 79.7733 88.0026 79.8247 88.0866 79.918C88.1799 80.0113 88.2359 80.128 88.2546 80.268C88.2732 80.3987 88.2452 80.534 88.1706 80.674C88.1052 80.814 87.9886 80.9353 87.8206 81.038C87.4939 81.2433 87.1159 81.3973 86.6866 81.5C86.2666 81.5933 85.8746 81.64 85.5106 81.64Z" fill="white"/>
</svg>
