<svg width="68" height="56" viewBox="0 0 68 56" fill="none" xmlns="http://www.w3.org/2000/svg">
<path fill-rule="evenodd" clip-rule="evenodd" d="M54.4807 0C54.9255 0 55.3569 0.403846 61.1799 6.23269C67.0433 12.075 67.4207 12.4788 67.4207 12.9231C67.4207 13.3673 67.0838 13.7308 62.4604 18.3481C59.7376 21.0808 57.3518 23.3962 57.1361 23.5038C56.9339 23.6115 56.6509 23.6923 56.5026 23.6923C56.3543 23.6923 55.8421 23.3154 54.4672 22.0096L54.0224 22.4808C53.7798 22.7365 51.6636 24.9846 49.3317 27.4615C46.8919 30.0596 44.8026 32.1596 44.4252 32.4019C44.0613 32.6308 43.3065 33.0481 42.7538 33.3038C42.2012 33.5731 41.2576 33.9096 40.6645 34.0577C40.0714 34.2058 39.0336 34.3673 38.3731 34.4212C37.6452 34.475 36.7286 34.4346 36.0816 34.3404C35.4885 34.2462 34.6663 34.0712 34.2619 33.9635C33.8575 33.8423 33.1566 33.5865 32.7118 33.3981C32.267 33.1962 31.5661 32.8192 30.4203 32.0654L28.5333 33.9365C27.4684 34.9865 26.3496 35.9692 25.9722 36.1712C25.4061 36.4942 25.1365 36.5481 24.2873 36.5481C23.5055 36.5481 23.1416 36.4673 22.6968 36.2385C22.3867 36.0769 21.888 35.7135 21.0388 34.9327L20.5401 35.4308C20.2705 35.7 19.7718 36.0635 19.4348 36.2385C18.963 36.4808 18.6126 36.5481 17.8173 36.5481C16.9681 36.5481 16.6985 36.4942 16.1324 36.1846C15.755 35.9692 15.2428 35.6058 14.5149 34.8923L13.9083 35.175C13.45 35.4038 13.0457 35.4712 12.2234 35.4712C11.4282 35.4712 10.9833 35.3904 10.5385 35.1885C10.2016 35.0404 9.66238 34.65 9.33888 34.3135C9.0019 33.9904 8.61101 33.4519 8.46274 33.1154C8.26055 32.6712 8.17967 32.2269 8.17967 31.4327C8.17967 30.5981 8.24707 30.2077 8.48969 29.6827C8.73232 29.1442 9.83761 27.9731 14.0162 23.8135C18.1812 19.6673 19.4348 18.4962 20.2436 17.9981C20.7962 17.6615 21.7128 17.2038 22.2654 16.975C22.8181 16.7596 23.829 16.4769 24.4895 16.3558C25.5004 16.1808 27.0101 16.1538 41.0689 16.1538L44.8431 12.3981L44.2635 11.7923C43.8052 11.2942 43.6973 11.0923 43.7243 10.7423C43.7513 10.3654 44.4387 9.61154 48.8868 5.15577C53.6854 0.336538 54.0494 0 54.4807 0V0ZM46.3258 10.7692L56.6374 21.0673L64.7923 12.9231C56.853 4.99423 54.5211 2.69231 54.4807 2.69231C54.4403 2.69231 52.5936 4.50962 50.3696 6.73077L46.3258 10.7692ZM42.0798 18.2404L24.7591 18.375C23.0877 18.9404 22.2115 19.3308 21.7263 19.6135C21.0523 20.0038 19.6909 21.2692 15.6876 25.2404C11.8191 29.0769 10.4981 30.4769 10.3903 30.8269C10.3094 31.0827 10.2689 31.5 10.3229 31.7288C10.3633 31.9712 10.6059 32.3885 10.8351 32.6577C11.0777 32.9135 11.4956 33.1962 11.7517 33.2769C12.0078 33.3442 12.4391 33.3712 12.6952 33.3173C13.0861 33.25 13.9757 32.4154 17.9656 28.4577L22.7507 23.6923H33.9923V25.8462H24.2873C24.3412 27.4615 24.4221 27.8115 24.6243 28.0673C24.7726 28.2692 25.0691 28.5654 25.2713 28.7269C25.6083 28.9827 25.8779 29.0096 27.8997 29.0769L30.1508 29.1442C31.93 30.4769 32.8601 31.0692 33.3858 31.3115C33.898 31.5538 34.6933 31.85 35.1381 31.9712C35.5829 32.0923 36.4321 32.2135 37.0252 32.2673C37.6182 32.3077 38.5483 32.2673 39.074 32.1865C39.6132 32.1058 40.4623 31.9038 40.9611 31.7288C41.4598 31.5673 42.309 31.1635 42.8347 30.8269C43.6165 30.3423 44.6679 29.3058 48.3881 25.375L52.971 20.5288C47.9298 15.4673 46.4336 14 46.3932 14C46.3528 14 45.3688 14.9558 44.1961 16.1135L42.0798 18.2404ZM16.1324 33.3981C16.9277 34.125 17.3186 34.3673 17.5208 34.4212C17.7229 34.4615 18.0464 34.4615 18.2217 34.4077C18.4104 34.3538 19.61 33.2769 20.8771 31.9981L23.182 29.6827C22.6698 28.9558 22.4541 28.4981 22.3733 28.2019C22.2924 27.9058 22.1846 27.6231 22.1441 27.5692C22.0902 27.5154 20.7288 28.8077 19.0978 30.4365L16.1324 33.3981ZM22.6024 33.3981C23.3842 34.125 23.7481 34.3673 23.9099 34.4077C24.0851 34.4615 24.3951 34.4481 24.6243 34.3942C24.8939 34.3404 25.5544 33.7885 26.5518 32.8058L28.075 31.2981C26.0261 31.1769 25.3387 31.0962 25.2309 31.0423C25.0826 30.9885 24.6513 31.3385 23.8155 32.1865L22.6024 33.3981ZM5.68602 36.6288C6.00952 36.6154 8.3549 36.9788 10.8755 37.4231C13.3961 37.8673 16.4289 38.3788 17.6151 38.5538C18.8013 38.7423 20.8636 39.0115 22.198 39.1596C23.5325 39.3077 25.5948 39.4962 26.781 39.5904C28.0345 39.6981 31.0808 39.7654 34.0597 39.7654C36.8769 39.7654 40.0849 39.6846 41.2037 39.5904C42.309 39.5096 44.1017 39.3346 45.1801 39.2269C46.2449 39.1192 48.0107 38.9038 49.089 38.7558C50.1539 38.5942 53.4698 38.0558 56.4352 37.5308C60.9103 36.7365 61.9751 36.6019 62.703 36.6692C63.2017 36.7096 63.8757 36.8981 64.2801 37.0865C64.671 37.2615 65.3045 37.7058 65.6819 38.0558C66.0459 38.4058 66.5042 38.9442 66.6659 39.2404C66.8411 39.5365 67.0703 40.075 67.2051 40.4519C67.3938 41.0442 67.4207 41.7712 67.3533 51.9077L66.8546 52.9039C66.5446 53.55 66.1267 54.1154 65.7089 54.5058C65.3584 54.8423 64.6171 55.3135 63.1074 56H4.87727L3.89329 55.5558C3.35412 55.3135 2.62624 54.8423 2.26231 54.5058C1.84445 54.1154 1.44007 53.55 0.631323 51.9077L0.590885 46.5769C0.563927 41.9865 0.590885 41.1519 0.779594 40.5192C0.887427 40.1019 1.13005 39.5365 1.30528 39.2404C1.48051 38.9442 1.91185 38.4192 2.26231 38.0827C2.62624 37.7462 3.17889 37.3288 3.48891 37.1673C3.81241 37.0058 4.29766 36.8308 4.56725 36.7635C4.85031 36.6962 5.34904 36.6288 5.68602 36.6288ZM3.48891 39.9C3.28672 40.1692 3.03062 40.6404 2.92279 40.95C2.74756 41.4212 2.70712 42.3635 2.7206 46.3077C2.7206 49.6192 2.77451 51.2481 2.88235 51.625C2.9767 51.9481 3.31368 52.4192 3.71806 52.8365C4.13591 53.2538 4.60769 53.5769 4.94466 53.6712C5.34904 53.7923 12.21 53.8327 33.9923 53.8327C55.7612 53.8327 62.6221 53.7923 63.04 53.6712C63.3635 53.5769 63.8353 53.2538 64.2531 52.8365C64.671 52.4192 64.9945 51.9481 65.0888 51.625C65.2101 51.2481 65.2641 49.6192 65.2641 46.3077C65.2641 42.3635 65.2236 41.4212 65.0619 40.95C64.954 40.6404 64.6845 40.1692 64.4823 39.9C64.2801 39.6308 63.8083 39.2673 63.4444 39.0923C63.067 38.9038 62.5547 38.7558 62.2986 38.7692C62.0291 38.7692 59.7915 39.1327 57.3113 39.5635C54.8177 40.0077 52.0275 40.4923 51.1109 40.6404C50.1808 40.7885 48.6577 41.0038 47.7411 41.1115C46.811 41.2327 45.1127 41.4077 43.9669 41.5154C42.8077 41.6231 40.4489 41.7846 38.7101 41.8788C36.8095 41.9731 34.1002 42 31.9705 41.9462C30.0025 41.9058 27.5493 41.7981 26.5114 41.7308C25.4735 41.65 23.4651 41.4615 22.0632 41.3135C20.6479 41.1654 18.7069 40.9231 17.7499 40.775C16.7794 40.6269 13.7735 40.1154 11.0777 39.6308C8.36838 39.1596 5.94213 38.7692 5.68602 38.7692C5.41644 38.7558 4.90423 38.9038 4.54029 39.0923C4.16287 39.2673 3.6911 39.6308 3.48891 39.9ZM7.03394 44.1538H9.19061V46.3077H7.03394V44.1538ZM11.3473 44.1538H13.504V46.3077H11.3473V44.1538ZM15.6606 44.1538H17.8173V46.3077H15.6606V44.1538ZM19.974 44.1538H22.1306V46.3077H19.974V44.1538ZM24.2873 44.1538H26.444V46.3077H24.2873V44.1538ZM28.6007 44.1538H30.7573V46.3077H28.6007V44.1538ZM32.914 44.1538H35.0707V46.3077H32.914V44.1538ZM37.2273 44.1538H39.384V46.3077H37.2273V44.1538ZM41.5407 44.1538H43.6974V46.3077H41.5407V44.1538ZM45.854 44.1538H48.0107V46.3077H45.854V44.1538ZM50.1674 44.1538H52.324V46.3077H50.1674V44.1538ZM54.4807 44.1538H56.6374V46.3077H54.4807V44.1538ZM58.7941 44.1538H60.9507V46.3077H58.7941V44.1538ZM7.03394 49.5385H9.19061V51.6923H7.03394V49.5385ZM11.3473 49.5385H13.504V51.6923H11.3473V49.5385ZM15.6606 49.5385H17.8173V51.6923H15.6606V49.5385ZM19.974 49.5385H22.1306V51.6923H19.974V49.5385ZM24.2873 49.5385H26.444V51.6923H24.2873V49.5385ZM28.6007 49.5385H30.7573V51.6923H28.6007V49.5385ZM32.914 49.5385H35.0707V51.6923H32.914V49.5385ZM37.2273 49.5385H39.384V51.6923H37.2273V49.5385ZM41.5407 49.5385H43.6974V51.6923H41.5407V49.5385ZM45.854 49.5385H48.0107V51.6923H45.854V49.5385ZM50.1674 49.5385H52.324V51.6923H50.1674V49.5385ZM54.4807 49.5385H56.6374V51.6923H54.4807V49.5385ZM58.7941 49.5385H60.9507V51.6923H58.7941V49.5385Z" fill="#384FAE"/>
</svg>
