<svg width="52" height="58" viewBox="0 0 52 58" fill="none" xmlns="http://www.w3.org/2000/svg">
<path fill-rule="evenodd" clip-rule="evenodd" d="M31.0095 1C31.609 1 31.8161 1.05469 32.372 1.36094C32.8298 1.62344 33.135 1.88594 33.3857 2.26875C33.582 2.56406 33.7891 2.97969 33.8436 3.1875C33.909 3.39531 33.9526 3.90937 33.9526 4.33594C33.9526 4.77344 33.8545 5.47344 33.7128 5.97656C33.582 6.47969 33.1241 7.54063 32.6445 8.49219C32.1867 9.38906 31.5218 10.6031 31.173 11.1719C30.8242 11.7406 30.4099 12.4187 30.2355 12.6703C30.0611 12.9328 29.9303 13.1625 29.9412 13.1953C29.963 13.2281 31.5436 13.7422 33.4621 14.3547C35.3805 14.9672 37.1682 15.5688 37.4407 15.7109C37.7132 15.8422 38.0947 16.1484 38.3018 16.3781C38.5089 16.6188 39.0212 17.5156 39.4355 18.3906C39.8497 19.2656 40.4056 20.4688 40.6781 21.0703C41.1359 22.0875 41.1577 22.1859 41.016 22.4812C40.9397 22.6562 40.7871 22.8422 40.689 22.8859C40.58 22.9406 40.3947 22.9844 40.2748 22.9844C40.1549 22.9844 39.9369 22.875 39.7952 22.7437C39.6426 22.6016 39.0539 21.4641 38.4653 20.1953C37.8876 18.9266 37.3208 17.7672 37.2009 17.6031C37.0919 17.4281 36.8957 17.2422 36.7649 17.1656C36.6232 17.1 35.217 16.6406 33.6256 16.1375C32.0341 15.6344 30.7152 15.2516 30.6825 15.2734C30.6498 15.3062 31.6526 17.5266 32.9061 20.2172C34.1488 22.9187 35.2279 25.3797 35.3042 25.6859C35.3914 26.1234 35.3914 26.4078 35.2933 26.8344C35.2279 27.1516 33.3312 31.8766 31.0749 37.3344C28.8185 42.8031 26.9763 47.3094 26.9763 47.375C26.9763 47.4406 27.5868 48.775 28.3171 50.3609C29.0583 51.9359 29.7995 53.5109 29.9521 53.8609C30.1483 54.2766 30.3845 54.5792 30.6607 54.7687C31.0095 55.0094 31.1512 55.0422 31.6635 54.9984C32.1758 54.9547 33.4839 54.375 40.3838 51.1266C44.8529 49.0266 48.7553 47.1781 49.0496 47.0359C49.4202 46.8391 49.6709 46.6203 49.8344 46.325C49.9761 46.0953 50.0851 45.7125 50.0851 45.4828C50.0851 45.1766 49.0387 42.8359 45.616 35.5078C42.553 28.9562 41.1468 25.8281 41.1468 25.5766C41.1468 25.3906 41.234 25.1391 41.343 25.0297C41.4411 24.9203 41.6809 24.8328 41.8553 24.8328C42.0297 24.8328 42.2913 24.9203 42.4112 25.0297C42.5421 25.1391 44.6022 29.4047 46.9785 34.5234C49.3657 39.6422 51.4041 44.0719 51.5131 44.3672C51.6221 44.6734 51.7093 45.1766 51.7202 45.4937C51.7202 45.8219 51.6221 46.325 51.4804 46.6859C51.3278 47.1016 51.0661 47.4953 50.75 47.8125C50.314 48.2391 49.6273 48.6 45.834 50.3719C43.4032 51.5203 40.1222 53.0625 38.5307 53.8062C36.9393 54.55 35.2715 55.3375 34.8246 55.5453C34.3777 55.7641 33.691 56.0812 33.2985 56.2672C32.6772 56.5625 32.4701 56.6063 31.609 56.6063C30.7588 56.6172 30.5517 56.5734 30.0829 56.3328C29.7886 56.1797 29.3635 55.8516 29.1564 55.6109C28.9493 55.3703 28.3607 54.2984 27.8593 53.2156C27.3469 52.1328 26.7474 50.8422 26.0825 49.3984L24.8835 52.2969C24.2294 53.8937 23.6081 55.3484 23.4991 55.5234C23.3901 55.6984 23.1067 56.0047 22.8778 56.2016C22.638 56.3875 22.2238 56.65 21.9404 56.7703C21.5916 56.9234 21.1882 57 20.7413 57C20.0982 57 19.7058 56.8469 14.6589 54.7469C11.694 53.5109 9.17603 52.4172 9.06703 52.3188C8.95803 52.2094 8.87082 51.9797 8.88172 51.7719C8.88172 51.575 8.96893 51.3344 9.09973 51.2031C9.21964 51.0828 9.43764 50.9844 9.59025 50.9844C9.74285 50.9844 12.239 51.9688 15.1494 53.1719C18.0598 54.375 20.5669 55.3594 20.7413 55.3594C20.9048 55.3594 21.2318 55.2609 21.4716 55.1406C21.7442 55.0094 21.9949 54.7687 22.1475 54.5172C22.2674 54.2875 24.938 47.9109 28.0555 40.3422C31.6308 31.7016 33.7346 26.4625 33.7346 26.2328C33.7346 26.0031 32.8407 23.9578 31.2166 20.4141C29.8213 17.4062 28.5569 14.7703 28.3934 14.5625C28.2299 14.3547 27.8811 14.0156 27.6195 13.8187C27.3578 13.6219 27.1289 13.4797 27.1071 13.4906C27.0962 13.5125 27.0199 13.9938 26.8128 15.6344L27.227 16.0281C27.445 16.2469 27.7285 16.6297 27.8484 16.8812C27.9901 17.1875 28.0664 17.5922 28.0664 18.0297C28.0664 18.4125 28.001 18.8828 27.9247 19.0688C27.8375 19.2656 27.6086 19.6266 27.4014 19.8562C27.1943 20.0969 26.791 20.4031 26.4858 20.5453C26.1697 20.6875 25.7337 20.7969 25.4503 20.7969C25.1778 20.7969 24.7745 20.7422 24.5564 20.6875C24.3275 20.6219 23.9351 20.4141 23.6844 20.2172C23.4228 20.0203 23.0958 19.6156 22.9214 19.2656C22.6816 18.8172 22.6053 18.5109 22.6162 18.0625C22.6162 17.6688 22.7034 17.2641 22.8669 16.9141C23.0086 16.6078 23.3356 16.1812 23.6081 15.9516C23.8697 15.7219 24.2839 15.4813 24.5237 15.4156C24.7636 15.3609 25.0034 15.2953 25.0688 15.2734C25.1342 15.2625 25.2323 14.8359 25.3086 14.3328C25.374 13.8297 25.4176 13.3922 25.3849 13.3594C25.3631 13.3266 24.938 13.4578 24.4365 13.6547C23.946 13.8406 21.4062 14.8141 18.8011 15.8094C15.3565 17.1328 13.9722 17.7125 13.7542 17.9312C13.5362 18.15 11.9556 21.8469 7.68268 32.1938C4.43437 40.0578 1.90549 46.3141 1.90549 46.5C1.90549 46.675 1.97089 46.9922 2.05809 47.1781C2.1344 47.375 2.3197 47.6484 2.46141 47.7797C2.60311 47.9109 3.52964 48.3484 4.52158 48.7531C5.51351 49.1688 6.40734 49.5953 6.51634 49.6938C6.61445 49.8031 6.70165 50.0547 6.70165 50.2406C6.71255 50.4484 6.62535 50.6781 6.51634 50.7766C6.40734 50.875 6.23293 50.9844 6.13483 51.0172C6.01493 51.0609 5.38271 50.875 4.55428 50.5359C3.78035 50.2297 2.82112 49.8141 2.39601 49.6281C1.98179 49.4313 1.44767 49.0703 1.21877 48.8406C0.989859 48.6109 0.695549 48.1953 0.575645 47.9219C0.44484 47.6484 0.324936 47.1344 0.292235 46.7734C0.259534 46.3906 0.303136 45.9313 0.379438 45.6797C0.455741 45.4391 3.09363 39.0187 6.23293 31.4062C9.37224 23.7938 12.0646 17.3953 12.2063 17.1875C12.348 16.9797 12.6096 16.7062 12.7732 16.575C12.9367 16.4547 13.2201 16.2687 13.4054 16.1703C13.5907 16.0828 16.185 15.0656 19.1826 13.9172C22.1802 12.7578 24.8508 11.7844 25.1124 11.7406C25.374 11.6969 25.6138 11.6094 25.6465 11.5547C25.6792 11.4891 25.8427 10.6031 26.0062 9.58594C26.1697 8.55781 26.4095 7.27812 26.5403 6.74219C26.6602 6.19531 26.8673 5.44063 26.9872 5.04688C27.118 4.65313 27.3905 4.01875 27.5868 3.625C27.783 3.23125 28.2081 2.62969 28.5242 2.27969C28.8403 1.94063 29.3744 1.50313 29.7014 1.32812C30.1919 1.06562 30.4317 1 31.0095 1V1ZM29.6578 3.41719C29.4725 3.63594 29.1564 4.16094 28.9493 4.56562C28.7422 4.98125 28.4479 5.85625 28.2735 6.52344C28.11 7.17969 27.8266 8.63438 27.6413 9.75C27.4559 10.8656 27.336 11.7953 27.3687 11.8281C27.4123 11.8609 27.674 11.9922 27.9683 12.1234L28.5024 12.375C29.4943 10.8109 30.0066 9.95781 30.2791 9.47656C30.5517 8.99531 31.0749 7.98906 31.4237 7.23438C31.7834 6.47969 32.1322 5.6375 32.1976 5.34219C32.263 5.05781 32.3175 4.55469 32.3175 4.22656C32.3175 3.85469 32.2412 3.50469 32.1322 3.29688C32.0232 3.11094 31.7725 2.89219 31.5872 2.80469C31.391 2.71719 31.1185 2.64062 30.9877 2.64062C30.846 2.64062 30.5735 2.72812 30.3663 2.8375C30.1592 2.93594 29.8431 3.19844 29.6578 3.41719ZM24.2621 17.9422C24.2512 18.1281 24.3166 18.4125 24.4038 18.5766C24.4801 18.7516 24.6764 18.9484 24.8399 19.0141C24.9925 19.0906 25.2759 19.1562 25.4612 19.1562C25.6901 19.1562 25.8972 19.0469 26.1152 18.8281C26.3659 18.5656 26.4313 18.4016 26.4313 18.0078C26.4313 17.5922 26.3768 17.4719 26.1043 17.2422C25.8754 17.0453 25.6465 16.9688 25.3304 16.9688C24.9816 16.9688 24.8181 17.0344 24.5783 17.2859C24.382 17.4937 24.2621 17.7344 24.2621 17.9422ZM18.7466 26.2C19.9129 26.2328 20.3271 26.2984 21.0901 26.5391C21.6025 26.7031 22.2674 26.9656 22.5617 27.1187C22.8669 27.2609 23.3247 27.5344 23.5972 27.7203C23.8697 27.9062 24.3711 28.3328 24.7309 28.6609C25.0797 29 25.5811 29.5688 25.8318 29.9297C26.0934 30.2906 26.4749 30.9578 26.6929 31.4062C26.9109 31.8547 27.1725 32.5984 27.2924 33.0469C27.4014 33.4953 27.5323 34.2391 27.5868 34.6875C27.6631 35.475 27.6522 35.5188 27.3796 35.8031C27.2052 36 26.9763 36.1094 26.791 36.1094C26.6275 36.1094 26.3986 36.0547 26.2896 35.9781C26.137 35.8687 26.0498 35.5625 25.9299 34.6875C25.8536 34.0531 25.701 33.2875 25.6029 32.9922C25.5048 32.6859 25.2432 32.0953 25.0361 31.6797C24.7636 31.1547 24.3602 30.6297 23.7607 30.0391C23.1285 29.4047 22.6489 29.0328 22.0167 28.7047C21.537 28.4531 20.7522 28.1469 20.2726 28.0156C19.7276 27.8734 19.0518 27.7969 18.474 27.7969C17.8963 27.7969 17.2205 27.8844 16.6755 28.0156C16.1959 28.1359 15.4328 28.4203 14.9859 28.6391C14.3537 28.9562 13.9395 29.2734 13.1874 30.0391C12.4352 30.7828 12.0973 31.2203 11.7921 31.8438C11.5741 32.2922 11.2907 33.0578 11.1708 33.5391C11.04 34.0641 10.9528 34.7641 10.9528 35.2891C10.9528 35.7703 11.0291 36.5031 11.1163 36.9297C11.2035 37.3453 11.476 38.0891 11.7049 38.5703C11.9447 39.0516 12.3698 39.7297 12.6424 40.0688C12.9149 40.4188 13.4163 40.9219 13.7651 41.1953C14.103 41.4688 14.7352 41.8625 15.1494 42.0703C15.5745 42.2781 16.2613 42.5297 16.6755 42.6281C17.1006 42.7266 17.8854 42.8031 18.474 42.8031C19.2044 42.8031 19.7712 42.7375 20.3816 42.5734C20.8612 42.4313 21.5916 42.1469 22.0167 41.9281C22.4309 41.6984 23.1285 41.1844 23.5972 40.7469C24.1204 40.2437 24.5892 39.6641 24.9162 39.1063C25.1996 38.625 25.5048 38.2094 25.6029 38.1547C25.701 38.1109 25.8863 38.0781 26.028 38.0781C26.1588 38.0781 26.3768 38.1766 26.5185 38.2969C26.6602 38.4281 26.7583 38.6469 26.7583 38.8438C26.7583 39.0187 26.682 39.3359 26.5839 39.5219C26.4858 39.7188 26.2024 40.1781 25.9517 40.5391C25.7119 40.9 25.2432 41.4688 24.9053 41.7969C24.5783 42.1359 23.9896 42.6172 23.5972 42.8906C23.2048 43.1531 22.5835 43.5031 22.2129 43.6781C21.8314 43.8422 21.1228 44.0938 20.6323 44.225C19.9238 44.4109 19.4333 44.4547 18.4195 44.4547C17.4712 44.4437 16.8717 44.3781 16.2395 44.2141C15.7599 44.0828 14.9968 43.8094 14.5499 43.5906C14.103 43.3719 13.4381 42.9891 13.0784 42.7375C12.7187 42.475 12.1518 41.9719 11.8248 41.6219C11.4978 41.2609 11.0182 40.6484 10.7566 40.2656C10.5059 39.8719 10.1462 39.1609 9.96086 38.6797C9.77555 38.1984 9.54665 37.4109 9.45944 36.9297C9.33954 36.3172 9.30684 35.6937 9.35044 34.8516C9.38314 34.1844 9.49214 33.3531 9.59025 32.9922C9.68835 32.6313 9.98266 31.8875 10.2334 31.3516C10.495 30.8047 10.9746 30.0172 11.3125 29.6016C11.6395 29.175 12.2281 28.5844 12.6096 28.2672C12.9912 27.9609 13.667 27.5125 14.1139 27.2719C14.5608 27.0312 15.1494 26.7578 15.4219 26.6594C15.6945 26.5609 16.2286 26.4078 16.621 26.3203C17.1115 26.2109 17.7655 26.1672 18.7466 26.2ZM19.7167 30.3125C19.8475 30.3016 20.0873 30.4219 20.2617 30.5531C20.5451 30.7828 20.5669 30.8484 20.5124 31.2969C20.4797 31.5703 20.4252 31.8984 20.3925 32.0297C20.338 32.2156 20.3707 32.2812 20.5233 32.2812C20.6214 32.2812 20.8503 32.3797 21.0356 32.5C21.2209 32.6203 21.4498 32.8609 21.548 33.025C21.6679 33.2 21.7442 33.5391 21.7442 33.8344C21.7442 34.2172 21.6788 34.425 21.5261 34.5781C21.3953 34.7094 21.1664 34.7969 20.9266 34.7969C20.665 34.7969 20.4688 34.7203 20.3271 34.5453C20.2072 34.4141 20.1091 34.2062 20.1091 34.0859C20.1091 33.9109 19.9674 33.8234 19.2916 33.6156C18.8447 33.4844 18.3868 33.375 18.2778 33.375C18.1688 33.375 18.0271 33.4406 17.9508 33.5063C17.8745 33.5828 17.82 33.7687 17.8091 33.9219C17.8091 34.075 17.8745 34.25 17.9508 34.3266C18.0271 34.4031 18.4631 34.5891 18.9101 34.7422C19.357 34.8953 19.8693 35.1578 20.0328 35.3219C20.2072 35.4859 20.4361 35.8031 20.556 36.0219C20.665 36.2516 20.7631 36.6562 20.7631 36.9297C20.7631 37.2031 20.6868 37.6078 20.5887 37.8266C20.5015 38.0563 20.3162 38.3625 20.1854 38.5047C20.0546 38.6469 19.7494 38.8547 19.5096 38.9641C19.2698 39.0734 18.8774 39.1719 18.6376 39.1719C18.2233 39.1719 18.1906 39.1828 18.0598 39.6313C17.9726 39.8938 17.7982 40.2109 17.6783 40.3531C17.5475 40.4844 17.3295 40.5938 17.1987 40.5938C17.057 40.5938 16.8499 40.5391 16.73 40.4844C16.6101 40.4188 16.4684 40.2547 16.403 40.1016C16.3267 39.9047 16.3376 39.675 16.621 38.7344L16.1305 38.5156C15.858 38.3953 15.5636 38.1875 15.4764 38.0453C15.3892 37.9141 15.2693 37.6516 15.2148 37.4766C15.1494 37.2687 15.1494 36.9953 15.2148 36.7328C15.2693 36.5141 15.411 36.2844 15.5309 36.2188C15.6509 36.1531 15.8907 36.1094 16.076 36.1094C16.3049 36.1094 16.4684 36.1969 16.621 36.4047C16.7518 36.5797 16.839 36.7875 16.839 36.875C16.839 36.9844 17.0897 37.1266 17.5693 37.2797C17.9835 37.4219 18.4304 37.5312 18.594 37.5312C18.7466 37.5312 18.921 37.4656 18.9973 37.3891C19.0736 37.3234 19.1281 37.1266 19.1281 36.9516C19.1281 36.7656 19.0409 36.6016 18.8883 36.5031C18.7466 36.4156 18.4195 36.2844 18.147 36.2188C17.8745 36.1531 17.4494 35.9672 17.1987 35.825C16.9262 35.6719 16.621 35.3656 16.4575 35.0922C16.2504 34.7531 16.1741 34.4688 16.1741 34.0312C16.1741 33.7031 16.2177 33.3094 16.2722 33.1562C16.3267 33.0031 16.512 32.7188 16.6864 32.5109C16.8608 32.3031 17.1987 32.0406 17.4385 31.9422C17.6783 31.8328 18.0707 31.7344 18.3105 31.7344C18.7357 31.7344 18.7466 31.7234 18.8883 31.2422C18.9537 30.9688 19.1281 30.6516 19.2589 30.5312C19.3897 30.4109 19.5968 30.3125 19.7167 30.3125ZM40.0241 32.3906C40.1658 32.3906 40.3947 32.5 40.5364 32.6313C40.689 32.7734 41.9425 35.3328 43.425 38.5156C44.8747 41.6109 46.052 44.2687 46.052 44.4219C46.052 44.575 45.943 44.8047 45.8013 44.9469C45.6705 45.0781 45.4416 45.1984 45.2889 45.1984C45.1363 45.1984 44.9074 45.1109 44.7766 45.0016C44.6567 44.8922 43.4359 42.4203 42.0624 39.5C40.6999 36.5797 39.49 33.9766 39.3809 33.7031C39.1956 33.2766 39.1847 33.1672 39.3155 32.8938C39.3918 32.7188 39.5336 32.5437 39.6208 32.4891C39.708 32.4344 39.8933 32.3906 40.0241 32.3906ZM36.3942 34.3594C36.5251 34.3484 36.7322 34.4359 36.8521 34.5453C36.9829 34.6547 38.28 37.2797 39.7298 40.375C41.3975 43.9188 42.3786 46.1391 42.3895 46.3687C42.4003 46.6422 42.324 46.7953 42.1278 46.9484C41.9752 47.0688 41.7463 47.1672 41.6046 47.1562C41.4738 47.1562 41.2449 47.0469 41.1032 46.9047C40.9506 46.7734 39.6971 44.2141 38.2146 41.0312C36.7649 37.9359 35.5767 35.2672 35.5767 35.1031C35.5658 34.9062 35.6639 34.7422 35.871 34.5891C36.0345 34.4578 36.2634 34.3594 36.3942 34.3594Z" fill="#384FAE" stroke="#384FAE" stroke-width="0.5"/>
</svg>
