<svg width="56" height="40" viewBox="0 0 56 40" fill="none" xmlns="http://www.w3.org/2000/svg">
<path fill-rule="evenodd" clip-rule="evenodd" d="M38.1458 0.00107079C38.6381 -0.0116718 39.2507 0.0902688 39.7758 0.255922C40.2463 0.39609 40.9683 0.727397 41.395 0.982249C41.9201 1.30081 42.4562 1.78503 43.0907 2.53684C43.7908 3.33962 44.1409 3.87481 44.4801 4.63937C44.7317 5.20004 45.038 6.1175 45.1693 6.67818C45.2896 7.23885 45.4319 8.29648 45.4647 9.03555C45.4975 9.80011 45.4756 10.7558 45.399 11.2655C45.3334 11.7625 45.2568 12.2722 45.2131 12.4123C45.1584 12.6544 45.224 12.6672 47.2698 12.7309C49.239 12.7946 49.425 12.8201 49.9829 13.1259C50.3111 13.3043 50.8035 13.6738 51.0551 13.9542C51.3286 14.2345 51.6787 14.8079 52.2257 16.1077L52.2804 25.8557H53.451C54.3918 25.8557 54.7091 25.9067 55.0154 26.0979C55.2233 26.2253 55.5296 26.5566 56 27.3211L55.9453 38.5601L55.639 39.0188C55.4749 39.2737 55.1467 39.605 54.906 39.7451C54.4684 40 54.2496 40 27.9933 40C1.73711 40 1.5183 40 1.0807 39.7451C0.840018 39.605 0.511815 39.2737 0.0413907 38.5601L0.00857043 23.8934C-0.0133098 11.0107 -0.00236967 9.16298 0.150792 8.6915C0.249253 8.34745 0.468055 8.01615 1.11352 7.44273L12.5022 7.36628C23.8142 7.30256 23.9017 7.28982 24.9848 7.00948C25.5865 6.85657 26.5274 6.52527 27.0634 6.28316C27.5995 6.04105 28.4419 5.56957 28.9233 5.25101C29.4046 4.93245 30.4658 4.14241 31.2754 3.49254C32.0849 2.84266 33.2008 2.0144 33.7369 1.6576C34.273 1.30081 35.0606 0.867566 35.4873 0.68917C35.914 0.510774 36.4938 0.281407 36.8001 0.192209C37.0955 0.103011 37.7082 0.0138134 38.1348 0.00107079H38.1458ZM36.4282 2.58781C36.1 2.71524 35.4545 3.04655 35.0059 3.33962C34.5574 3.61996 33.2993 4.53743 32.2162 5.39118C31.1332 6.23219 29.7547 7.21337 29.153 7.57016C28.5513 7.92695 27.6433 8.37294 27.1291 8.57682C26.6149 8.76796 25.7287 9.0483 25.1599 9.20121C24.1534 9.45606 23.7705 9.4688 12.9835 9.50703L1.85745 9.54526V25.8557L4.64717 25.792C4.73469 24.4668 4.82221 24.1482 4.97538 23.9571C5.12124 23.7702 5.32181 23.681 5.57708 23.6895C5.78494 23.6895 6.03657 23.766 6.13503 23.8552C6.23349 23.9444 6.36477 24.1355 6.43041 24.2884C6.50699 24.4541 6.56169 24.8618 6.56169 25.2186V25.8557H8.42151C8.42151 24.4541 8.46527 24.2757 8.69501 24.0081C8.85911 23.8042 9.07791 23.6895 9.29671 23.6895C9.47176 23.6895 9.7015 23.7277 9.79996 23.7787C9.89842 23.8424 10.0516 24.0336 10.1282 24.2247C10.2157 24.4286 10.2813 24.8618 10.2813 25.2186V25.8557H12.2505C12.5131 24.9128 12.7538 24.3776 12.9616 24.0336C13.1695 23.7022 13.6071 23.2308 13.9134 22.9887C14.2307 22.7466 14.7339 22.4535 15.0403 22.3515C15.3356 22.2496 15.8498 22.1604 16.1562 22.1604C16.4734 22.1604 18.377 22.479 20.3681 22.8612C23.2891 23.4347 24.0768 23.6258 24.3612 23.8552C24.5582 24.0081 24.8098 24.3394 24.9301 24.5815C25.0505 24.8236 25.1489 25.1804 25.1599 25.3715C25.1599 25.5754 25.1927 25.7283 25.2364 25.7283C25.2911 25.7283 25.5975 25.6391 25.9257 25.5244C26.2539 25.4098 26.7681 25.1676 27.0744 24.9893C27.3698 24.8236 27.8949 24.4286 28.2231 24.1355C28.5513 23.8424 29.0764 23.2563 29.3827 22.8485C29.6891 22.4407 30.1376 21.7526 30.3783 21.3321C30.619 20.9116 31.0456 20.0451 31.3191 19.4207C31.5926 18.7964 31.9646 17.8407 32.1396 17.3182C32.3147 16.7958 32.6429 15.6999 32.8617 14.8971C33.0805 14.0944 33.3868 12.7436 33.529 11.9026C33.715 10.896 33.9448 10.0422 34.2073 9.41783C34.4589 8.81893 34.8309 8.19454 35.2138 7.74855C35.5639 7.34079 36.089 6.88206 36.4282 6.69092C36.7564 6.51252 37.3471 6.32139 37.741 6.25767C38.1348 6.19396 38.7256 6.18122 39.0538 6.23219C39.5023 6.30864 39.7211 6.41058 39.9071 6.66543C40.0384 6.84383 40.1478 7.11142 40.1478 7.25159C40.1478 7.39176 40.0931 7.63387 40.0384 7.78678C39.9728 7.95243 39.8196 8.14357 39.6774 8.23277C39.5461 8.32197 38.9881 8.39843 38.4302 8.42391C37.5222 8.46214 37.3909 8.50036 36.9642 8.84441C36.7126 9.06104 36.3297 9.50703 36.1328 9.86382C35.9249 10.2079 35.6842 10.7813 35.6077 11.1381C35.5201 11.4821 35.4217 11.9918 35.3889 12.2467L35.3342 12.7309L43.2548 12.6672C43.4845 11.6733 43.572 10.845 43.6158 10.1824C43.6596 9.30315 43.6267 8.67876 43.4955 7.88872C43.397 7.28982 43.1454 6.39784 42.9485 5.91362C42.7406 5.42941 42.3358 4.71582 42.0404 4.33354C41.756 3.95127 41.2199 3.41608 40.8589 3.14849C40.4979 2.86815 39.9509 2.57507 39.6555 2.47313C39.3492 2.38393 38.9116 2.28199 38.6709 2.25651C38.4302 2.23102 37.9598 2.24376 37.6316 2.28199C37.3034 2.33296 36.7564 2.47313 36.4282 2.58781ZM34.3605 16.5154C34.0979 17.4202 33.5947 18.8601 33.2337 19.7393C32.8836 20.6185 32.2819 21.8801 31.899 22.5427C31.5161 23.2053 30.8487 24.1992 30.4002 24.7344C29.9516 25.2823 29.6125 25.7538 29.6453 25.792C29.6781 25.8303 34.3605 25.8557 40.0712 25.8557H50.4315C50.4315 17.1526 50.4096 16.6938 50.2236 16.2351C50.1142 15.9548 49.9282 15.6235 49.8188 15.5088C49.7094 15.3814 49.4141 15.203 49.1734 15.101C48.8124 14.9354 47.6089 14.9099 41.7888 14.8971H34.8309L34.3605 16.5154ZM14.4933 25.2823C14.362 25.4862 14.1979 25.8557 14.1213 26.1106C14.0557 26.3527 14.001 26.7477 14.001 27.0026C14.001 27.2447 14.0994 27.6779 14.2088 27.9583C14.3073 28.2259 14.5917 28.6464 14.8324 28.8757C15.0731 29.1051 15.4779 29.3345 15.7514 29.4109C16.1562 29.5129 16.8126 29.4237 19.5257 28.9012C21.3308 28.5572 22.9171 28.2386 23.0594 28.2131C23.2891 28.1494 23.3 28.0857 23.3 26.9006V25.6646C18.005 24.6197 16.2874 24.3139 16.0796 24.3139C15.8717 24.3139 15.4779 24.4541 15.2153 24.607C14.9527 24.7599 14.6245 25.0657 14.4933 25.2823ZM1.91215 37.7701H54.0964L54.1074 28.022L25.2146 28.0092C25.0942 28.8503 24.9411 29.2708 24.7988 29.4874C24.6566 29.6913 24.3722 29.9589 24.1643 30.0735C23.9674 30.1882 22.0966 30.6087 20.018 31.0037C16.5828 31.6664 16.189 31.7173 15.5873 31.5899C15.2262 31.5134 14.6902 31.3223 14.3839 31.1439C14.0885 30.9783 13.5962 30.5323 13.2899 30.1627C12.9835 29.7932 12.6225 29.1561 12.4693 28.7483L12.1958 28.0092L10.2813 28.022C10.2813 29.3217 10.2376 29.4746 9.96406 29.8059C9.76714 30.0353 9.52646 30.1882 9.36236 30.1882C9.20919 30.1882 8.93569 30.0353 8.74971 29.8697C8.45433 29.5766 8.42151 29.4746 8.42151 28.7865V28.022H6.56169C6.56169 28.9522 6.49605 29.3727 6.41947 29.5511C6.34289 29.7167 6.13503 29.9461 5.95998 30.0353C5.78494 30.1372 5.52238 30.1755 5.3911 30.1372C5.24888 30.0863 5.04102 29.9461 4.92068 29.8059C4.75657 29.6021 4.70187 29.3727 4.70187 28.7865V28.022H1.85745L1.91215 37.7701ZM36.5923 17.1398C36.7126 17.1781 36.9205 17.331 37.0627 17.4839C37.2268 17.675 37.3034 17.9044 37.3034 18.2102C37.3034 18.4905 37.2049 18.7581 37.0517 18.9365C36.8986 19.1277 36.6798 19.2296 36.45 19.2296C36.2641 19.2296 36.0124 19.1786 35.903 19.1149C35.8046 19.0512 35.6514 18.8091 35.5639 18.567C35.4436 18.2102 35.4436 18.0828 35.5639 17.7642C35.6514 17.5603 35.8593 17.3182 36.0453 17.229C36.2203 17.1398 36.4719 17.1016 36.5923 17.1398ZM40.3119 17.1398C40.4322 17.1781 40.6401 17.331 40.7823 17.4839C40.9464 17.675 41.023 17.9044 41.023 18.2102C41.023 18.4905 40.9245 18.7581 40.7714 18.9365C40.6073 19.1404 40.4104 19.2296 40.1478 19.2169C39.9399 19.2169 39.6774 19.1404 39.5789 19.064C39.4804 18.9748 39.3492 18.7454 39.2835 18.5543C39.196 18.2867 39.196 18.0955 39.2945 17.8024C39.382 17.5476 39.568 17.331 39.7649 17.229C39.9399 17.1398 40.1916 17.1016 40.3119 17.1398ZM43.8346 17.0634C43.8565 17.0634 44.0315 17.1271 44.2175 17.229C44.4473 17.331 44.6223 17.5348 44.7098 17.8024C44.7973 18.0573 44.8192 18.3121 44.7536 18.4905C44.7098 18.6434 44.5785 18.8728 44.4801 19.0002C44.3597 19.1404 44.13 19.2169 43.8893 19.2169C43.6158 19.2169 43.397 19.1277 43.2329 18.9365C43.0652 18.7411 42.9813 18.499 42.9813 18.2102C42.9813 17.9044 43.0688 17.675 43.2329 17.4839C43.3751 17.3437 43.5611 17.1908 43.6486 17.1526C43.7361 17.1143 43.8237 17.0761 43.8346 17.0634ZM47.5542 17.0634C47.5761 17.0634 47.7512 17.1271 47.9371 17.229C48.145 17.3182 48.3638 17.5603 48.4513 17.7642C48.5717 18.0828 48.5717 18.2102 48.4513 18.567C48.3638 18.8091 48.2106 19.0512 48.1012 19.1149C48.0028 19.1786 47.7512 19.2169 47.5542 19.2169C47.3354 19.2169 47.1057 19.1022 46.9525 18.9365C46.7848 18.7411 46.7009 18.499 46.7009 18.2102C46.7009 17.9044 46.7884 17.675 46.9525 17.4839C47.0948 17.3437 47.2807 17.1908 47.3683 17.1526C47.4558 17.1143 47.5433 17.0761 47.5542 17.0634ZM36.3953 21.5233C36.6725 21.5233 36.8949 21.6167 37.0627 21.8036C37.2231 21.999 37.3034 22.2453 37.3034 22.5427C37.3034 22.8358 37.2268 23.0651 37.0627 23.2563C36.9205 23.3964 36.7235 23.5493 36.6141 23.6003C36.5157 23.6513 36.275 23.6258 36.1 23.5621C35.903 23.4729 35.7061 23.269 35.5967 23.0142C35.4983 22.7848 35.4545 22.4662 35.4873 22.3133C35.5201 22.1604 35.6514 21.9183 35.7718 21.7781C35.914 21.5997 36.1328 21.5233 36.3953 21.5233ZM40.1369 21.5233C40.3885 21.5233 40.6182 21.6252 40.7823 21.8036C40.9464 21.9947 41.023 22.2369 41.023 22.5427C41.023 22.7848 40.9574 23.0779 40.8808 23.1925C40.8042 23.3072 40.6182 23.4729 40.4432 23.5493C40.2244 23.6513 40.0603 23.6385 39.7977 23.5239C39.568 23.4219 39.4039 23.218 39.3054 22.9504C39.2288 22.7211 39.196 22.4407 39.2288 22.3133C39.2726 22.1859 39.4039 21.9565 39.5242 21.8036C39.6774 21.6125 39.8633 21.5233 40.1369 21.5233ZM43.8565 21.5105C44.13 21.5105 44.316 21.5997 44.4801 21.8036C44.6004 21.9565 44.7426 22.1859 44.7755 22.3133C44.8192 22.4407 44.7864 22.7211 44.7098 22.9504C44.6114 23.218 44.4363 23.4219 44.2175 23.5239C43.955 23.6385 43.7908 23.6513 43.5611 23.5493C43.397 23.4729 43.2001 23.3072 43.1344 23.1925C43.0579 23.0779 42.9922 22.7848 42.9703 22.5427C42.9594 22.2241 43.025 22.0202 43.211 21.8164C43.3751 21.6125 43.5939 21.5105 43.8565 21.5105ZM47.5542 21.5233C47.7512 21.5233 48.0028 21.5615 48.1012 21.6252C48.2106 21.6889 48.3638 21.9056 48.4513 22.1094C48.5717 22.4153 48.5717 22.5427 48.4513 22.9122C48.3492 23.201 48.1778 23.4007 47.9371 23.5111C47.7512 23.6131 47.4995 23.6513 47.3901 23.6003C47.2917 23.5493 47.0948 23.3964 46.9525 23.2563C46.7994 23.0779 46.7009 22.8103 46.69 22.5427C46.679 22.2369 46.7447 22.0202 46.9307 21.8164C47.0948 21.6252 47.3136 21.5233 47.5542 21.5233ZM16.8126 25.8557C17.0532 25.8557 17.2611 25.9577 17.4471 26.1743C17.6112 26.3654 17.7206 26.633 17.7206 26.8752C17.7206 27.13 17.6112 27.3849 17.3924 27.6397C17.1189 27.9455 16.9985 28.0092 16.7032 27.9583C16.5172 27.92 16.2437 27.7416 16.1015 27.576C15.9702 27.3976 15.8608 27.1427 15.8608 27.0026C15.8608 26.8497 15.9374 26.5693 16.0249 26.3654C16.1124 26.1616 16.2546 25.9704 16.3203 25.9322C16.3968 25.894 16.6266 25.8685 16.8126 25.8557Z" fill="#384FAE"/>
</svg>
