<svg width="101" height="101" viewBox="0 0 101 101" fill="none" xmlns="http://www.w3.org/2000/svg">
<rect x="0.5" y="0.5" width="100" height="100" rx="20" fill="#384FAE"/>
<path fill-rule="evenodd" clip-rule="evenodd" d="M37.8645 34.9352C38.1417 34.9256 38.4857 34.9829 38.6386 35.0594C38.782 35.1263 38.9253 35.2601 38.9731 35.3461C39.0113 35.4321 39.04 35.6424 39.04 35.8144C39.04 36.0151 38.9731 36.1871 38.8298 36.3209C38.6577 36.4833 38.4475 36.5407 37.8932 36.5789C37.3007 36.6267 37.1382 36.6745 36.9758 36.8561C36.8611 36.9803 34.8924 40.0575 32.5988 43.6986C30.3052 47.3301 28.4321 50.3309 28.4321 50.3596C28.4321 50.3883 38.3615 50.4074 50.508 50.4074C62.6545 50.4074 72.5839 50.3883 72.5839 50.3596C72.5839 50.3309 70.7108 47.3301 68.4172 43.6986C66.1236 40.0575 64.1549 36.9803 64.0402 36.8561C63.8778 36.6745 63.7153 36.6267 63.1228 36.5789C62.5685 36.5407 62.3582 36.4833 62.1862 36.3209C62.0333 36.1775 61.976 36.0151 61.976 35.7666C61.976 35.5372 62.0429 35.3365 62.1671 35.2123C62.2722 35.1072 62.4729 34.9925 62.6258 34.9638C62.7692 34.9256 63.161 34.9256 63.505 34.9638C63.8491 34.9925 64.2982 35.1072 64.5085 35.2028C64.7187 35.2983 65.0246 35.5277 65.1966 35.6997C65.359 35.8813 67.4997 39.1879 69.9367 43.0488C72.3736 46.9097 74.457 50.2449 74.5621 50.4552C74.6672 50.6654 74.801 51.0286 74.8679 51.2675C74.9539 51.5829 74.973 53.0259 74.9539 56.7148C74.9252 61.646 74.9252 61.7416 74.715 62.1143C74.6003 62.3245 74.371 62.6303 74.1894 62.7928C74.0174 62.9648 73.6924 63.1846 73.0617 63.5H27.9543L27.5051 63.2706C27.2471 63.1464 26.9126 62.8979 26.7406 62.7164C26.5781 62.5443 26.3488 62.2099 26.2437 61.9709C26.0525 61.56 26.043 61.3593 26.043 56.6192C26.043 52.8157 26.0716 51.5924 26.1768 51.2197C26.2437 50.9521 26.3775 50.589 26.473 50.4074C26.5686 50.2258 28.6424 46.9097 31.0793 43.0488C33.5258 39.1879 35.657 35.8813 35.8194 35.7093C35.9914 35.5277 36.2399 35.327 36.3833 35.2505C36.5362 35.1741 36.8133 35.0785 37.0044 35.0307C37.2051 34.9829 37.597 34.9447 37.8645 34.9352ZM27.6676 53.7522H32.0637C32.4555 54.144 32.5415 54.3352 32.5415 54.5359C32.5415 54.7557 32.465 54.9277 32.293 55.0901L32.0445 55.3291L27.6676 55.3768V61.302L28.241 61.8754H72.7941L73.3484 61.302V55.3768L35.4849 55.3291C35.1218 54.9181 35.0262 54.6792 35.0262 54.5167C35.0262 54.3447 35.1122 54.1345 35.2651 53.9911L35.4945 53.7522H73.3484V52.1276H27.6676V53.7522ZM39.8714 38.2704C40.0435 38.2704 40.2728 38.3087 40.3779 38.366C40.4831 38.4233 40.6073 38.5858 40.6646 38.7483C40.7284 38.9394 40.7284 39.1305 40.6646 39.3217C40.6073 39.4746 40.4831 39.6466 40.3779 39.7039C40.2728 39.7613 40.0435 39.7995 39.8714 39.7995C39.6899 39.7995 39.4796 39.7135 39.3458 39.5797C39.212 39.4555 39.126 39.2452 39.1165 39.0445C39.1069 38.8056 39.1643 38.6527 39.3267 38.4902C39.4701 38.3469 39.6612 38.2704 39.8714 38.2704ZM61.1159 38.2704C61.3357 38.2704 61.5268 38.3469 61.6702 38.4902C61.8135 38.6336 61.8804 38.8056 61.8804 39.035C61.8804 39.2452 61.7944 39.4459 61.6606 39.5893C61.5268 39.723 61.3357 39.7995 61.135 39.7995C60.9725 39.7995 60.7432 39.7613 60.638 39.7039C60.5329 39.6466 60.3991 39.4746 60.3513 39.3217C60.2845 39.1305 60.2845 38.949 60.3513 38.7674C60.4087 38.624 60.5234 38.452 60.6189 38.3851C60.7049 38.3278 60.9247 38.2704 61.1159 38.2704ZM38.2468 42.2938C38.3137 42.2842 38.4762 42.3225 38.61 42.3798C38.7438 42.4276 38.9062 42.6187 38.9827 42.7812C39.0496 42.9532 39.0782 43.2017 39.0496 43.3259C39.0209 43.4501 38.8871 43.6413 38.7533 43.7368C38.6195 43.8324 38.4093 43.9184 38.2755 43.9184C38.1417 43.9184 37.9314 43.8324 37.7977 43.7368C37.6639 43.6413 37.5301 43.4501 37.5014 43.3259C37.4632 43.2017 37.511 42.9628 37.5874 42.7812C37.6639 42.6092 37.8263 42.4371 37.9314 42.3798C38.0461 42.332 38.1895 42.2938 38.2468 42.2938ZM46.4655 42.2842C46.5898 42.2842 46.8096 42.418 46.972 42.5709C47.1249 42.7238 47.2587 42.9436 47.2587 43.0488C47.2587 43.1539 47.211 43.3355 47.1441 43.4501C47.0867 43.5744 46.972 43.7177 46.886 43.7846C46.8 43.8515 46.5898 43.9089 46.4177 43.9089C46.2139 43.9089 46.0323 43.8292 45.873 43.6699C45.7137 43.5107 45.6341 43.3259 45.6341 43.1157C45.6341 42.9532 45.6914 42.743 45.7583 42.6569C45.8252 42.5805 45.959 42.4563 46.0642 42.3989C46.1693 42.3416 46.3509 42.2842 46.4655 42.2842ZM54.5122 42.2842C54.6269 42.2842 54.8085 42.332 54.9232 42.3989C55.0474 42.4563 55.1908 42.5709 55.2577 42.6569C55.3246 42.743 55.3819 42.9532 55.3819 43.1157C55.3819 43.3259 55.3054 43.517 55.143 43.6699C54.9901 43.8324 54.8085 43.9089 54.5982 43.9089C54.4262 43.9089 54.216 43.8515 54.13 43.7846C54.044 43.7177 53.9293 43.5744 53.8719 43.4501C53.805 43.3355 53.7573 43.1539 53.7668 43.0392C53.7668 42.9341 53.8911 42.7143 54.044 42.5614C54.1969 42.4085 54.4071 42.2842 54.5122 42.2842ZM62.7118 42.2938C62.7787 42.2842 62.9412 42.3225 63.075 42.3798C63.2088 42.4276 63.3713 42.6187 63.4477 42.7812C63.5146 42.9532 63.5433 43.2017 63.5146 43.3259C63.4859 43.4501 63.3521 43.6413 63.2183 43.7368C63.0845 43.8324 62.8743 43.9184 62.7405 43.9184C62.6067 43.9184 62.3965 43.8324 62.2627 43.7368C62.1289 43.6413 61.9951 43.4501 61.9664 43.3259C61.9282 43.2017 61.976 42.9628 62.0524 42.7812C62.1289 42.6092 62.2913 42.4371 62.3965 42.3798C62.5112 42.332 62.6545 42.2938 62.7118 42.2938ZM36.6509 46.3936C36.7846 46.384 37.0044 46.47 37.1478 46.5847C37.3676 46.7376 37.4154 46.8523 37.4154 47.1581C37.4154 47.413 37.3517 47.6041 37.2243 47.7315C37.1191 47.8366 36.9376 47.9513 36.8133 47.98C36.6986 48.0087 36.4884 47.98 36.3355 47.9322C36.1826 47.8653 36.0201 47.6933 35.9341 47.4926C35.829 47.2441 35.8194 47.0912 35.8863 46.9192C35.9341 46.7854 36.0775 46.6134 36.1921 46.5369C36.3164 46.4605 36.5171 46.3936 36.6509 46.3936ZM45.5959 46.3936C45.8157 46.3936 45.9973 46.47 46.1597 46.6325C46.3126 46.7854 46.3986 46.9765 46.3986 47.1581C46.3986 47.311 46.37 47.5117 46.3222 47.5977C46.284 47.6837 46.1406 47.8175 45.9877 47.8844C45.8444 47.9609 45.6437 48.0182 45.5385 48.0182C45.4334 48.0182 45.2423 47.9227 45.1085 47.7984C44.9747 47.6837 44.8409 47.4544 44.8122 47.3015C44.7644 47.0817 44.8122 46.9479 45.0129 46.6994C45.2136 46.4605 45.3379 46.3936 45.5959 46.3936ZM55.4297 46.3936C55.6973 46.3936 55.8119 46.4605 56.0126 46.6994C56.2038 46.9479 56.2515 47.0817 56.2038 47.3015C56.1751 47.4544 56.0413 47.6837 55.9075 47.7984C55.7737 47.9227 55.5826 48.0182 55.4775 48.0182C55.3723 48.0182 55.1716 47.9609 55.0187 47.8844C54.8754 47.8175 54.732 47.6837 54.6843 47.5977C54.646 47.5117 54.6174 47.311 54.6174 47.1581C54.6269 46.9765 54.7225 46.7663 54.8563 46.6325C55.0187 46.47 55.1908 46.3936 55.4297 46.3936ZM64.3556 46.3936C64.4894 46.3936 64.6996 46.4605 64.8143 46.5369C64.9385 46.6134 65.0723 46.7854 65.1297 46.9192C65.1966 47.0912 65.187 47.2441 65.0819 47.4926C64.9959 47.6933 64.8334 47.8653 64.671 47.9227C64.5276 47.98 64.2982 47.9991 64.1453 47.9704C64.002 47.9418 63.8204 47.8271 63.744 47.7029C63.6675 47.5882 63.5911 47.3301 63.5911 47.139C63.5815 46.8619 63.6388 46.7472 63.8491 46.5943C63.9924 46.4796 64.2218 46.3936 64.3556 46.3936Z" fill="white"/>
<path fill-rule="evenodd" clip-rule="evenodd" d="M41.1903 28.77C41.1903 23.652 45.3423 19.5 50.4602 19.5C55.5782 19.5 59.7302 23.652 59.7302 28.77C59.7302 33.8879 55.5782 38.0399 50.4602 38.0399C45.3423 38.0399 41.1903 33.8879 41.1903 28.77ZM50.4602 21.1246C46.2395 21.1246 42.8149 24.5493 42.8149 28.77C42.8149 32.9906 46.2395 36.4153 50.4602 36.4153C54.6809 36.4153 58.1055 32.9906 58.1055 28.77C58.1055 24.5493 54.6809 21.1246 50.4602 21.1246ZM55.2115 24.6239C55.555 24.9125 55.5996 25.4249 55.311 25.7684L49.3907 32.8164C49.2395 32.9965 49.0176 33.1021 48.7826 33.1062C48.5475 33.1102 48.3222 33.0121 48.1649 32.8374L45.6276 30.0182C45.3275 29.6847 45.3545 29.1711 45.688 28.871C46.0215 28.5708 46.5351 28.5979 46.8352 28.9313L48.7475 31.0562L54.067 24.7235C54.3556 24.3799 54.868 24.3354 55.2115 24.6239Z" fill="white"/>
<path d="M37.474 81.612C37.1847 81.612 36.9607 81.5327 36.802 81.374C36.6527 81.206 36.578 80.9773 36.578 80.688V72.54C36.578 72.2413 36.6573 72.0173 36.816 71.868C36.9747 71.7093 37.1987 71.63 37.488 71.63H40.862C41.9447 71.63 42.78 71.9007 43.368 72.442C43.956 72.9833 44.25 73.7393 44.25 74.71C44.25 75.6807 43.956 76.4413 43.368 76.992C42.78 77.5333 41.9447 77.804 40.862 77.804H38.37V80.688C38.37 80.9773 38.2953 81.206 38.146 81.374C37.9967 81.5327 37.7727 81.612 37.474 81.612ZM38.37 76.39H40.582C41.2167 76.39 41.6973 76.25 42.024 75.97C42.3507 75.6807 42.514 75.2607 42.514 74.71C42.514 74.1593 42.3507 73.744 42.024 73.464C41.6973 73.184 41.2167 73.044 40.582 73.044H38.37V76.39ZM46.3021 81.612C46.0128 81.612 45.7888 81.5373 45.6301 81.388C45.4808 81.2293 45.4061 81.0053 45.4061 80.716V75.424C45.4061 75.1347 45.4808 74.9153 45.6301 74.766C45.7794 74.6167 45.9894 74.542 46.2601 74.542C46.5308 74.542 46.7408 74.6167 46.8901 74.766C47.0394 74.9153 47.1141 75.1347 47.1141 75.424V76.306H46.9741C47.1048 75.746 47.3614 75.3213 47.7441 75.032C48.1268 74.7427 48.6354 74.57 49.2701 74.514C49.4661 74.4953 49.6201 74.5467 49.7321 74.668C49.8534 74.78 49.9234 74.9573 49.9421 75.2C49.9608 75.4333 49.9048 75.6247 49.7741 75.774C49.6528 75.914 49.4661 75.998 49.2141 76.026L48.9061 76.054C48.3368 76.11 47.9074 76.2873 47.6181 76.586C47.3288 76.8753 47.1841 77.286 47.1841 77.818V80.716C47.1841 81.0053 47.1094 81.2293 46.9601 81.388C46.8108 81.5373 46.5914 81.612 46.3021 81.612ZM53.9011 81.64C53.1918 81.64 52.5758 81.4953 52.0531 81.206C51.5305 80.9167 51.1245 80.506 50.8351 79.974C50.5458 79.4327 50.4011 78.798 50.4011 78.07C50.4011 77.5193 50.4805 77.0293 50.6391 76.6C50.8071 76.1613 51.0451 75.788 51.3531 75.48C51.6611 75.1627 52.0298 74.9247 52.4591 74.766C52.8885 74.598 53.3691 74.514 53.9011 74.514C54.6105 74.514 55.2265 74.6587 55.7491 74.948C56.2718 75.2373 56.6778 75.648 56.9671 76.18C57.2565 76.712 57.4011 77.342 57.4011 78.07C57.4011 78.6207 57.3171 79.1153 57.1491 79.554C56.9905 79.9927 56.7571 80.3707 56.4491 80.688C56.1411 80.996 55.7725 81.234 55.3431 81.402C54.9138 81.5607 54.4331 81.64 53.9011 81.64ZM53.9011 80.31C54.2465 80.31 54.5498 80.226 54.8111 80.058C55.0725 79.89 55.2731 79.6427 55.4131 79.316C55.5625 78.98 55.6371 78.5647 55.6371 78.07C55.6371 77.3233 55.4785 76.768 55.1611 76.404C54.8438 76.0307 54.4238 75.844 53.9011 75.844C53.5558 75.844 53.2525 75.928 52.9911 76.096C52.7298 76.2547 52.5245 76.502 52.3751 76.838C52.2351 77.1647 52.1651 77.5753 52.1651 78.07C52.1651 78.8073 52.3238 79.3673 52.6411 79.75C52.9585 80.1233 53.3785 80.31 53.9011 80.31ZM61.3515 81.64C60.9502 81.64 60.5255 81.598 60.0775 81.514C59.6295 81.43 59.2282 81.2853 58.8735 81.08C58.7242 80.9867 58.6169 80.8793 58.5515 80.758C58.4955 80.6273 58.4722 80.5013 58.4815 80.38C58.5002 80.2493 58.5469 80.1373 58.6215 80.044C58.7055 79.9507 58.8082 79.89 58.9295 79.862C59.0602 79.834 59.2002 79.8573 59.3495 79.932C59.7229 80.1093 60.0729 80.2353 60.3995 80.31C60.7262 80.3753 61.0482 80.408 61.3655 80.408C61.8135 80.408 62.1449 80.3333 62.3595 80.184C62.5835 80.0253 62.6955 79.82 62.6955 79.568C62.6955 79.3533 62.6209 79.19 62.4715 79.078C62.3315 78.9567 62.1169 78.868 61.8275 78.812L60.4275 78.546C59.8489 78.434 59.4055 78.224 59.0975 77.916C58.7989 77.5987 58.6495 77.1927 58.6495 76.698C58.6495 76.25 58.7709 75.8627 59.0135 75.536C59.2655 75.2093 59.6109 74.9573 60.0495 74.78C60.4882 74.6027 60.9922 74.514 61.5615 74.514C61.9722 74.514 62.3549 74.5607 62.7095 74.654C63.0735 74.738 63.4235 74.8733 63.7595 75.06C63.8995 75.1347 63.9929 75.2327 64.0395 75.354C64.0955 75.4753 64.1095 75.6013 64.0815 75.732C64.0535 75.8533 63.9975 75.9653 63.9135 76.068C63.8295 76.1613 63.7222 76.222 63.5915 76.25C63.4702 76.2687 63.3302 76.2407 63.1715 76.166C62.8822 76.0167 62.6022 75.9093 62.3315 75.844C62.0702 75.7787 61.8182 75.746 61.5755 75.746C61.1182 75.746 60.7775 75.8253 60.5535 75.984C60.3389 76.1427 60.2315 76.3527 60.2315 76.614C60.2315 76.81 60.2969 76.9733 60.4275 77.104C60.5582 77.2347 60.7589 77.3233 61.0295 77.37L62.4295 77.636C63.0362 77.748 63.4935 77.9533 63.8015 78.252C64.1189 78.5507 64.2775 78.952 64.2775 79.456C64.2775 80.1373 64.0115 80.674 63.4795 81.066C62.9475 81.4487 62.2382 81.64 61.3515 81.64Z" fill="white"/>
</svg>
