<svg width="156" height="43" viewBox="0 0 156 43" fill="none" xmlns="http://www.w3.org/2000/svg">
<path fill-rule="evenodd" clip-rule="evenodd" d="M79.483 8.20549C81.6138 8.20549 82.3082 8.51615 82.3082 9.39993V14.4361C82.3082 15.1636 81.6138 15.6836 80.8674 15.5801C80.8674 15.5273 79.1358 15.3707 78.3286 15.3707C74.006 15.3707 71.012 18.3835 71.012 22.6945V33.1835C71.012 33.7035 70.5472 34.1708 69.9136 34.1708H63.2306C62.6534 34.1708 62.1326 33.7035 62.1326 33.1835V9.19082C62.1326 8.61999 62.6534 8.20549 63.2306 8.20549H69.224C69.8576 8.20549 70.3172 8.61999 70.3172 9.19082V12.878H70.3784C72.2228 9.60732 75.1043 8.20549 79.483 8.20549ZM57.6365 8.20549C58.2137 8.20549 58.6737 8.61999 58.6737 9.19082V33.1835C58.6737 33.7566 58.2137 34.1708 57.6365 34.1708H51.5306C50.9534 34.1708 50.4887 33.7566 50.4887 33.1835V30.6545H50.3762C49.3954 32.8873 45.8803 34.7947 41.6704 34.7947C37.758 34.7947 34.5894 33.2505 33.0552 30.7002C32.6427 30.0141 32.6224 29.195 32.9871 28.487C34.1656 26.1977 34.7896 23.6762 34.7896 21.0836C34.7896 17.5816 33.6327 14.2159 31.4931 11.3914C31.1817 10.9803 31.0077 10.4974 31.0077 9.99986V9.14005C31.0077 8.62399 31.4719 8.20549 32.0446 8.20549H38.85C39.4224 8.20549 39.8868 8.61999 39.8868 9.19082V23.4728C39.8868 25.9147 42.074 27.9381 44.8431 27.9381C47.6071 27.9381 49.799 25.9147 49.799 23.4728V9.19082C49.799 8.61999 50.3198 8.20549 50.8926 8.20549H57.6365ZM122.655 0C123.228 0 123.692 0.416499 123.692 0.934556V33.8072C123.692 34.3803 123.228 34.7945 122.655 34.7945H115.85C115.278 34.7945 114.813 34.3803 114.813 33.8072V32.9268C114.813 32.4133 114.989 31.9098 115.328 31.497C117.782 28.5139 119.116 24.8744 119.116 21.0837C119.116 17.3286 117.785 13.7308 115.338 10.7882C114.993 10.3728 114.813 9.86504 114.813 9.34641V0.934556C114.813 0.416499 115.278 0 115.85 0H122.655ZM1.09579 43C0.461252 43 0 42.5846 0 42.0652V9.19168C0 8.62056 0.461252 8.20492 1.09579 8.20492H7.09365C7.72787 8.20492 8.18944 8.62056 8.18944 9.19168V11.8402H8.30475C10.6693 9.03592 13.841 7.58188 17.532 7.58188C25.1446 7.58188 31.373 13.6579 31.373 21.0844C31.373 28.5626 25.0869 34.7947 17.532 34.7947C13.8987 34.7947 10.5537 33.3404 8.99663 31.0553H8.88132V42.0652C8.88132 42.5846 8.36241 43 7.78553 43H1.09579ZM15.3981 27.9396C19.493 27.9396 22.607 25.0312 22.607 21.1883C22.607 17.397 19.493 14.437 15.3981 14.437C11.3035 14.437 8.18944 17.397 8.18944 21.1883C8.18944 24.9793 11.3035 27.9396 15.3981 27.9396ZM85.413 43C84.7784 43 84.3172 42.5846 84.3172 42.0652V9.19168C84.3172 8.62056 84.7784 8.20492 85.413 8.20492H91.4108C92.0451 8.20492 92.5066 8.62056 92.5066 9.19168V11.8402H92.6219C94.9865 9.03592 98.1582 7.58188 101.849 7.58188C109.462 7.58188 115.69 13.6579 115.69 21.0844C115.69 28.5626 109.404 34.7947 101.849 34.7947C98.2159 34.7947 94.8712 33.3404 93.3138 31.0553H93.1985V42.0652C93.1985 42.5846 92.6796 43 92.1027 43H85.413ZM99.7153 27.9396C103.81 27.9396 106.924 25.0312 106.924 21.1883C106.924 17.397 103.81 14.437 99.7153 14.437C95.6207 14.437 92.5066 17.397 92.5066 21.1883C92.5066 24.9793 95.6207 27.9396 99.7153 27.9396ZM155.18 21.0324V22.3307C155.18 23.0578 154.546 23.629 153.738 23.629H134.534C135.11 26.5893 137.763 28.5628 141.224 28.5628C143.3 28.5628 145.087 27.8356 146.817 26.2777C147.048 26.0698 147.394 25.914 147.74 25.914C148.029 25.914 148.317 26.0178 148.548 26.1739L152.873 29.03C153.104 29.1858 153.277 29.4457 153.277 29.7572C153.277 30.0168 153.161 30.2245 152.988 30.3802C149.874 33.1848 145.722 34.7946 141.627 34.7946C132.515 34.7946 125.71 28.9262 125.71 21.1362C125.71 13.6059 132.285 7.58177 140.416 7.58177C148.548 7.58177 155.18 13.6578 155.18 21.0324ZM140.416 13.2944C137.302 13.2944 134.591 15.5794 134.591 18.2279H146.299C146.299 15.5794 143.53 13.2944 140.416 13.2944Z" fill="white"/>
</svg>
