<svg width="14" height="18" viewBox="0 0 14 18" fill="none" xmlns="http://www.w3.org/2000/svg">
<path fill-rule="evenodd" clip-rule="evenodd" d="M5.41286 3.17648V4.23529H1.70698C1.41579 4.23529 1.17757 4.47248 1.17757 4.7647V11.7445C1.34379 11.6852 1.52062 11.6471 1.70698 11.6471H12.2952C12.4816 11.6471 12.6584 11.6852 12.8246 11.7445V4.76471C12.8246 4.47249 12.5864 4.23531 12.2952 4.23531H8.58933V3.17648H12.2952C13.1709 3.17648 13.8834 3.88906 13.8834 4.7647V16.4118C13.8834 17.2874 13.1709 18 12.2952 18H1.70698C0.831328 18 0.118744 17.2874 0.118744 16.4118V4.7647C0.118744 3.88906 0.831337 3.17648 1.70698 3.17648H5.41286ZM12.2952 12.7059H1.70698C1.41579 12.7059 1.17757 12.9431 1.17757 13.2353V16.4118C1.17757 16.704 1.41579 16.9412 1.70698 16.9412H12.2952C12.5864 16.9412 12.8246 16.704 12.8246 16.4118V13.2353C12.8246 12.9431 12.5864 12.7059 12.2952 12.7059V12.7059ZM7.53082 -0.000213623V8.2512L9.83906 5.9419L10.5877 6.6905L7.00142 10.2778L3.41412 6.6905L4.16272 5.9419L6.47199 8.2512V-0.000204248H7.53082L7.53082 -0.000213623ZM3.29522 13.7647C2.71074 13.7647 2.23639 14.2401 2.23639 14.8235C2.23639 15.4069 2.71074 15.8824 3.29522 15.8824C3.87968 15.8824 4.35403 15.407 4.35403 14.8235C4.35403 14.2401 3.87968 13.7647 3.29522 13.7647Z" fill="#384FAE"/>
</svg>
