<svg width="156" height="43" viewBox="0 0 156 43" fill="none" xmlns="http://www.w3.org/2000/svg">
<path d="M3.9 29.9364H0V26.7736H12.1105V29.9364H8.14211V42.7938H3.9V29.9364Z" fill="white"/>
<path d="M13.2737 26.7736H24.4947V29.7989H17.5158V33.0992H24.1526V36.1244H17.5158V39.7685H24.7684V42.7938H13.2737V26.7736Z" fill="white"/>
<path d="M26.3422 26.7736H32.979L36.4001 37.4308L39.9579 26.7736H46.3895V42.7938H42.2158L42.2843 30.4864L38.179 42.7938H34.279L30.4474 30.4864H30.379L30.4474 42.7938H26.3422V26.7736Z" fill="white"/>
<path d="M48.7158 26.7736H53.779C58.6369 26.7736 60.8948 28.4238 60.8948 31.9991C60.8948 35.2306 58.5685 37.1558 54.6 37.1558H52.9579V42.725H48.7158V26.7736ZM52.9579 34.1305H54.0527C55.4895 34.1305 56.6527 33.5805 56.6527 31.9303C56.6527 30.2802 55.4895 29.7989 54.0527 29.7989H52.9579V34.1305Z" fill="white"/>
<path d="M76.1526 36.6745C76.1526 41.0749 73.3473 43 69.1736 43C65 43 62.1947 41.0061 62.1947 36.6745V26.7736H66.4368V35.9869C66.4368 38.1184 66.9842 39.906 69.1736 39.906C71.3631 39.906 71.9105 38.1184 71.9105 35.9869V26.7736H76.1526V36.6745V36.6745Z" fill="white"/>
<path d="M77.8632 26.7736H85.4579C88.2632 26.7736 90.5895 28.08 90.5895 30.8302C90.5895 32.9617 89.5632 34.4055 87.5105 34.8868V34.9556C88.8789 35.2994 88.9474 36.537 89.7684 38.4621L91.3421 42.7938H86.8947L86.0053 39.906C85.1158 37.1558 84.5684 36.4682 82.9947 36.4682H82.1053V42.7938H77.8632V26.7736ZM82.1053 33.443H83.2C84.5684 33.443 86.2789 33.3742 86.2789 31.5865C86.2789 30.0739 84.7737 29.7989 83.2 29.7989H82.1053V33.443Z" fill="white"/>
<path d="M99.2106 26.7736H103.384C106.668 26.7736 109.337 27.9425 109.337 31.5865C109.337 35.1619 106.6 36.3995 103.726 36.3995H101.468V42.7938H99.2106V26.7736V26.7736ZM101.468 34.3368H103.726C105.163 34.3368 106.942 33.6492 106.942 31.5178C106.942 29.5239 104.821 28.7675 103.453 28.7675H101.537V34.3368H101.468Z" fill="white"/>
<path d="M121.379 26.7736H126.1C130.821 26.7736 134.584 29.7301 134.584 34.6118C134.584 39.9748 131.368 42.725 126.1 42.725H121.379V26.7736ZM123.637 40.7311H126.032C129.932 40.7311 132.121 38.8059 132.121 34.6806C132.121 30.9677 129.589 28.7675 126.305 28.7675H123.637V40.7311V40.7311Z" fill="white"/>
<path d="M136.158 26.7736H138.416V42.7938H136.158V26.7736Z" fill="white"/>
<path d="M151.826 29.3863C150.8 28.7675 149.705 28.4925 148.542 28.4925C144.847 28.4925 142.453 31.174 142.453 34.7493C142.453 38.5309 145.121 41.0061 148.474 41.0061C149.637 41.0061 151.142 40.7311 151.963 40.2498L152.1 42.45C150.868 42.9313 149.432 43 148.474 43C143.41 43 140.058 39.7685 140.058 34.6806C140.058 29.7301 143.616 26.4986 148.474 26.4986C149.705 26.4986 150.937 26.7049 152.032 27.1862L151.826 29.3863V29.3863Z" fill="white"/>
<path d="M153.4 27.8737C153.4 27.1861 153.947 26.5673 154.7 26.5673C155.384 26.5673 156 27.1174 156 27.8737C156 28.5612 155.453 29.1801 154.7 29.1801C154.016 29.1801 153.4 28.63 153.4 27.8737M155.726 27.8737C155.726 27.2549 155.316 26.8423 154.768 26.8423C154.221 26.8423 153.811 27.2549 153.811 27.8737C153.811 28.4925 154.221 28.905 154.768 28.905C155.247 28.905 155.726 28.4925 155.726 27.8737ZM154.221 27.1174H154.768C155.111 27.1174 155.316 27.2549 155.316 27.5299C155.316 27.8049 155.179 27.8737 154.905 27.9424L155.316 28.5612H155.042L154.632 27.9424H154.495V28.5612H154.221V27.1174V27.1174ZM154.495 27.8049H154.768C154.905 27.8049 155.042 27.8049 155.042 27.5987C155.042 27.4611 154.905 27.3924 154.768 27.3924H154.495V27.8049Z" fill="white"/>
<path d="M91.1368 34.268H97.2947V36.3307H91.1368V34.268Z" fill="white"/>
<path d="M110.774 26.7736H119.668V28.7675H113.032V33.443H119.053V35.5056H113.032V40.7311H119.668V42.7938H110.774V26.7736Z" fill="white"/>
<path d="M45.979 14.0538C45.979 14.0538 45.979 14.1225 45.979 14.0538C45.979 14.1225 45.979 14.1913 46.0474 14.1913L46.2527 14.26H46.3211C51.1106 15.4976 57.4737 15.1539 59.3211 15.0164C61.9895 14.8101 65.3422 14.9476 67.0527 15.2226C67.1211 15.2226 67.1895 15.1539 67.1895 15.1539C67.1895 15.0851 67.1211 15.0164 67.1211 15.0164C65.6158 14.8101 60.4843 14.0538 57.679 14.26C55.079 14.4663 51.5211 14.3976 46.4579 13.985C46.3895 13.985 46.2527 13.985 46.1843 13.9163C46.0474 13.985 45.979 13.985 45.979 14.0538" fill="white"/>
<path d="M138.758 18.1791C138.279 17.6978 137.595 17.8353 137.047 17.9041C136.705 17.9728 136.363 17.9728 136.226 17.9041C134.379 16.3915 133.558 16.9415 132.463 17.6978C132.326 17.7666 132.19 17.9041 131.984 17.9728C131.779 18.0416 131.574 18.1791 131.3 18.2479C130.89 18.4541 130.411 18.6604 129.863 18.8667C129.111 19.0729 128.221 19.1417 127.058 19.0042C125.142 18.7979 122.747 17.6978 120.284 16.4602C116.59 14.6726 112.484 12.7474 108.379 12.9537C101.605 13.3662 99.2106 12.7474 92.3685 8.75954C83.5422 3.6716 78.7527 2.02145 71.6369 5.11547C71.5001 5.18423 71.4316 5.18423 71.2948 5.25298C70.8843 5.39049 70.5422 5.52801 70.1316 5.66552L69.5158 5.87179C64.3158 7.65944 61.7158 6.49059 56.3106 4.01538L52.1369 2.15896C43.2422 -1.62262 40.5053 -0.109984 38.4527 4.22164C37.1527 6.97188 35.8527 8.75954 34.5527 9.65337C33.8685 8.00322 32.0895 6.76562 30.7211 6.42184C28.4632 5.87179 26.8895 5.11547 26.6158 4.97796C26.6158 4.97796 25.3843 3.46533 22.9895 3.05279C20.3211 2.5715 18.4737 3.39657 17.1053 4.42791C15.5316 5.66552 14.5053 7.79695 14.779 10.0659C15.1211 12.9537 16.8316 14.8101 16.8316 14.8101C16.9 14.8788 16.9685 14.8788 16.9685 14.8101C17.0369 14.7413 17.0369 14.6726 16.9685 14.6726C16.1474 13.5725 15.5316 12.5411 15.3948 10.7535C15.2579 8.89705 15.6685 6.90313 17.1737 5.59676C18.9527 4.01538 21.1422 3.74035 23.0579 4.22164C25.3843 4.77169 26.5474 7.17815 27.2316 9.17208C27.9843 11.3723 28.8053 13.71 32.5001 13.4349C34.5527 13.2974 36.4 14.3288 37.2211 16.1164C38.0422 17.9728 37.4264 20.0355 35.6474 21.7544C35.579 21.8232 35.579 21.8919 35.6474 21.8919C35.7158 21.9607 35.7843 21.9607 35.7843 21.8919L36.6053 21.0669C38.2474 19.2105 38.6579 17.1478 37.7685 15.2226C37.0158 13.5037 35.3053 12.5411 33.1843 12.6099C29.4211 12.7474 28.8737 10.891 28.2579 8.69078C27.9843 7.7282 27.6422 6.90313 26.9579 6.0093C27.7106 6.49059 28.6685 6.83437 30.1053 7.17815C31.3369 7.45318 32.9106 8.55327 33.6632 10.0659C33.5264 10.1347 33.3211 10.2034 33.1843 10.2722C32.2264 10.4784 31.2685 10.2722 30.2422 9.51586C30.1737 9.4471 30.0369 9.37834 29.9685 9.30959C29.9 9.24083 29.8316 9.30959 29.8316 9.30959V9.37834C29.8316 9.4471 29.8316 9.4471 29.9 9.4471L30.1053 9.58461C30.1053 9.58461 30.1737 9.58461 30.1737 9.65337C31.0632 10.2722 32.2948 10.9597 33.7316 10.5472C35.4422 10.1347 37.0158 8.347 38.5895 5.11547C40.5053 1.05887 42.2158 -0.247496 51.3158 3.32782C53.2316 4.08413 54.8053 4.77169 56.1737 5.3905C61.2369 7.65944 63.4948 8.62203 69.5158 6.14681C70.0632 5.94054 70.6106 5.73428 71.2264 5.52801C77.6579 3.1903 83.0632 5.18423 91.6843 10.1347C96.8843 13.1599 100.1 13.2974 104.137 13.5037C105.505 13.5725 106.942 13.6412 108.584 13.8475C113.1 14.3975 116.384 15.9789 119.19 17.354C111.595 14.7413 108.105 15.4289 105.026 16.0477C103.042 16.4602 101.4 16.804 98.9369 16.2539C88.4685 13.8475 84.4316 14.535 82.0369 14.9476C82.6527 14.26 82.8579 13.1599 82.7895 11.9911C82.7211 11.166 82.4474 10.2722 81.9685 9.24083C81.9685 9.17208 81.9 9.17208 81.8316 9.17208C81.7632 9.17208 81.7632 9.24083 81.7632 9.30959C82.0369 9.92839 82.1737 10.5472 82.2422 11.0972C82.4474 13.0224 81.4895 14.6038 80.258 15.3601L80.1895 15.4289C80.1895 15.4976 80.1895 15.4976 80.258 15.4976C80.7369 15.6351 81.1474 16.1164 81.4211 16.804C81.6264 17.2165 81.7632 17.7666 81.8316 18.3854C81.9 19.2792 81.8316 20.3793 81.4211 21.4794V21.5482C81.4211 21.5482 81.4211 21.6169 81.4895 21.6169H81.6264C82.4474 20.5856 82.6527 18.8667 82.5158 17.5603C82.5158 17.2853 82.4474 17.0103 82.379 16.804C82.3106 16.529 82.1737 16.2539 82.0369 15.9789L82.3106 15.9102C84.7053 15.4976 88.2632 14.8101 99.0053 16.804C101.468 17.2853 103.179 17.079 105.163 16.804C108.584 16.3915 112.826 15.8414 123.295 19.0729C123.979 19.2792 124.732 19.4855 125.416 19.5542C127.4 19.7605 128.768 19.4167 129.863 19.0042C130.684 18.7979 131.368 18.4541 131.916 18.1104C133.079 17.5603 134.105 17.354 135.611 18.5916C135.816 18.7979 136.226 18.7292 136.705 18.6604C137.321 18.5916 137.937 18.4541 138.347 18.8667C138.826 19.2792 138.69 20.8606 138.621 21.6857C138.621 21.7544 138.69 21.8232 138.758 21.8232C138.826 21.8232 138.895 21.7544 138.895 21.6857V21.6169C138.963 21.2731 139.1 19.8293 139.1 19.5542C139.237 19.0042 139.1 18.5229 138.758 18.1791" fill="white"/>
<path d="M34.279 15.0163C32.2263 13.6412 29.3526 14.6725 26.7526 15.9789C20.5263 19.1417 20.1158 15.9101 15.3263 15.9101C12.7263 15.9101 12.4526 17.9728 12.4526 18.7979C12.4526 19.5542 12.6579 20.9293 13.0684 21.8232C13.0684 21.8919 13.1368 21.8919 13.2053 21.8919C13.2737 21.8919 13.2737 21.8232 13.2737 21.7544C12.7263 20.3105 12.5895 17.2853 15.3947 17.2853C19.6368 17.2853 20.8 20.448 27.0947 17.1478C29.3526 15.9789 31.5421 15.0851 33.4579 16.3227C34.7579 17.2165 35.4421 19.3479 34.279 21.7544C34.279 21.8232 34.279 21.8919 34.3474 21.8919C34.4158 21.9607 34.4842 21.8919 34.4842 21.8919L34.5526 21.8232C36.1263 18.7291 36.6053 16.5289 34.279 15.0163" fill="white"/>
</svg>
