<svg width="101" height="100" viewBox="0 0 101 100" fill="none" xmlns="http://www.w3.org/2000/svg">
<rect x="0.5" width="100" height="100" rx="20" fill="#384FAE"/>
<path fill-rule="evenodd" clip-rule="evenodd" d="M59.9546 25.0009C60.4134 24.9907 60.9842 25.0722 61.4735 25.2047C61.9119 25.3169 62.5847 25.5819 62.9823 25.7858C63.4716 26.0407 63.9711 26.428 64.5623 27.0295C65.2148 27.6717 65.541 28.0998 65.857 28.7115C66.0914 29.16 66.3769 29.894 66.4992 30.3425C66.6113 30.7911 66.7439 31.6372 66.7744 32.2284C66.805 32.8401 66.7846 33.6046 66.7133 34.0124C66.6521 34.41 66.5808 34.8177 66.54 34.9299C66.489 35.1236 66.5502 35.1337 68.4565 35.1847C70.2914 35.2357 70.4647 35.2561 70.9846 35.5007C71.2904 35.6435 71.7491 35.9391 71.9836 36.1633C72.2385 36.3876 72.5647 36.8463 73.0744 37.8861L73.1253 45.6846H74.2161C75.0928 45.6846 75.3884 45.7254 75.6739 45.8783C75.8675 45.9802 76.153 46.2453 76.5913 46.8569L76.5403 55.8481L76.2549 56.2151C76.102 56.4189 75.7962 56.684 75.5719 56.7961C75.1642 57 74.9603 57 50.4945 57C26.0288 57 25.8249 57 25.4172 56.7961C25.1929 56.684 24.8871 56.4189 24.4487 55.8481L24.4181 44.1147C24.3978 33.8085 24.4079 32.3304 24.5507 31.9532C24.6424 31.678 24.8463 31.4129 25.4477 30.9542L36.0598 30.893C46.6004 30.8421 46.682 30.8319 47.6912 30.6076C48.2518 30.4853 49.1285 30.2202 49.628 30.0265C50.1276 29.8328 50.9125 29.4557 51.361 29.2008C51.8096 28.946 52.7984 28.3139 53.5528 27.794C54.3071 27.2741 55.3469 26.6115 55.8464 26.3261C56.3459 26.0407 57.0799 25.6941 57.4775 25.5513C57.875 25.4086 58.4153 25.2251 58.7007 25.1538C58.976 25.0824 59.5469 25.0111 59.9444 25.0009H59.9546ZM58.3542 27.0703C58.0483 27.1722 57.4469 27.4372 57.0289 27.6717C56.611 27.896 55.4387 28.6299 54.4294 29.3129C53.4202 29.9857 52.1358 30.7707 51.5751 31.0561C51.0144 31.3416 50.1683 31.6984 49.6892 31.8615C49.2101 32.0144 48.3844 32.2386 47.8543 32.361C46.9164 32.5648 46.5596 32.575 36.5083 32.6056L26.1409 32.6362V45.6846L28.7404 45.6336C28.822 44.5734 28.9035 44.3186 29.0462 44.1657C29.1822 44.0162 29.3691 43.9448 29.6069 43.9516C29.8006 43.9516 30.0351 44.0128 30.1268 44.0841C30.2186 44.1555 30.3409 44.3084 30.4021 44.4307C30.4734 44.5632 30.5244 44.8895 30.5244 45.1749V45.6846H32.2574C32.2574 44.5632 32.2981 44.4205 32.5122 44.2065C32.6651 44.0434 32.869 43.9516 33.0729 43.9516C33.236 43.9516 33.4501 43.9822 33.5418 44.023C33.6336 44.0739 33.7763 44.2268 33.8476 44.3798C33.9292 44.5429 33.9904 44.8895 33.9904 45.1749V45.6846H35.8253C36.0699 44.9302 36.2942 44.5021 36.4879 44.2268C36.6816 43.9618 37.0894 43.5846 37.3748 43.3909C37.6704 43.1972 38.1393 42.9628 38.4248 42.8812C38.7 42.7997 39.1791 42.7283 39.4646 42.7283C39.7602 42.7283 41.534 42.9832 43.3893 43.289C46.1111 43.7477 46.8451 43.9006 47.1101 44.0841C47.2936 44.2065 47.5281 44.4715 47.6402 44.6652C47.7523 44.8589 47.8441 45.1443 47.8543 45.2972C47.8543 45.4603 47.8849 45.5827 47.9256 45.5827C47.9766 45.5827 48.262 45.5113 48.5679 45.4196C48.8737 45.3278 49.3528 45.1341 49.6382 44.9914C49.9135 44.8589 50.4028 44.5429 50.7086 44.3084C51.0144 44.0739 51.5037 43.605 51.7892 43.2788C52.0746 42.9526 52.4926 42.4021 52.7168 42.0657C52.9411 41.7293 53.3387 41.0361 53.5935 40.5366C53.8484 40.0371 54.195 39.2725 54.3581 38.8546C54.5212 38.4366 54.827 37.5599 55.0309 36.9177C55.2348 36.2755 55.5202 35.1949 55.6527 34.5221C55.826 33.7168 56.0401 33.0338 56.2848 32.5343C56.5192 32.0551 56.8658 31.5556 57.2226 31.1988C57.5488 30.8726 58.0381 30.5056 58.3542 30.3527C58.66 30.21 59.2105 30.0571 59.5774 30.0061C59.9444 29.9552 60.4949 29.945 60.8007 29.9857C61.2187 30.0469 61.4226 30.1285 61.5959 30.3323C61.7182 30.4751 61.8201 30.6891 61.8201 30.8013C61.8201 30.9134 61.7692 31.1071 61.7182 31.2294C61.657 31.3619 61.5143 31.5149 61.3818 31.5862C61.2595 31.6576 60.7396 31.7187 60.2197 31.7391C59.3736 31.7697 59.2512 31.8003 58.8537 32.0755C58.6192 32.2488 58.2624 32.6056 58.0789 32.8911C57.8852 33.1663 57.661 33.625 57.5896 33.9105C57.508 34.1857 57.4163 34.5935 57.3857 34.7973L57.3347 35.1847L64.7152 35.1337C64.9293 34.3386 65.0109 33.676 65.0516 33.1459C65.0924 32.4425 65.0618 31.943 64.9395 31.311C64.8478 30.8319 64.6133 30.1183 64.4298 29.7309C64.2361 29.3435 63.8589 28.7727 63.5837 28.4668C63.3187 28.161 62.8191 27.7329 62.4827 27.5188C62.1463 27.2945 61.6366 27.0601 61.3614 26.9785C61.076 26.9071 60.6682 26.8256 60.4439 26.8052C60.2197 26.7848 59.7813 26.795 59.4755 26.8256C59.1697 26.8664 58.66 26.9785 58.3542 27.0703ZM56.4275 38.2124C56.1828 38.9361 55.7139 40.0881 55.3775 40.7914C55.0513 41.4948 54.4906 42.504 54.1338 43.0341C53.777 43.5642 53.1552 44.3594 52.7372 44.7875C52.3193 45.2259 52.0033 45.603 52.0338 45.6336C52.0644 45.6642 56.4275 45.6846 61.7488 45.6846H71.4025C71.4025 38.7221 71.3822 38.3551 71.2089 37.9881C71.1069 37.7638 70.9336 37.4988 70.8317 37.407C70.7297 37.3051 70.4545 37.1624 70.2302 37.0808C69.8938 36.9483 68.7725 36.9279 63.3492 36.9177H56.8658L56.4275 38.2124ZM37.9151 45.2259C37.7927 45.389 37.6398 45.6846 37.5685 45.8885C37.5073 46.0822 37.4563 46.3982 37.4563 46.6021C37.4563 46.7957 37.5481 47.1423 37.65 47.3666C37.7418 47.5807 38.0068 47.9171 38.2311 48.1006C38.4554 48.2841 38.8325 48.4676 39.0874 48.5287C39.4646 48.6103 40.0762 48.5389 42.6043 48.121C44.2864 47.8457 45.7645 47.5909 45.897 47.5705C46.1111 47.5195 46.1213 47.4686 46.1213 46.5205V45.5317C41.1874 44.6958 39.5869 44.4511 39.3932 44.4511C39.1995 44.4511 38.8325 44.5632 38.5879 44.6856C38.3432 44.8079 38.0374 45.0526 37.9151 45.2259ZM26.1919 55.216H74.8176L74.8277 47.4176L47.9052 47.4074C47.7931 48.0802 47.6504 48.4166 47.5179 48.5899C47.3854 48.753 47.1203 48.9671 46.9266 49.0588C46.7431 49.1506 44.9999 49.487 43.0631 49.803C39.8621 50.3331 39.4951 50.3739 38.9345 50.2719C38.5981 50.2108 38.0986 50.0578 37.8131 49.9151C37.5379 49.7826 37.0792 49.4258 36.7937 49.1302C36.5083 48.8346 36.1719 48.3249 36.0292 47.9986L35.7743 47.4074L33.9904 47.4176C33.9904 48.4574 33.9496 48.5797 33.6947 48.8448C33.5112 49.0282 33.287 49.1506 33.1341 49.1506C32.9913 49.1506 32.7365 49.0282 32.5632 48.8957C32.288 48.6613 32.2574 48.5797 32.2574 48.0292V47.4176H30.5244C30.5244 48.1618 30.4632 48.4982 30.3919 48.6409C30.3205 48.7734 30.1268 48.9569 29.9637 49.0282C29.8006 49.1098 29.5559 49.1404 29.4336 49.1098C29.3011 49.069 29.1074 48.9569 28.9953 48.8448C28.8424 48.6816 28.7914 48.4982 28.7914 48.0292V47.4176H26.1409L26.1919 55.216ZM58.5071 38.7119C58.6192 38.7424 58.8129 38.8648 58.9454 38.9871C59.0983 39.14 59.1697 39.3235 59.1697 39.5682C59.1697 39.7924 59.0779 40.0065 58.9352 40.1492C58.7925 40.3021 58.5886 40.3837 58.3745 40.3837C58.2012 40.3837 57.9668 40.3429 57.8648 40.2919C57.7731 40.241 57.6304 40.0473 57.5488 39.8536C57.4367 39.5682 57.4367 39.4662 57.5488 39.2114C57.6304 39.0483 57.8241 38.8546 57.9974 38.7832C58.1605 38.7119 58.3949 38.6813 58.5071 38.7119ZM61.973 38.7119C62.0852 38.7424 62.2789 38.8648 62.4114 38.9871C62.5643 39.14 62.6357 39.3235 62.6357 39.5682C62.6357 39.7924 62.5439 40.0065 62.4012 40.1492C62.2483 40.3123 62.0648 40.3837 61.8201 40.3735C61.6264 40.3735 61.3818 40.3123 61.29 40.2512C61.1983 40.1798 61.076 39.9963 61.0148 39.8434C60.9333 39.6293 60.9333 39.4764 61.025 39.242C61.1065 39.0381 61.2798 38.8648 61.4633 38.7832C61.6264 38.7119 61.8609 38.6813 61.973 38.7119ZM65.2555 38.6507C65.2759 38.6507 65.439 38.7017 65.6123 38.7832C65.8264 38.8648 65.9895 39.0279 66.0711 39.242C66.1526 39.4458 66.173 39.6497 66.1118 39.7924C66.0711 39.9148 65.9487 40.0983 65.857 40.2002C65.7448 40.3123 65.5308 40.3735 65.3065 40.3735C65.0516 40.3735 64.8478 40.3021 64.6949 40.1492C64.5385 39.9929 64.4604 39.7992 64.4604 39.5682C64.4604 39.3235 64.5419 39.14 64.6949 38.9871C64.8274 38.875 65.0007 38.7526 65.0822 38.7221C65.1638 38.6915 65.2453 38.6609 65.2555 38.6507ZM68.7215 38.6507C68.7419 38.6507 68.905 38.7017 69.0783 38.7832C69.272 38.8546 69.4759 39.0483 69.5574 39.2114C69.6696 39.4662 69.6696 39.5682 69.5574 39.8536C69.4759 40.0473 69.3332 40.241 69.2312 40.2919C69.1395 40.3429 68.905 40.3735 68.7215 40.3735C68.5176 40.3735 68.3036 40.2817 68.1608 40.1492C68.0045 39.9929 67.9264 39.7992 67.9264 39.5682C67.9264 39.3235 68.0079 39.14 68.1608 38.9871C68.2934 38.875 68.4667 38.7526 68.5482 38.7221C68.6298 38.6915 68.7113 38.6609 68.7215 38.6507ZM58.3236 42.2186C58.5818 42.2186 58.7891 42.2934 58.9454 42.4429C59.0949 42.5992 59.1697 42.7963 59.1697 43.0341C59.1697 43.2686 59.0983 43.4521 58.9454 43.605C58.8129 43.7171 58.6294 43.8395 58.5275 43.8802C58.4357 43.921 58.2114 43.9006 58.0483 43.8497C57.8648 43.7783 57.6813 43.6152 57.5794 43.4113C57.4877 43.2278 57.4469 42.973 57.4775 42.8506C57.508 42.7283 57.6304 42.5346 57.7425 42.4225C57.875 42.2798 58.0789 42.2186 58.3236 42.2186ZM61.8099 42.2186C62.0444 42.2186 62.2585 42.3002 62.4114 42.4429C62.5643 42.5958 62.6357 42.7895 62.6357 43.0341C62.6357 43.2278 62.5745 43.4623 62.5031 43.554C62.4318 43.6458 62.2585 43.7783 62.0954 43.8395C61.8915 43.921 61.7386 43.9108 61.4939 43.8191C61.2799 43.7375 61.1269 43.5744 61.0352 43.3603C60.9638 43.1769 60.9333 42.9526 60.9638 42.8506C61.0046 42.7487 61.1269 42.5652 61.2391 42.4429C61.3818 42.29 61.5551 42.2186 61.8099 42.2186ZM65.2759 42.2084C65.5308 42.2084 65.7041 42.2798 65.857 42.4429C65.9691 42.5652 66.1016 42.7487 66.1322 42.8506C66.173 42.9526 66.1424 43.1769 66.0711 43.3603C65.9793 43.5744 65.8162 43.7375 65.6123 43.8191C65.3677 43.9108 65.2148 43.921 65.0007 43.8395C64.8478 43.7783 64.6643 43.6458 64.6031 43.554C64.5318 43.4623 64.4706 43.2278 64.4502 43.0341C64.44 42.7793 64.5012 42.6162 64.6745 42.4531C64.8274 42.29 65.0313 42.2084 65.2759 42.2084ZM68.7215 42.2186C68.905 42.2186 69.1395 42.2492 69.2312 42.3002C69.3332 42.3511 69.4759 42.5244 69.5574 42.6875C69.6696 42.9322 69.6696 43.0341 69.5574 43.3298C69.4623 43.5608 69.3026 43.7205 69.0783 43.8089C68.905 43.8904 68.6705 43.921 68.5686 43.8802C68.4769 43.8395 68.2934 43.7171 68.1608 43.605C68.0181 43.4623 67.9264 43.2482 67.9162 43.0341C67.906 42.7895 67.9671 42.6162 68.1404 42.4531C68.2934 42.3002 68.4972 42.2186 68.7215 42.2186ZM40.0762 45.6846C40.3005 45.6846 40.4942 45.7661 40.6675 45.9394C40.8204 46.0924 40.9223 46.3064 40.9223 46.5001C40.9223 46.704 40.8204 46.9079 40.6165 47.1118C40.3616 47.3564 40.2495 47.4074 39.9743 47.3666C39.801 47.336 39.5461 47.1933 39.4136 47.0608C39.2913 46.9181 39.1893 46.7142 39.1893 46.6021C39.1893 46.4797 39.2607 46.2555 39.3422 46.0924C39.4238 45.9293 39.5563 45.7763 39.6175 45.7458C39.6888 45.7152 39.9029 45.6948 40.0762 45.6846Z" fill="white"/>
<path d="M39.354 75.112C39.0647 75.112 38.8407 75.0327 38.682 74.874C38.5327 74.706 38.458 74.4773 38.458 74.188V66.628H35.728C35.4853 66.628 35.294 66.5627 35.154 66.432C35.0233 66.292 34.958 66.1053 34.958 65.872C34.958 65.6293 35.0233 65.4473 35.154 65.326C35.294 65.1953 35.4853 65.13 35.728 65.13H42.98C43.2227 65.13 43.4093 65.1953 43.54 65.326C43.68 65.4473 43.75 65.6293 43.75 65.872C43.75 66.1053 43.68 66.292 43.54 66.432C43.4093 66.5627 43.2227 66.628 42.98 66.628H40.25V74.188C40.25 74.4773 40.1753 74.706 40.026 74.874C39.8767 75.0327 39.6527 75.112 39.354 75.112ZM45.2886 77.632C45.0832 77.632 44.9152 77.576 44.7846 77.464C44.6539 77.3613 44.5746 77.2213 44.5466 77.044C44.5279 76.8667 44.5606 76.68 44.6446 76.484L45.5966 74.37V75.098L43.0486 69.204C42.9646 68.9987 42.9366 68.8073 42.9646 68.63C42.9926 68.4527 43.0766 68.3127 43.2166 68.21C43.3659 68.098 43.5666 68.042 43.8186 68.042C44.0332 68.042 44.2059 68.0933 44.3366 68.196C44.4672 68.2893 44.5839 68.4713 44.6866 68.742L46.5766 73.46H46.1566L48.0886 68.728C48.1912 68.4667 48.3126 68.2893 48.4526 68.196C48.5926 68.0933 48.7792 68.042 49.0126 68.042C49.2179 68.042 49.3812 68.098 49.5026 68.21C49.6239 68.3127 49.6986 68.4527 49.7266 68.63C49.7546 68.798 49.7219 68.9847 49.6286 69.19L46.2266 76.96C46.1052 77.2213 45.9746 77.3987 45.8346 77.492C45.6946 77.5853 45.5126 77.632 45.2886 77.632ZM51.7897 77.632C51.5097 77.632 51.2951 77.5573 51.1457 77.408C50.9964 77.2587 50.9217 77.0393 50.9217 76.75V68.924C50.9217 68.6347 50.9964 68.4153 51.1457 68.266C51.2951 68.1167 51.5051 68.042 51.7757 68.042C52.0557 68.042 52.2704 68.1167 52.4197 68.266C52.5691 68.4153 52.6437 68.6347 52.6437 68.924V70.016L52.4897 69.596C52.6297 69.12 52.9144 68.7373 53.3437 68.448C53.7824 68.1587 54.2911 68.014 54.8697 68.014C55.4671 68.014 55.9897 68.1587 56.4377 68.448C56.8951 68.7373 57.2497 69.148 57.5017 69.68C57.7537 70.2027 57.8797 70.8327 57.8797 71.57C57.8797 72.298 57.7537 72.9327 57.5017 73.474C57.2497 74.006 56.8997 74.4167 56.4517 74.706C56.0037 74.9953 55.4764 75.14 54.8697 75.14C54.3004 75.14 53.8011 75 53.3717 74.72C52.9424 74.4307 52.6531 74.0573 52.5037 73.6H52.6717V76.75C52.6717 77.0393 52.5924 77.2587 52.4337 77.408C52.2844 77.5573 52.0697 77.632 51.7897 77.632ZM54.3797 73.81C54.7251 73.81 55.0284 73.726 55.2897 73.558C55.5511 73.39 55.7517 73.1427 55.8917 72.816C56.0411 72.48 56.1157 72.0647 56.1157 71.57C56.1157 70.8233 55.9571 70.268 55.6397 69.904C55.3224 69.5307 54.9024 69.344 54.3797 69.344C54.0344 69.344 53.7311 69.428 53.4697 69.596C53.2084 69.7547 53.0031 70.002 52.8537 70.338C52.7137 70.6647 52.6437 71.0753 52.6437 71.57C52.6437 72.3073 52.8024 72.8673 53.1197 73.25C53.4371 73.6233 53.8571 73.81 54.3797 73.81ZM62.6903 75.14C61.9156 75.14 61.2483 74.9953 60.6883 74.706C60.1283 74.4167 59.6943 74.006 59.3863 73.474C59.0876 72.942 58.9383 72.312 58.9383 71.584C58.9383 70.8747 59.0829 70.254 59.3723 69.722C59.6709 69.19 60.0769 68.7747 60.5903 68.476C61.1129 68.168 61.7056 68.014 62.3683 68.014C62.8536 68.014 63.2876 68.0933 63.6703 68.252C64.0623 68.4107 64.3936 68.6393 64.6643 68.938C64.9443 69.2367 65.1543 69.6007 65.2943 70.03C65.4436 70.45 65.5183 70.926 65.5183 71.458C65.5183 71.626 65.4576 71.7567 65.3363 71.85C65.2243 71.934 65.0609 71.976 64.8463 71.976H60.3523V70.968H64.2863L64.0623 71.178C64.0623 70.7487 63.9969 70.3893 63.8663 70.1C63.7449 69.8107 63.5629 69.5913 63.3203 69.442C63.0869 69.2833 62.7929 69.204 62.4383 69.204C62.0463 69.204 61.7103 69.2973 61.4303 69.484C61.1596 69.6613 60.9496 69.918 60.8003 70.254C60.6603 70.5807 60.5903 70.9727 60.5903 71.43V71.528C60.5903 72.2933 60.7676 72.8673 61.1223 73.25C61.4863 73.6233 62.0183 73.81 62.7183 73.81C62.9609 73.81 63.2316 73.782 63.5303 73.726C63.8383 73.6607 64.1276 73.5533 64.3983 73.404C64.5943 73.292 64.7669 73.2453 64.9163 73.264C65.0656 73.2733 65.1823 73.3247 65.2663 73.418C65.3596 73.5113 65.4156 73.628 65.4343 73.768C65.4529 73.8987 65.4249 74.034 65.3503 74.174C65.2849 74.314 65.1683 74.4353 65.0003 74.538C64.6736 74.7433 64.2956 74.8973 63.8663 75C63.4463 75.0933 63.0543 75.14 62.6903 75.14Z" fill="white"/>
</svg>
