<svg width="101" height="100" viewBox="0 0 101 100" fill="none" xmlns="http://www.w3.org/2000/svg">
<rect x="0.5" width="100" height="100" rx="20" fill="#384FAE"/>
<path fill-rule="evenodd" clip-rule="evenodd" d="M50.5 19C50.8697 19 51.076 19.0516 51.4629 19.2665C51.7294 19.4213 52.142 19.6534 52.3656 19.7995C52.761 20.0488 52.8126 20.0574 53.6379 20.0317C54.1538 20.0145 54.6524 20.0488 54.8845 20.109C55.1338 20.1864 55.4004 20.3497 55.6411 20.5905C55.8474 20.7968 56.1225 21.2267 56.2859 21.5877C56.4578 21.966 56.6727 22.2755 56.8275 22.3873C56.965 22.4904 57.2659 22.6538 57.5066 22.7569C57.7388 22.8687 58.0912 23.075 58.2718 23.2212C58.4523 23.3759 58.6844 23.651 58.7876 23.8402C58.9424 24.1325 58.9682 24.3302 58.9682 26.3333L59.3808 26.9351C59.6129 27.2618 59.8537 27.7347 59.9224 27.9668C59.9912 28.1989 60.0428 28.4568 60.0428 28.5256C60.0428 28.5944 59.9912 28.8437 59.9224 29.0844C59.8537 29.3165 59.6129 29.7894 58.9768 30.7179V31.7925C58.9682 32.7898 58.951 32.8929 58.7446 33.254C58.6157 33.4689 58.3835 33.744 58.2288 33.8644C58.0655 33.9934 57.6872 34.2083 57.3777 34.3458C57.0682 34.492 56.7501 34.6811 56.6727 34.7671C56.5954 34.8531 56.4406 35.1196 56.3374 35.3603C56.2343 35.5924 56.0365 35.9535 55.6583 36.5209L56.518 39.1258C56.9908 40.553 57.3777 41.8253 57.3777 41.9543C57.3777 42.0918 57.3261 42.324 57.2659 42.4701C57.1971 42.6249 57.008 42.8828 56.8361 43.0289C56.6039 43.2352 56.3976 43.3298 56.1053 43.3642C55.7786 43.4072 55.5809 43.3728 55.0565 43.1579C54.704 43.0203 54.214 42.8226 53.552 42.5561L52.6923 43.1923C52.1592 43.5877 51.7208 43.8542 51.5317 43.88C51.3683 43.9144 51.0932 43.9058 50.9299 43.8714C50.7665 43.837 50.5688 43.8113 50.5 43.8113C50.4312 43.8113 50.2335 43.837 50.0701 43.8714C49.9068 43.9058 49.6317 43.9144 49.4683 43.88C49.2792 43.8542 48.8408 43.5877 47.448 42.5561L47.0612 42.7108C46.8462 42.7968 46.3734 42.9859 46.0037 43.1321C45.6426 43.2782 45.2386 43.3986 45.101 43.3986C44.9721 43.3986 44.697 43.3126 44.482 43.2095C44.2671 43.0977 44.0092 42.8742 43.8974 42.7108C43.7943 42.5475 43.6825 42.2724 43.6481 42.109C43.6051 41.8683 43.7685 41.2837 45.3417 36.5209L45.1784 36.2802C45.0924 36.1512 44.8861 35.773 44.7141 35.4463C44.5508 35.1196 44.3445 34.7757 44.2585 34.6983C44.1639 34.6209 43.8974 34.4662 43.6653 34.363C43.4246 34.2599 43.0721 34.0621 42.8658 33.9332C42.668 33.7956 42.4015 33.5033 42.2726 33.2712C42.049 32.8929 42.0318 32.807 42.0318 30.7179L41.5934 30.0731C41.3183 29.669 41.1206 29.2478 41.0432 28.9555C40.9486 28.5514 40.9572 28.4138 41.069 28.0098C41.1463 27.7519 41.3441 27.322 41.5246 27.0641C41.7052 26.8062 41.8943 26.4623 41.9631 26.3075C42.0404 26.1184 42.0576 25.8347 42.0233 25.3619C41.9803 24.9234 42.0061 24.5365 42.0748 24.227C42.1694 23.866 42.2812 23.6682 42.5649 23.3845C42.7712 23.1868 43.1581 22.9203 43.4332 22.7999C43.6997 22.6796 44.0264 22.499 44.1639 22.4131C44.3015 22.3185 44.5164 21.9832 44.697 21.6049C44.8603 21.2438 45.1612 20.7968 45.3675 20.5905C45.634 20.3154 45.8404 20.1864 46.1585 20.109C46.3992 20.0574 46.958 20.0145 47.405 20.0317C48.1874 20.0574 48.239 20.0488 48.6344 19.7995C48.858 19.6534 49.2706 19.4213 49.5371 19.2665C49.924 19.0516 50.1303 19 50.5 19V19ZM49.6231 20.9258C49.3738 21.0977 49.0299 21.2954 48.8666 21.3728C48.643 21.4674 48.3077 21.5018 47.577 21.4932C47.0354 21.4932 46.5195 21.5275 46.4422 21.5705C46.3562 21.6135 46.1499 21.9402 45.9865 22.2927C45.8232 22.6452 45.5395 23.0922 45.3675 23.29C45.1698 23.5049 44.7571 23.78 44.3187 23.9949C43.9232 24.1927 43.5621 24.4334 43.5106 24.5279C43.459 24.6311 43.4504 24.975 43.4848 25.3877C43.5277 25.8347 43.5106 26.2474 43.4418 26.5483C43.373 26.8578 43.1839 27.2446 42.9002 27.6573C42.6422 28.0356 42.4617 28.388 42.4703 28.517C42.4703 28.6374 42.668 29.0328 42.9002 29.3853C43.2097 29.8324 43.3644 30.1848 43.4418 30.5459C43.5106 30.8812 43.5277 31.2767 43.4934 31.6635C43.459 31.9902 43.4504 32.3427 43.4762 32.4373C43.5106 32.5404 43.8286 32.7726 44.3187 33.0391C44.7485 33.2798 45.2386 33.6151 45.3933 33.7956C45.5567 33.9676 45.8146 34.3716 45.9779 34.6983C46.1327 35.0164 46.339 35.3431 46.425 35.4377C46.5711 35.5752 46.6657 35.5924 47.3191 35.5322C47.8263 35.4893 48.196 35.5064 48.5227 35.5838C48.8064 35.6526 49.2448 35.8589 49.6403 36.1254C49.9928 36.3576 50.3796 36.5553 50.5 36.5553C50.6204 36.5553 51.0072 36.3576 51.3597 36.1254C51.7122 35.8847 52.2022 35.644 52.4344 35.5838C52.7267 35.5064 53.1049 35.4979 53.6379 35.5408C54.3257 35.5924 54.4289 35.5752 54.575 35.4377C54.661 35.3431 54.8673 35.0164 55.0221 34.6983C55.1854 34.3716 55.4433 33.9676 55.6067 33.7956C55.7614 33.6151 56.2515 33.2798 56.6813 33.0391C57.1714 32.7726 57.4895 32.5404 57.5238 32.4373C57.5496 32.3427 57.541 31.9902 57.5066 31.6635C57.4723 31.2767 57.4895 30.8812 57.5582 30.5459C57.6356 30.1848 57.7903 29.8324 58.0998 29.3853C58.332 29.0328 58.5297 28.6374 58.5297 28.517C58.5383 28.388 58.3578 28.0356 58.0998 27.6573C57.8161 27.2446 57.627 26.8578 57.5582 26.5483C57.4895 26.2474 57.4723 25.8347 57.5152 25.3877C57.5496 24.975 57.541 24.6311 57.4895 24.5279C57.4379 24.4334 57.0768 24.1927 56.6813 23.9949C56.2429 23.78 55.8302 23.5049 55.6325 23.29C55.4605 23.0922 55.1768 22.6452 55.0135 22.2927C54.8501 21.9402 54.6352 21.6135 54.5406 21.5619C54.4461 21.519 53.956 21.4846 53.4402 21.5018C52.804 21.5104 52.4258 21.4846 52.2194 21.3986C52.0561 21.3298 51.6692 21.1149 51.3597 20.9086C51.0502 20.7108 50.7235 20.5303 50.629 20.5045C50.5344 20.4787 50.371 20.4959 50.2593 20.5389C50.1561 20.5819 49.8638 20.7538 49.6145 20.9258H49.6231ZM46.7259 37.0367C45.5137 40.7335 45.187 41.8167 45.2128 41.8339C45.2386 41.8425 45.7458 41.662 46.339 41.4213C46.9322 41.1891 47.4996 40.9914 47.6114 40.9914C47.7145 40.9914 48.196 41.2837 48.729 41.6792C49.2362 42.0574 49.6661 42.3669 49.6919 42.3669C49.7177 42.3669 49.7349 41.3697 49.7349 40.1575L49.7435 37.9394C48.4711 37.1141 48.2304 37.0109 47.9295 36.9937C47.7145 36.9852 47.3621 36.9852 47.1385 37.0023L46.7259 37.0367ZM51.9615 37.4924L51.3167 37.9308C51.2823 41.3697 51.2995 42.3669 51.3253 42.3669C51.3425 42.3669 51.781 42.0574 52.2882 41.6792C52.8126 41.2837 53.2941 40.9914 53.4058 40.9914C53.509 40.9914 54.0936 41.1891 54.6954 41.4299C55.2972 41.662 55.8044 41.8511 55.8216 41.8339C55.8388 41.8253 55.4949 40.7335 55.0651 39.4267C54.3515 37.2345 54.2741 37.0367 54.0936 37.0367C53.9904 37.0367 53.6723 37.0195 53.3886 37.0023C53.0963 36.9766 52.8126 36.9766 52.7438 37.0109C52.6665 37.0367 52.3226 37.2517 51.9615 37.4924ZM40.6391 37.3032C42.135 37.3032 42.6508 37.329 42.8314 37.415C42.9603 37.4752 43.1237 37.6471 43.1839 37.7761C43.2784 37.9738 43.2784 38.0856 43.2097 38.2833C43.1581 38.4295 43.0291 38.5928 42.9174 38.653C42.7798 38.7218 42.0834 38.7648 38.5586 38.7991L38.3523 39.0141C38.2405 39.1344 36.4609 41.9113 34.3976 45.1868C32.3343 48.4623 30.6493 51.1618 30.6493 51.179C30.6493 51.2048 39.5817 51.222 50.5 51.222C61.4269 51.222 70.3593 51.2048 70.3593 51.179C70.3593 51.1618 68.6743 48.4623 66.611 45.1868C64.5477 41.9113 62.7681 39.1344 62.45 38.7991L60.3695 38.7819C58.9252 38.7648 58.2288 38.7218 58.0912 38.653C57.9795 38.5928 57.8505 38.4295 57.7989 38.2833C57.7302 38.0856 57.7302 37.9738 57.8247 37.7761C57.8849 37.6471 58.0569 37.4752 58.1944 37.4064C58.4093 37.3032 58.8306 37.2861 60.5586 37.3118C62.493 37.3376 62.6993 37.3548 63.0518 37.5268C63.2667 37.6213 63.5676 37.8363 63.7138 37.9996C63.8685 38.1544 65.7857 41.129 67.9779 44.6022C70.1788 48.084 72.0444 51.0758 72.1389 51.2649C72.2335 51.4541 72.3624 51.7894 72.414 51.9957C72.4914 52.2794 72.5172 53.5776 72.4914 56.8961C72.4742 61.3408 72.4656 61.4181 72.2851 61.7534C72.1819 61.9426 71.967 62.2177 71.8122 62.3724C71.6575 62.5186 71.3566 62.7249 70.7892 63H30.2194L29.8068 62.7937C29.5832 62.6819 29.2737 62.4584 29.1276 62.3036C28.9728 62.1403 28.7665 61.8394 28.6719 61.6245C28.5086 61.2548 28.5 61.0828 28.5 56.8101C28.5 53.397 28.5258 52.288 28.6118 51.9527C28.6719 51.7206 28.8009 51.3939 28.8783 51.222C28.9642 51.0586 30.8298 48.084 33.0307 44.6022C35.2229 41.129 37.1401 38.1544 37.2948 37.9996C37.441 37.8449 37.6731 37.6557 37.8021 37.5869C37.931 37.5268 38.1803 37.4322 38.3609 37.3892C38.5414 37.3462 39.5645 37.3118 40.6391 37.3032ZM29.9529 54.2309H33.9076C34.2687 54.592 34.346 54.764 34.346 54.9445C34.346 55.1336 34.2773 55.2884 34.1225 55.4345L33.899 55.6495L29.9529 55.6925V61.0227L30.4687 61.5385H70.5485L71.0471 61.0227V55.6925L36.9939 55.6495C36.6673 55.2798 36.5813 55.0735 36.5813 54.9187C36.5813 54.764 36.6587 54.5834 36.7876 54.4459L37.0025 54.2309H71.0557L71.0471 52.7694H29.9529V54.2309ZM40.9314 40.3036C41.0948 40.3036 41.2925 40.3466 41.3871 40.3896C41.4816 40.4412 41.602 40.5959 41.645 40.7335C41.7023 40.9054 41.7023 41.0774 41.645 41.2493C41.602 41.3955 41.4816 41.5502 41.3871 41.5932C41.2925 41.6448 41.0948 41.6792 40.94 41.6792C40.7681 41.6792 40.5875 41.6018 40.4672 41.49C40.3468 41.3697 40.2608 41.1805 40.2522 41C40.2437 40.7937 40.3038 40.6475 40.4414 40.5014C40.5703 40.381 40.7509 40.3036 40.9314 40.3036ZM60.0428 40.3122C60.2405 40.3122 60.4211 40.381 60.5414 40.5014C60.679 40.6303 60.7392 40.7937 60.7392 40.9914C60.7306 41.1891 60.6618 41.3697 60.5414 41.49C60.4125 41.619 60.2491 41.6878 60.0686 41.6878C59.9138 41.6792 59.7075 41.6448 59.6129 41.5932C59.5184 41.5502 59.4066 41.3955 59.355 41.2493C59.3034 41.0774 59.3034 40.914 59.3636 40.7593C59.4152 40.6303 59.5184 40.4756 59.5957 40.4154C59.6731 40.3552 59.8794 40.3036 60.0428 40.3122ZM39.4785 43.923C39.5387 43.923 39.6848 43.9574 39.7966 44.0004C39.917 44.052 40.0717 44.2153 40.1319 44.3701C40.2007 44.5248 40.2265 44.7397 40.2007 44.8515C40.1663 44.9719 40.0459 45.1352 39.9256 45.2212C39.8138 45.3158 39.6161 45.3845 39.4957 45.3845C39.3839 45.3845 39.1862 45.3158 39.0658 45.2212C38.9541 45.1352 38.8337 44.9719 38.7993 44.8515C38.7735 44.7397 38.8079 44.5248 38.8853 44.3701C38.9541 44.2153 39.0916 44.052 39.1948 44.009C39.2894 43.966 39.4183 43.923 39.4785 43.923ZM46.872 43.923C46.9752 43.9144 47.1815 44.0348 47.3191 44.1723C47.4652 44.3185 47.577 44.5076 47.577 44.6022C47.577 44.6968 47.534 44.8601 47.4824 44.9719C47.4222 45.075 47.3191 45.2126 47.2417 45.2642C47.1729 45.3243 46.9838 45.3759 46.829 45.3759C46.6456 45.3759 46.4794 45.3043 46.3304 45.161C46.1929 45.0177 46.1241 44.8544 46.1241 44.671C46.1241 44.5162 46.1757 44.3271 46.2272 44.2583C46.2874 44.1809 46.4078 44.0778 46.5023 44.0176C46.5969 43.966 46.7689 43.923 46.872 43.923ZM54.1108 43.9144C54.2054 43.9144 54.3773 43.966 54.4805 44.0176C54.5836 44.0692 54.7212 44.1809 54.7814 44.2497C54.8329 44.3271 54.8845 44.5162 54.8845 44.671C54.8845 44.8515 54.8158 45.0234 54.6782 45.161C54.532 45.3072 54.3773 45.3759 54.1796 45.3759C54.0248 45.3759 53.8357 45.3243 53.7669 45.2642C53.6895 45.2126 53.5864 45.075 53.5262 44.9719C53.4746 44.8601 53.4316 44.6968 53.4316 44.6022C53.4402 44.499 53.552 44.3099 53.6809 44.1723C53.8185 44.0262 54.0076 43.9144 54.1108 43.9144ZM61.4871 43.923C61.5473 43.923 61.6934 43.9574 61.8052 44.0004C61.9256 44.052 62.0803 44.2153 62.1405 44.3701C62.2093 44.5248 62.2351 44.7397 62.2093 44.8515C62.1749 44.9719 62.0545 45.1352 61.9342 45.2212C61.8224 45.3158 61.6247 45.3845 61.5043 45.3845C61.3925 45.3845 61.1948 45.3158 61.0744 45.2212C60.9627 45.1352 60.8423 44.9719 60.8079 44.8515C60.7821 44.7397 60.8165 44.5248 60.8939 44.3701C60.9627 44.2153 61.1002 44.052 61.2034 44.009C61.298 43.966 61.4269 43.923 61.4871 43.923ZM38.0342 47.6112C38.1546 47.6112 38.3609 47.6886 38.4898 47.7831C38.679 47.9207 38.722 48.0238 38.722 48.2989C38.722 48.5282 38.6646 48.7001 38.55 48.8148C38.4555 48.9093 38.2921 49.0125 38.1889 49.0383C38.0858 49.0641 37.888 49.0469 37.7591 48.9953C37.6129 48.9351 37.4754 48.7804 37.3894 48.5998C37.2948 48.3849 37.2862 48.2474 37.3464 48.084C37.398 47.9723 37.527 47.8175 37.6301 47.7401C37.7333 47.6714 37.9224 47.6112 38.0342 47.6112ZM46.0811 47.6112C46.2788 47.6112 46.4508 47.68 46.5883 47.8261C46.7259 47.9637 46.8032 48.1442 46.8032 48.2989C46.8032 48.4451 46.7775 48.6256 46.7431 48.703C46.7087 48.7804 46.5711 48.8921 46.4422 48.9609C46.3132 49.0211 46.1241 49.0727 46.0295 49.0727C45.9349 49.0727 45.763 48.9867 45.6426 48.8836C45.5309 48.7718 45.4105 48.5741 45.3761 48.4279C45.3417 48.2302 45.3761 48.1098 45.5567 47.8949C45.7372 47.68 45.8576 47.6112 46.0811 47.6112ZM54.9275 47.6112C55.1682 47.6112 55.28 47.6714 55.4605 47.8949C55.6325 48.1098 55.6669 48.2302 55.6325 48.4279C55.5981 48.5741 55.4777 48.7718 55.366 48.8836C55.2456 48.9867 55.0651 49.0727 54.9705 49.0727C54.8759 49.0727 54.6954 49.0211 54.5664 48.9609C54.4375 48.8921 54.2999 48.7804 54.2655 48.703C54.2311 48.6256 54.2054 48.4451 54.2054 48.2989C54.2054 48.1442 54.2913 47.9551 54.4117 47.8261C54.5578 47.68 54.7212 47.6112 54.9275 47.6112ZM62.9658 47.6112C63.0862 47.6112 63.2753 47.6714 63.3785 47.7401C63.4816 47.8175 63.6106 47.9723 63.6536 48.084C63.7224 48.2474 63.7138 48.3849 63.6106 48.5998C63.5332 48.7804 63.3957 48.9351 63.2495 48.9953C63.1206 49.0469 62.9056 49.0641 62.7767 49.0383C62.6477 49.0125 62.4844 48.9007 62.407 48.7976C62.3382 48.6858 62.278 48.4623 62.2694 48.2903C62.2694 48.041 62.3124 47.9293 62.5016 47.7917C62.6305 47.6971 62.8369 47.6112 62.9658 47.6112ZM50.6719 22.714C51.5746 22.7397 51.8583 22.7827 52.3914 22.9719C52.7524 23.0922 53.2511 23.3243 53.509 23.4791C53.7583 23.6338 54.1968 23.9691 54.4805 24.227C54.7642 24.4936 55.1854 24.9922 55.4175 25.3447C55.6669 25.7229 55.942 26.2818 56.0623 26.6772C56.2171 27.1673 56.3031 27.6315 56.3288 28.2677C56.3632 29.0156 56.3374 29.2993 56.1827 29.9011C56.0881 30.3052 55.8818 30.864 55.7442 31.1477C55.6067 31.4314 55.3058 31.8957 55.0823 32.1794C54.8501 32.4631 54.4461 32.8757 54.1882 33.0821C53.9216 33.297 53.4402 33.5979 53.1135 33.7612C52.7868 33.916 52.2366 34.1223 51.8755 34.2169C51.4973 34.3115 50.9385 34.3802 50.5 34.3802C50.0444 34.3802 49.5199 34.3115 49.0815 34.1997C48.7032 34.1051 48.0928 33.8558 47.7145 33.6581C47.2589 33.4259 46.8204 33.0907 46.4164 32.6952C46.0811 32.3685 45.6684 31.8613 45.4965 31.5776C45.3245 31.2939 45.0752 30.7522 44.9463 30.374C44.7313 29.755 44.7055 29.5744 44.7055 28.5256C44.7055 27.4853 44.7227 27.2962 44.9377 26.6772C45.0666 26.2989 45.3245 25.7487 45.5137 25.4564C45.7028 25.1555 46.0295 24.7343 46.2272 24.5193C46.425 24.3044 46.8204 23.9519 47.1041 23.7542C47.3878 23.5479 47.8521 23.2814 48.1358 23.1524C48.4195 23.0234 48.8666 22.8687 49.1245 22.8085C49.4426 22.7225 49.9584 22.6968 50.6719 22.714ZM48.0154 24.9062C47.7661 25.0782 47.3964 25.3962 47.2159 25.6026C47.0268 25.8175 46.7603 26.213 46.6227 26.4881C46.4937 26.7546 46.3218 27.2016 46.2444 27.4767C46.1757 27.7433 46.1155 28.2247 46.1155 28.5256C46.1155 28.8351 46.1757 29.3165 46.253 29.6002C46.3304 29.8839 46.5109 30.3482 46.6657 30.6319C46.8118 30.9156 47.1471 31.3626 47.4136 31.6206C47.6716 31.8785 48.1186 32.2224 48.4023 32.3685C48.686 32.5147 49.1417 32.7038 49.4254 32.7726C49.7091 32.8499 50.1991 32.9101 50.5 32.9101C50.8095 32.9101 51.2909 32.8499 51.5746 32.7812C51.8583 32.7038 52.3226 32.5233 52.6063 32.3685C52.89 32.2224 53.337 31.8785 53.595 31.6206C53.8615 31.3626 54.1968 30.9156 54.3429 30.6319C54.4977 30.3482 54.6782 29.8839 54.7556 29.6002C54.8329 29.3165 54.8931 28.8351 54.8931 28.5256C54.8931 28.2247 54.8329 27.7433 54.7642 27.4767C54.6868 27.2016 54.5063 26.7374 54.3601 26.4451C54.1968 26.1184 53.8787 25.6971 53.5606 25.3877C53.2683 25.1039 52.8126 24.7601 52.5203 24.6225C52.2366 24.485 51.8154 24.3216 51.5746 24.2614C51.3425 24.2013 50.8353 24.1497 50.457 24.1497C49.9498 24.1497 49.6059 24.2013 49.1245 24.3646C48.772 24.4936 48.2733 24.7343 48.0154 24.9062ZM52.8212 26.3419C52.9416 26.3677 53.1307 26.4795 53.2339 26.5998C53.3456 26.7202 53.423 26.9179 53.423 27.0641C53.423 27.2102 53.3456 27.4166 53.2339 27.5369C53.1307 27.6487 52.2108 28.4052 51.1878 29.2134C50.1733 30.0129 49.262 30.6835 49.1674 30.7007C49.0729 30.7179 48.9009 30.7007 48.7806 30.6577C48.6688 30.6147 48.4023 30.417 48.196 30.2192C47.9896 30.0215 47.7747 29.755 47.7059 29.626C47.6372 29.4971 47.577 29.3079 47.577 29.2134C47.577 29.1188 47.6973 28.9297 47.8349 28.7835C47.9725 28.646 48.1702 28.5256 48.2819 28.5256C48.3937 28.5256 48.6258 28.6202 49.1245 28.9555L50.7407 27.6831C51.6262 26.9781 52.4086 26.3849 52.4773 26.3505C52.5547 26.3247 52.7095 26.3247 52.8212 26.3419Z" fill="white"/>
<path d="M23.55 81.112C23.298 81.112 23.0927 81.0513 22.934 80.93C22.7847 80.8087 22.6633 80.6173 22.57 80.356L19.644 72.082C19.5413 71.7833 19.56 71.5313 19.7 71.326C19.8493 71.1207 20.0967 71.018 20.442 71.018C20.694 71.018 20.89 71.0787 21.03 71.2C21.17 71.312 21.282 71.494 21.366 71.746L23.886 79.222H23.326L25.958 71.76C26.0513 71.508 26.168 71.3213 26.308 71.2C26.448 71.0787 26.63 71.018 26.854 71.018C27.078 71.018 27.2553 71.0787 27.386 71.2C27.5167 71.3213 27.6287 71.5127 27.722 71.774L30.27 79.222H29.78L32.342 71.746C32.426 71.5033 32.538 71.3213 32.678 71.2C32.818 71.0787 33.0093 71.018 33.252 71.018C33.5507 71.018 33.77 71.1207 33.91 71.326C34.05 71.5313 34.0687 71.7833 33.966 72.082L31.012 80.37C30.9187 80.622 30.7973 80.8087 30.648 80.93C30.4987 81.0513 30.298 81.112 30.046 81.112C29.794 81.112 29.5933 81.0513 29.444 80.93C29.2947 80.8087 29.1733 80.6173 29.08 80.356L26.644 73.412H26.966L24.502 80.37C24.4087 80.622 24.2873 80.8087 24.138 80.93C23.998 81.0513 23.802 81.112 23.55 81.112ZM36.916 81.14C36.4213 81.14 35.978 81.0467 35.586 80.86C35.2033 80.664 34.9 80.4027 34.676 80.076C34.4613 79.7493 34.354 79.3807 34.354 78.97C34.354 78.466 34.4846 78.0693 34.746 77.78C35.0073 77.4813 35.432 77.2667 36.02 77.136C36.608 77.0053 37.3966 76.94 38.386 76.94H39.086V77.948H38.4C37.8213 77.948 37.3593 77.976 37.014 78.032C36.6686 78.088 36.4213 78.186 36.272 78.326C36.132 78.4567 36.062 78.6433 36.062 78.886C36.062 79.194 36.1693 79.446 36.384 79.642C36.5986 79.838 36.8973 79.936 37.28 79.936C37.588 79.936 37.8586 79.866 38.092 79.726C38.3346 79.5767 38.526 79.376 38.666 79.124C38.806 78.872 38.876 78.5827 38.876 78.256V76.646C38.876 76.1793 38.7733 75.8433 38.568 75.638C38.3626 75.4327 38.0173 75.33 37.532 75.33C37.2613 75.33 36.9673 75.3627 36.65 75.428C36.342 75.4933 36.0153 75.6053 35.67 75.764C35.4926 75.848 35.334 75.8713 35.194 75.834C35.0633 75.7967 34.9606 75.722 34.886 75.61C34.8113 75.4887 34.774 75.358 34.774 75.218C34.774 75.078 34.8113 74.9427 34.886 74.812C34.9606 74.672 35.0866 74.5693 35.264 74.504C35.6933 74.3267 36.104 74.2007 36.496 74.126C36.8973 74.0513 37.2613 74.014 37.588 74.014C38.26 74.014 38.8106 74.1167 39.24 74.322C39.6786 74.5273 40.0053 74.84 40.22 75.26C40.4346 75.6707 40.542 76.2027 40.542 76.856V80.216C40.542 80.5053 40.472 80.7293 40.332 80.888C40.192 81.0373 39.9913 81.112 39.73 81.112C39.4686 81.112 39.2633 81.0373 39.114 80.888C38.974 80.7293 38.904 80.5053 38.904 80.216V79.544H39.016C38.9506 79.8707 38.82 80.1553 38.624 80.398C38.4373 80.6313 38.1993 80.8133 37.91 80.944C37.6206 81.0747 37.2893 81.14 36.916 81.14ZM43.2142 81.112C42.9249 81.112 42.7009 81.0373 42.5422 80.888C42.3929 80.7293 42.3182 80.5053 42.3182 80.216V74.924C42.3182 74.6347 42.3929 74.4153 42.5422 74.266C42.6915 74.1167 42.9015 74.042 43.1722 74.042C43.4429 74.042 43.6529 74.1167 43.8022 74.266C43.9515 74.4153 44.0262 74.6347 44.0262 74.924V75.806H43.8862C44.0169 75.246 44.2735 74.8213 44.6562 74.532C45.0389 74.2427 45.5475 74.07 46.1822 74.014C46.3782 73.9953 46.5322 74.0467 46.6442 74.168C46.7655 74.28 46.8355 74.4573 46.8542 74.7C46.8729 74.9333 46.8169 75.1247 46.6862 75.274C46.5649 75.414 46.3782 75.498 46.1262 75.526L45.8182 75.554C45.2489 75.61 44.8195 75.7873 44.5302 76.086C44.2409 76.3753 44.0962 76.786 44.0962 77.318V80.216C44.0962 80.5053 44.0215 80.7293 43.8722 80.888C43.7229 81.0373 43.5035 81.112 43.2142 81.112ZM48.6966 81.112C48.4073 81.112 48.1833 81.0373 48.0246 80.888C47.8753 80.7293 47.8006 80.5053 47.8006 80.216V74.924C47.8006 74.6347 47.8753 74.4153 48.0246 74.266C48.174 74.1167 48.384 74.042 48.6546 74.042C48.9253 74.042 49.1353 74.1167 49.2846 74.266C49.434 74.4153 49.5086 74.6347 49.5086 74.924V75.806H49.3686C49.4993 75.246 49.756 74.8213 50.1386 74.532C50.5213 74.2427 51.03 74.07 51.6646 74.014C51.8606 73.9953 52.0146 74.0467 52.1266 74.168C52.248 74.28 52.318 74.4573 52.3366 74.7C52.3553 74.9333 52.2993 75.1247 52.1686 75.274C52.0473 75.414 51.8606 75.498 51.6086 75.526L51.3006 75.554C50.7313 75.61 50.302 75.7873 50.0126 76.086C49.7233 76.3753 49.5786 76.786 49.5786 77.318V80.216C49.5786 80.5053 49.504 80.7293 49.3546 80.888C49.2053 81.0373 48.986 81.112 48.6966 81.112ZM55.4687 81.14C54.974 81.14 54.5307 81.0467 54.1387 80.86C53.756 80.664 53.4527 80.4027 53.2287 80.076C53.014 79.7493 52.9067 79.3807 52.9067 78.97C52.9067 78.466 53.0374 78.0693 53.2987 77.78C53.56 77.4813 53.9847 77.2667 54.5727 77.136C55.1607 77.0053 55.9494 76.94 56.9387 76.94H57.6387V77.948H56.9527C56.374 77.948 55.912 77.976 55.5667 78.032C55.2214 78.088 54.974 78.186 54.8247 78.326C54.6847 78.4567 54.6147 78.6433 54.6147 78.886C54.6147 79.194 54.722 79.446 54.9367 79.642C55.1514 79.838 55.45 79.936 55.8327 79.936C56.1407 79.936 56.4114 79.866 56.6447 79.726C56.8874 79.5767 57.0787 79.376 57.2187 79.124C57.3587 78.872 57.4287 78.5827 57.4287 78.256V76.646C57.4287 76.1793 57.326 75.8433 57.1207 75.638C56.9154 75.4327 56.57 75.33 56.0847 75.33C55.814 75.33 55.52 75.3627 55.2027 75.428C54.8947 75.4933 54.568 75.6053 54.2227 75.764C54.0454 75.848 53.8867 75.8713 53.7467 75.834C53.616 75.7967 53.5134 75.722 53.4387 75.61C53.364 75.4887 53.3267 75.358 53.3267 75.218C53.3267 75.078 53.364 74.9427 53.4387 74.812C53.5134 74.672 53.6394 74.5693 53.8167 74.504C54.246 74.3267 54.6567 74.2007 55.0487 74.126C55.45 74.0513 55.814 74.014 56.1407 74.014C56.8127 74.014 57.3634 74.1167 57.7927 74.322C58.2314 74.5273 58.558 74.84 58.7727 75.26C58.9874 75.6707 59.0947 76.2027 59.0947 76.856V80.216C59.0947 80.5053 59.0247 80.7293 58.8847 80.888C58.7447 81.0373 58.544 81.112 58.2827 81.112C58.0214 81.112 57.816 81.0373 57.6667 80.888C57.5267 80.7293 57.4567 80.5053 57.4567 80.216V79.544H57.5687C57.5034 79.8707 57.3727 80.1553 57.1767 80.398C56.99 80.6313 56.752 80.8133 56.4627 80.944C56.1734 81.0747 55.842 81.14 55.4687 81.14ZM61.7389 81.112C61.4589 81.112 61.2443 81.0373 61.0949 80.888C60.9456 80.7293 60.8709 80.5053 60.8709 80.216V74.924C60.8709 74.6347 60.9456 74.4153 61.0949 74.266C61.2443 74.1167 61.4543 74.042 61.7249 74.042C61.9956 74.042 62.2056 74.1167 62.3549 74.266C62.5043 74.4153 62.5789 74.6347 62.5789 74.924V75.876L62.4249 75.526C62.6303 75.0313 62.9476 74.658 63.3769 74.406C63.8156 74.1447 64.3103 74.014 64.8609 74.014C65.4116 74.014 65.8643 74.1167 66.2189 74.322C66.5736 74.5273 66.8396 74.84 67.0169 75.26C67.1943 75.6707 67.2829 76.1933 67.2829 76.828V80.216C67.2829 80.5053 67.2083 80.7293 67.0589 80.888C66.9096 81.0373 66.6949 81.112 66.4149 81.112C66.1349 81.112 65.9156 81.0373 65.7569 80.888C65.6076 80.7293 65.5329 80.5053 65.5329 80.216V76.912C65.5329 76.38 65.4303 75.9927 65.2249 75.75C65.0289 75.5073 64.7209 75.386 64.3009 75.386C63.7876 75.386 63.3769 75.5493 63.0689 75.876C62.7703 76.1933 62.6209 76.618 62.6209 77.15V80.216C62.6209 80.8133 62.3269 81.112 61.7389 81.112ZM72.1964 81.14C71.5897 81.14 71.0811 81.0373 70.6704 80.832C70.2691 80.6267 69.9704 80.328 69.7744 79.936C69.5784 79.5347 69.4804 79.04 69.4804 78.452V75.47H68.7524C68.5284 75.47 68.3557 75.414 68.2344 75.302C68.1131 75.1807 68.0524 75.0173 68.0524 74.812C68.0524 74.5973 68.1131 74.434 68.2344 74.322C68.3557 74.21 68.5284 74.154 68.7524 74.154H69.4804V72.88C69.4804 72.5907 69.5551 72.3713 69.7044 72.222C69.8631 72.0727 70.0824 71.998 70.3624 71.998C70.6424 71.998 70.8571 72.0727 71.0064 72.222C71.1557 72.3713 71.2304 72.5907 71.2304 72.88V74.154H72.7144C72.9384 74.154 73.1111 74.21 73.2324 74.322C73.3537 74.434 73.4144 74.5973 73.4144 74.812C73.4144 75.0173 73.3537 75.1807 73.2324 75.302C73.1111 75.414 72.9384 75.47 72.7144 75.47H71.2304V78.354C71.2304 78.802 71.3284 79.138 71.5244 79.362C71.7204 79.586 72.0377 79.698 72.4764 79.698C72.6351 79.698 72.7751 79.684 72.8964 79.656C73.0177 79.628 73.1251 79.6093 73.2184 79.6C73.3304 79.5907 73.4237 79.628 73.4984 79.712C73.5731 79.7867 73.6104 79.9453 73.6104 80.188C73.6104 80.3747 73.5777 80.5427 73.5124 80.692C73.4564 80.832 73.3491 80.93 73.1904 80.986C73.0691 81.0233 72.9104 81.056 72.7144 81.084C72.5184 81.1213 72.3457 81.14 72.1964 81.14ZM76.2788 83.632C76.0735 83.632 75.9055 83.576 75.7748 83.464C75.6441 83.3613 75.5648 83.2213 75.5368 83.044C75.5181 82.8667 75.5508 82.68 75.6348 82.484L76.5868 80.37V81.098L74.0388 75.204C73.9548 74.9987 73.9268 74.8073 73.9548 74.63C73.9828 74.4527 74.0668 74.3127 74.2068 74.21C74.3561 74.098 74.5568 74.042 74.8088 74.042C75.0235 74.042 75.1961 74.0933 75.3268 74.196C75.4575 74.2893 75.5741 74.4713 75.6768 74.742L77.5668 79.46H77.1468L79.0788 74.728C79.1815 74.4667 79.3028 74.2893 79.4428 74.196C79.5828 74.0933 79.7695 74.042 80.0028 74.042C80.2081 74.042 80.3715 74.098 80.4928 74.21C80.6141 74.3127 80.6888 74.4527 80.7168 74.63C80.7448 74.798 80.7121 74.9847 80.6188 75.19L77.2168 82.96C77.0955 83.2213 76.9648 83.3987 76.8248 83.492C76.6848 83.5853 76.5028 83.632 76.2788 83.632Z" fill="white"/>
</svg>
