<svg width="36" height="19" viewBox="0 0 36 19" fill="none" xmlns="http://www.w3.org/2000/svg">
<path d="M32.1219 14.2827C32.0764 15.6135 30.9623 16.7637 29.6332 16.8513C28.304 16.9389 27.2643 15.9311 27.3103 14.5985C27.3562 13.266 28.4702 12.1171 29.7985 12.0295C31.1268 11.9419 32.1678 12.951 32.1219 14.2827Z" stroke="white" stroke-width="1.41"/>
<path d="M25.0342 13.4883L25.0343 13.4883L25.0348 13.4746L25.3996 2.82043C25.4044 2.75439 25.4323 2.69208 25.4784 2.64443C25.5245 2.59683 25.5858 2.56696 25.6515 2.55992L30.0936 2.26692C30.0937 2.26691 30.0938 2.26691 30.0939 2.2669C30.1935 2.26052 30.3524 2.287 30.5231 2.36265C30.6962 2.43937 30.8074 2.53362 30.8518 2.59285L34.784 7.84184C34.8554 7.93719 34.9457 8.11833 35.0156 8.34885C35.0849 8.57754 35.1142 8.78936 35.109 8.92823L35.1089 8.93102L34.9817 12.6547C34.9768 12.7209 34.9489 12.7834 34.9027 12.8312C34.8565 12.8789 34.795 12.9089 34.7291 12.916L33.88 12.973C33.394 11.2022 31.7594 9.99252 29.7921 10.1223C27.8179 10.2525 26.1369 11.69 25.59 13.529L25.124 13.5601L25.1168 13.5606L25.1096 13.5613C25.0997 13.5621 25.0897 13.5608 25.0803 13.5575C25.0709 13.5542 25.0624 13.5489 25.0552 13.542C25.0481 13.5351 25.0425 13.5267 25.0389 13.5175C25.0352 13.5082 25.0336 13.4983 25.0342 13.4883Z" stroke="white" stroke-width="1.41"/>
<path d="M14.8247 15.4257C14.7792 16.7569 13.6647 17.9071 12.336 17.9947C11.0073 18.0823 9.9672 17.0745 10.0127 15.7419C10.0582 14.4094 11.1727 13.2579 12.5014 13.1729C13.8301 13.0879 14.8702 14.0923 14.8247 15.4257Z" stroke="white" stroke-width="1.41"/>
<path d="M22.7526 0.705981L22.7446 0.706507L22.3569 0.731991L22.3566 0.732011L21.2454 0.805524L21.2452 0.805532L7.5014 1.71239C7.43571 1.71932 7.37448 1.74911 7.32845 1.79664C7.28237 1.84422 7.25455 1.90646 7.24977 1.97241L7.22884 2.57608L7.20675 3.21314L6.57069 3.25512L0.735122 3.64022L0.732271 3.6404L0.73227 3.6404C0.728441 3.64064 0.724696 3.64163 0.72125 3.64332C0.717807 3.64501 0.71473 3.64737 0.712201 3.65026C0.709671 3.65315 0.70774 3.65651 0.706516 3.66014L22.7526 0.705981ZM22.7526 0.705981L22.7606 0.705273M22.7526 0.705981L22.7606 0.705273M22.7606 0.705273C22.7706 0.704387 22.7807 0.705664 22.7901 0.709012C22.7996 0.712362 22.8082 0.717707 22.8154 0.724686C22.8226 0.731662 22.8282 0.740109 22.8319 0.749453C22.8355 0.758796 22.8371 0.768814 22.8366 0.778826L22.8361 0.7867L22.8359 0.794582L22.4009 13.4984C22.396 13.5644 22.368 13.6267 22.3219 13.6743C22.2757 13.7219 22.2143 13.7518 22.1484 13.7588L21.7706 13.7837L21.7703 13.7837L20.6584 13.8572L20.6584 13.8572L18.4329 14.0043L18.4324 14.0043L17.9781 14.034L17.9776 14.034L16.5882 14.1258C16.1059 12.3492 14.467 11.1346 12.4979 11.2644C10.5227 11.3946 8.84144 12.8337 8.295 14.6727L6.90364 14.7647L6.89642 14.7652L6.88922 14.7658C6.87919 14.7667 6.8691 14.7654 6.85961 14.762C6.85013 14.7587 6.84148 14.7533 6.83425 14.7463C6.82701 14.7393 6.82137 14.7308 6.8177 14.7214C6.81402 14.7121 6.8124 14.702 6.81295 14.692L6.81333 14.6849L6.81358 14.6778L6.90794 11.9107L6.93449 11.1319L6.15696 11.1832L2.21162 11.4433L2.21013 11.4434M22.7606 0.705273L2.21013 11.4434M6.4492 4.74234L6.51953 4.73771L6.47326 4.03424L5.76866 4.0103L5.76627 4.08074L0.792838 4.40786L6.4492 4.74234ZM6.4492 4.74234L6.34574 7.78789L6.4492 4.74234ZM4.1921 8.70136L4.1926 8.70133L6.24688 8.56531L7.02485 8.5138L6.99804 9.29302L6.95894 10.4296L6.93701 11.0669L6.30073 11.1088L2.20024 11.3792L2.19784 11.3793C2.19396 11.3796 2.19016 11.3806 2.18667 11.3823C2.18318 11.384 2.18006 11.3864 2.1775 11.3893C2.17493 11.3923 2.17297 11.3957 2.17173 11.3994L4.1921 8.70136ZM4.1921 8.70136C4.18198 8.70204 4.172 8.69869 4.16435 8.69204C4.1571 8.68574 4.15248 8.67697 4.15137 8.66746L4.1921 8.70136ZM2.21013 11.4434C2.20022 11.4441 2.19044 11.4408 2.18295 11.4343C2.17573 11.4281 2.17118 11.4193 2.17021 11.4098L2.21013 11.4434ZM0.7179 3.69524C0.710606 3.6889 0.70601 3.68004 0.705019 3.67046L4.15291 8.65735C4.15415 8.65366 4.15612 8.65025 4.15868 8.64733C4.16125 8.6444 4.16437 8.64201 4.16786 8.64029C4.17135 8.63858 4.17515 8.63757 4.17904 8.63734L4.18186 8.63715L6.39214 8.49136L7.02868 8.44937L7.05033 7.81182L7.17785 4.05817L7.2043 3.27963L6.42699 3.33075L0.746567 3.70438L0.745369 3.70446C0.735357 3.70513 0.725481 3.70182 0.7179 3.69524Z" stroke="white" stroke-width="1.41"/>
</svg>
